<?xml version="1.0" encoding="utf-8"?>
<!-- Generator: Adobe Illustrator 22.1.0, SVG Export Plug-In . SVG Version: 6.00 Build 0)  -->
<svg version="1.1" id="Layer_1" xmlns="http://www.w3.org/2000/svg" xmlns:xlink="http://www.w3.org/1999/xlink" x="0px" y="0px"
	 viewBox="0 0 838.4 487.1" style="enable-background:new 0 0 838.4 487.1;" xml:space="preserve">
<style type="text/css">
	.st0{font-family:'MyriadPro-BoldSemiExt';}
	.st1{font-size:60.2771px;}
	.st2{fill:none;stroke:#000000;stroke-width:26;stroke-miterlimit:10;}
</style>
<g>
	<g>
		<path d="M813.8,412L813.8,412c-7,0-12.8-5.6-13-12.6C794.1,192.4,623.6,26,415,26C206.4,26,35.9,192.4,29.2,399.4
			c-0.2,7-6,12.6-13,12.6h0c-7.3,0-13.2-6.1-13-13.4c1.6-50.9,12.4-100.3,32.2-147c20.7-49.1,50.5-93.1,88.3-131
			c37.8-37.8,81.9-67.5,131-88.3C305.4,10.9,359.4,0,415,0c55.6,0,109.6,10.9,160.4,32.4c49.1,20.7,93.1,50.5,131,88.3
			c37.8,37.8,67.5,81.9,88.3,131c19.8,46.7,30.6,96.1,32.2,147C827,405.9,821.1,412,813.8,412z"/>
	</g>
	<text transform="matrix(1 0 0 1 0 472.0059)" class="st0 st1">POOR</text>
	<text transform="matrix(1 0 0 1 651 472.0059)" class="st0 st1">GOOD</text>
	<g>
		<path class="st2" d="M695.1,89.8L426,358l53,44L701.9,95.6C705.1,91.1,699,85.9,695.1,89.8z"/>
		<circle class="st2" cx="415" cy="419" r="53"/>
	</g>
</g>
</svg>
