<?xml version="1.0" encoding="utf-8"?>
<!-- Generator: Adobe Illustrator 22.1.0, SVG Export Plug-In . SVG Version: 6.00 Build 0)  -->
<svg version="1.1" id="Layer_1" xmlns="http://www.w3.org/2000/svg" xmlns:xlink="http://www.w3.org/1999/xlink" x="0px" y="0px"
	 viewBox="0 0 505 487" style="enable-background:new 0 0 505 487;" xml:space="preserve">
<g>
	<g>
		<path d="M253.1,244.9c-2.1,0-4.3-0.4-6.3-1.3L9,136.8c-5.6-2.5-9-7.8-9-13.9c0-6.1,3.4-11.5,9-14L246.8,1.4c4-1.8,8.6-1.8,12.6,0
			L496,108.9c5.5,2.5,9,7.9,9,14c0,6.1-3.5,11.4-9,13.9L259.4,243.5C257.4,244.4,255.3,244.9,253.1,244.9z M254.2,227.1L254.2,227.1
			C254.3,227.1,254.2,227.1,254.2,227.1z M21.9,122.9l231.3,103.7l230-103.7l-230-104.6L21.9,122.9z"/>
	</g>
	<g>
		<g>
			<path d="M63.3,258.5h-18V143.3l211.9-19.8c4.9-0.5,9.3,3.2,9.8,8.1v0c0.5,4.9-3.2,9.3-8.1,9.8L63.3,159.7V258.5z"/>
		</g>
	</g>
	<g>
		<path d="M54.6,320.5c-18.3,0-33.2-14.9-33.2-33.2s14.9-33.2,33.2-33.2s33.2,14.9,33.2,33.2S72.9,320.5,54.6,320.5z M54.6,272.1
			c-8.4,0-15.2,6.8-15.2,15.2s6.8,15.2,15.2,15.2s15.2-6.8,15.2-15.2S63,272.1,54.6,272.1z"/>
	</g>
	<g>
		<polygon points="181.8,326.8 112.6,306.9 112.6,178.1 130.6,178.1 130.6,293.4 186.8,309.5 		"/>
	</g>
	<g>
		<path d="M477,487H202.3c-15.4,0-28-12.6-28-28V297c0-15.4,12.6-28,28-28H477c15.4,0,28,12.6,28,28v162
			C505,474.4,492.4,487,477,487z M202.3,287c-5.5,0-10,4.5-10,10v162c0,5.5,4.5,10,10,10H477c5.5,0,10-4.5,10-10V297
			c0-5.5-4.5-10-10-10H202.3z"/>
	</g>
	<g>
		<path d="M445.7,360.3H233.9c-9.7,0-17.6-7.9-17.6-17.6v-19.5c0-9.7,7.9-17.6,17.6-17.6h211.8c9.7,0,17.6,7.9,17.6,17.6v19.5
			C463.3,352.4,455.4,360.3,445.7,360.3z M234.3,342.3h211v-18.7h-211V342.3z"/>
	</g>
	<g>
		<path d="M377,448.9c-17.4,0-31.5-14.1-31.5-31.5s14.1-31.5,31.5-31.5s31.5,14.1,31.5,31.5S394.4,448.9,377,448.9z M377,402.6
			c-8.2,0-14.8,6.6-14.8,14.8s6.6,14.8,14.8,14.8s14.8-6.6,14.8-14.8S385.2,402.6,377,402.6z"/>
	</g>
	<g>
		<path d="M431.2,448.9c-17.4,0-31.5-14.1-31.5-31.5s14.1-31.5,31.5-31.5s31.5,14.1,31.5,31.5S448.5,448.9,431.2,448.9z
			 M431.2,402.6c-8.2,0-14.8,6.6-14.8,14.8s6.6,14.8,14.8,14.8s14.8-6.6,14.8-14.8S439.3,402.6,431.2,402.6z"/>
	</g>
	<g>
		<rect x="422.2" y="156.2" width="18" height="121.8"/>
	</g>
</g>
</svg>
