<?xml version="1.0" encoding="utf-8"?>
<!-- Generator: Adobe Illustrator 22.1.0, SVG Export Plug-In . SVG Version: 6.00 Build 0)  -->
<svg version="1.1" id="Layer_1" xmlns="http://www.w3.org/2000/svg" xmlns:xlink="http://www.w3.org/1999/xlink" x="0px" y="0px"
	 viewBox="0 0 821.5 766.5" style="enable-background:new 0 0 821.5 766.5;" xml:space="preserve">
<g>
	<path d="M411.8,766.5H44.2C19.8,766.5,0,746.7,0,722.3V426.7c0-24.4,19.8-44.2,44.2-44.2h367.7c24.4,0,44.2,19.8,44.2,44.2v295.7
		C456,746.8,436.1,766.5,411.8,766.5z M44.2,408.5c-10,0-18.2,8.2-18.2,18.2v295.6c0,10,8.2,18.2,18.2,18.2h367.6
		c10,0,18.2-8.2,18.3-18.2V426.7c0-10-8.2-18.2-18.2-18.2H44.2z"/>
</g>
<g>
	<rect x="18" y="407.5" width="414" height="20"/>
</g>
<g>
	<path d="M133.5,579.5h-49c-8.5,0-15.5-7-15.5-15.5v-49c0-8.5,7-15.5,15.5-15.5h49c8.5,0,15.5,7,15.5,15.5v49
		C149,572.5,142,579.5,133.5,579.5z M89,559.5h40v-40H89V559.5z"/>
</g>
<g>
	<path d="M251,579.5h-49c-8.5,0-15.5-7-15.5-15.5v-49c0-8.5,7-15.5,15.5-15.5h49c8.5,0,15.5,7,15.5,15.5v49
		C266.5,572.5,259.5,579.5,251,579.5z M206.5,559.5h40v-40h-40V559.5z"/>
</g>
<g>
	<path d="M368.5,579.5h-49c-8.5,0-15.5-7-15.5-15.5v-49c0-8.5,7-15.5,15.5-15.5h49c8.5,0,15.5,7,15.5,15.5v49
		C384,572.5,377,579.5,368.5,579.5z M324,559.5h40v-40h-40V559.5z"/>
</g>
<g>
	<path d="M133.5,695.5h-49c-8.5,0-15.5-7-15.5-15.5v-49c0-8.5,7-15.5,15.5-15.5h49c8.5,0,15.5,7,15.5,15.5v49
		C149,688.5,142,695.5,133.5,695.5z M89,675.5h40v-40H89V675.5z"/>
</g>
<g>
	<path d="M251,695.5h-49c-8.5,0-15.5-7-15.5-15.5v-49c0-8.5,7-15.5,15.5-15.5h49c8.5,0,15.5,7,15.5,15.5v49
		C266.5,688.5,259.5,695.5,251,695.5z M206.5,675.5h40v-40h-40V675.5z"/>
</g>
<g>
	<path d="M368.5,695.5h-49c-8.5,0-15.5-7-15.5-15.5v-49c0-8.5,7-15.5,15.5-15.5h49c8.5,0,15.5,7,15.5,15.5v49
		C384,688.5,377,695.5,368.5,695.5z M324,675.5h40v-40h-40V675.5z"/>
</g>
<g>
	<path d="M102,332.5v56c0,8.8-7.2,16-16,16l0,0c-8.8,0-16-7.2-16-16v-56c0-8.8,7.2-16,16-16l0,0C94.8,316.5,102,323.7,102,332.5z"/>
</g>
<g>
	<path d="M383,332.5v56c0,8.8-7.2,16-16,16l0,0c-8.8,0-16-7.2-16-16v-56c0-8.8,7.2-16,16-16l0,0C375.8,316.5,383,323.7,383,332.5z"
		/>
</g>
<g>
	<path d="M499,646l0-26c163.5-0.3,296.5-133.5,296.5-297c0-163.8-133.2-297-297-297c-163.5,0-296.7,133-297,296.5l-26,0
		c0.2-86.2,33.8-167.2,94.8-228.1C331.3,33.5,412.3,0,498.5,0c86.3,0,167.4,33.6,228.4,94.6c61,61,94.6,142.1,94.6,228.4
		c0,86.2-33.5,167.2-94.4,228.2C666.2,612.2,585.2,645.8,499,646z"/>
</g>
<g>
	<path d="M619.7,420.3L507,307.6V94.1c0-7.2-5.8-13-13-13s-13,5.8-13,13v224.7h1l-0.3,0.3l119.6,119.6c5.1,5.1,13.3,5.1,18.4,0
		C624.8,433.6,624.8,425.4,619.7,420.3z"/>
	<path d="M610.5,442.5c-3.5,0-6.7-1.4-9.2-3.8L481.7,319.1l0.3-0.3h-1V94.1c0-3.5,1.4-6.8,3.8-9.2c2.5-2.5,5.7-3.8,9.2-3.8
		s6.8,1.4,9.2,3.8c2.5,2.5,3.8,5.7,3.8,9.2v213.5l112.7,112.7c2.5,2.5,3.8,5.7,3.8,9.2s-1.4,6.7-3.8,9.2
		C617.2,441.2,614,442.5,610.5,442.5z M481.7,319.1l119.6,119.6c5.1,5.1,13.3,5.1,18.4,0c5.1-5.1,5.1-13.3,0-18.4L507,307.6V94.1
		c0-7.2-5.8-13-13-13s-13,5.8-13,13v224.7h1L481.7,319.1z"/>
</g>
</svg>
