<svg xmlns="http://www.w3.org/2000/svg" width="8.627" height="8.314" viewBox="0 0 8.627 8.314">
  <g id="knowledge" transform="translate(0.004 -8.435)">
    <g id="Group_10" data-name="Group 10" transform="translate(2.082 9.474)">
      <g id="Group_9" data-name="Group 9" transform="translate(0 0)">
        <path id="Path_51" data-name="Path 51" d="M115.588,68.453a2.04,2.04,0,0,0,1.272-1.921,2.231,2.231,0,0,0-4.454,0,2.04,2.04,0,0,0,1.272,1.921l.017.009.118.193a.755.755,0,0,0,.226,1.421h1.188a.786.786,0,0,0,.226-1.421l.118-.193Zm-.361,1.327H114.04a.148.148,0,0,1,0-.3h1.188a.148.148,0,1,1,0,.3Zm0-.594H114.04a.148.148,0,1,1,0-.3h1.188a.148.148,0,1,1,0,.3Zm.226-1-.059.032a.149.149,0,0,0-.056.053l-.194.319h-.065V67.466l.7-.7-.21-.21-.742.742a.148.148,0,0,0-.044.1v1.188h-.3V67.4a.149.149,0,0,0-.044-.1l-.742-.742-.21.21.7.7v1.126h-.065l-.194-.319a.149.149,0,0,0-.056-.053l-.059-.032-.015-.007a1.748,1.748,0,0,1-1.1-1.649,1.935,1.935,0,0,1,3.86,0,1.748,1.748,0,0,1-1.1,1.649Z" transform="translate(-112.407 -64.435)"/>
      </g>
    </g>
    <g id="Group_12" data-name="Group 12" transform="translate(1.125 9.49)">
      <g id="Group_11" data-name="Group 11" transform="translate(0 0)">
        <rect id="Rectangle_2" data-name="Rectangle 2" width="0.297" height="0.996" transform="translate(0 0.266) rotate(-63.435)"/>
      </g>
    </g>
    <g id="Group_14" data-name="Group 14" transform="translate(6.435 9.547)">
      <g id="Group_13" data-name="Group 13" transform="translate(0 0)">
        <rect id="Rectangle_3" data-name="Rectangle 3" width="0.996" height="0.297" transform="translate(0 0.315) rotate(-18.446)"/>
      </g>
    </g>
    <g id="Group_16" data-name="Group 16" transform="translate(0.598 11.404)">
      <g id="Group_15" data-name="Group 15" transform="translate(0 0)">
        <rect id="Rectangle_4" data-name="Rectangle 4" width="0.891" height="0.297"/>
      </g>
    </g>
    <g id="Group_18" data-name="Group 18" transform="translate(7.13 11.404)">
      <g id="Group_17" data-name="Group 17" transform="translate(0 0)">
        <rect id="Rectangle_5" data-name="Rectangle 5" width="0.891" height="0.297"/>
      </g>
    </g>
    <g id="Group_20" data-name="Group 20" transform="translate(1.125 13.201)">
      <g id="Group_19" data-name="Group 19" transform="translate(0 0)">
        <rect id="Rectangle_6" data-name="Rectangle 6" width="0.996" height="0.297" transform="translate(0 0.445) rotate(-26.565)"/>
      </g>
    </g>
    <g id="Group_22" data-name="Group 22" transform="translate(6.47 13.202)">
      <g id="Group_21" data-name="Group 21" transform="translate(0 0)">
        <rect id="Rectangle_7" data-name="Rectangle 7" width="0.297" height="0.996" transform="translate(0 0.266) rotate(-63.435)"/>
      </g>
    </g>
    <g id="Group_24" data-name="Group 24" transform="translate(4.161 8.435)">
      <g id="Group_23" data-name="Group 23" transform="translate(0 0)">
        <rect id="Rectangle_8" data-name="Rectangle 8" width="0.297" height="0.742"/>
      </g>
    </g>
    <g id="Group_26" data-name="Group 26" transform="translate(0.004 15.116)">
      <g id="Group_25" data-name="Group 25">
        <path id="Path_52" data-name="Path 52" d="M9.029,368.732v-.3c-1.937,0-4,.468-4.008,1.336H4.426c-.013-.868-2.072-1.336-4.008-1.336v.3c2.175,0,3.694.546,3.711,1.039H.418v.3H9.029v-.3H5.318C5.335,369.278,6.854,368.732,9.029,368.732Z" transform="translate(-0.418 -368.435)"/>
      </g>
    </g>
    <g id="Group_28" data-name="Group 28" transform="translate(-0.004 15.858)">
      <g id="Group_27" data-name="Group 27" transform="translate(0)">
        <rect id="Rectangle_9" data-name="Rectangle 9" width="0.297" height="2.825" transform="translate(0 0.297) rotate(-86.985)"/>
      </g>
    </g>
    <g id="Group_30" data-name="Group 30" transform="translate(5.786 15.858)">
      <g id="Group_29" data-name="Group 29" transform="translate(0 0)">
        <rect id="Rectangle_10" data-name="Rectangle 10" width="2.825" height="0.297" transform="translate(0 0.149) rotate(-3.021)"/>
      </g>
    </g>
  </g>
</svg>
