<?xml version="1.0" encoding="utf-8"?>
<!-- Generator: Adobe Illustrator 22.1.0, SVG Export Plug-In . SVG Version: 6.00 Build 0)  -->
<svg version="1.1" id="Layer_1" xmlns="http://www.w3.org/2000/svg" xmlns:xlink="http://www.w3.org/1999/xlink" x="0px" y="0px"
	 viewBox="0 0 829.3 829.1" style="enable-background:new 0 0 829.3 829.1;" xml:space="preserve">
<g>
	<path d="M0.2,334.6c0-106.2,0-212.4-0.1-318.7c0-7.2,2.8-12.1,9.1-15.1c0.8-0.4,1.6-0.6,2.5-0.7C13.5,0,15.3,0,17,0
		c191.6,0,383.3,0,574.9,0c10.7,0,15.9,5.2,15.9,16c0,17.4,0,34.9,0,52.3c0,7.2-3.8,12.2-10.5,14c-5.9,1.6-12.1-0.9-15.2-6.5
		c-1.2-2.3-1.9-5.1-1.9-7.7c-0.2-12.2-0.1-24.4,0-36.6c0-3.8-0.1-4-4-4c-180.1,0-360.3,0-540.4,0c-1.9,0-3.8,0-5.6,0
		c-1.8-0.1-2.5,0.7-2.5,2.5c0.1,1.8,0,3.6,0,5.4c0,203.5,0,407.1-0.1,610.6c0,9.7,1.8,18.7,7.5,26.7c9.1,12.6,21.5,19,37,17.8
		c16.4-1.3,28.2-9.9,35.1-25.1c2.4-5.2,3.3-10.7,3.3-16.5c0-8.3,0-16.6,0-24.9c0.1-18.8,0.2-37.6,0.2-56.4c0-14.9-0.2-29.9-0.2-44.8
		c0-17.4,0.2-34.9,0.2-52.3c0-15.2-0.2-30.5-0.2-45.7c0-17.1,0.2-34.3,0.2-51.4c0-16.1-0.2-32.3-0.2-48.4c0-16.3,0.2-32.7,0.2-49
		c0-16.1-0.2-32.3-0.2-48.4c0-17.4-0.4-34.9,0.4-52.3c0.9-19.6,9.5-35.7,24.4-48.4c10.9-9.3,23.7-14.7,38-15.9
		c19.4-1.6,36.8,3.9,51.7,16.7c9.9,8.6,17,19.2,20.6,31.7c2,7,3.1,14.4,3.1,21.6c0.3,48.5,0.1,96.9,0.1,145.4c0,45,0.1,90,0.1,135
		c0,41.2-0.1,82.4-0.1,123.7c0,34.5,0.1,69,0.1,103.4c0,36.1,0,72.1,0,108.2c0,4.7,0,4.7,4.8,4.7c76.1,0,152.2,0,228.3,0
		c6.3,0,11.2,2.1,14.1,7.9c3.2,6.3,0.6,14.7-5.8,17.9c-2.3,1.1-5,1.7-7.6,1.7c-82.2,0.1-164.5,0-246.7,0.2
		c-8.9,0-14.9-7.5-14.8-14.9c0.2-22.4,0.1-44.8,0.1-67.2c0-8.3-0.1-16.6,0.1-25c0-2.9-1.1-3.7-3.9-3.7c-18.2,0.2-36.4,0.2-54.7,0.3
		c-3.4,0-6.7-0.2-10.1-0.2c-8.1,0-14.2-5.7-14.3-13.5s5.8-13.8,13.9-13.9c12-0.1,24,0,36,0c9.7,0,19.4,0,29.1,0c3.5,0,3.8-0.4,3.8-4
		c0-52.3,0-104.6,0-157c0-74.5,0-149,0-223.5c0-41.5,0-83,0-124.6c0-18.3-8-31.7-24.5-39.8c-19.3-9.5-45-0.2-54.1,19.3
		c-2.9,6.3-4.4,12.9-4.4,19.8c0,95.1,0,190.3,0,285.4c0,60.5,0,121.1,0,181.6c0,24.8-10.2,44.6-30.7,58.5
		c-15.2,10.3-32.1,14.1-50.4,10.6c-26.4-5.1-43.9-20.7-53.3-45.6C1.1,664.6,0,657.1,0,649.3C0.2,544.3,0.2,439.5,0.2,334.6z"/>
	<path d="M580.3,828.8c-13.6,0-27.2-0.3-40.7,0.1c-8.5,0.3-14.8-7.7-14.6-14.6c0.3-13.5,0.3-26.9,0.3-40.4c0-14.1-0.1-28.1-0.1-42.2
		c0-4.1,2-7.3,4.8-10.2c16-16,32-31.9,47.9-47.9c43.7-43.7,87.5-87.4,131.1-131.2c12.9-12.9,28.2-18.8,46.3-16.3
		c9.9,1.3,18.8,5.3,26,12.1c11.8,11.2,23.2,22.7,34.5,34.5c6.1,6.4,9.7,14.3,12,22.9c1.7,6.3,1.9,12.7,0.7,18.8
		c-2.2,11.8-8.2,21.9-16.9,30.4c-13.6,13.3-26.9,26.9-40.4,40.3c-45.5,45.5-90.9,90.9-136.4,136.4c-1,1-1.9,2-3,2.9
		c-3.1,2.8-6.4,4.5-10.9,4.5C607.5,828.7,593.9,828.8,580.3,828.8z M755.2,661.7c-0.7-0.9-1.2-1.6-1.8-2.2
		c-5.8-5.8-11.7-11.6-17.4-17.5c-1.8-1.9-3-1.5-4.6,0.2C693,680.7,654.5,719.1,616,757.5c-1.9,1.9-1.7,3,0.1,4.8
		c5.8,5.6,11.5,11.2,17,17c1.9,2,3.1,1.9,5,0c11.5-11.7,23.2-23.3,34.8-34.9c26.5-26.5,53.1-53.1,79.6-79.6
		C753.5,663.8,754.2,662.8,755.2,661.7z M713.7,620.4c-0.7-1-1.3-1.9-2-2.6c-5.8-5.8-11.6-11.6-17.4-17.5c-1.5-1.6-2.5-1.6-4.1,0
		c-12,12.2-24.2,24.2-36.3,36.3c-26.6,26.6-53.2,53.2-79.8,79.7c-1.7,1.7-1.2,2.8,0.2,4.2c5.8,5.8,11.7,11.6,17.4,17.5
		c1.8,1.9,3,1.9,4.8,0c38.5-38.6,77-77.1,115.6-115.6C712.7,621.8,713.1,621.1,713.7,620.4z M801.4,606.3c-0.3-6.5-3-12.1-7.6-16.8
		c-9.6-9.7-19.2-19.5-29-29c-10.6-10.4-23.9-10.4-34.6-0.2c-5.7,5.5-11.2,11.2-16.8,16.7c-1.3,1.3-1.3,2.2,0,3.4
		c1.7,1.5,3.3,3.1,4.9,4.8c18.1,18.1,36.3,36.3,54.4,54.4c1.4,1.4,2.5,2.5,4.4,0.6c5.8-5.9,11.7-11.6,17.3-17.6
		C798.6,618.2,801.2,612.8,801.4,606.3z M552.6,739.9c0,0.8,0,1.7,0,2.7c0,18.2,0,36.5,0,54.7c0,3.8,0.2,4,4.1,4
		c18.4,0,36.9,0,55.3,0c0.9,0,1.8-0.2,1.9-0.2C593.6,780.8,573.2,760.4,552.6,739.9z"/>
	<path d="M663.5,366.7c-0.1,0.8-0.2,1.7-0.2,2.5c0,37.5,0,75.1,0,112.6c0,6.5-2.4,11.6-8.6,14.3c-1.7,0.8-3.8,1-5.8,1
		c-31.9,0.1-63.8,0.1-95.7,0c-8.7,0-14.2-5.6-14.2-14.4c0-21.5,0-43,0-64.5c0-3.8-0.1-3.8-3.8-3.9c-6.9,0-13.8,0.1-20.7,0
		c-2.5,0-3.2,0.9-3.2,3.3c0.1,21.4,0.1,42.8,0,64.2c0,7.7-3.7,13-10.4,14.8c-1.4,0.4-2.9,0.5-4.4,0.5c-31.6,0-63.2,0-94.8,0
		c-6.3,0-11-2.5-13.5-8.3c-0.9-2-1.2-4.4-1.2-6.6c-0.1-37.6,0-75.3,0-113c0-1-0.1-2.1-0.2-4c-1.7,1.5-2.8,2.5-4,3.5
		c-7.5,6.8-18.4,4.6-22.4-4.6c-2.3-5.3-1.2-10.3,2.7-14.6c2.9-3.2,6-6.1,9-9.1c47.4-47.4,94.7-94.7,142-142.1
		c4.4-4.4,9.4-6.5,15.3-4.3c2.5,0.9,4.9,2.7,6.8,4.6c27.4,27.3,54.7,54.6,82,81.9c22.5,22.5,45,45,67.5,67.5
		c7.8,7.8,6.7,18.2-2.5,23.2c-4.8,2.6-11.5,1.6-15.7-2.3c-1-1-2.1-1.9-3.2-2.9C664.1,366.4,663.8,366.5,663.5,366.7z M635.6,403.2
		L635.6,403.2c0-20.2-0.1-40.4,0.1-60.6c0-3.8-1.1-6.4-3.8-9.1c-34.8-34.7-69.6-69.4-104.2-104.2c-2.2-2.2-3.3-1.8-5.2,0.2
		c-35.2,35.3-70.4,70.5-105.7,105.7c-1.6,1.6-2.2,3.3-2.2,5.5c0.1,11.3,0,22.5,0,33.8c0,10.1,0,20.2,0,30.2c0,14.7,0,29.5,0,44.2
		c0,5.9,0.1,11.8-0.1,17.8c-0.1,2.7,1.2,3.1,3.5,3.1c20.7-0.1,41.4-0.1,62.1,0c2.8,0,3.8-0.8,3.8-3.8c-0.2-13.6-0.1-27.1-0.1-40.7
		c0-8.1-0.1-16.2,0.1-24.4c0.1-7.6,5.4-13.8,12.4-13.8c18.8-0.2,37.6-0.2,56.5,0c7.8,0.1,13.5,5.5,13.7,12.4
		c0.2,5.6,0.3,11.3,0.3,16.9c0,13.5,0,26.9,0,40.4c0,3.5-0.2,6.9-0.4,10.4c-0.1,2,0.6,3,2.7,2.9c2.8-0.2,5.5-0.2,8.3-0.2
		c18.2,0.1,36.4,0.1,54.6,0.3c2.8,0,3.8-0.8,3.8-3.7C635.6,445.2,635.6,424.2,635.6,403.2z"/>
	<path d="M518.8,138.1c-79.3,0-158.5,0-237.8-0.1c-3.8,0-8-0.5-11.5-2c-5.6-2.5-7.9-9.1-6.3-15.5c1.4-5.6,6.7-9.7,12.7-9.8
		c11.3-0.1,22.6,0,33.9,0c19.2-0.1,38.4-0.2,57.6-0.2c14.6,0,29.1,0.2,43.7,0.2c17.8,0,35.6-0.2,53.5-0.2c13.2,0,26.3,0.2,39.5,0.2
		c19.1,0,38.2-0.2,57.3-0.2c14.6,0,29.1,0.2,43.7,0.2c17.9,0,35.8-0.2,53.8-0.2c13.2,0,26.3,0.2,39.5,0.2c19.4,0,38.8-0.4,58.2-0.1
		c7.2,0.1,14.5,0.8,21.4,2.6c19,4.9,33.1,16.4,42.6,33.5c3.5,6.3,6.1,12.9,7.1,20c0.6,4.2,1.3,8.4,1.3,12.6
		c0.1,110.4,0.1,220.8,0.1,331.1c0,6.9-4.4,12.8-10.4,14c-7.3,1.5-13.6-1.6-16.3-8.6c-0.9-2.2-0.9-4.8-0.9-7.3
		c0-66.7,0-133.4,0-200.1c0-42.7,0-85.4,0-128.1c0-16.5-7.5-28.8-21.6-37.1c-6.2-3.6-13-5.2-20.2-5.2c-49.5,0-99.1,0-148.6,0
		C580.3,138.1,549.6,138.1,518.8,138.1L518.8,138.1z"/>
	<path d="M442.4,635.5c31.8,0,63.6,0,95.4,0c10,0,16.2,7.3,14.5,16.9c-1.1,6.2-6.8,10.7-14.2,10.7c-12.9,0.1-25.7,0-38.6,0
		c-30.3,0-60.6,0-90.9,0c-20.8,0-41.6,0-62.4-0.1c-6.9,0-12.7-4.4-14-10.3c-1.5-6.5,1.2-12.9,7.2-15.7c2.4-1.1,5.3-1.5,8.1-1.5
		C379.1,635.5,410.7,635.5,442.4,635.5L442.4,635.5z"/>
	<path d="M415,552.5c20.5,0,41,0,61.5,0c3.2,0,6.4-0.2,9.5,0.4c7.1,1.2,11.9,7.5,11.3,14.5c-0.6,7.3-6.1,12.6-13.5,12.8
		c-9.2,0.2-18.4,0.1-27.6,0.1c-36,0-71.9,0-107.9-0.1c-2.9,0-6.1-0.2-8.7-1.4c-6.1-2.7-8.9-9.2-7.5-15.8c1.3-5.7,7.2-10.3,13.7-10.3
		c14.7-0.1,29.3,0.1,44,0.1c8.4,0,16.8,0,25.3,0C415,552.6,415,552.5,415,552.5z"/>
	<path d="M580.4,552.5c13.6,0,27.1,0,40.7,0c7.8,0,14.1,5.7,14.5,13.2c0.4,7.4-5.1,13.7-12.9,14.3c-4.4,0.4-8.9,0.1-13.4,0.1
		c-22.9,0-45.7,0-68.6,0c-4,0-7.7-0.6-10.8-3.3c-4.7-4.2-6-9.7-3.8-15.6c1.9-5.1,7-8.7,13-8.7C552.9,552.4,566.6,552.5,580.4,552.5z
		"/>
</g>
</svg>
