<svg xmlns="http://www.w3.org/2000/svg" width="8.388" height="7.843" viewBox="0 0 8.388 7.843">
  <g id="business" transform="translate(-11.25 -14.682)">
    <path id="Path_17" data-name="Path 17" d="M19.619,72.315a.261.261,0,0,0-.243-.163h-.135a1.343,1.343,0,0,0-.654.17l-.987.552h-.282a.779.779,0,0,0-.766-.639H14.775a.139.139,0,0,0-.106.049l-.539.638a.138.138,0,0,0-.105-.049H11.389a.139.139,0,1,0,0,.278h1.7v1.994h-1.7a.139.139,0,1,0,0,.278h2.636a.139.139,0,0,0,.139-.139v-.667L17,74.489h.008a2,2,0,0,0,1.185-.557l1.364-1.33A.261.261,0,0,0,19.619,72.315Zm-5.733,2.832h-.518V73.153h.518ZM18,73.732a1.725,1.725,0,0,1-1.016.478l-2.82.13V73.315l.676-.8h1.713a.5.5,0,0,1,.488.394l-1.41.346a.139.139,0,0,0,.033.274.137.137,0,0,0,.033,0l1.511-.371h.428a.139.139,0,0,0,.068-.018l1.019-.57a1.063,1.063,0,0,1,.518-.135h.1Z" transform="translate(0 -52.9)"/>
    <path id="Path_18" data-name="Path 18" d="M58.442,18.806a2.062,2.062,0,1,0-2.062-2.062A2.062,2.062,0,0,0,58.442,18.806Zm0-3.846a1.784,1.784,0,1,1-1.784,1.784A1.784,1.784,0,0,1,58.442,14.96Z" transform="translate(-41.542)"/>
    <path id="Path_19" data-name="Path 19" d="M74.5,23.664a.139.139,0,1,0-.278,0,.646.646,0,0,0,.5.629v.234a.139.139,0,1,0,.278,0v-.233a.645.645,0,0,0,0-1.26v-.721a.367.367,0,0,1,.229.339.139.139,0,0,0,.278,0,.646.646,0,0,0-.507-.63v-.233a.139.139,0,1,0-.278,0v.234a.644.644,0,0,0,0,1.258V24A.367.367,0,0,1,74.5,23.664Zm.733,0A.367.367,0,0,1,75,24v-.679A.367.367,0,0,1,75.23,23.664ZM74.5,22.652a.367.367,0,0,1,.226-.338v.677A.367.367,0,0,1,74.5,22.652Z" transform="translate(-57.962 -6.414)"/>
  </g>
</svg>
