<svg xmlns="http://www.w3.org/2000/svg" width="7.152" height="7.573" viewBox="0 0 7.152 7.573">
  <g id="professions-and-jobs" transform="translate(-9.579 0.05)">
    <path id="Path_20" data-name="Path 20" d="M96.031,32.263l-.126.046a.6.6,0,0,0-.38.445l-.043.225a.379.379,0,0,0,.372.45h1.1a.379.379,0,0,0,.373-.446l-.04-.224a.594.594,0,0,0-.381-.453l-.134-.049v-.2a.108.108,0,0,0,0-.016.537.537,0,0,0,.154-.374v-.294a.521.521,0,0,0-1.042,0v.3a.52.52,0,0,0,.153.368.108.108,0,0,0,0,.013Zm1.036.536.04.224a.16.16,0,0,1-.158.188h-1.1a.16.16,0,0,1-.157-.19l.043-.225a.375.375,0,0,1,.239-.281l.083-.03.006.006a.5.5,0,0,0,.662,0l.01-.009.087.032A.374.374,0,0,1,97.068,32.8Zm-.97-1.422a.3.3,0,0,1,.594-.075l-.043.019a.364.364,0,0,1-.274.025.109.109,0,1,0-.126.179.363.363,0,0,0,.209.056.728.728,0,0,0,.244-.047v.136a.317.317,0,0,1-.095.225.306.306,0,0,1-.094.063l-.007,0a.283.283,0,0,1-.112.02.3.3,0,0,1-.3-.3Zm.292.824h.01a.508.508,0,0,0,.15-.023v.175a.286.286,0,0,1-.3,0v-.175A.514.514,0,0,0,96.389,32.2Z" transform="translate(-83.97 -30.181)" stroke="#000" stroke-width="0.1"/>
    <path id="Path_21" data-name="Path 21" d="M54.057,224.592h3.409a.109.109,0,1,0,0-.219H54.057a.109.109,0,1,0,0,.219Z" transform="translate(-43.35 -219.47)" stroke="#000" stroke-width="0.1"/>
    <path id="Path_22" data-name="Path 22" d="M54.057,251.606h3.409a.109.109,0,0,0,0-.219H54.057a.109.109,0,0,0,0,.219Z" transform="translate(-43.35 -245.893)" stroke="#000" stroke-width="0.1"/>
    <path id="Path_23" data-name="Path 23" d="M54.057,278.618h3.409a.109.109,0,0,0,0-.219H54.057a.109.109,0,0,0,0,.219Z" transform="translate(-43.35 -272.315)" stroke="#000" stroke-width="0.1"/>
    <path id="Path_24" data-name="Path 24" d="M54.057,305.631h3.409a.109.109,0,0,0,0-.219H54.057a.109.109,0,0,0,0,.219Z" transform="translate(-43.35 -298.738)" stroke="#000" stroke-width="0.1"/>
    <path id="Path_25" data-name="Path 25" d="M53.948,170.458a.109.109,0,0,0,.109.109h3.409a.109.109,0,1,0,0-.219H54.057A.109.109,0,0,0,53.948,170.458Z" transform="translate(-43.35 -166.626)" stroke="#000" stroke-width="0.1"/>
    <path id="Path_26" data-name="Path 26" d="M54.057,197.58h3.409a.109.109,0,1,0,0-.219H54.057a.109.109,0,1,0,0,.219Z" transform="translate(-43.35 -193.048)" stroke="#000" stroke-width="0.1"/>
    <path id="Path_27" data-name="Path 27" d="M35.54,224.574a.11.11,0,1,0-.11-.11A.11.11,0,0,0,35.54,224.574Z" transform="translate(-25.236 -219.452)" stroke="#000" stroke-width="0.1"/>
    <path id="Path_28" data-name="Path 28" d="M35.54,170.549a.11.11,0,1,0-.11-.11A.11.11,0,0,0,35.54,170.549Z" transform="translate(-25.236 -166.607)" stroke="#000" stroke-width="0.1"/>
    <path id="Path_29" data-name="Path 29" d="M35.54,197.562a.11.11,0,1,0-.11-.11A.11.11,0,0,0,35.54,197.562Z" transform="translate(-25.236 -193.03)" stroke="#000" stroke-width="0.1"/>
    <path id="Path_30" data-name="Path 30" d="M35.54,251.587a.11.11,0,1,0-.11-.11A.11.11,0,0,0,35.54,251.587Z" transform="translate(-25.236 -245.874)" stroke="#000" stroke-width="0.1"/>
    <path id="Path_31" data-name="Path 31" d="M35.54,278.6a.11.11,0,1,0-.11-.11A.11.11,0,0,0,35.54,278.6Z" transform="translate(-25.236 -272.297)" stroke="#000" stroke-width="0.1"/>
    <path id="Path_32" data-name="Path 32" d="M35.54,305.613a.11.11,0,1,0-.11-.11A.11.11,0,0,0,35.54,305.613Z" transform="translate(-25.236 -298.72)" stroke="#000" stroke-width="0.1"/>
    <path id="Path_33" data-name="Path 33" d="M16.508,1.724a.757.757,0,0,1-.106-.157.8.8,0,0,1-.039-.2.611.611,0,0,0-.136-.377A.611.611,0,0,0,15.85.859a.8.8,0,0,1-.2-.039A.756.756,0,0,1,15.5.713a.825.825,0,0,0-.262-.158V.522A.523.523,0,0,0,14.713,0H10.152a.523.523,0,0,0-.523.522V.945a.109.109,0,0,0,.219,0V.522a.3.3,0,0,1,.3-.3h4.561a.3.3,0,0,1,.3.3V.556a.825.825,0,0,0-.262.158A.757.757,0,0,1,14.6.82a.8.8,0,0,1-.2.039.611.611,0,0,0-.377.136.611.611,0,0,0-.136.377.8.8,0,0,1-.039.2.756.756,0,0,1-.106.157.614.614,0,0,0-.174.371.614.614,0,0,0,.174.371.757.757,0,0,1,.106.157.8.8,0,0,1,.039.2.611.611,0,0,0,.136.377.611.611,0,0,0,.377.136c.038,0,.076.009.11.016V5a.168.168,0,0,0,.272.132l.233-.182v2a.3.3,0,0,1-.3.3H10.152a.3.3,0,0,1-.3-.3V1.427a.109.109,0,0,0-.219,0V6.951a.523.523,0,0,0,.523.522h4.561a.523.523,0,0,0,.523-.522v-2l.233.182A.168.168,0,0,0,15.74,5V3.78a.109.109,0,0,0-.219,0V4.9L15.23,4.67a.168.168,0,0,0-.208,0l-.291.228V3.458l.024.019a.482.482,0,0,0,.742,0,.757.757,0,0,1,.157-.106.8.8,0,0,1,.2-.039.611.611,0,0,0,.377-.136.611.611,0,0,0,.136-.377.8.8,0,0,1,.039-.2.756.756,0,0,1,.106-.157.614.614,0,0,0,.174-.371.614.614,0,0,0-.174-.371Zm-.172.606a.917.917,0,0,0-.137.209.963.963,0,0,0-.055.252.453.453,0,0,1-.073.249.453.453,0,0,1-.249.073.963.963,0,0,0-.252.054.917.917,0,0,0-.209.137.452.452,0,0,1-.235.127.452.452,0,0,1-.235-.127.918.918,0,0,0-.209-.137l-.028-.01a1.089,1.089,0,0,0-.225-.044.453.453,0,0,1-.249-.073.453.453,0,0,1-.073-.249.963.963,0,0,0-.054-.252.918.918,0,0,0-.137-.209.452.452,0,0,1-.127-.235.452.452,0,0,1,.127-.235.917.917,0,0,0,.137-.209.962.962,0,0,0,.054-.252.453.453,0,0,1,.073-.249.453.453,0,0,1,.249-.073.963.963,0,0,0,.252-.054A.917.917,0,0,0,14.89.885a.453.453,0,0,1,.235-.127h0a.453.453,0,0,1,.235.127.918.918,0,0,0,.209.137.962.962,0,0,0,.253.054.453.453,0,0,1,.249.073.453.453,0,0,1,.073.249.963.963,0,0,0,.054.252.918.918,0,0,0,.137.209.452.452,0,0,1,.127.235A.451.451,0,0,1,16.336,2.33Z" transform="translate(0 0)" stroke="#000" stroke-width="0.1"/>
    <path id="Path_34" data-name="Path 34" d="M225.884,58.095l-.373-.105-.215-.322a.138.138,0,0,0-.23,0l-.215.322-.373.105a.138.138,0,0,0-.071.219l.239.3-.015.387a.138.138,0,0,0,.186.135l.363-.134.363.134A.138.138,0,0,0,225.73,59l-.015-.387.239-.3a.138.138,0,0,0-.071-.219Zm-.359.411a.138.138,0,0,0-.029.091l.011.3-.278-.1a.139.139,0,0,0-.1,0l-.278.1.011-.3a.139.139,0,0,0-.03-.091l-.183-.233.285-.081a.139.139,0,0,0,.077-.056l.165-.246.165.246a.139.139,0,0,0,.077.056l.285.081Z" transform="translate(-210.055 -56.347)" stroke="#000" stroke-width="0.1"/>
  </g>
</svg>
