<svg xmlns="http://www.w3.org/2000/svg" width="7.742" height="8.924" viewBox="0 0 7.742 8.924">
  <g id="business-and-finance" transform="translate(-21.961 0)">
    <g id="Group_5" data-name="Group 5" transform="translate(21.961 0)">
      <g id="Group_4" data-name="Group 4">
        <path id="Path_48" data-name="Path 48" d="M29.413,1.537,26.688.062a.575.575,0,0,0-.754.226L24.341,3.249H22.4a.437.437,0,0,0-.442.442V8.483a.437.437,0,0,0,.442.442h6.192a.437.437,0,0,0,.442-.442V7.363h.183a.17.17,0,0,0,.172-.172V5.909a.17.17,0,0,0-.172-.172h-.183V4.477a.449.449,0,0,0-.345-.431l.948-1.755A.565.565,0,0,0,29.413,1.537ZM27.475.88l-1.7,3.155h-.485L27.108.686ZM26.247.449a.212.212,0,0,1,.28-.086L26.8.514,24.9,4.035h-.592ZM22.295,3.68a.1.1,0,0,1,.1-.086h1.755l-.237.431H22.392a.3.3,0,0,0-.1.011Zm6.386,4.8a.1.1,0,0,1-.1.1H22.392a.1.1,0,0,1-.1-.1V4.477a.1.1,0,0,1,.1-.1h6.181a.1.1,0,0,1,.1.1v1.26h-.657a.517.517,0,0,0-.517.517v.592a.517.517,0,0,0,.517.517h.668Zm.345-2.4h.011v.937H28.013a.17.17,0,0,1-.172-.172V6.254a.17.17,0,0,1,.172-.172Zm.3-3.963L28.293,4.035H26.161l1.615-2.983,1.465.8A.188.188,0,0,1,29.327,2.118Z" transform="translate(-21.961 0)"/>
      </g>
    </g>
    <g id="Group_7" data-name="Group 7" transform="translate(27.796 1.86)">
      <g id="Group_6" data-name="Group 6">
        <path id="Path_49" data-name="Path 49" d="M239.583,69.2l-.086-.043a.471.471,0,0,0-.625.183l-.108.2a.454.454,0,0,0-.032.355.434.434,0,0,0,.226.269l.086.043a.49.49,0,0,0,.215.054.484.484,0,0,0,.409-.237l.108-.2A.483.483,0,0,0,239.583,69.2Zm-.118.463-.108.2a.122.122,0,0,1-.162.043l-.086-.054a.158.158,0,0,1-.054-.065.081.081,0,0,1,.011-.086l.108-.2a.143.143,0,0,1,.108-.065.1.1,0,0,1,.054.011l.086.043A.167.167,0,0,1,239.465,69.668Z" transform="translate(-238.71 -69.108)"/>
      </g>
    </g>
  </g>
</svg>
