<svg id="surface1" xmlns="http://www.w3.org/2000/svg" width="8.538" height="8.538" viewBox="0 0 8.538 8.538">
  <path id="Path_35" data-name="Path 35" d="M7.115,1.508v-.8A.712.712,0,0,0,6.4,0H.712A.712.712,0,0,0,0,.712V3.842a.71.71,0,0,0,.638.7l.535,1.389a.712.712,0,0,0,.92.408l3.34-1.287A2.057,2.057,0,0,0,5.61,6.883l.082.131V8.4a.142.142,0,0,0,.142.142H8.4A.142.142,0,0,0,8.538,8.4V3.7a1.862,1.862,0,0,0-.545-1.312Zm0,.851L7.547,3.48a.427.427,0,0,1-.245.552l-.247.1a.712.712,0,0,0,.06-.285ZM.285,3.842V.712A.427.427,0,0,1,.712.285H6.4A.427.427,0,0,1,6.83.712v.9h0V3.842a.433.433,0,0,1-.01.074l-1.3-1.3a.759.759,0,0,0-1.1,1.05l.556.607H.712A.427.427,0,0,1,.285,3.842Zm1.823.712L1.1,4.943l-.15-.39ZM1.99,6.077a.427.427,0,0,1-.552-.245L1.2,5.208l1.7-.655H5.238l.185.2ZM8.253,8.253H5.977V7.115H8.253Zm0-1.423H5.913l-.062-.1a1.774,1.774,0,0,1-.036-1.822A.142.142,0,0,0,5.8,4.743L4.631,3.47a.475.475,0,0,1,.685-.656L7.584,5.081l.2-.2-.527-.527L7.4,4.3a.712.712,0,0,0,.408-.919L7.331,2.127l.461.462A1.576,1.576,0,0,1,8.253,3.7Zm0,0"/>
  <path id="Path_36" data-name="Path 36" d="M63.553,63.923a.37.37,0,0,0,.37-.37V62.87a.37.37,0,0,0-.37-.37H62.87a.37.37,0,0,0-.37.37v.683a.37.37,0,0,0,.37.37Zm-.768-.37v-.2h.285v-.285h-.285v-.2a.085.085,0,0,1,.085-.085h.683a.085.085,0,0,1,.085.085v.2h-.285v.285h.285v.2a.085.085,0,0,1-.085.085H62.87A.085.085,0,0,1,62.785,63.553Zm0,0" transform="translate(-61.931 -61.931)"/>
  <path id="Path_37" data-name="Path 37" d="M78.125,265.625h.569v.285h-.569Zm0,0" transform="translate(-77.413 -263.206)"/>
  <path id="Path_38" data-name="Path 38" d="M78.125,359.375h.569v.285h-.569Zm0,0" transform="translate(-77.413 -356.102)"/>
  <path id="Path_39" data-name="Path 39" d="M359.375,359.375h.569v.285h-.569Zm0,0" transform="translate(-356.102 -356.102)"/>
  <path id="Path_40" data-name="Path 40" d="M171.875,265.625h.569v.285h-.569Zm0,0" transform="translate(-170.31 -263.206)"/>
  <path id="Path_41" data-name="Path 41" d="M265.625,265.625h.569v.285h-.569Zm0,0" transform="translate(-263.206 -263.206)"/>
  <path id="Path_42" data-name="Path 42" d="M359.375,265.625h.569v.285h-.569Zm0,0" transform="translate(-356.102 -263.206)"/>
  <path id="Path_43" data-name="Path 43" d="M656.25,78.125h.285v.427h-.285Zm0,0" transform="translate(-650.273 -77.413)"/>
  <path id="Path_44" data-name="Path 44" d="M593.75,78.125h.285v.427h-.285Zm0,0" transform="translate(-588.343 -77.413)"/>
  <path id="Path_45" data-name="Path 45" d="M531.25,78.125h.285v.427h-.285Zm0,0" transform="translate(-526.412 -77.413)"/>
  <path id="Path_46" data-name="Path 46" d="M468.75,78.125h.285v.427h-.285Zm0,0" transform="translate(-464.481 -77.413)"/>
  <path id="Path_47" data-name="Path 47" d="M687.5,812.5h.285v.285H687.5Zm0,0" transform="translate(-681.239 -805.1)"/>
</svg>
