<?xml version="1.0" encoding="utf-8"?>
<!-- Generator: Adobe Illustrator 22.1.0, SVG Export Plug-In . SVG Version: 6.00 Build 0)  -->
<svg version="1.1" id="Layer_1" xmlns="http://www.w3.org/2000/svg" xmlns:xlink="http://www.w3.org/1999/xlink" x="0px" y="0px"
	 viewBox="0 0 432.1 477.1" style="enable-background:new 0 0 432.1 477.1;" xml:space="preserve">
<style type="text/css">
	.st0{fill:none;stroke:#000000;stroke-width:20;stroke-miterlimit:10;}
</style>
<g id="request">
	<g>
		<path d="M327.7,458.2c17.3,0.7,34.8-20.1,34.3-36.9c-0.7-25.5-0.3-51-0.2-76.5c-0.1-6.2,0.9-14.2,9.9-14.2s11.9,6.3,11.9,12
			c0.1,28.8,0.7,57.7-0.2,86.5c-0.8,26.8-24.6,47.8-52.7,47.9c-46.2,0.1-92.3,0-138.5,0c-45,0-90,0-135,0c-14,0-27.1-2.7-38.1-12.2
			C7.6,454.8,0.7,442.2,0.6,426.7C0.4,396-0.8,365.3,1,334.7c2.7-45.1,24.2-80.3,61.8-105.3c6.4-4.3,14.7-7,18.9-0.7
			c4.3,6.3-6.4,16.2-12.8,21.2c-6,4.7-12.4,11.1-17.8,16.5c-20.5,20.4-31.3,46.2-31.6,75.3c-0.2,27-0.2,54-0.1,81
			c0,16.7,18.7,35.4,35.4,35.5"/>
	</g>
	<circle class="st0" cx="212.1" cy="122" r="112"/>
	<path d="M360.1,187.5v104c0,5.5,4.5,10,10,10h0c5.5,0,10-4.5,10-10v-104c0-5.5-4.5-10-10-10h0C364.5,177.5,360.1,182,360.1,187.5z"
		/>
	<path d="M422.1,229.5h-104c-5.5,0-10,4.5-10,10v0c0,5.5,4.5,10,10,10h104c5.5,0,10-4.5,10-10v0C432.1,234,427.6,229.5,422.1,229.5z
		"/>
</g>
</svg>
