<svg height="512" viewBox="0 0 64 64" width="512" xmlns="http://www.w3.org/2000/svg"><path d="m40 22a2 2 0 0 1 -2-2h-2a4 4 0 0 0 8 0h-2a2 2 0 0 1 -2 2z"/><path d="m61 52h-3v-14.42a6.985 6.985 0 0 0 -3.758-6.2 7.975 7.975 0 0 0 -3.242-10.305v-8.075a11 11 0 0 0 -22 0v8.075a7.975 7.975 0 0 0 -3.241 10.309 7 7 0 0 0 -.967.616h-17.792a3 3 0 0 0 -3 3v17h-1a1 1 0 0 0 -1 1v4a1 1 0 0 0 1 1h2v3a1 1 0 0 0 1 1h53a1 1 0 0 0 1-1v-3h1a1 1 0 0 0 1-1v-4a1 1 0 0 0 -1-1zm-5-14.42v14.42h-6v-1.936a7.629 7.629 0 0 0 0-12.128v-1.936h-2v2.5a1 1 0 0 0 .533.884 5.552 5.552 0 0 1 0 9.232 1 1 0 0 0 -.533.884v2.5h-16v-17a2.994 2.994 0 0 0 -2.173-2.87l1.445-.42c.976 3.084 4.495 5.29 8.728 5.29s7.752-2.206 8.728-5.29l3.572 1.04.1.03.109.032a5 5 0 0 1 3.491 4.768zm-28.647-5.58-.054-.175.076.175zm12.647-6a7.008 7.008 0 0 1 -7-7v-3h1.858a10.927 10.927 0 0 0 7.778-3.222l.09-.09.274.548a4.967 4.967 0 0 0 4 2.742v3.022a7.008 7.008 0 0 1 -7 7zm-2 3v-1.232a8.737 8.737 0 0 0 4 0v1.232a1 1 0 0 0 .72.96l4.086 1.19c-.739 2.213-3.534 3.85-6.806 3.85s-6.067-1.637-6.806-3.85l4.086-1.19a1 1 0 0 0 .72-.96zm11.573-6.416a5.937 5.937 0 0 1 3.427 5.416 5.849 5.849 0 0 1 -.652 2.681l-8.348-2.431v-1.2a9 9 0 0 0 5-8.05v2.68a1 1 0 0 0 .573.904zm-18.573-9.584a9 9 0 0 1 18 0v2a1 1 0 0 0 -1-1h-.528a2.982 2.982 0 0 1 -2.683-1.658l-.889-1.789a1 1 0 0 0 -.735-.54 1.016 1.016 0 0 0 -.867.28l-1.071 1.071a8.941 8.941 0 0 1 -6.369 2.636h-2.858a1 1 0 0 0 -1 1zm-.573 9.584a1 1 0 0 0 .573-.9v-2.684a9 9 0 0 0 5 8.05v1.2l-8.348 2.431a5.849 5.849 0 0 1 -.652-2.681 5.937 5.937 0 0 1 3.427-5.416zm-24.427 12.416a1 1 0 0 1 1-1h22a1 1 0 0 1 1 1v13h-24zm0 15h24v2h-24zm52 10h-51v-2h51zm2-4h-56v-2h56z"/><path d="m18 38a3 3 0 1 0 3 3 3 3 0 0 0 -3-3zm0 4a1 1 0 1 1 1-1 1 1 0 0 1 -1 1z"/><path d="m11 18a1 1 0 0 1 -1-1h-2a3 3 0 0 0 2 2.816v1.184h2v-1.184a2.993 2.993 0 0 0 -1-5.816 1 1 0 1 1 1-1h2a3 3 0 0 0 -2-2.816v-1.184h-2v1.184a2.993 2.993 0 0 0 1 5.816 1 1 0 0 1 0 2z"/><path d="m11 24a9 9 0 1 0 -9-9 9.011 9.011 0 0 0 9 9zm0-16a7 7 0 1 1 -7 7 7.008 7.008 0 0 1 7-7z"/><path d="m23 11h4v2h-4z"/><path d="m24 3.764h2v4.472h-2z" transform="matrix(.447 -.894 .894 .447 8.453 25.677)"/><path d="m22.764 17h4.472v2h-4.472z" transform="matrix(.894 -.447 .447 .894 -5.411 13.081)"/><path d="m53 11h4v2h-4z"/><path d="m52.764 5h4.472v2h-4.472z" transform="matrix(.894 -.447 .447 .894 3.123 25.23)"/><path d="m54 15.764h2v4.472h-2z" transform="matrix(.447 -.894 .894 .447 14.304 59.144)"/></svg>