<?xml version="1.0" encoding="utf-8"?>
<!-- Generator: Adobe Illustrator 22.1.0, SVG Export Plug-In . SVG Version: 6.00 Build 0)  -->
<svg version="1.1" id="Capa_1" xmlns="http://www.w3.org/2000/svg" xmlns:xlink="http://www.w3.org/1999/xlink" x="0px" y="0px"
	 viewBox="0 0 32 32" style="enable-background:new 0 0 32 32;" xml:space="preserve">
<style type="text/css">
	.st0{fill:#004788;}
</style>
<g>
	<g>
		<path class="st0" d="M28.6,13H29c1.4,0,2.3-0.8,2.6-1.6C32,10.7,32,10.1,32,10l0-4c0-0.1,0-0.7-0.4-1.4C31.3,3.8,30.4,3,29,3
			C27,3,7,3,7,3C6.9,3,5.3,3,3.6,3.9C1.8,4.7,0,6.6,0,10c0,3.4,1.8,5.3,3.6,6.1C5.3,17,6.9,17,7,17h7.5c-0.3,0.9-0.5,1.9-0.5,3
			c0,5,4,9,9,9c5,0,9-4,9-9C32,17.2,30.7,14.6,28.6,13z M7,15c0,0-0.3,0-0.8-0.1c-0.7-0.1-1.8-0.4-2.7-1.2C2.7,13,2,12,2,10
			c0-2.6,1.2-3.7,2.4-4.4c0.6-0.3,1.3-0.5,1.8-0.6C6.7,5,7,5,7,5c0,0,20,0,22,0c0.6,0,0.7,0.2,0.9,0.4C29.9,5.6,30,5.7,30,5.9
			C30,6,30,6,30,6l0,4c0,0,0,0,0,0.1c0,0.2-0.1,0.4-0.2,0.6C29.6,10.9,29.5,11,29,11c-0.7,0-3.1,0-6,0c0,0,0,0,0,0s0,0,0,0
			c-5.3,0-12,0-12,0c-0.6,0-0.7-0.2-0.9-0.4c-0.1-0.1-0.1-0.3-0.1-0.4c0-0.1,0-0.1,0-0.1c0-0.6,0.2-0.7,0.4-0.9
			C10.6,9.1,10.7,9,10.9,9C11,9,11,9,11,9h16V7H11c-0.1,0-0.7,0-1.4,0.4C8.8,7.7,8,8.6,8,10c0,0.1,0,0.7,0.4,1.4
			C8.7,12.2,9.6,13,11,13c0,0,2.9,0,6.3,0c-0.7,0.6-1.3,1.2-1.8,2H7z M23,26.9c-3.8,0-6.9-3.1-6.9-6.9c0-3.8,3.1-6.9,6.9-6.9
			c3.8,0,6.9,3.1,6.9,6.9C29.9,23.8,26.8,26.9,23,26.9z"/>
		<polygon class="st0" points="24,15 22,15 22,19 18,19 18,21 22,21 22,25 24,25 24,21 28,21 28,19 24,19 		"/>
	</g>
</g>
</svg>
