<svg xmlns="http://www.w3.org/2000/svg" width="26.485" height="26.485" viewBox="0 0 26.485 26.485">
  <g id="auction" transform="translate(0 -0.001)">
    <g id="Group_211" data-name="Group 211" transform="translate(5.209 8.868)">
      <g id="Group_210" data-name="Group 210">
        <path id="Path_145" data-name="Path 145" d="M101.588,171.571a.517.517,0,1,0,0,.731A.518.518,0,0,0,101.588,171.571Z" transform="translate(-100.704 -171.42)" fill="#636a83"/>
      </g>
    </g>
    <g id="Group_213" data-name="Group 213" transform="translate(0 20.278)">
      <g id="Group_212" data-name="Group 212">
        <path id="Path_146" data-name="Path 146" d="M13.1,394.87a1.811,1.811,0,0,0-1.459-2.883H2.845a1.809,1.809,0,0,0-1.458,2.882A2.588,2.588,0,0,0,0,397.16v.517a.517.517,0,0,0,.517.517H13.966a.517.517,0,0,0,.517-.517v-.517A2.588,2.588,0,0,0,13.1,394.87ZM2.3,393.249a.771.771,0,0,1,.549-.227h8.794a.776.776,0,1,1,0,1.552H2.845a.776.776,0,0,1-.549-1.325ZM1.035,397.16a1.554,1.554,0,0,1,1.552-1.552H11.9a1.554,1.554,0,0,1,1.552,1.552Z" transform="translate(0 -391.987)" fill="#636a83"/>
      </g>
    </g>
    <g id="Group_215" data-name="Group 215" transform="translate(0.001 0.001)">
      <g id="Group_214" data-name="Group 214" transform="translate(0 0)">
        <path id="Path_147" data-name="Path 147" d="M26.024,21.734a3.257,3.257,0,0,0-.623-.716L22.984,18.91a.513.513,0,0,0-.206-.179l-1.462-1.275-6.766-5.9A1.549,1.549,0,0,0,14.1,9.083l.626-.626a2.07,2.07,0,0,0,2-.535A2.069,2.069,0,0,0,16.72,5L12.331.607a2.068,2.068,0,0,0-3.461,2L2.625,8.85a2.082,2.082,0,0,0-.536-.07A2.069,2.069,0,0,0,.626,12.312L5.015,16.7a2.068,2.068,0,0,0,3.461-2l.625-.625a1.552,1.552,0,0,0,2.471.454l7.206,8.28a.52.52,0,0,0,.07.088l.029.026,2.147,2.467c.053.063.11.125.17.184a3.077,3.077,0,0,0,2.187.91,3.175,3.175,0,0,0,.435-.03,3.13,3.13,0,0,0,2.309-1.6A3.061,3.061,0,0,0,26.024,21.734ZM10.136,1.339a1.034,1.034,0,0,1,1.463,0l4.389,4.389a1.034,1.034,0,0,1-1.463,1.463L10.136,2.8h0A1.035,1.035,0,0,1,10.136,1.339ZM7.21,15.969a1.036,1.036,0,0,1-1.463,0L1.358,11.58A1.034,1.034,0,0,1,2.82,10.117l4.39,4.39A1.035,1.035,0,0,1,7.21,15.969Zm2.178-3.641L7.942,13.775l-4.39-4.39L9.4,3.533l4.39,4.39L12.345,9.372l-.014.014L9.406,12.31Zm1.847,1.079,0,0-.364.364a.517.517,0,0,1-.738-.725l2.938-2.938a.517.517,0,0,1,.878.372.513.513,0,0,1-.152.366l-.362.362-.007.007Zm1.071.392,1.512-1.512,6.4,5.583-2.336,2.336Zm6.258,7.19L21,18.553l.781.682-2.537,2.537Zm6.659,3.363a2.1,2.1,0,0,1-1.549,1.079,2.055,2.055,0,0,1-1.749-.586c-.04-.04-.078-.081-.113-.123l-.005-.006-1.882-2.162,2.638-2.638,2.16,1.884,0,0a2.227,2.227,0,0,1,.427.491A2.042,2.042,0,0,1,25.223,24.352Z" transform="translate(-0.021 -0.001)" fill="#636a83"/>
      </g>
    </g>
    <g id="Group_217" data-name="Group 217" transform="translate(6.672 5.211)">
      <g id="Group_216" data-name="Group 216">
        <path id="Path_148" data-name="Path 148" d="M132.063,100.859a.517.517,0,0,0-.732,0l-2.195,2.195a.517.517,0,1,0,.732.732l2.195-2.195A.517.517,0,0,0,132.063,100.859Z" transform="translate(-128.985 -100.707)" fill="#636a83"/>
      </g>
    </g>
  </g>
</svg>
