<?xml version="1.0" encoding="utf-8"?>
<!-- Generator: Adobe Illustrator 22.1.0, SVG Export Plug-In . SVG Version: 6.00 Build 0)  -->
<svg version="1.1" id="Layer_1" xmlns="http://www.w3.org/2000/svg" xmlns:xlink="http://www.w3.org/1999/xlink" x="0px" y="0px"
	 viewBox="0 0 412.5 412.6" style="enable-background:new 0 0 412.5 412.6;" xml:space="preserve">
<path d="M350.6,68.7H6.9c-3.8,0-6.9,3.1-6.9,6.9v206.3c0,3.8,3.1,6.9,6.9,6.9h20.6c3.8,0,6.9,3.1,6.9,6.9v13.8
	c0,3.8,3.1,6.9,6.9,6.9h336.9c3.8,0,6.9-3.1,6.9-6.9V96.3c0-3.8-3.1-6.9-6.9-6.9h-13.8c-3.8,0-6.9-3.1-6.9-6.9v-6.9
	C357.5,71.8,354.4,68.7,350.6,68.7z M20.6,82.5h316.3c3.8,0,6.9,3.1,6.9,6.9v178.8c0,3.8-3.1,6.9-6.9,6.9H20.6
	c-3.8,0-6.9-3.1-6.9-6.9V89.4C13.7,85.6,16.8,82.5,20.6,82.5z M371.3,110v185.6c0,3.8-3.1,6.9-6.9,6.9H55c-3.8,0-6.9-3.1-6.9-6.9
	l0,0c0-3.8,3.1-6.9,6.9-6.9h295.6c3.8,0,6.9-3.1,6.9-6.9V110c0-3.8,3.1-6.9,6.9-6.9l0,0C368.2,103.1,371.3,106.2,371.3,110z"/>
<path d="M69.9,330h11.4c0.6,0,1.2,0.5,1.2,1.2v11.4c0,0.6-0.5,1.2-1.2,1.2H69.9c-0.6,0-1.2-0.5-1.2-1.2v-11.4
	C68.7,330.5,69.3,330,69.9,330z"/>
<path d="M97.4,330h11.4c0.6,0,1.2,0.5,1.2,1.2v11.4c0,0.6-0.5,1.2-1.2,1.2H97.4c-0.6,0-1.2-0.5-1.2-1.2v-11.4
	C96.2,330.5,96.8,330,97.4,330z"/>
<path d="M124.9,330h11.4c0.7,0,1.2,0.5,1.2,1.2v11.4c0,0.7-0.5,1.2-1.2,1.2h-11.4c-0.7,0-1.2-0.5-1.2-1.2v-11.4
	C123.7,330.6,124.3,330,124.9,330z"/>
<path d="M152.4,330h11.4c0.6,0,1.2,0.5,1.2,1.2v11.4c0,0.6-0.5,1.2-1.2,1.2h-11.4c-0.6,0-1.2-0.5-1.2-1.2v-11.4
	C151.2,330.5,151.8,330,152.4,330z"/>
<path d="M179.9,330h11.4c0.6,0,1.2,0.5,1.2,1.2v11.4c0,0.6-0.5,1.2-1.2,1.2h-11.4c-0.6,0-1.2-0.5-1.2-1.2v-11.4
	C178.7,330.5,179.3,330,179.9,330z"/>
<path d="M207.4,330h11.4c0.6,0,1.2,0.5,1.2,1.2v11.4c0,0.6-0.5,1.2-1.2,1.2h-11.4c-0.6,0-1.2-0.5-1.2-1.2v-11.4
	C206.2,330.5,206.8,330,207.4,330z"/>
<path d="M234.9,330h11.4c0.6,0,1.2,0.5,1.2,1.2v11.4c0,0.6-0.5,1.2-1.2,1.2h-11.4c-0.6,0-1.2-0.5-1.2-1.2v-11.4
	C233.7,330.5,234.3,330,234.9,330z"/>
<path d="M262.4,330h11.4c0.6,0,1.2,0.5,1.2,1.2v11.4c0,0.6-0.5,1.2-1.2,1.2h-11.4c-0.6,0-1.2-0.5-1.2-1.2v-11.4
	C261.2,330.5,261.8,330,262.4,330z"/>
<path d="M289.9,330h11.4c0.6,0,1.2,0.5,1.2,1.2v11.4c0,0.6-0.5,1.2-1.2,1.2h-11.4c-0.6,0-1.2-0.5-1.2-1.2v-11.4
	C288.7,330.5,289.3,330,289.9,330z"/>
<path d="M317.4,330h11.4c0.6,0,1.2,0.5,1.2,1.2v11.4c0,0.6-0.5,1.2-1.2,1.2h-11.4c-0.6,0-1.2-0.5-1.2-1.2v-11.4
	C316.2,330.5,316.8,330,317.4,330z"/>
<path d="M344.9,330h11.4c0.6,0,1.2,0.5,1.2,1.2v11.4c0,0.6-0.5,1.2-1.2,1.2h-11.4c-0.6,0-1.2-0.5-1.2-1.2v-11.4
	C343.8,330.5,344.3,330,344.9,330z"/>
<path d="M372.4,330h11.4c0.6,0,1.2,0.5,1.2,1.2v11.4c0,0.6-0.5,1.2-1.2,1.2h-11.4c-0.6,0-1.2-0.5-1.2-1.2v-11.4
	C371.3,330.5,371.8,330,372.4,330z"/>
<path d="M399.9,330h11.4c0.6,0,1.2,0.5,1.2,1.2v11.4c0,0.6-0.5,1.2-1.2,1.2h-11.4c-0.6,0-1.2-0.5-1.2-1.2v-11.4
	C398.8,330.5,399.3,330,399.9,330z"/>
<path d="M399.9,137.5h11.4c0.6,0,1.2,0.5,1.2,1.2v11.4c0,0.6-0.5,1.2-1.2,1.2h-11.4c-0.6,0-1.2-0.5-1.2-1.2v-11.4
	C398.8,138,399.3,137.5,399.9,137.5z"/>
<path d="M399.9,110h11.4c0.6,0,1.2,0.5,1.2,1.2v11.4c0,0.6-0.5,1.2-1.2,1.2h-11.4c-0.6,0-1.2-0.5-1.2-1.2v-11.4
	C398.8,110.5,399.3,110,399.9,110z"/>
<path d="M399.9,165h11.4c0.6,0,1.2,0.5,1.2,1.2v11.4c0,0.6-0.5,1.2-1.2,1.2h-11.4c-0.6,0-1.2-0.5-1.2-1.2v-11.4
	C398.8,165.5,399.3,165,399.9,165z"/>
<path d="M399.9,192.5h11.4c0.6,0,1.2,0.5,1.2,1.2v11.4c0,0.6-0.5,1.2-1.2,1.2h-11.4c-0.6,0-1.2-0.5-1.2-1.2v-11.4
	C398.8,193,399.3,192.5,399.9,192.5z"/>
<path d="M399.9,220h11.4c0.6,0,1.2,0.5,1.2,1.2v11.4c0,0.6-0.5,1.2-1.2,1.2h-11.4c-0.6,0-1.2-0.5-1.2-1.2v-11.4
	C398.8,220.5,399.3,220,399.9,220z"/>
<path d="M399.9,247.5h11.4c0.6,0,1.2,0.5,1.2,1.2v11.4c0,0.6-0.5,1.2-1.2,1.2h-11.4c-0.6,0-1.2-0.5-1.2-1.2v-11.4
	C398.8,248,399.3,247.5,399.9,247.5z"/>
<path d="M399.9,275h11.4c0.6,0,1.2,0.5,1.2,1.2v11.4c0,0.6-0.5,1.2-1.2,1.2h-11.4c-0.6,0-1.2-0.5-1.2-1.2v-11.4
	C398.8,275.5,399.3,275,399.9,275z"/>
<path d="M399.9,302.5h11.4c0.6,0,1.2,0.5,1.2,1.2v11.4c0,0.6-0.5,1.2-1.2,1.2h-11.4c-0.6,0-1.2-0.5-1.2-1.2v-11.4
	C398.8,303,399.3,302.5,399.9,302.5z"/>
<path d="M206.2,13.7c37.1-0.2,74,6.5,108.6,19.6c5,1.9,4.7,9.1-0.5,10.5l0,0c-2.9,0.8-4.7,3.8-3.9,6.8l0.7,2.6
	c0.8,2.9,3.8,4.7,6.8,3.9l35.8-9.6c2.9-0.8,4.7-3.8,3.9-6.8L348,4.9c-0.8-2.9-3.8-4.7-6.8-3.9l-2.6,0.7c-2.9,0.8-4.7,3.8-3.9,6.8
	l2.6,9.6c1.2,4.4-3.2,8.3-7.5,6.5C290.7,8.1,248.7-0.3,206.2,0C151.1-0.6,96.9,13.7,49.3,41.3c-2.7,1.6-3.6,5.1-1.9,7.7l1.4,2.3
	c1.6,2.5,4.9,3.4,7.5,1.9C101.8,26.8,153.6,13.1,206.2,13.7z"/>
<path d="M192.5,398.8c-37.1,0.2-74-6.5-108.6-19.6c-5-1.9-4.7-9.1,0.5-10.5l0,0c2.9-0.8,4.7-3.8,3.9-6.8l-0.7-2.6
	c-0.8-2.9-3.8-4.7-6.8-3.9L45,365c-2.9,0.8-4.7,3.8-3.9,6.8l9.6,35.8c0.8,2.9,3.8,4.7,6.8,3.9l2.6-0.7C63,410,64.8,407,64,404
	l-2.6-9.6c-1.2-4.4,3.3-8.3,7.5-6.5c39.1,16.5,81.1,24.9,123.6,24.7c55.1,0.6,109.3-13.7,156.8-41.3c2.7-1.6,3.6-5.1,1.9-7.7
	l-1.4-2.3c-1.6-2.5-4.9-3.4-7.5-1.9C296.9,385.8,245.1,399.4,192.5,398.8z"/>
<path d="M178.7,137.5c-22.8,0-41.3,18.5-41.3,41.3s18.5,41.3,41.3,41.3s41.3-18.5,41.3-41.3C220,156,201.5,137.5,178.7,137.5z
	 M178.7,206.3c-15.2,0-27.5-12.3-27.5-27.5s12.3-27.5,27.5-27.5s27.5,12.3,27.5,27.5C206.2,193.9,193.9,206.3,178.7,206.3z"/>
<path d="M295.6,99.7L295.6,99.7c0-1.9-1.5-3.4-3.4-3.4H65.3c-1.9,0-3.4,1.5-3.4,3.4l0,0c0,17.1-13.9,30.9-30.9,30.9l0,0
	c-1.9,0-3.4,1.5-3.4,3.4v89.4c0,1.9,1.5,3.4,3.4,3.4l0,0c17.1,0,30.9,13.9,30.9,30.9l0,0c0,1.9,1.5,3.4,3.4,3.4h226.9
	c1.9,0,3.4-1.5,3.4-3.4l0,0c0-17.1,13.9-30.9,30.9-30.9l0,0c1.9,0,3.4-1.5,3.4-3.4V134c0-1.9-1.5-3.4-3.4-3.4l0,0
	C309.5,130.6,295.6,116.8,295.6,99.7z M313.6,214.3c-15.1,3.6-27,15.5-30.6,30.6c-0.4,1.6-1.7,2.7-3.4,2.7H77.8
	c-1.6,0-3-1.1-3.4-2.7c-3.6-15.1-15.5-27-30.6-30.6c-1.6-0.4-2.7-1.7-2.7-3.4v-64.3c0-1.6,1.1-3,2.7-3.4c15.1-3.6,27-15.5,30.6-30.6
	c0.4-1.6,1.7-2.7,3.4-2.7h201.8c1.6,0,3,1.1,3.4,2.7c3.6,15.1,15.5,27,30.6,30.6c1.6,0.4,2.7,1.7,2.7,3.4v64.3
	C316.2,212.5,315.1,213.9,313.6,214.3z"/>
<path d="M254.4,171.9h27.5c3.8,0,6.9,3.1,6.9,6.9l0,0c0,3.8-3.1,6.9-6.9,6.9h-27.5c-3.8,0-6.9-3.1-6.9-6.9l0,0
	C247.5,175,250.6,171.9,254.4,171.9z"/>
<path d="M75.6,171.9h27.5c3.8,0,6.9,3.1,6.9,6.9l0,0c0,3.8-3.1,6.9-6.9,6.9H75.6c-3.8,0-6.9-3.1-6.9-6.9l0,0
	C68.7,175,71.8,171.9,75.6,171.9z"/>
</svg>
