<?xml version="1.0" encoding="utf-8"?>
<!-- Generator: Adobe Illustrator 22.1.0, SVG Export Plug-In . SVG Version: 6.00 Build 0)  -->
<svg version="1.1" id="Layer_1" xmlns="http://www.w3.org/2000/svg" xmlns:xlink="http://www.w3.org/1999/xlink" x="0px" y="0px"
	 viewBox="0 0 913.7 906.5" style="enable-background:new 0 0 913.7 906.5;" xml:space="preserve">
<style type="text/css">
	.st0{display:none;}
	.st1{display:none;enable-background:new    ;}
	.st2{font-family:'MyriadPro-Regular';}
	.st3{font-size:12px;}
	.st4{font-family:'IndianRupee-Regular';}
	.st5{font-size:260.8844px;}
</style>
<path class="st0" d="M707.3,606.6c12.5-8,24.5-16,36.7-23.6c17.6-11,40.6-3.2,47.8,16.2c5.3,14.3,0.1,30.1-13.1,38.6
	c-17.1,11.1-34.2,22.1-51.4,33.2c-31.6,20.4-63.3,40.6-94.7,61.3c-7.1,4.6-14.4,7.2-22.6,8.5c-32.2,5.1-64.5,10.3-96.6,16.2
	c-12.6,2.3-24.9,1.6-37.4,0.4c-17.5-1.7-35-3.2-52.6-4.8c-19.7-1.8-39.5-3.6-59.2-5.4c-17.3-1.6-34.7-3.1-52-4.7
	c-7.3-0.7-14.6-1.3-22-2c-1.3-0.1-2.6-0.2-4.2-0.3c0,2.9,0,5.6,0,8.3c-0.1,6.8-4.1,10.8-10.8,10.8c-23,0-46,0-69,0
	c-6.8,0-10.9-4.1-10.9-11c0-46.3,0-92.6,0-138.9c0-7.1,4-11.1,11.1-11.1c22.9,0,45.8,0,68.7,0c6.9,0,10.9,4,11,10.9c0,3,0,5.9,0,9
	c9.6,0,18.8,0,28.4,0c-0.6-1.3-1.1-2.4-1.6-3.4c-12.3-25.5-20.9-52.1-24.7-80.2c-7-51.6,0.9-100.9,23.2-147.9
	c5.2-10.9,11.5-21.2,17.5-31.8c1-1.7,1.1-2.7-0.2-4.3c-26.5-32.2-53-64.4-79.5-96.7c-6.1-7.5-4-14.9,5.2-17.9
	c26.4-8.8,52.8-17.6,79.2-26.3c2.3-0.8,3.2-1.8,3.1-4.3c-0.2-6.3-0.1-12.7-0.1-19c0.1-6.7,4.1-10.7,10.8-10.7c39.8,0,79.5,0,119.3,0
	c6.9,0,10.9,4,11,10.9c0,8.7,0,17.3,0,26c0,1,0,2,0,3.2c6.7,0,13.2,0,20,0c0-2.9,0.1-5.9,0-8.8c-0.3-7,5.3-11.4,11.1-11.2
	c9.7,0.3,19.4,0.1,29.5,0.1c0-1.1,0-2.1,0-3.1c0-8.7,0-17.3,0-26c0-7.3,4-11.1,11.3-11.1c39.5,0,79,0,118.5,0
	c7.5,0,11.4,3.9,11.4,11.3c0,10,0.1,19.9-0.1,29.9c0,2.4,0.8,3.6,2.9,4.7c27.3,15,54.6,30.2,81.8,45.3c5.2,2.9,7.4,7.4,5.7,12.2
	c-0.7,2-2.1,3.9-3.7,5.5c-27,27-54,54-81.1,80.9c-0.8,0.8-1.8,1.3-2.5,1.8C735.5,429.7,745.1,515.7,707.3,606.6z M488.1,678.5
	c0.8,0,1.4,0.1,1.9,0.1c34.6,0,69.3,0,103.9,0c1.2,0,2.5-0.5,3.6-1.2c24.3-15.6,48.6-31.3,72.9-47.1c1.3-0.8,2.5-2,3.2-3.3
	c4.1-7.5,8.4-14.9,12.1-22.6c21.5-45.1,29.1-92.4,21.5-141.8c-5.8-37.6-20-71.8-41.2-103.3c-1.2-1.8-2.6-2.5-4.7-2.5
	c-22.1,0.1-44.1,0.1-66.2,0.1c-80.1,0-160.2,0-240.3-0.1c-2,0-3.2,0.5-4.3,2.2c-33.9,50.7-49.4,106.2-42.7,167.3
	c3.5,32,13.7,62,28.9,90.3c0.7,1.4,1.5,1.8,3,1.8c3.5-0.1,7.1,0.1,10.6-0.1c1.3-0.1,2.9-0.7,3.8-1.6c8.3-8.1,16.6-16.3,24.8-24.6
	c2.6-2.7,5.6-3.9,9.4-3.9c58.1,0.1,116.2,0,174.3,0.1c1.9,0,3.8-0.1,5.6,0.2c20.5,3,33.6,21.2,30.2,41.8
	c-2.6,15.6-17.6,28.5-33.4,28.5c-24.5,0.1-49,0-73.5,0c-1.1,0-2.2,0-3.3,0C488.1,665.3,488.1,671.8,488.1,678.5z M286.6,638.4
	c-0.2,0.5-0.3,0.6-0.3,0.8c0,26.3,0,52.5-0.1,78.8c0,1.5,0.7,1.9,2,2c8.3,0.7,16.7,1.5,25,2.2c19.5,1.8,38.9,3.5,58.4,5.3
	c19.7,1.8,39.5,3.6,59.2,5.4c17.5,1.6,35,3.2,52.6,4.8c5.2,0.5,10.5,1.6,15.5,0.8c35.5-5.6,70.9-11.7,106.3-17.4
	c6.7-1.1,12.5-3.3,18.2-7c47.5-30.9,95.2-61.5,142.8-92.3c1-0.7,2.1-1.3,3-2.1c3.5-3.2,5.1-7.1,4.1-11.8c-1-4.8-4-7.9-8.6-9.3
	c-4.3-1.3-8,0.1-11.6,2.4c-48.9,31.6-97.8,63.2-146.7,94.9c-3.1,2-6.2,2.9-9.9,2.9c-39.3-0.1-78.6-0.2-117.9,0
	c-6.9,0-11.3-5.4-11.2-11.1c0.2-12.5,0.1-25,0.1-37.4c0-8.2,3.7-11.9,11.9-11.9c27.5,0,55,0,82.4,0c4.3,0,8.3-1,11.6-3.9
	c4.6-4.1,6.3-10.8,4-16.6c-2.3-6-8-9.7-15.2-9.7c-56.3,0-112.5,0-168.8,0.1c-1.3,0-2.9,0.7-3.8,1.6c-8.4,8.2-16.7,16.5-25,24.8
	c-2.4,2.4-5.1,3.7-8.7,3.7c-8.2-0.1-16.4,0-24.6,0C316.5,638.4,301.6,638.4,286.6,638.4z M618.7,216.1c-33.5,0-66.9,0-100.2,0
	c0,40.3,0,80.3,0,120.3c33.6,0,66.9,0,100.2,0C618.7,296.2,618.7,256.2,618.7,216.1z M418.6,336.5c-3.7-14.4-0.4-26.5,12-34.9
	c10.5-7.2,21.9-7.4,32.6-0.6c13.1,8.3,16.7,20.7,13,35.5c7.1,0,14.1,0,21.2,0c0-33.5,0-66.9,0-100.3c-33.5,0-66.8,0-100.2,0
	c0,33.5,0,66.9,0,100.3C404.5,336.5,411.5,336.5,418.6,336.5z M265.7,618.5c-16.9,0-33.5,0-50.1,0c0,40.2,0,80.2,0,120.3
	c16.8,0,33.4,0,50.1,0C265.7,698.6,265.7,658.6,265.7,618.5z M558.6,195.7c1.4,0,2.5,0,3.6,0c22.3,0,44.5,0,66.8,0
	c4.7,0,8.4,2.5,9.7,6.9c0.5,1.6,0.4,3.5,0.4,5.2c0,41.7,0,83.4,0,125.1c0,1.2,0,2.3,0,3.5c6.9,0,13.4,0,19.9,0
	c0-53.6,0-107.1,0-160.6c-33.6,0-66.9,0-100.4,0C558.6,182.5,558.6,188.9,558.6,195.7z M457.3,196c-33.7,0-67.1,0-100.5,0
	c0,46.9,0,93.6,0,140.4c6.7,0,13.2,0,19.9,0c0-1.3,0-2.4,0-3.5c0-35.1,0.1-70.2-0.1-105.3c0-7.8,5.5-11.9,11.6-11.8
	c21.9,0.3,43.8,0.1,65.6,0.1c1.1,0,2.2,0,3.4,0C457.3,209.1,457.3,202.6,457.3,196z M679.6,223c0,33.2,0,65.9,0,98.7
	c21.1-21.3,42.1-42.4,63.2-63.7C722.1,246.6,701,234.9,679.6,223z M336.3,328.1c0-33.1,0-65.5,0-98.2c-21.2,7-42.1,14-63.4,21.1
	C294.2,276.8,315,302.2,336.3,328.1z M447.5,336.6c5.5,0,9.9-4.5,10-10c0-5.6-4.5-10.2-10.1-10.1c-5.4,0-10,4.5-10,10
	C437.3,331.9,441.9,336.6,447.5,336.6z"/>
<path class="st0" d="M538.2,286.4c-0.1-16.7,13.4-30.2,30.1-30.3c16.7,0,30.3,13.4,30.4,30c0.1,16.7-13.5,30.4-30.3,30.4
	C551.8,316.5,538.3,303,538.2,286.4z M558.5,286.2c0,5.6,4.5,10.2,10.1,10.1c5.4,0,10-4.5,10-10c0.1-5.5-4.6-10.2-10.1-10.1
	C562.9,276.3,558.5,280.7,558.5,286.2z"/>
<text transform="matrix(1 0 0 1 107.2475 37.4209)" class="st1 st2 st3">~</text>
<text transform="matrix(1 0 0 1 440.9516 566.8207)" class="st1 st4 st5">`</text>
<path class="st0" d="M-521.1,358.3c22.1,5.1,32.2,14.5,34.1,31.6c1.1,9.7-2.8,16.4-10.7,18c-8.6,1.8-14.6-2.6-16.9-12.7
	c-1.2-5.1-3.8-7.8-9.1-7.8c-10.3,0-20.6,0-30.9,0c-5.8,0-8.7,2.7-8.5,8.7c0.2,5.3,0.2,10.6,0,15.9c-0.4,7.3,3.7,10.1,10.2,10.1
	c10.9,0.1,21.7,0,32.6,0.1c16.4,0.1,30.3,11.4,32.8,27.6c1.4,9,1.6,18.3,1.1,27.4c-1.2,21.1-10.9,31.1-34.2,36.3
	c-2.6,22-5.9,27.7-15.5,27.2c-9.4-0.5-12.2-6-13.8-28.1c-2.8,0-5.7,0.1-8.7,0c-18.8-0.8-33.5-16.8-32.6-35.3c0.4-7.4,4-12,11.4-13.3
	c7.9-1.3,14.8,2.3,15.9,9.8c1.3,9.3,6.4,11.1,14.4,10.7c8.1-0.4,16.1-0.2,24.2-0.1c7.2,0.1,10.6-3,10.8-10.4
	c0.7-24.1,0.8-24.1-23-24.1c-6.7,0-13.4,0.2-20,0c-19.1-0.6-33.4-15.3-33.6-34.4c-0.1-6.7,0-13.4,0-20c0-21.8,13.8-35.8,35.9-36.3
	c1.6,0,3.3-0.2,5.6-0.3c1.5-10.9-4-27.3,14.5-27.1C-517.7,332-522.2,347.7-521.1,358.3z"/>
<path class="st0" d="M-371.2,499c8.6-0.1,13.7,4.7,13.8,12.8c0.1,8.5-5.4,14.3-13.6,14.4c-8.3,0.1-14.6-6.2-14.5-14.6
	C-385.3,504-379.8,499.1-371.2,499z"/>
<path class="st0" d="M536.9,227c-13.6,0-27.2-0.4-40.8,0.1c-13.5,0.6-26.7,3.5-39.6,7.7c-16.9,5.5-32.5,13.6-46.8,24.1
	c-19.7,14.4-35.5,32.3-47.3,53.6c-7.3,13.2-12.8,27.1-16.3,41.8c-3.6,14.7-4.9,29.6-4.9,44.7c0.1,20.8,0.1,41.5,0,62.3
	c0,3.3,1.2,4.7,4.4,5.8c9.5,3,19,6,28.2,9.8c11.9,5,23.5,10.6,35.2,16.2c9,4.3,17.7,9.2,26.7,13.5c9.1,4.3,18.3,8.4,27.6,12.3
	c6.6,2.7,13.3,5.1,20.1,7.1c14.4,4.2,28.9,4.1,43.5,0.5c13.3-3.3,26.4-1.7,38.8,4.3c13.5,6.6,24.5,16,33,28.5
	c0.6,0.9,2.7,1.8,3.8,1.5c9.8-2.8,19.5-6,29.2-8.9c10.6-3.2,21.2-6.3,31.8-9.5c12.3-3.7,24.5-7.5,36.7-11.3
	c11.2-3.4,22.4-6.8,33.6-10.2c8.2-2.5,16.2-5.6,24.5-7.5c4.9-1.1,10.3-0.8,15.3-0.3c11.5,1.1,22.4,4.5,31.8,11.4
	c12.8,9.2,18.9,22.1,19.7,37.7c0.1,1.9,0.8,3.8,1.1,5.7c0.2,1.4,0.5,2.9,0.2,4.2c-1.2,6.4-2,13-3.8,19.3
	c-4.5,15.9-13.6,28.5-28.1,37.1c-18.7,11.1-37.3,22.6-56,33.9c-19.5,11.8-39,23.6-58.5,35.4c-21.8,13.3-43.4,26.8-65.5,39.8
	c-16.6,9.8-33.5,19.2-50.6,27.9c-10.8,5.5-22.4,9.4-33.7,13.9c-4.3,1.7-8.6,3.3-13,4.4c-14.5,3.4-29.1,3.4-43.7,0.1
	c-16.1-3.6-31.2-10.2-46.1-16.9c-13.8-6.2-27.6-12.1-41.5-18.1c-12.5-5.5-25-11-37.6-16.3c-13-5.5-26.2-10.6-39.2-16
	c-4.3-1.8-8.3-4.2-12.6-6.2c-6.9-3.3-14.4-2.8-21.7-2.3c-14.1,1-27.1,6-39.6,12.2c-11.9,6-24,11.8-35.9,17.8
	c-13.4,6.8-26.7,13.8-40,20.6c-9.9,5.1-19.7,10.6-30,14.9c-8.2,3.5-17,3.1-25.5,0.2c-14.7-5.1-22.4-16.3-26.3-30.9
	c-2.8-10.2-6.2-20.3-9.4-30.4c-4.1-13.2-8.1-26.4-12.2-39.6c-3.9-12.7-8-25.3-11.9-37.9c-2.5-8.2-4.8-16.4-7.4-24.6
	c-2.9-9.4-6.1-18.8-8.8-28.2c-6-20.8,2.1-41.7,23.3-50.4c10.4-4.2,21.4-7.1,32.2-10.5c11-3.5,22-6.9,33-10.3
	c8-2.5,15.9-4.8,23.9-7.3s16.1-5.1,24.1-7.6c7.9-2.5,15.9-4.8,23.9-7.2c7.9-2.4,15.8-5,23.8-7.4c14.1-4.1,28.1-8.5,42.4-11.9
	c11.9-2.8,24.2-4.3,36.3-6.3c3.1-0.5,6.3-0.5,9.5-0.6c4.2-0.1,4.7-0.5,4.7-4.8c0-22.2-0.2-44.4,0.1-66.5c0.2-16.9,2.4-33.6,6.8-50.1
	c7.9-30,21.9-56.7,41.9-80.3c14.5-17.2,31.5-31.4,50.8-42.9c14.9-8.9,30.7-15.5,47.2-20.5c3.8-1.1,7.6-2.1,11.5-2.8
	c2.4-0.5,3.3-1.6,3.3-4c0-10.9,0-21.7-0.1-32.6c0-1.5-0.7-3.2-1.6-4.5c-14.7-22-29.4-43.9-44.1-65.9c-4.6-6.9-3.7-16.2,1.9-22.2
	c14.6-15.5,29.1-31.1,43.7-46.5c2.2-2.3,4.7-4.3,7.2-6.3c0.6-0.5,1.6-0.7,2.4-0.7c5.3,0,10-0.1,15.1,3.7
	c14.4,10.5,29.8,19.7,44.7,29.6c2,1.3,3.6,1,5.4-0.2c13.9-9.1,28-18.1,41.9-27.3c8-5.3,21.1-5.9,29.1,3.7
	c7.7,9.3,16.5,17.6,24.6,26.5c6.6,7.2,13,14.5,19.4,21.9c3.3,3.8,3.7,14.2,0.9,18.4c-14.9,22.1-29.8,44.2-44.6,66.4
	c-0.9,1.4-1.5,3.2-1.6,4.8c-0.1,10.8,0,21.5-0.1,32.3c0,3,1.2,4.1,4.2,5c9.4,2.7,18.7,5.5,27.8,9.1c17.1,6.8,32.9,16.1,47.3,27.5
	c20.8,16.4,38.1,35.9,51.4,58.9c6.6,11.4,12.1,23.4,16.4,35.8c4.7,13.8,7.9,28,9.6,42.6c2.2,18.5,0.9,37.1,1.2,55.6
	c0.1,7.3-6.9,14.6-14.1,15.5c-10.5,1.3-16.4-1.8-20.6-11.2c-0.7-1.6-1-3.6-1.1-5.4c-0.2-13.9,0-27.9-0.5-41.8
	c-0.3-6.9-1.4-13.8-2.9-20.5c-1.9-8.5-4.3-17-7-25.3c-4.1-13.1-10.6-25-18.2-36.3c-14.6-21.8-33.3-39.3-55.9-52.5
	c-12-7-24.7-12.2-38.1-16c-16.5-4.7-33.3-6.6-50.4-6.2c-7.7,0.2-15.4,0-23.1,0C536.9,226.7,536.9,226.9,536.9,227z M484.9,664.7
	c-3.7,0-7.6,0.6-11.2-0.1c-8.4-1.7-16.7-3.7-24.9-6.1c-10-2.9-19.9-6.2-29.7-9.6c-11.2-3.9-22.2-8.2-33.4-12
	c-12.2-4.1-18.4-12.2-16.1-24.4c1.5-8.1,11.7-15.2,19.6-13.3c4.7,1.1,9.2,2.8,13.8,4.4c8.8,3.1,17.4,6.5,26.2,9.6
	c10,3.5,20.1,6.9,30.3,9.8c7,2.1,14.2,4.3,21.4,4.8c16.6,1,32.3-4.3,47.8-9.2c6.2-2,12.3-4.7,18.2-7.4c9.6-4.5,18.2-10.6,25.5-18.4
	c1.1-1.2,1.8-3.4,1.6-5c-0.6-4.5-2.2-8.7-6-11.7c-2.7-2.2-5.1-4.8-7.8-7c-6.6-5.4-13.9-8.7-22.8-6.9c-7.7,1.5-15.5,3.1-23.3,3.7
	c-18.5,1.3-36.5-1.7-53.4-8.9c-18.2-7.7-36.6-15-54-24.9c-11.8-6.7-24.2-12.2-36.6-17.9c-12.4-5.8-24.9-11.4-38.7-13.2
	c-11.4-1.4-22.8-2.3-34.1-0.6c-14.4,2.1-28.8,4.7-43,7.9c-11.2,2.5-22.1,6.4-33.1,9.7c-8,2.4-15.9,4.9-23.8,7.3
	c-8.4,2.5-16.8,5-25.2,7.6c-8.1,2.5-16.1,5-24.2,7.5c-8.3,2.5-16.6,5-24.9,7.5c-8.2,2.5-16.3,5-24.5,7.6
	c-11.2,3.5-22.4,6.9-33.6,10.4c-3,0.9-3.9,2.7-3,5.8c3.2,10.4,6.3,20.8,9.4,31.1c4.7,15.4,9.5,30.8,14.2,46.2
	c3.8,12.5,7.6,25,11.4,37.5c3.4,11.2,6.9,22.4,10.3,33.6c1.4,4.6,2.8,9.2,4.3,13.8c1.3,3.9,3.8,5.2,6.9,3.6
	c7.1-3.7,14.1-7.5,21.2-11.2c11.4-6,22.9-12,34.4-17.9c10.8-5.6,21.5-11.3,32.5-16.5c11.6-5.5,23.1-11.3,35.1-15.4
	c14.6-5,30-7.9,45.6-5.9c7.3,0.9,14.7,2.5,21.7,4.9c8.8,3,17,7.4,25.6,11c12.6,5.3,25.3,10.5,37.9,15.8c10.8,4.6,21.4,9.4,32.2,14.1
	c12.4,5.5,24.8,11,37.3,16.4c13.7,5.9,27.3,12,41.9,15.2c7.4,1.6,14.9,1.5,22.2-0.3c15-3.6,29-10,42.7-16.8
	c15.8-7.8,31.3-16.3,46.5-25.1c18.6-10.9,36.6-22.1,54.6-33.2c19.3-11.8,38.5-23.6,57.8-35.3c22.8-13.9,45.7-27.8,68.6-41.7
	c4.2-2.5,7.7-5.6,10.2-10c3.7-6.7,4.4-13.9,4.1-21.3c-0.1-4.4-1.8-8.2-5.2-10.5c-6.6-4.4-13.7-6.5-21.8-3.6
	c-5.3,1.9-10.9,3.4-16.3,5c-8.1,2.4-16.1,4.9-24.2,7.3c-10.8,3.3-21.6,6.6-32.4,10c-7.8,2.4-15.7,4.8-23.5,7.2
	c-8.3,2.6-16.5,5.2-24.8,7.7c-10.3,3.1-20.6,6.2-30.8,9.4c-2.7,0.8-4.3,2.5-5,5.5c-0.7,2.9-1.8,6-3.5,8.5
	c-9.1,13.5-21.5,23.4-36,30.5c-11.9,5.8-24.2,10.8-36.5,15.5C515.9,662.2,500.6,665.1,484.9,664.7z M539.1,119.6
	c16.4,0,32.7,0,49.1,0c2.3,0,4.2-0.4,5.7-2.5c7.7-11.4,15.4-22.7,23.1-34c1.2-1.8,1.2-3.3-0.4-5c-5.9-6-11.7-12.2-17.6-18.2
	c-4.1-4.1-4.3-6.2-10.4-1.3c-0.8,0.7-1.9,1.1-2.8,1.7c-12.9,8.3-25.9,16.4-38.7,24.8c-4,2.6-8,2.1-12,0.7c-2.9-1-5.6-2.5-8.2-4.1
	c-13.2-8.5-26.4-17-39.4-25.7c-2.5-1.6-3.9-1.5-5.9,0.5c-6.7,7-13.4,13.9-20.2,20.8c-1.4,1.5-1.4,2.5-0.3,4.2
	c7.7,11.5,15.3,23,22.8,34.6c1.6,2.5,3.5,3.5,6.5,3.4C506.6,119.6,522.9,119.6,539.1,119.6z M539.2,155.7c-10.5,0-21.1,0-31.6,0
	c-2.7,0-3.7,1-3.6,3.7c0.1,9.2,0.1,18.4,0,27.6c0,2.9,1,4.2,4,4.2c20.6-0.1,41.2,0,61.9-0.1c4.1,0,4.6-0.6,4.6-4.5
	c0-8.8,0-17.6,0-26.3c0-4.3-0.2-4.5-4.4-4.5C559.8,155.7,549.5,155.7,539.2,155.7z"/>
<path class="st0" d="M621.4,276.8c-4.5,6.7-8.8,12.9-12.9,19.1c-1.2,1.8-2.6,2.5-4.9,2.5c-10.4-0.1-20.9-0.1-31.3-0.1
	c-1.2,0-2.4,0-3.2,0c3.4,7.3,6.8,14.6,10.5,22.5c12.9,0,26.7,0,41,0c-0.3,1-0.4,1.6-0.7,2.1c-4,5.9-7.9,11.9-12,17.7
	c-0.7,1-2.5,1.8-3.7,1.8c-8.1,0.2-16.2,0.1-24.3,0.1c-3.3,18.1-12.5,32.3-27.7,42.1c-11.6,7.5-24.7,11.7-38.6,13.3
	c-2.6,0.3-5.2,0.5-8.8,0.8c28.8,35.2,58.3,69.1,87.9,104c-1.6,0-2.6,0-3.5,0c-11,0-22,0.1-32.9-0.1c-1.3,0-3-0.7-3.9-1.7
	c-27.5-32-54.9-64-82.2-96.1c-1-1.2-1.7-3.1-1.7-4.7c-0.2-5.9-0.1-11.8-0.1-18.2c2.3,0.2,4.3,0.3,6.3,0.4c14.8,1,29.4,0.7,43.6-4.3
	c13.3-4.7,23.1-13.3,27.9-26.9c0.9-2.6,1.3-5.5,2-8.6c-29.3,0-58.2,0-87.7,0c0.7-1.3,1-2.1,1.5-2.8c3.8-5.5,7.7-10.9,11.4-16.5
	c1.2-1.8,2.6-2.5,4.8-2.5c20.5,0.1,41.1,0.1,61.6,0.1c1.2,0,2.4,0,4,0c-1.9-4.4-4.8-7.6-8.2-10.4c-10.1-8.2-22-11.8-34.8-12.1
	c-12.1-0.3-24.2-0.1-36.2-0.1c-1.2,0-2.3,0-4,0c0.6-1.3,0.9-2.1,1.4-2.7c3.8-5.6,7.6-11.3,11.6-16.8c0.8-1.1,2.6-2.1,3.9-2.1
	c47.1-0.1,94.2-0.1,141.3-0.1C619.5,276.6,620.1,276.7,621.4,276.8z"/>
<path class="st0" d="M771.3,477.1c0,11.2-7.1,18.2-18.1,18.6c-9.9,0.3-18.2-9.4-17.9-18.5c0.3-10.4,7.1-16.6,18.5-17
	C763.6,460,772.4,467.2,771.3,477.1z"/>
<path d="M456.1,313c-144,0.6-288,1.2-432,1.9c-11.3,0.1-18.7-5-22.9-15.1c-1-2.4-0.9-5.3-0.9-8c0-65.4,0-130.7,0-196.1
	c0-7.5,0.4-15.1-0.1-22.6c-0.8-13.2,11.1-22.8,22.6-22.7c42.8,0.3,85.6,0.1,128.4,0.1c52.8,0,105.5,0,158.3,0.1
	c4.3,0,7.7-0.9,11.1-3.6c17.8-14.3,37.6-25.3,59-33.2C396,7.7,412.9,3.1,430.4,1.6c9.9-0.8,19.9-1.5,29.8-1.6
	c22.9-0.2,45.1,4.3,66.7,11.6c23.3,7.9,44.8,19.3,63.9,34.8c3.8,3.1,7.6,4.3,12.5,4.2c40.2-0.2,80.4-0.1,120.6-0.1
	c54.5,0,109,0.2,163.5-0.2c14.6-0.1,24.8,9.8,24.7,24.7c-0.4,70.6-0.2,141.1-0.2,211.7c0,15.9-8.4,24.3-24.3,24.4
	c-143.9,0.6-287.7,1.2-431.6,1.9C456.1,313.1,456.1,313,456.1,313z M630.7,195.1c0-1,0.1-1.6,0-2.1c-3.9-23.5-11.8-45.5-24.5-65.7
	c-23.9-38-57.5-63.6-100.4-76.5c-23.2-7-46.9-9-71.2-5.8c-30.6,4-58.5,14.8-83.1,33.2c-37.7,28.2-61.2,65.5-69.5,112.1
	c-0.9,5.2-1,5.2,4.4,5.2c113.1,0,226.1,0,339.2,0C627.2,195.4,628.9,195.2,630.7,195.1z M456.1,238.9c-134.9,0-269.8,0-404.7,0
	c-1.4,0-2.9,0.1-4.3,0c-2.6-0.2-3.5,0.9-3.5,3.6c0.1,8.5,0.1,17.1,0,25.6c0,2.7,1,3.5,3.6,3.5c6.9-0.1,13.9,0,20.8-0.1
	c218.9-1,437.8-2.1,656.8-3.1c46.3-0.2,92.5-0.4,138.8-0.4c3.9,0,5.4-1,5.1-5.1c-0.4-5.9-0.1-11.9-0.1-17.8c0-6.2,0-6.2-6.4-6.2
	C726.8,238.9,591.4,238.9,456.1,238.9z M637.6,94.4c0.8,1.5,1.1,2.4,1.7,3.2c19,28.2,30.6,59.2,35.3,92.7c0.6,4,1.8,5.2,5.9,5.2
	c61-0.1,122-0.1,183,0c4.4,0,5.2-1.5,5.2-5.5c-0.2-30.1-0.1-60.1-0.1-90.2c0-5.7,0-5.7-5.6-5.7c-73.4,0-146.9,0-220.3,0
	C641.1,94.1,639.6,94.3,637.6,94.4z M274.4,94.5c-1.8-0.1-3.1-0.4-4.5-0.4c-73.9,0-147.8,0-221.7-0.1c-3.9,0-4.8,1.2-4.8,5
	c0.1,30.4,0.2,60.7,0,91.1c0,4.6,1.5,5.5,5.7,5.4c17.6-0.2,35.3-0.1,52.9-0.1c43.1,0,86.2-0.1,129.3,0.1c4,0,5.5-0.9,6.2-5.3
	c2.1-12.2,4.3-24.5,7.8-36.4c6-20.5,15.5-39.5,27.9-56.9C273.7,96.4,273.9,95.7,274.4,94.5z"/>
<path d="M709.5,718.6c-67.9,0.2-123-54.7-123.2-122.7c-0.2-67.8,54.9-123,122.8-123.3c67.6-0.2,122.9,54.9,123.2,122.9
	C832.6,663.3,777.5,718.5,709.5,718.6z"/>
<path d="M709.1,906.5c-60.1,0-120.3,0-180.4,0c-8.8,0-15.8-3.3-20.2-10.9c-4.7-8-4-15.9,0.7-23.8c23.4-39.4,55.3-69.8,96.2-90.5
	c24.8-12.6,51.1-20.2,78.9-23.4c34.5-3.9,68.1,0,100.8,11.4c40.5,14.1,74.7,37.6,101.9,70.8c8.2,10,15.1,21.1,22.5,31.8
	c5.2,7.6,5.7,15.6,0.8,23.6c-4.6,7.6-11.5,11-20.2,11C829.7,906.5,769.4,906.5,709.1,906.5z"/>
<path d="M202.8,576.9c0,71.1,0,142.3,0,213.4c0,15.3-8.6,24-23.8,24c-27.6,0-55.2,0-82.8,0c-14.9,0-23.6-8.8-23.6-23.8
	c0-142.3,0-284.6,0-426.8c0-14.7,8.7-23.5,23.4-23.6c27.9,0,55.8,0,83.7,0c14.4,0,23.2,8.9,23.2,23.3
	C202.8,434.7,202.8,505.8,202.8,576.9z M115.9,577.4c0,62.9,0,125.8-0.1,188.7c0,3.7,0.9,5,4.8,4.9c11.4-0.2,22.8-0.2,34.3,0
	c3.7,0.1,4.6-1.2,4.5-4.7c-0.1-26.2-0.1-52.3-0.1-78.5c0-99.8,0-199.5,0.1-299.3c0-3.7-0.8-5-4.8-4.9c-11.3,0.3-22.6,0.3-33.8,0
	c-4.1-0.1-5,1.2-5,5.2C116,451.6,115.9,514.5,115.9,577.4z"/>
<path d="M390.9,577.2c0-71.3,0-142.6,0-213.8c0-11.4,5.4-19.1,15.7-22.2c2.2-0.7,4.6-0.8,6.8-0.8c28.3-0.1,56.7-0.1,85,0
	c13.8,0,22.7,9,22.7,22.9c0,118.7,0,237.4,0,356.1c0,13.3-9,22.7-21.5,22.7c-12.8,0.1-21.8-9.3-21.8-22.9c0-110,0-220.1,0.1-330.1
	c0-4.6-1.3-5.6-5.6-5.4c-11,0.3-22,0.3-33,0c-4-0.1-5.1,1.1-5.1,5.1c0.1,129.4,0.1,258.8,0.1,388.2c0,5.2,0.1,10.4,0,15.6
	c-0.2,12.6-9.3,21.8-21.6,21.9c-12.4,0.1-21.8-9.3-21.8-22.1C390.9,720.6,390.9,648.9,390.9,577.2z"/>
<path d="M209.6,901.2c-62.1,0-124.3,0-186.4,0c-10.1,0-17.4-4.2-21.5-13.7c-5.6-12.9,3.6-28.5,17.8-29.7c1.4-0.1,2.9-0.1,4.3-0.1
	c124.2,0,248.3,0,372.5,0c11.7,0,19.2,5.1,22.6,15.2c4.4,13.1-5.1,27.3-18.9,28.2c-2,0.1-4,0.1-6.1,0.1
	C332.5,901.2,271.1,901.2,209.6,901.2z"/>
<path d="M774.5,340.2c14.2,0,28.3,0,42.5,0c13.5,0.1,22.5,9,22.6,22.5c0.1,17.5,0.1,35,0,52.5c0,13.3-9,22.7-21.6,22.7
	c-12.8,0-21.8-9.4-21.8-22.9c0-9.1-0.1-18.2,0-27.3c0-2.8-0.5-4.2-3.8-4.2c-12,0.2-24,0.2-36,0c-3.2,0-3.7,1.3-3.9,4.1
	c-0.2,5-0.2,10.2-1.6,14.9c-3,9.5-12.9,14.8-23.1,13.5c-9.7-1.3-18-9.4-18.3-19.1c-0.5-12.4-0.5-24.9,0-37.3
	c0.4-10.9,9.9-19.3,21.2-19.4C745.3,340.1,759.9,340.2,774.5,340.2z"/>
</svg>
