<svg xmlns="http://www.w3.org/2000/svg" width="16.098" height="12.241" viewBox="0 0 16.098 12.241">
  <g id="Group_4" data-name="Group 4" transform="translate(497.01 -68.605)">
    <path id="Path_6" data-name="Path 6" d="M-455.573,79.237q-2.215,0-4.429,0a.369.369,0,0,1-.359-.17.347.347,0,0,1,.06-.4,6.854,6.854,0,0,0,1.009-1.814,3.767,3.767,0,0,0,.175-.977c.024-.87-.021-1.742.015-2.611a3.3,3.3,0,0,1,1.865-3,3.216,3.216,0,0,1,.559-.209c.108-.032.143-.076.138-.188a1.282,1.282,0,0,1,.163-.824.972.972,0,0,1,1.045-.405.989.989,0,0,1,.734.919c0,.146-.047.326.021.427s.254.109.387.162a3.257,3.257,0,0,1,2.092,2.612,4.483,4.483,0,0,1,.063.739c.008.714.022,1.428,0,2.141a3.554,3.554,0,0,0,.516,1.955c.215.367.456.718.687,1.075a.346.346,0,0,1,.059.39.376.376,0,0,1-.368.181Q-453.359,79.234-455.573,79.237Zm.325-9.338c-.007-.22.07-.463-.163-.591a.4.4,0,0,0-.342.014c-.214.137-.129.371-.14.577Z" transform="translate(-33.391)" fill="#0483c8"/>
    <path id="Path_7" data-name="Path 7" d="M-332.015,89.478l-.526-.319a7.28,7.28,0,0,0,0-7.415l.524-.323A7.759,7.759,0,0,1-332.015,89.478Z" transform="translate(-150.025 -11.691)" fill="#0483c8"/>
    <path id="Path_8" data-name="Path 8" d="M-495.36,89.141l-.517.318a7.759,7.759,0,0,1-.013-8.055l.53.325A7.284,7.284,0,0,0-495.36,89.141Z" transform="translate(0 -11.675)" fill="#0483c8"/>
    <path id="Path_9" data-name="Path 9" d="M-477.744,91.223l.53.323a5.431,5.431,0,0,0,0,5.691l-.05.032-.486.288A5.964,5.964,0,0,1-477.744,91.223Z" transform="translate(-16.742 -20.632)" fill="#0483c8"/>
    <path id="Path_10" data-name="Path 10" d="M-348,97.49l-.546-.329a5.4,5.4,0,0,0,0-5.68l.534-.338a5.631,5.631,0,0,1,.861,2.363A6.082,6.082,0,0,1-348,97.49Z" transform="translate(-135.428 -20.559)" fill="#0483c8"/>
    <path id="Path_11" data-name="Path 11" d="M-419.03,197.151a1.546,1.546,0,0,1-1.435.952,1.57,1.57,0,0,1-1.468-.952Z" transform="translate(-68.483 -117.257)" fill="#0483c8"/>
  </g>
</svg>
