<svg xmlns="http://www.w3.org/2000/svg" width="259.474" height="255" viewBox="0 0 259.474 255">
  <g id="receipt" transform="translate(0 -0.5)">
    <path id="Path_178" data-name="Path 178" d="M246.053.5H13.421a13.421,13.421,0,0,0,0,26.842V13.921H246.053V27.342a13.421,13.421,0,0,0,0-26.842Z" fill="#3d465b"/>
    <path id="Path_179" data-name="Path 179" d="M11.947,218.237l26.842,26.842,26.842-26.842,26.842,26.842,26.842-26.842,26.842,26.842L173,218.237l26.842,26.842,26.842-26.842,8.947,8.947V3.5H3V227.184Z" transform="translate(10.421 10.421)" fill="#ff9191"/>
    <path id="Path_180" data-name="Path 180" d="M98.579,48.447H31.474a4.474,4.474,0,1,1,0-8.947H98.579a4.474,4.474,0,0,1,0,8.947Z" transform="translate(93.789 135.474)"/>
    <path id="Path_181" data-name="Path 181" d="M51.474,48.4A4.43,4.43,0,0,1,47,43.93a4.6,4.6,0,0,1,1.3-3.176,4.684,4.684,0,0,1,6.353,0,4.6,4.6,0,0,1,1.3,3.176A4.43,4.43,0,0,1,51.474,48.4Z" transform="translate(163.263 135.517)"/>
    <path id="Path_182" data-name="Path 182" d="M103.579,34.447H36.474a4.474,4.474,0,0,1,0-8.947h67.105a4.474,4.474,0,0,1,0,8.947Z" transform="translate(111.158 86.842)"/>
    <path id="Path_183" data-name="Path 183" d="M86.211,41.447H41.474a4.474,4.474,0,1,1,0-8.947H86.211a4.474,4.474,0,0,1,0,8.947Z" transform="translate(128.526 111.158)"/>
    <path id="Path_184" data-name="Path 184" d="M40.421,41.447H31.474a4.474,4.474,0,1,1,0-8.947h8.947a4.474,4.474,0,1,1,0,8.947Z" transform="translate(93.789 111.158)"/>
    <path id="Path_185" data-name="Path 185" d="M98.579,27.447H31.474a4.474,4.474,0,1,1,0-8.947H98.579a4.474,4.474,0,0,1,0,8.947Z" transform="translate(93.789 62.526)"/>
    <path id="Path_186" data-name="Path 186" d="M51.474,27.4A4.43,4.43,0,0,1,47,22.93a4.6,4.6,0,0,1,1.3-3.176,4.474,4.474,0,0,1,7.65,3.176,4.7,4.7,0,0,1-1.3,3.176A4.62,4.62,0,0,1,51.474,27.4Z" transform="translate(163.263 62.57)"/>
    <path id="Path_187" data-name="Path 187" d="M32.474,34.4a4.7,4.7,0,0,1-3.176-1.3,4.537,4.537,0,0,1,0-6.353,4.684,4.684,0,0,1,6.353,0,4.537,4.537,0,0,1,0,6.353A4.7,4.7,0,0,1,32.474,34.4Z" transform="translate(97.263 86.886)"/>
    <path id="Path_188" data-name="Path 188" d="M37.474,41.4a4.492,4.492,0,0,1-3.176-7.65,4.684,4.684,0,0,1,6.353,0,4.531,4.531,0,0,1,1.3,3.176,4.62,4.62,0,0,1-1.3,3.176A4.7,4.7,0,0,1,37.474,41.4Z" transform="translate(114.632 111.201)"/>
    <g id="Group_5" data-name="Group 5" transform="translate(22.368 40.763)">
      <path id="Path_190" data-name="Path 190" d="M9.474,18.4a4.7,4.7,0,0,1-3.176-1.3,4.537,4.537,0,0,1,0-6.353,4.684,4.684,0,0,1,6.353,0,4.537,4.537,0,0,1,0,6.353A4.7,4.7,0,0,1,9.474,18.4Z" transform="translate(-5 -9.457)" fill="#baee83"/>
      <path id="Path_191" data-name="Path 191" d="M180.351,13.974A4.458,4.458,0,0,1,184.825,9.5h0a4.487,4.487,0,0,1,4.474,4.474h0a4.487,4.487,0,0,1-4.474,4.474h0A4.458,4.458,0,0,1,180.351,13.974Zm-17.179,0A4.487,4.487,0,0,1,167.646,9.5h0a4.458,4.458,0,0,1,4.474,4.474h0a4.458,4.458,0,0,1-4.474,4.474h0A4.487,4.487,0,0,1,163.172,13.974Zm-17.134,0A4.487,4.487,0,0,1,150.512,9.5h0a4.487,4.487,0,0,1,4.474,4.474h0a4.487,4.487,0,0,1-4.474,4.474h0A4.487,4.487,0,0,1,146.038,13.974Zm-17.134,0A4.458,4.458,0,0,1,133.377,9.5h0a4.487,4.487,0,0,1,4.474,4.474h0a4.487,4.487,0,0,1-4.474,4.474h0A4.458,4.458,0,0,1,128.9,13.974Zm-17.179,0A4.487,4.487,0,0,1,116.2,9.5h0a4.458,4.458,0,0,1,4.474,4.474h0a4.458,4.458,0,0,1-4.474,4.474h0A4.487,4.487,0,0,1,111.725,13.974Zm-17.134,0A4.487,4.487,0,0,1,99.064,9.5h0a4.487,4.487,0,0,1,4.474,4.474h0a4.487,4.487,0,0,1-4.474,4.474h0A4.487,4.487,0,0,1,94.591,13.974Zm-17.134,0A4.458,4.458,0,0,1,81.93,9.5h0A4.487,4.487,0,0,1,86.4,13.974h0a4.487,4.487,0,0,1-4.474,4.474h0A4.458,4.458,0,0,1,77.456,13.974Zm-17.179,0A4.487,4.487,0,0,1,64.751,9.5h0a4.458,4.458,0,0,1,4.474,4.474h0a4.458,4.458,0,0,1-4.474,4.474h0A4.487,4.487,0,0,1,60.277,13.974Zm-17.134,0A4.487,4.487,0,0,1,47.617,9.5h0a4.487,4.487,0,0,1,4.474,4.474h0a4.487,4.487,0,0,1-4.474,4.474h0A4.487,4.487,0,0,1,43.143,13.974Zm-17.134,0A4.458,4.458,0,0,1,30.483,9.5h0a4.487,4.487,0,0,1,4.474,4.474h0a4.487,4.487,0,0,1-4.474,4.474h0A4.458,4.458,0,0,1,26.009,13.974Zm-17.179,0A4.487,4.487,0,0,1,13.3,9.5h0a4.458,4.458,0,0,1,4.474,4.474h0A4.458,4.458,0,0,1,13.3,18.447h0A4.487,4.487,0,0,1,8.83,13.974Z" transform="translate(8.304 -9.5)" fill="#baee83"/>
      <path id="Path_192" data-name="Path 192" d="M55.474,18.4A4.506,4.506,0,0,1,51,13.93a4.7,4.7,0,0,1,1.3-3.176,4.684,4.684,0,0,1,6.353,0,4.537,4.537,0,0,1,0,6.353A4.7,4.7,0,0,1,55.474,18.4Z" transform="translate(154.789 -9.457)" fill="#baee83"/>
    </g>
    <g id="rupee" transform="translate(-16.365 97.03)">
      <g id="Group_6" data-name="Group 6" transform="translate(56.365)">
        <path id="Path_193" data-name="Path 193" d="M109.652,21.642H97.437A24.075,24.075,0,0,0,87.794,4.809h21.858a2.4,2.4,0,0,0,0-4.809H58.77a2.4,2.4,0,1,0,0,4.809H73.342A19.432,19.432,0,0,1,92.6,21.642H58.77a2.4,2.4,0,1,0,0,4.809H92.6A19.465,19.465,0,0,1,73.342,43.524H58.794A2.443,2.443,0,0,0,56.389,46a2.482,2.482,0,0,0,.745,1.731L93.517,82.143a2.4,2.4,0,0,0,3.391-.1,2.454,2.454,0,0,0-.1-3.439L64.805,48.334h8.513A24.29,24.29,0,0,0,97.437,26.451h12.216a2.4,2.4,0,0,0,0-4.809Z" transform="translate(-56.365)" stroke="#000" stroke-width="8"/>
      </g>
    </g>
  </g>
</svg>
