<svg xmlns="http://www.w3.org/2000/svg" width="826.165" height="645.833" viewBox="0 0 826.165 645.833">
  <g id="Group_200" data-name="Group 200" transform="translate(-11.217 -94.228)">
    <path id="Path_5885" data-name="Path 5885" d="M831.273,233.7c.677,36.637-30.857,66.929-413.124,73.994-360.8,6.669-406.249-22.2-406.926-58.837S63.708,181.529,415.7,175.026C786.919,168.166,830.6,197.068,831.273,233.7Z" transform="translate(0 386.142)" fill="#efeaf4" opacity="0.5"/>
    <g id="Group_184" data-name="Group 184" transform="translate(683.743 94.228)">
      <g id="Group_183" data-name="Group 183">
        <path id="Path_5886" data-name="Path 5886" d="M226.417,373.259a1.806,1.806,0,0,1-1.642-1.062c-.248-.558-24.912-56.666-6.521-123.461,18.358-66.659,26.323-146.176,25.96-191.844A1.8,1.8,0,0,1,246,55.076a1.757,1.757,0,0,1,1.815,1.786c.367,45.909-7.641,125.838-26.089,192.827-18.034,65.5,6.089,120.483,6.338,121.03a1.8,1.8,0,0,1-.907,2.38A1.781,1.781,0,0,1,226.417,373.259Z" transform="translate(-162.946 -17.442)" fill="#55a47c"/>
        <path id="Path_5887" data-name="Path 5887" d="M249.069,159.8a1.8,1.8,0,0,1-1.772-1.494C235.879,92.338,207.251,64.6,206.963,64.326a1.8,1.8,0,0,1,2.478-2.618c1.21,1.145,29.788,28.848,41.408,95.982a1.8,1.8,0,0,1-1.469,2.081A1.769,1.769,0,0,1,249.069,159.8Z" transform="translate(-176.069 -1.474)" fill="#55a47c"/>
        <path id="Path_5888" data-name="Path 5888" d="M238.592,166.435h-.083a1.8,1.8,0,0,1-1.372-.742c-.144-.194-14.534-19.831-31.927-29.622a1.8,1.8,0,1,1,1.768-3.137c15.117,8.513,27.649,23.623,31.707,28.841,18.794-22.135,50.67-72.82,51-73.342a1.8,1.8,0,1,1,3.046,1.912c-.335.54-34.044,54.134-52.787,75.477A1.791,1.791,0,0,1,238.592,166.435Z" transform="translate(-181.548 67.134)" fill="#55a47c"/>
        <path id="Path_5889" data-name="Path 5889" d="M229.677,166.222a1.8,1.8,0,0,1-1.757-1.426c-5.25-24.768-22.344-50.306-22.514-50.562a1.8,1.8,0,1,1,2.985-2.013c.717,1.066,17.656,26.363,23.05,51.829a1.8,1.8,0,0,1-1.39,2.135A1.887,1.887,0,0,1,229.677,166.222Z" transform="translate(-179.457 129.134)" fill="#55a47c"/>
        <path id="Path_5890" data-name="Path 5890" d="M222.349,206.78a1.8,1.8,0,0,1-1.8-1.793c-.119-40.922,39.035-81.754,40.7-83.472a1.8,1.8,0,0,1,2.586,2.506c-.4.411-39.8,41.513-39.687,80.955a1.8,1.8,0,0,1-1.793,1.8Z" transform="translate(-139.27 153.942)" fill="#55a47c"/>
        <path id="Path_5891" data-name="Path 5891" d="M197.977,98.012s8.819,19.968,41.311,22.038A185.372,185.372,0,0,0,197.977,98.012Z" transform="translate(-197.977 94.236)" fill="#55a47c" opacity="0.32"/>
        <g id="Group_175" data-name="Group 175" transform="translate(68.981)">
          <path id="Path_5892" data-name="Path 5892" d="M226.489,161.867s33.306-44.8,4.746-117.242C231.235,44.625,202.956,91.337,226.489,161.867Z" transform="translate(-217.133 -44.625)" fill="#55a47c"/>
          <path id="Path_5893" data-name="Path 5893" d="M219.731,161.867s33.306-44.8,4.746-117.242C224.477,44.625,224.477,100.909,219.731,161.867Z" transform="translate(-210.375 -44.625)" fill="#55a47c" opacity="0.32"/>
          <path id="Path_5894" data-name="Path 5894" d="M218.5,57.544l-.389,7.616c-.076,1.476,2.222,1.473,2.3,0q.2-3.808.392-7.616c.076-1.48-2.225-1.476-2.3,0Z" transform="translate(-214.582 -13.907)" fill="#acd2bf"/>
          <path id="Path_5895" data-name="Path 5895" d="M218.007,61.394a98.007,98.007,0,0,0,.933,17.494c.205,1.458,2.42.839,2.215-.609a95.246,95.246,0,0,1-.85-16.885c.058-1.48-2.243-1.476-2.3,0Z" transform="translate(-215.032 -3.893)" fill="#acd2bf"/>
        </g>
        <g id="Group_176" data-name="Group 176" transform="translate(2.449 38.52)">
          <path id="Path_5896" data-name="Path 5896" d="M246.45,104.278s-44.7-11.084-47.793-48.956C198.657,55.322,238.185,58.779,246.45,104.278Z" transform="translate(-198.657 -55.322)" fill="#55a47c"/>
          <path id="Path_5897" data-name="Path 5897" d="M246.45,104.278s-44.7-11.084-47.793-48.956C198.657,55.322,223.648,78.343,246.45,104.278Z" transform="translate(-198.657 -55.322)" fill="#55a47c" opacity="0.32"/>
          <path id="Path_5898" data-name="Path 5898" d="M204.742,60.819a28.325,28.325,0,0,0,4.145,3.295c1.242.81,2.395-1.178,1.16-1.984a25.357,25.357,0,0,1-3.68-2.935c-1.066-1.026-2.694.594-1.624,1.624Z" transform="translate(-183.74 -46.101)" fill="#acd2bf"/>
          <path id="Path_5899" data-name="Path 5899" d="M206.921,62.6a70.025,70.025,0,0,1,8.146,9.4c.853,1.192,2.848.043,1.984-1.16a73,73,0,0,0-8.506-9.863c-1.062-1.03-2.69.594-1.624,1.624Z" transform="translate(-178.066 -41.48)" fill="#acd2bf"/>
        </g>
        <g id="Group_177" data-name="Group 177" transform="translate(22.773 119.208)">
          <path id="Path_5900" data-name="Path 5900" d="M204.3,77.729s4.667,45.128,44.332,70.058C248.633,147.787,238.572,92.263,204.3,77.729Z" transform="translate(-204.301 -77.729)" fill="#55a47c"/>
          <path id="Path_5901" data-name="Path 5901" d="M204.3,77.729s4.667,45.128,44.332,70.058C248.633,147.787,226.465,115.046,204.3,77.729Z" transform="translate(-204.301 -77.729)" fill="#55a47c" opacity="0.32"/>
          <path id="Path_5902" data-name="Path 5902" d="M209.467,84.952l2.517,3.727c.825,1.217,2.816.068,1.988-1.16l-2.517-3.727c-.825-1.217-2.816-.068-1.988,1.16Z" transform="translate(-191.379 -63.306)" fill="#acd2bf"/>
          <path id="Path_5903" data-name="Path 5903" d="M210.816,87.34q2.771,5.148,5.546,10.3c.7,1.3,2.686.144,1.988-1.16q-2.776-5.153-5.549-10.306c-.7-1.3-2.686-.144-1.984,1.163Z" transform="translate(-187.741 -57.242)" fill="#acd2bf"/>
        </g>
        <g id="Group_178" data-name="Group 178" transform="translate(85.593 95.751)">
          <path id="Path_5904" data-name="Path 5904" d="M221.746,168.72s49.626-25.1,48.877-97.5C270.623,71.215,230.731,98.453,221.746,168.72Z" transform="translate(-221.746 -71.215)" fill="#55a47c"/>
          <path id="Path_5905" data-name="Path 5905" d="M221.746,168.72s49.626-25.1,48.877-97.5C270.623,71.215,252.711,119.966,221.746,168.72Z" transform="translate(-221.746 -71.215)" fill="#55a47c" opacity="0.32"/>
          <path id="Path_5906" data-name="Path 5906" d="M230.985,81.125q-1.674,3.117-3.345,6.237c-.7,1.3,1.286,2.463,1.984,1.16q1.674-3.117,3.345-6.237c.7-1.3-1.286-2.463-1.984-1.16Z" transform="translate(-206.797 -46.926)" fill="#acd2bf"/>
          <path id="Path_5907" data-name="Path 5907" d="M232.4,84.123q-3.889,8.021-7.436,16.2c-.583,1.343,1.4,2.517,1.984,1.16q3.549-8.173,7.436-16.2c.641-1.325-1.34-2.492-1.984-1.16Z" transform="translate(-213.65 -39.171)" fill="#acd2bf"/>
        </g>
        <g id="Group_179" data-name="Group 179" transform="translate(0 191.74)">
          <path id="Path_5908" data-name="Path 5908" d="M197.977,98.379s8.819,19.968,41.311,22.038C239.288,120.417,232.788,93.91,197.977,98.379Z" transform="translate(-197.977 -97.871)" fill="#55a47c"/>
          <path id="Path_5909" data-name="Path 5909" d="M204.153,101.5a53.066,53.066,0,0,1,7.541,3.781,1.15,1.15,0,0,0,1.16-1.984,56.535,56.535,0,0,0-8.088-4.015c-1.372-.551-1.97,1.671-.612,2.218Z" transform="translate(-183.908 -94.43)" fill="#acd2bf"/>
        </g>
        <g id="Group_180" data-name="Group 180" transform="translate(16.853 231.747)">
          <path id="Path_5910" data-name="Path 5910" d="M202.844,108.987c-1.149-.14,2.456,25.632,26.424,40.166C229.268,149.153,230.471,112.423,202.844,108.987Z" transform="translate(-202.657 -108.965)" fill="#55a47c"/>
          <path id="Path_5911" data-name="Path 5911" d="M202.775,109c-.727-.9,2.456,25.632,26.424,40.166A260.987,260.987,0,0,0,202.775,109Z" transform="translate(-202.588 -108.981)" fill="#55a47c" opacity="0.32"/>
          <path id="Path_5912" data-name="Path 5912" d="M206.8,113.87a31.645,31.645,0,0,1,2.341,4.49c.576,1.358,2.557.187,1.984-1.16a31.46,31.46,0,0,0-2.341-4.49c-.785-1.25-2.776-.1-1.984,1.16Z" transform="translate(-192.37 -100.679)" fill="#acd2bf"/>
          <path id="Path_5913" data-name="Path 5913" d="M209.04,112.957a6.907,6.907,0,0,0-1.765-1.793c-1.21-.857-2.359,1.134-1.163,1.984a2.982,2.982,0,0,1,.94.969c.828,1.217,2.823.068,1.988-1.16Z" transform="translate(-194.982 -103.849)" fill="#acd2bf"/>
        </g>
        <g id="Group_181" data-name="Group 181" transform="translate(57.537 226.112)">
          <path id="Path_5914" data-name="Path 5914" d="M213.955,217.874s37.764-42.308,50.728-110.458C264.683,107.416,222.417,142.789,213.955,217.874Z" transform="translate(-213.955 -107.416)" fill="#55a47c"/>
          <path id="Path_5915" data-name="Path 5915" d="M213.955,217.874s37.764-42.308,50.728-110.458C264.683,107.416,239.317,163.113,213.955,217.874Z" transform="translate(-213.955 -107.416)" fill="#55a47c" opacity="0.32"/>
          <path id="Path_5916" data-name="Path 5916" d="M223.811,118.145q-1.761,2.933-3.515,5.862a1.15,1.15,0,0,0,1.984,1.16q1.761-2.933,3.515-5.859a1.151,1.151,0,0,0-1.984-1.163Z" transform="translate(-197.905 -80.936)" fill="#acd2bf"/>
          <path id="Path_5917" data-name="Path 5917" d="M225.6,121.159a146.5,146.5,0,0,0-8.423,21.711,1.149,1.149,0,0,0,2.215.609,142.8,142.8,0,0,1,8.192-21.16c.641-1.325-1.34-2.492-1.984-1.16Z" transform="translate(-205.723 -73.201)" fill="#acd2bf"/>
        </g>
        <g id="Group_182" data-name="Group 182" transform="translate(87.595 261.992)">
          <path id="Path_5918" data-name="Path 5918" d="M261.546,117.38s8.149,45.938-37.231,66.187c0,0-6.377-11.368,3.572-28.452S251.348,138.8,261.546,117.38Z" transform="translate(-222.302 -117.38)" fill="#55a47c"/>
          <path id="Path_5919" data-name="Path 5919" d="M222.79,178.656c.155.346.256.526.256.526,35.258-15.729,38.2-46.961,37.76-60.115C251.865,140.931,237.295,159.876,222.79,178.656Z" transform="translate(-221.033 -112.995)" fill="#55a47c" opacity="0.32"/>
          <path id="Path_5920" data-name="Path 5920" d="M227.205,134.349a23.769,23.769,0,0,1,6.277-6.763c1.188-.857.043-2.852-1.159-1.984a26.664,26.664,0,0,0-7.1,7.587c-.785,1.26,1.2,2.416,1.984,1.16Z" transform="translate(-215.178 -96.552)" fill="#acd2bf"/>
          <path id="Path_5921" data-name="Path 5921" d="M229.872,127.9a8.432,8.432,0,0,1,2.377-1.566c1.343-.609.176-2.593-1.16-1.984a10.26,10.26,0,0,0-2.841,1.927c-1.08,1.015.547,2.636,1.624,1.624Z" transform="translate(-207.762 -99.539)" fill="#acd2bf"/>
        </g>
      </g>
      <path id="Path_5922" data-name="Path 5922" d="M204.374,142.365c-3.8,5.834,4.22,94.358,23.36,119.828,4.364,5.8,47.274,7.753,52.78,2.989s32.571-60.418,25.24-120.544C305.076,139.059,207.413,137.7,204.374,142.365Z" transform="translate(-183.732 202.253)" fill="#3c2f48"/>
      <path id="Path_5923" data-name="Path 5923" d="M244.561,139.544c-20.655-.047-38.9.843-40.187,2.816-3.8,5.834,4.22,94.358,23.36,119.828,4.364,5.8,47.274,7.753,52.78,2.989,2.456-2.125,9.211-14.418,15.286-32.708C268.609,208.378,249.862,176.822,244.561,139.544Z" transform="translate(-183.732 202.257)" fill="#3c2f48" opacity="0.21"/>
      <path id="Path_5924" data-name="Path 5924" d="M228.569,145.72a33.022,33.022,0,0,1,.641,7.386c-.058,2.856,4.372,2.852,4.433,0a38.645,38.645,0,0,0-.8-8.563c-.573-2.791-4.847-1.61-4.274,1.177Z" transform="translate(-118.543 211.116)" fill="#afaab4" opacity="0.72"/>
      <path id="Path_5925" data-name="Path 5925" d="M229.954,149.466a226.827,226.827,0,0,1-1.693,22.755c-.353,2.823,4.084,2.8,4.433,0a227.9,227.9,0,0,0,1.693-22.755c.068-2.856-4.361-2.852-4.433,0Z" transform="translate(-119.259 222.501)" fill="#afaab4" opacity="0.72"/>
    </g>
    <g id="Group_196" data-name="Group 196" transform="translate(38.969 554.819)">
      <g id="Group_194" data-name="Group 194" transform="translate(708.289 13.146)">
        <path id="Path_5953" data-name="Path 5953" d="M231.42,182.1c12.69,1.2,25.38,2.722,38.142,2.636,2.69-.018,3.493-4.379.655-4.865-12.823-2.193-25.83-2.787-38.8-3.677-3.821-.263-3.734,5.553,0,5.906Z" transform="translate(-181.873 -176.182)" fill="#ffd692"/>
        <path id="Path_5954" data-name="Path 5954" d="M226.131,185.213c13.025,2.82,26.129,5.492,39.521,5.358,3.741-.036,3.716-5.628,0-5.794-12.737-.558-25.538-2.665-38.117-4.663-3.288-.526-4.789,4.364-1.4,5.1Z" transform="translate(-193.243 -166.057)" fill="#ffd692"/>
        <path id="Path_5955" data-name="Path 5955" d="M224.81,191.346c12.29.133,24.552.889,36.838.933,4.073.014,3.781-5.628,0-6.133-12.229-1.635-24.516-1.79-36.838-1.779-4.491,0-4.494,6.928,0,6.979Z" transform="translate(-200.462 -154.892)" fill="#ffd692"/>
        <path id="Path_5956" data-name="Path 5956" d="M221.351,193.234c9.683,1.214,19.355,2.211,29.1,2.827,3.986.256,3.857-5.733,0-6.133-9.687-1-19.366-1.628-29.1-2.038-3.518-.148-3.313,4.93,0,5.344Z" transform="translate(-207.36 -145.735)" fill="#ffd692"/>
        <path id="Path_5957" data-name="Path 5957" d="M218.633,197.248c12.251,1.152,24.534,2.7,36.838,3.029,3.245.086,4.138-5.3.785-5.8-12.449-1.855-25.081-2.514-37.623-3.529-4.055-.328-3.994,5.924,0,6.3Z" transform="translate(-215.615 -137.812)" fill="#ffd692"/>
      </g>
      <g id="Group_195" data-name="Group 195" transform="translate(0 16.867)">
        <path id="Path_5958" data-name="Path 5958" d="M65.1,177.219c-11.844.594-23.691.591-35.546.789-3.389.058-3.349,5.045,0,5.232a298.691,298.691,0,0,0,35.546-.5c3.518-.223,3.561-5.693,0-5.517Z" transform="translate(2.151 -177.215)" fill="#ffd692"/>
        <path id="Path_5959" data-name="Path 5959" d="M71.1,182.494c-15.117-.972-30.155-1.286-45.236.328-3.093.331-3.259,4.991,0,4.951,15.081-.18,30.155-.659,45.236-.158,3.313.112,3.263-4.908,0-5.121Z" transform="translate(-7.075 -165.579)" fill="#ffd692"/>
        <path id="Path_5960" data-name="Path 5960" d="M55.88,186.406c-10.27,1.458-20.6,2.2-30.918,3.212-3.428.339-3.583,5.47,0,5.459,10.889-.029,21.689-1.462,32.413-3.248,3.6-.6,2.024-5.924-1.494-5.423Z" transform="translate(-10.06 -153.395)" fill="#ffd692"/>
        <path id="Path_5961" data-name="Path 5961" d="M61.754,191.371c-12.683,1-25.628,1.358-38.128,3.842-2.8.555-2.063,4.818.659,4.861,12.488.2,25.056-1.761,37.469-3.021,3.583-.364,3.677-5.974,0-5.682Z" transform="translate(-11.31 -140.423)" fill="#ffd692"/>
        <path id="Path_5962" data-name="Path 5962" d="M67.43,195.8c-15.61.724-31.1,1.671-46.594,3.759-2.985.4-2.269,5.383.713,5.25,15.315-.688,30.576-1.991,45.881-2.935,3.875-.238,3.925-6.259,0-6.075Z" transform="translate(-18.924 -128.893)" fill="#ffd692"/>
      </g>
      <path id="Path_5963" data-name="Path 5963" d="M83.065,175.909c-17.238,1.43-72.049,92.964-53.255,98.834S702.5,256.287,716.132,258.059s51.624-77.555,43.018-81.711S147.336,170.58,83.065,175.909Z" transform="translate(-0.68 -172.531)" fill="#ffcc78"/>
      <path id="Path_5964" data-name="Path 5964" d="M128.585,251.084c95.917,13.691,192.06-9.143,287.03-19.752,103.3-11.541,208.042-18.21,311.517-10.569,10.475-20.533,18.257-42.29,13.857-44.415-8.61-4.156-611.813-5.769-676.084-.439-6.972.576-20.079,15.888-31.984,34.307C57.3,234.71,93.716,246.107,128.585,251.084Z" transform="translate(17.481 -172.531)" fill="#ffcc78" opacity="0.35"/>
      <path id="Path_5965" data-name="Path 5965" d="M179.081,199.611q48.614-1.08,97.224-2.153c3.471-.079,3.482-5.481,0-5.4q-48.614,1.075-97.224,2.153c-3.468.076-3.482,5.477,0,5.4Z" transform="translate(390.871 -121.749)" fill="#ffeac6" opacity="0.68"/>
      <path id="Path_5966" data-name="Path 5966" d="M209.781,197.355a80.438,80.438,0,0,1,17.234,1.4c3.4.652,4.851-4.555,1.433-5.211a87.272,87.272,0,0,0-18.668-1.588c-3.471.083-3.482,5.484,0,5.4Z" transform="translate(470.719 -122.075)" fill="#ffeac6" opacity="0.68"/>
    </g>
    <g id="Group_197" data-name="Group 197" transform="translate(111.619 233.599)">
      <path id="Path_5967" data-name="Path 5967" d="M184.941,86.19c-52.456-12.611-90.36,12.834-131.12,149.73s2.989,212.6,132.964,222.043S429.778,429.994,527.254,435.9s148.913-9.287,138.841-77.793-66.262-98.765-163.7-78.657-171.185,8.38-212.194-50.123S270.764,106.824,184.941,86.19Z" transform="translate(-39.099 -83.328)" fill="#754ee3"/>
      <path id="Path_5968" data-name="Path 5968" d="M95.622,281.817C169.065,365.206,289.8,339.466,385.007,323.5c54.811-9.19,108.2-10.983,163.133-1.4a459.176,459.176,0,0,1,62.809,15.65C593.29,283.8,539.163,261.453,452,279.44c-97.44,20.1-171.185,8.38-212.194-50.123s-19.435-122.5-105.258-143.137c-21.984-5.286-41.4-3.839-59.557,9.647C51.8,158.608,48.319,228.108,95.622,281.817Z" transform="translate(11.297 -83.319)" fill="#754ee3" opacity="0.11"/>
      <path id="Path_5969" data-name="Path 5969" d="M126.163,169.106a170.2,170.2,0,0,1,39.8-8.329c3.435-.3,3.468-5.7,0-5.4a176.29,176.29,0,0,0-41.235,8.524c-3.277,1.1-1.873,6.32,1.437,5.207Z" transform="translate(178.773 104.037)" fill="#bba8f1" opacity="0.68"/>
      <path id="Path_5970" data-name="Path 5970" d="M140.08,160.369h9.784c3.475,0,3.482-5.4,0-5.4H140.08c-3.479,0-3.482,5.4,0,5.4Z" transform="translate(216.767 103.005)" fill="#bba8f1" opacity="0.68"/>
      <path id="Path_5971" data-name="Path 5971" d="M49.38,173.488a279.465,279.465,0,0,1,18.25-52.827c1.451-3.137-3.2-5.884-4.663-2.73a286.635,286.635,0,0,0-18.794,54.12c-.807,3.381,4.4,4.822,5.207,1.437Z" transform="translate(-26.12 3.043)" fill="#bba8f1" opacity="0.68"/>
      <path id="Path_5972" data-name="Path 5972" d="M55.6,123.489q1.9-3.949,3.792-7.893c1.5-3.118-3.158-5.859-4.667-2.722q-1.9,3.943-3.792,7.89c-1.5,3.118,3.158,5.859,4.667,2.726Z" transform="translate(-9.07 -10.087)" fill="#bba8f1" opacity="0.68"/>
      <path id="Path_5973" data-name="Path 5973" d="M208.406,161.058v10.893c0,3.475,5.4,3.482,5.4,0V161.058c0-3.475-5.4-3.482-5.4,0Z" transform="translate(401.273 112.063)" fill="#bba8f1" opacity="0.68"/>
      <path id="Path_5974" data-name="Path 5974" d="M224.416,167.7a34.724,34.724,0,0,1-21.048,29.1c-3.18,1.394-.432,6.05,2.726,4.667a40.021,40.021,0,0,0,23.724-33.77c.277-3.464-5.128-3.446-5.4,0Z" transform="translate(384.496 129.383)" fill="#bba8f1" opacity="0.68"/>
      <path id="Path_5975" data-name="Path 5975" d="M109.753,191.76c35.711-27.231,77.991-37.8,122.431-33.108,2.974.313,3.677-4.721.713-5.25-45.146-8.027-91.012,5.391-126.075,34.559-2.089,1.736.738,5.47,2.931,3.8Z" transform="translate(135.146 92.972)" fill="#beacf2" opacity="0.72"/>
      <path id="Path_5976" data-name="Path 5976" d="M150.264,154.12c-17.094-23.9-52.269-19.993-75.24-7.667-1.746.94-.508,3.479,1.3,3.086,25.859-5.564,48.7-11.909,70.933,6.9,1.534,1.3,4.361-.425,3-2.319Z" transform="translate(52.157 55.401)" fill="#beacf2" opacity="0.72"/>
    </g>
    <g id="Group_198" data-name="Group 198" transform="translate(201.867 195.031)">
      <path id="Path_5977" data-name="Path 5977" d="M121.818,124.161c-8.545-10.533-4.375-25.214,4.959-29.208s8.2,20.194,6.644,27.494S124.368,127.3,121.818,124.161Z" transform="translate(73.719 -15.674)" fill="#f7b496"/>
      <path id="Path_5978" data-name="Path 5978" d="M104.577,152.2c.846-2.964,23.785-1.228,35.153-11.736,11.516-10.637,11.466-33.515,12.366-36.039,1.786-5.016,22.78-2.722,22.8,4.667s-17.144,78.441-23,78.888C109.878,191.184,103.619,155.552,104.577,152.2Z" transform="translate(40.734 3.134)" fill="#ff9fe5"/>
      <path id="Path_5979" data-name="Path 5979" d="M107.321,147.248c-1.574.346-2.578.742-2.744,1.314-.958,3.356,5.3,38.988,47.317,35.78,5.859-.447,23.025-71.5,23-78.888a4.079,4.079,0,0,0-.792-2.315C162.8,130.773,137.6,147.849,107.321,147.248Z" transform="translate(40.734 6.767)" fill="#ff9fe5" opacity="0.3"/>
      <path id="Path_5980" data-name="Path 5980" d="M165.088,100.047c8.851.14,20.389-14.559-13.623-22.481s-76.882,3.922-86.223,59.781,44.908,88.834,42.946,116.4c-2.035,28.614.7,32.831,7.285,36.061s12.622-26.921,12.622-26.921,4.109,20.1,9.528,17.782,3.979-24.35,3.979-24.35,8.833,10.8,13.673,9.143-2.69-17.04-2.69-17.04,15.168,12.258,21.819,8.246S165.088,100.047,165.088,100.047Z" transform="translate(-64.16 -65.51)" fill="#5b302d"/>
      <path id="Path_5981" data-name="Path 5981" d="M100.44,96.537a62.442,62.442,0,0,0,5.654,4.566c-.126-1.242-.2-1.93-.2-1.93,8.851.14,20.389-14.559-13.623-22.481-1.757-.411-3.558-.706-5.355-1C89.846,83.429,93.976,90.574,100.44,96.537Z" transform="translate(-4.968 -64.636)" fill="#5b302d" opacity="0.14"/>
      <path id="Path_5982" data-name="Path 5982" d="M107.664,107.522C98.042,98.6,92.392,87.453,88.726,75.379a76.519,76.519,0,0,0-8.5.659c4.71,27.7,23.014,50.083,47.051,64.444-.713-7.645-1.383-14.635-1.966-20.6A83.569,83.569,0,0,1,107.664,107.522Z" transform="translate(-22.379 -65.437)" fill="#5b302d" opacity="0.14"/>
      <path id="Path_5983" data-name="Path 5983" d="M87.845,76.548a60.916,60.916,0,0,0-15.981,8.747c-.8,25.553,13.99,52.787,31.829,69.111a116.1,116.1,0,0,0,49.172,26.55c-.7-8.844-1.451-17.782-2.211-26.367C119.015,138.727,93.985,111.154,87.845,76.548Z" transform="translate(-44.206 -62.397)" fill="#5b302d" opacity="0.14"/>
      <path id="Path_5984" data-name="Path 5984" d="M101.953,144.32c-15.247-15.427-27.785-38.272-31.3-61.387q-1.745,2.56-3.324,5.391c-.961,21.066,1.037,42,13.068,60.285,11.019,16.748,26.727,29.744,38.88,45.611,11.847,15.463,21,32.776,24.181,50.825a5.46,5.46,0,0,0,4.109.7c4.84-1.653-2.69-17.04-2.69-17.04s15.168,12.258,21.819,8.246c2.679-1.617,1.689-27.343-.45-57.49A130.553,130.553,0,0,1,101.953,144.32Z" transform="translate(-56.456 -45.789)" fill="#5b302d" opacity="0.14"/>
      <path id="Path_5985" data-name="Path 5985" d="M137.6,229.514a2.913,2.913,0,0,0,.889-.623c1.57-33.738-28.426-62.989-49.788-87.6-12.722-14.656-20.385-29.91-24.426-46.273-2.676,50.558,45.747,81.491,43.889,107.57-2.035,28.617.7,32.834,7.285,36.064s12.622-26.921,12.622-26.921S132.181,231.829,137.6,229.514Z" transform="translate(-64.137 -14.353)" fill="#5b302d" opacity="0.14"/>
      <path id="Path_5986" data-name="Path 5986" d="M201.449,222.432c-10.375-11.988-30.051-21.163-23.6-47.4s14.955-81.347-47.84-93.821c0,0-.511,7.389-17.306,6.482,0,0,11.091,6.367,7.663,14.249-3.191,7.342-34.264,4.181-34.264,4.181s13.507,5.668,11.2,12.6-17.094,5.708-17.094,5.708,12.366,6.91,11.059,11.152c-3.158,10.234-1.559,21.61-1.559,21.61s-11.343-4.163-13.644,7.9C73.4,179.065,93.7,191.643,101,177.754c0,0,11.9.061,20.965,37.746S213.5,236.364,201.449,222.432Z" transform="translate(-33.827 -50.26)" fill="#f7b496"/>
      <path id="Path_5987" data-name="Path 5987" d="M176.678,144.9a157.561,157.561,0,0,1-41.322-10.907c-18.992-8.1-33.461-21.109-44.9-36.81a59.421,59.421,0,0,0-.749,18.477s-11.343-4.163-13.644,7.9C73.4,137.526,93.7,150.1,101,136.215c0,0,11.9.061,20.965,37.746s91.534,20.864,79.482,6.932C192.749,170.839,177.56,162.723,176.678,144.9Z" transform="translate(-33.827 -8.722)" fill="#f7b496" opacity="0.21"/>
      <path id="Path_5988" data-name="Path 5988" d="M145.82,79.065c-4.656,3.079-33.263,64.5-24.638,121.1,1.325,8.686,15.351,8.747,20.133,7.659S162.479,80.563,160.887,75.814,149.767,76.455,145.82,79.065Z" transform="translate(79.966 -69.224)" fill="#fff"/>
      <path id="Path_5989" data-name="Path 5989" d="M123.405,207.332c.137,4.271,16.9,8.012,19.456,5.618s18.927-127.44,17.872-134.873-15.15-7.231-17.872.324S123.038,195.664,123.405,207.332Z" transform="translate(89.921 -72.618)" fill="#3c2f48"/>
      <path id="Path_5990" data-name="Path 5990" d="M125.1,132.532s-3.673-23.165,3.889-26.684c3.576-1.664,4.807,10.439,14.642,6.349,7.807-3.248,8.059-21.466,9.68-23.623s6.59,32.4-12.557,47.339Z" transform="translate(92.028 -31.369)" fill="#f7b496"/>
      <path id="Path_5991" data-name="Path 5991" d="M88.175,130.564c-3.317,13.777.133,35.488,46.406,62.643s101.149,27.044,107.1,26.964,38.686-83.306,34.991-90.789-21.862-1.3-48.689-9.492c-20.483-6.255-39.269-6.273-71.383-.511C137.268,122.85,92.251,113.6,88.175,130.564Z" transform="translate(-4.111 37.946)" fill="#ffb3ea"/>
      <path id="Path_5992" data-name="Path 5992" d="M263.777,122.38c-1.963-3.975-8.034-4.1-17.281-4.562-30.533,46.774-99.91,65.164-154.289,47.011,7.022,6.665,16.583,13.806,29.478,21.376,46.273,27.152,101.149,27.044,107.1,26.964S267.471,129.863,263.777,122.38Z" transform="translate(8.787 44.948)" fill="#ffb3ea" opacity="0.32"/>
      <path id="Path_5993" data-name="Path 5993" d="M87.634,174.541c-5.816,19.888,13.064,37.271,56.424,50.285s75.07,11.826,88.315-22.92,8.344-96.072,7.382-98.373-14.436-6.565-16.907-1.61-13.155,76.622-31.905,82.528-44.505-10.533-59.071-16.842C113.594,159.694,92.683,157.274,87.634,174.541Z" transform="translate(-5.777 -2.37)" fill="#ffc8f0"/>
      <path id="Path_5994" data-name="Path 5994" d="M87.705,111.594c4.17,6.363,22.917-6.622,15.913-12.315S83.452,105.105,87.705,111.594Z" transform="translate(-5.074 -7.266)" fill="#d95a61" opacity="0.37"/>
      <path id="Path_5995" data-name="Path 5995" d="M99.131,97.319c3.713,4.858,13.958-2.564,10.425-6.878S95.941,93.145,99.131,97.319Z" transform="translate(25.2 -29.779)" fill="#d95a61" opacity="0.37"/>
      <path id="Path_5996" data-name="Path 5996" d="M176.676,149.934c.2,5.077.112,13.745-1.574,19.4s3.45,10.169,23.1,8.088,37-13.223,35.614-21.019-8.329,1.628-20.828,4.033-16.532-4.022-15.931-10.5S176.326,141.238,176.676,149.934Z" transform="translate(223.623 113.606)" fill="#ff9fe5"/>
      <path id="Path_5997" data-name="Path 5997" d="M174.782,182.72c1.466,16.982-2.856,69.3-20.94,81.664-3.831,2.622,12.917,14.638,18.88,11.592s43.486-39.262,58.066-67.4S243.633,102.716,211,103.793,171.7,146.9,174.782,182.72Z" transform="translate(167.638 8.44)" fill="#3c2f48"/>
      <path id="Path_5998" data-name="Path 5998" d="M174.782,182.72c1.466,16.982-2.856,69.3-20.94,81.664-3.831,2.622,12.917,14.638,18.88,11.592s43.486-39.262,58.066-67.4S243.633,102.716,211,103.793,171.7,146.9,174.782,182.72Z" transform="translate(167.638 8.44)" fill="#3c2f48" opacity="0.34"/>
      <path id="Path_5999" data-name="Path 5999" d="M159.4,151.368c-5.038,3.4-11.613,1.159-8.923,13.76s11.106,44.584,19.438,45.625,4.3-9.939,3.5-18.333.144-23.5,7.173-30.087S174.166,141.4,159.4,151.368Z" transform="translate(158.74 123.314)" fill="#ff9fe5"/>
      <path id="Path_6000" data-name="Path 6000" d="M128.28,280.437c3.155,9.636,70.292,20.468,101.952-22.056s31.956-90.526,36.468-91.221,30.122,112.341,32.071,119,17.984,5.492,20.378,0,22.456-161.74,1.145-182.712S247.9,88.949,210.79,131.005s-42.51,50.069-47.285,52.8-13.9,11.246-22.863,35.308S126.274,274.3,128.28,280.437Z" transform="translate(101.529 -22.615)" fill="#3c2f48"/>
      <path id="Path_6001" data-name="Path 6001" d="M248.225,139.7c-22.467,20.162-43.562,41.837-71.826,53.839a116.7,116.7,0,0,1-39.42,9.06c-6.709,21.743-10.414,45.229-8.7,50.468,3.158,9.636,70.292,20.468,101.952-22.056s31.956-90.526,36.468-91.221,30.122,112.341,32.071,119,17.984,5.492,20.378,0c1.919-4.4,15.178-105.582,9.406-156.418C297.743,102.8,271.236,119.046,248.225,139.7Z" transform="translate(101.529 4.757)" fill="#3c2f48" opacity="0.1"/>
      <path id="Path_6002" data-name="Path 6002" d="M114.232,108.376c-3.723-2.452-7.638-4.483-11.174-7.238-3.518-2.74-6.5-6.035-9.9-8.905a.926.926,0,0,0-1.448,1.116c4.256,7.476,13.547,14.4,21.765,16.817a.984.984,0,0,0,.756-1.79Z" transform="translate(7.146 -22.215)" fill="#613c2e"/>
      <path id="Path_6003" data-name="Path 6003" d="M94.273,115.484c5.718,1.4,11.775.954,16.781-2.369,3.385-2.251,7.422-6.828,5.97-11.2a1.125,1.125,0,0,0-2.031-.263c-1.808,3.54-2.539,6.586-6.115,8.959A19.577,19.577,0,0,1,94.9,113.2c-1.466-.241-2.132,1.909-.627,2.279Z" transform="translate(11.948 1.499)" fill="#613c2e"/>
      <path id="Path_6004" data-name="Path 6004" d="M88.187,96.874c-1.862,2.5,3.309,6.82,5.484,4.933S90.373,93.939,88.187,96.874Z" transform="translate(-2.7 -11.602)" fill="#613c2e"/>
      <path id="Path_6005" data-name="Path 6005" d="M96.9,89.656c-1.606,2.164,2.856,5.888,4.735,4.26S98.788,87.121,96.9,89.656Z" transform="translate(20.109 -30.092)" fill="#613c2e"/>
      <path id="Path_6006" data-name="Path 6006" d="M86.061,106.8c-2.017-2.265-5.949-2.913-7.764-.122a.857.857,0,0,0,1.34,1.034c1.732-1.909,3.882-.565,5.834.1.612.209.965-.594.591-1.015Z" transform="translate(-27.722 11.159)" fill="#613c2e"/>
      <path id="Path_6007" data-name="Path 6007" d="M80.032,105.6c-.951,1.422-1.6,3.039-.184,4.386.724.688,1.678-.328,1.073-1.077-.627-.774-.205-1.916.144-2.7a.6.6,0,0,0-1.034-.6Z" transform="translate(-25.493 12.418)" fill="#613c2e"/>
      <path id="Path_6008" data-name="Path 6008" d="M92.866,86.542q5.979,1.048,11.819,2.686a1.622,1.622,0,0,0,.861-3.126Q99.7,84.466,93.726,83.416c-2.038-.357-2.913,2.766-.861,3.126Z" transform="translate(7.457 -44.605)" fill="#fbdcce" opacity="0.72"/>
      <path id="Path_6009" data-name="Path 6009" d="M97.582,87.938l3.219,1.613c1.862.929,3.5-1.865,1.638-2.8q-1.615-.81-3.223-1.617c-1.858-.929-3.5,1.865-1.635,2.8Z" transform="translate(20.628 -40.542)" fill="#fbdcce" opacity="0.72"/>
      <path id="Path_6010" data-name="Path 6010" d="M128.072,98.751a23.177,23.177,0,0,0,6.032.263c1.44-.13,1.455-2.4,0-2.269a20.933,20.933,0,0,1-5.43-.18c-1.43-.241-2.042,1.945-.6,2.186Z" transform="translate(99.936 -10.379)" fill="#fbdcce" opacity="0.72"/>
      <path id="Path_6011" data-name="Path 6011" d="M131.283,100.22a4.712,4.712,0,0,0,3.216-3.252c.436-1.4-1.754-1.995-2.186-.6a2.4,2.4,0,0,1-1.635,1.667c-1.379.454-.789,2.647.6,2.189Z" transform="translate(106.814 -12.91)" fill="#fbdcce" opacity="0.72"/>
      <path id="Path_6012" data-name="Path 6012" d="M157.091,123.749a104.386,104.386,0,0,1,39.4-22.838c2.708-.861,1.552-5.142-1.178-4.274a109.734,109.734,0,0,0-41.358,23.979c-2.107,1.934,1.034,5.063,3.133,3.133Z" transform="translate(167.59 -10.444)" fill="#afaab4" opacity="0.72"/>
      <path id="Path_6013" data-name="Path 6013" d="M169.7,100.661q4.964-.6,9.928-1.2c2.8-.338,2.83-4.775,0-4.433q-4.964.6-9.928,1.206c-2.794.339-2.83,4.775,0,4.429Z" transform="translate(204.876 -14.385)" fill="#afaab4" opacity="0.72"/>
      <path id="Path_6014" data-name="Path 6014" d="M131.174,77.947q-.184,1.286-.367,2.578a2.3,2.3,0,0,0,1.548,2.726,2.234,2.234,0,0,0,2.726-1.548c.122-.861.245-1.718.367-2.578A2.3,2.3,0,0,0,133.9,76.4a2.231,2.231,0,0,0-2.726,1.548Z" transform="translate(109.099 -62.967)" fill="#afaab4" opacity="0.72"/>
      <path id="Path_6015" data-name="Path 6015" d="M132.494,81.207q-1.464,10.312-2.924,20.619c-.4,2.791,3.875,4,4.274,1.178l2.92-20.619c.4-2.787-3.875-3.994-4.271-1.178Z" transform="translate(105.903 -54.452)" fill="#afaab4" opacity="0.72"/>
      <path id="Path_6016" data-name="Path 6016" d="M152.128,156.721q1.4,6.244,2.812,12.492c.457,2.035,3.583,1.174,3.126-.861l-2.812-12.492c-.457-2.035-3.583-1.174-3.126.861Z" transform="translate(164.526 140.874)" fill="#fbdcce" opacity="0.72"/>
      <path id="Path_6017" data-name="Path 6017" d="M153.628,161.709a13.208,13.208,0,0,0,1.693,5.178,1.622,1.622,0,0,0,2.8-1.638,9.2,9.2,0,0,1-1.25-3.54c-.252-2.042-3.5-2.071-3.241,0Z" transform="translate(168.51 155.098)" fill="#fbdcce" opacity="0.72"/>
      <path id="Path_6018" data-name="Path 6018" d="M182.6,157.354c5.524-.735,10.933-1.57,16.089-3.77,1.912-.814.263-3.608-1.635-2.8-4.591,1.959-9.543,2.676-14.454,3.327-2.038.27-2.063,3.515,0,3.241Z" transform="translate(239.9 130.317)" fill="#fbdcce" opacity="0.72"/>
      <path id="Path_6019" data-name="Path 6019" d="M188.905,153.672a12.48,12.48,0,0,0,3.126-1.163c1.847-.969.212-3.767-1.635-2.8a9.412,9.412,0,0,1-2.355.835c-2.035.45-1.174,3.576.864,3.126Z" transform="translate(255.034 127.38)" fill="#fbdcce" opacity="0.72"/>
      <path id="Path_6020" data-name="Path 6020" d="M126.862,104.5q-1.237,4.915-2.47,9.831c-.511,2.024,2.614,2.888,3.126.864q1.232-4.921,2.47-9.834c.508-2.024-2.618-2.884-3.126-.861Z" transform="translate(92.356 7.294)" fill="#fbdcce" opacity="0.72"/>
      <path id="Path_6021" data-name="Path 6021" d="M130.7,108.9a250.686,250.686,0,0,1-9.082,31c-.717,1.966,2.416,2.812,3.126.864a250.724,250.724,0,0,0,9.078-31c.457-2.031-2.668-2.9-3.122-.861Z" transform="translate(85.009 18.725)" fill="#fbdcce" opacity="0.72"/>
      <path id="Path_6022" data-name="Path 6022" d="M109.731,122.515a141.076,141.076,0,0,1,16.039-2.474c2.06-.194,2.078-3.439,0-3.241a147.857,147.857,0,0,0-16.9,2.589c-2.038.436-1.178,3.561.861,3.126Z" transform="translate(49.101 42.278)" fill="#fbdcce" opacity="0.72"/>
      <path id="Path_6023" data-name="Path 6023" d="M115.964,120.352l5.1-.637c2.042-.256,2.067-3.5,0-3.241l-5.1.637c-2.042.256-2.067,3.5,0,3.241Z" transform="translate(66.574 41.413)" fill="#fbdcce" opacity="0.72"/>
    </g>
    <g id="Group_199" data-name="Group 199" transform="translate(121.271 508.441)">
      <path id="Path_6024" data-name="Path 6024" d="M69.132,231.835s-23.95-6.057-27.08,2.2,21.729,14.807,21.729,14.807.9,77.069,63.774,117.526c0,0-8.171,21.271,1.368,24.584s15.47-20.4,15.47-20.4,78.556,1.008,128.5-60.148c0,0,19.319,7.411,23.5-2.258s-17.5-14.3-17.5-14.3-.9-55.168-44.375-111.365c0,0,5.877-15.963-1.448-21.858s-19.525,17.108-19.525,17.108S135.052,158.789,69.132,231.835Z" transform="translate(-41.779 -159.652)" fill="#f04864"/>
      <path id="Path_6025" data-name="Path 6025" d="M189.1,259.716c-33.32-21.811-53.3-55.031-65.373-91.491-17.911,8.491-36.709,21.5-54.591,41.311,0,0-23.95-6.057-27.08,2.2s21.729,14.807,21.729,14.807.9,77.069,63.774,117.526c0,0-8.171,21.271,1.368,24.584s15.47-20.4,15.47-20.4,77.08.951,127.076-58.491C242.568,285.5,214.646,276.439,189.1,259.716Z" transform="translate(-41.779 -137.352)" fill="#f04864" opacity="0.23"/>
      <path id="Path_6026" data-name="Path 6026" d="M93.637,178.01a64.554,64.554,0,0,1,5.531,8.506c2.524,4.563,9.525.479,7-4.091a77.64,77.64,0,0,0-6.8-10.144c-1.347-1.728-4.318-1.415-5.729,0-1.7,1.7-1.35,4,0,5.729Z" transform="translate(90.115 -129.877)" fill="#f8a5b3"/>
      <path id="Path_6027" data-name="Path 6027" d="M96.794,182.735q6.8,17.236,12.06,34.98c1.48,4.987,9.3,2.866,7.814-2.153q-5.266-17.76-12.06-34.98c-1.891-4.793-9.73-2.7-7.814,2.153Z" transform="translate(100.538 -112.266)" fill="#f8a5b3"/>
    </g>
  </g>
</svg>
