<?xml version="1.0" encoding="utf-8"?>
<!-- Generator: Adobe Illustrator 22.1.0, SVG Export Plug-In . SVG Version: 6.00 Build 0)  -->
<svg version="1.1" id="Layer_1" xmlns="http://www.w3.org/2000/svg" xmlns:xlink="http://www.w3.org/1999/xlink" x="0px" y="0px"
	 viewBox="0 0 556.3 831.9" style="enable-background:new 0 0 556.3 831.9;" xml:space="preserve">
<g id="ceritificate">
	<path d="M0.2,350.2c0-112.3,0-224.5,0-336.8C0.2,9.4-0.1,5,4,2.7c2.8-1.5,6.2-2.6,9.3-2.6C66.8,0,120.4,0,174,0c92,0,184,0,276,0
		c30.9,0,61.8,0,92.7,0c9.3,0,13.4,3.8,13.4,13c0.1,26.8,0.1,53.6,0.1,80.4c0,93.5,0.1,186.9,0.1,280.4c0,95.3-0.1,190.5-0.1,285.8
		c0,9.3,0.1,18.6,0.1,27.9c0,8.4-3,11.5-11.3,11.5c-31.9,0-63.7,0-95.6,0c-6.9,0-6.9,0-6.9,6.8c0,38.2,0,76.5,0,114.7
		c0,4.7-1.2,8.9-6.1,10.5c-5.9,2-11.3,0.1-14.4-4.6c-10.8-16.4-21.5-32.9-32.2-49.4c-0.4-0.6-0.3-1.6-0.7-2.3
		c-0.6-0.9-1.5-2.2-2.2-2.2c-1,0.1-2.2,1-2.8,2c-4.9,7.7-9.7,15.6-14.7,23.3c-5.3,8.1-10.7,16-16.1,24c-0.7,1.1-1.5,2.1-2.1,3.2
		c-2.9,5.7-7.8,7.8-14.5,6.3c-3.6-0.8-6.9-5.7-7.1-10.7c-0.1-4.2,0-8.5,0-12.7c0-33.8,0-67.7,0-101.5c0-7.5,0-7.5-7.8-7.5
		c-102.1,0-204.3,0-306.4,0c-3.4,0-7.1,0.2-10-1.2c-2.3-1.1-3.8-4.4-5.2-6.9c-0.6-1.1-0.1-2.9-0.1-4.4
		C0.2,574.4,0.2,462.3,0.2,350.2C0.2,350.2,0.2,350.2,0.2,350.2z M442.4,677.6c2,0.1,3.6,0.4,5.2,0.4c27.1,0,54.3,0,81.4,0
		c6.5,0,6.6,0,6.6-6.5c-0.3-85.8-0.9-171.5-0.9-257.3c0-102.3,0.6-204.5,0.9-306.8c0.1-26.5-0.1-53,0-79.4c0-4.5-1.5-6.4-6.3-6.4
		c-20.9,0.2-41.8,0.1-62.8,0.1c-145.9,0-291.9,0-437.8,0c-7.2,0-7.2,0-7.2,7.3c0.1,122.2,0.1,244.5,0.2,366.7c0,91.5,0,183,0,274.6
		c0,2,0,4.1,0,6.1c103,0,205.2,0,307.9,0c0-12.8-0.2-25.3,0.1-37.9c0.1-4.5-1.3-7.1-5-9.9c-33.9-25.4-49.3-59.7-42.6-101.4
		c7.1-44.3,33.7-73.8,77.1-85.1c42.6-11.1,79.3,1.6,107.7,35.3c28,33.2,31.1,82.1,9.1,119.3c-8.1,13.6-19,24.5-31.5,33.9
		c-1.1,0.8-2,2.5-2,3.8C442.4,648.5,442.4,662.7,442.4,677.6z M385.6,463.8c-43.8,0-79.5,35.7-79.5,79.5c0,43.6,35.6,79.2,79.1,79.4
		c43.9,0.1,79.7-35.5,79.7-79.2C465,499.6,429.4,463.8,385.6,463.8z M351.5,642.6c0,46.5,0,92.1,0,137.8c4.6,0.5,4.7-3.4,6.2-5.7
		c6.4-9.5,12.9-19,19-28.7c4.2-6.6,13.9-7.9,18.1-1.7c7.5,11.1,14.5,22.7,21.8,34c0.7,1.1,2.2,1.8,4,3.2c0-47.2,0-93,0-139.2
		C397.6,650.2,374.9,650.1,351.5,642.6z"/>
	<path d="M476.8,81c-2.9,0-5.3,0-7.7,0C344,81,218.8,81,93.7,81c-1.6,0-3.3,0-4.9,0c-10-0.2-9.3-1.1-9.3,9.5
		c0,142.8,0,285.6,0,428.5c0,30.4,0,60.8,0,91.2c0,7.4,0.3,7.7,7.5,7.7c45.4,0,90.9,0,136.3,0c8.7,0,11.1,2.3,11.2,10.5
		c0.1,6.4-4.1,10.8-10.6,10.8c-12.3,0.1-24.5,0-36.8,0c-38.9,0-77.8,0-116.7,0c-8.1,0-10.8-3.3-12.3-10.1c-0.8-3.3-0.8-6.7-0.8-10.1
		c0-182,0-364.1,0-546.1c0-8.8,4.4-13.4,13-13.4c40.2,0,80.4,0,120.6,0c60.6,0,121.2,0.1,181.9,0.1c37.6,0,75.2,0,112.7,0
		c4.4,0,8.8-0.1,11.1,4.7c0.8,1.7,1.7,3.6,1.7,5.4c0.1,59.2,0.1,118.3,0.1,177.5c0,49.7,0,99.4,0,149c0,8.5-2.6,11.6-9.5,11.6
		c-8.7,0-11.8-3-11.8-11.9c0-102.9,0-205.9,0-308.8C476.8,85.4,476.8,83.8,476.8,81z"/>
	<path d="M277.9,238.3c-48.8,0-97.7,0-146.5,0c-8.3,0-13.7-4.9-13.4-12c0.2-5.2,3.9-9.6,9.2-10.6c2.5-0.5,5.1-0.8,7.7-0.8
		c94.3,0,188.5,0,282.8,0c4.5,0,9.1,0.1,13.6,1c2.1,0.4,4.5,2.5,5.4,4.5c3.8,8.1-0.3,17-9.2,17.8c-1.5,0.1-2.9,0-4.4,0
		C374.6,238.3,326.2,238.3,277.9,238.3z"/>
	<path d="M277.7,155.9c-22.5,0-45.1-0.1-67.6,0c-7.5,0-12.3-5.2-11.8-11.6c0.3-4.9,3.9-9,9-9.9c1.1-0.2,2.3-0.1,3.4-0.1
		c45.1,0,90.2,0,135.3,0c9.1,0,14.3,6.6,11.5,14.5c-1.6,4.7-5.5,7.1-11.6,7.1C323.1,155.9,300.4,155.9,277.7,155.9z"/>
	<path d="M190.9,472.6c-20.9,0-41.8,0-62.7,0c-5.2,0-9.4-3.4-10.3-8c-1-5.4,1.2-9.7,6.4-11.5c2.6-0.9,5.5-1.8,8.2-1.8
		c39.7-0.1,79.3-0.1,119-0.1c7.5,0,12.9,5.8,12.4,11.9c-0.5,5.7-4,9.5-9.9,9.5C233.1,472.7,212,472.6,190.9,472.6z"/>
	<path d="M175.3,533.6c16,0,32-0.1,47.9,0c5.7,0,8.4,3.8,8.3,10.8c-0.1,6.1-3.1,9.5-8.7,9.5c-31.8,0-63.6,0-95.4,0
		c-5.3,0-9.3-4.3-9.4-10c-0.1-6,3.3-10.2,8.9-10.3C143,533.5,159.1,533.6,175.3,533.6z"/>
	<path d="M426.1,311.1H129.9c-6.4,0-11.6-5.2-11.6-11.6v-1c0-6.4,5.2-11.6,11.6-11.6h296.2c6.4,0,11.6,5.2,11.6,11.6v1
		C437.6,305.9,432.4,311.1,426.1,311.1z"/>
	<path d="M427,390H130.8c-6.4,0-11.6-5.2-11.6-11.6v-1c0-6.4,5.2-11.6,11.6-11.6H427c6.4,0,11.6,5.2,11.6,11.6v1
		C438.6,384.8,433.4,390,427,390z"/>
</g>
</svg>
