<?xml version="1.0" encoding="utf-8"?>
<!-- Generator: Adobe Illustrator 22.1.0, SVG Export Plug-In . SVG Version: 6.00 Build 0)  -->
<svg version="1.1" id="Layer_1" xmlns="http://www.w3.org/2000/svg" xmlns:xlink="http://www.w3.org/1999/xlink" x="0px" y="0px"
	 viewBox="0 0 811.2 664" style="enable-background:new 0 0 811.2 664;" xml:space="preserve">
<path d="M736,347.2c1,1.5,1.3,2.3,1.9,2.7c19,12.9,34.3,29.4,45.8,49.1c5.7,9.8,10.8,20.1,15.2,30.6c4.5,10.5,7.3,21.7,8.8,33.1
	c1.2,8.8,2.4,17.6,3.1,26.4c0.3,4.1-0.5,8.3-1,12.4c-0.8,6.9-1.3,13.8-2.8,20.5c-1.9,8.8-4.4,17.4-7.1,26
	c-4.3,14-11.3,26.7-19.3,38.8c-7.5,11.4-16.3,21.8-26.4,31c-10.5,9.5-21.8,17.8-34.3,24.2c-9.5,4.8-19.5,8.9-29.5,12.6
	c-7,2.6-14.4,4.6-21.7,6.1c-6.4,1.3-13,1.3-19.5,2.4c-11.6,2-23.1,0.2-34.6-1c-8.6-0.9-16.9-3.7-25.4-5.8
	c-18-4.4-34.2-12.8-49.5-22.9c-13.3-8.8-25.1-19.4-35.3-31.8c-12.7-15.4-22.6-32.5-29.8-51.2c-4.7-12.3-7.2-25.3-9.8-38.2
	c-0.1-0.4-0.1-0.9-0.1-1.4c-0.3-5.7-0.4-5.8-6.1-5.8c-30.7,0-61.5,0-92.2,0c-52.8,0-105.5,0-158.3,0c-52.6,0-105.3-0.1-157.9,0.1
	c-8,0-16,0-23.4-3c-8.4-3.3-15.5-8.4-19.9-16.7c-5.2-9.8-7-20.2-6.9-31.2c0.1-84.1-0.1-168.1,0.3-252.2c0.1-12.3,4.2-24,13.8-32.8
	c7.3-6.7,16.3-10.5,26.2-10.6c24.1-0.4,48.2-0.1,72.4-0.1c10.1,0,20.2-0.1,30.3,0c3.1,0,4-1.1,4-4.1c-0.1-35.1-0.1-70.3,0-105.4
	c0-5.6,0.2-11.3,1.3-16.8c2.5-12.6,9.3-22.3,21.3-27.7C175.6,1.8,182.1,0,189,0c193.5,0,387.1-0.1,580.6,0.2
	c13.7,0,25.7,5.6,33.5,17.8c5.2,8.1,7.9,17.1,8,26.7c0.1,85.9,0.2,171.9,0,257.8c0,12-3.9,23.2-12.2,32.1
	c-5.7,6.2-13.4,9.5-21.6,11.3c-12,2.7-24.2,0.8-36.3,1.4C739.7,347.3,738.4,347.2,736,347.2z M332.9,188.6c-75.5,0-151,0-226.5,0
	c-22.1,0-44.3,0-66.4,0.1c-1.4,0-2.8,0.5-4.1,1.2c-3.9,2.2-5.2,5.7-5.2,10.1c0.1,28.5,0.1,57,0,85.5c0,26.5-0.1,53.1-0.1,79.6
	c0,29.3,0.1,58.7,0.1,88c0,4.3-0.3,8.6,0,12.9c0.5,5.6,4.7,9.3,10.3,9.3c139.2,0,278.3,0,417.5,0c5.9,0,5.9,0,6.3-6
	c0-0.6,0.1-1.2,0.2-1.7c1.6-7.6,3.2-15.3,5-22.8c0.5-2-0.2-2.6-1.8-2.8c-1-0.1-2.1,0-3.1,0c-117,0-234,0-351,0
	c-10.1,0-16.5-6.8-16.7-16.6c0-2.2-0.4-4.8-1.5-6.6c-3.4-5.4-7.6-9.5-14.8-9.9c-12-0.7-16.8-6.8-16.8-16.2
	c-0.3-40.5-0.2-80.9,0-121.4c0-3.3,1.7-6.9,3.4-9.8c3.1-5.3,8.7-6,14.2-6.5c8.6-0.8,15.5-8.3,15.7-17c0.3-9.2,6.2-15.8,15.9-15.9
	c33.2,0,66.3,0,99.5,0c112.9,0,225.9,0,338.8,0.1c3,0,6.3,1,9.1,2.4c6,3,7,9,7.5,15c0.7,7.8,7.6,14.9,15.4,15.4
	c10.6,0.7,17.9,5.4,17.6,18.7c-0.3,10.5-0.1,21.1-0.1,31.7c0,4.1,0,8.1,0,12.2c0,2,0.2,3.4,3.2,2.9c8.5-1.3,17.1-2.2,25.7-2.9
	c3.2-0.3,4.5-1,4.5-4.7c-0.1-38-0.1-76.1-0.1-114.1c0-6-4.1-10-10.1-10C527.3,188.6,430.1,188.6,332.9,188.6z M478.7,29.9
	c-62,0-124.1,0-186.1,0c-35.4,0-70.7,0-106.1,0c-4.9,0-9.7,4.6-9.7,9.1c0,38.6,0,77.2-0.1,115.9c0,3,1,3.8,3.8,3.8
	c8.6-0.1,17.2-0.2,25.7-0.1c3.1,0.1,4-1,4-4c-0.1-14.1-0.2-28.3,0-42.4c0.1-9.3,6.2-15.2,15.4-15.4c9-0.2,16.7-7.1,17.4-16.1
	c0.9-11,5.9-17.4,19-17.4c145,0.1,289.9,0,434.9,0c10.4,0,17,6.7,17.1,17c0,7.9,8.3,16.5,16.2,16.4c10.5-0.2,17.2,6.9,17.2,17.6
	c0,39.4,0,78.9-0.1,118.3c0,11.7-6.4,17.6-17.8,17.9c-7.2,0.2-15.6,8.4-15.6,15.7c0,9.8-4.9,15.9-13.9,17.1
	c-2.4,0.3-4.8,0.5-7.2,0.5c-8.5,0.1-16.9,0.1-25.4,0c-2.1,0-2.9,0.8-2.9,2.9c0,8.9,0,17.9,0,26.8c0,2.4,0.9,3.2,3.3,3.2
	c34.7-0.1,69.3,0,104-0.1c1.2,0,2.4-0.5,3.5-1c4-2.1,5.3-5.6,5.2-10c-0.1-20.2-0.1-40.3,0-60.5c0-26.9,0.1-53.8,0.1-80.7
	c0-18.9-0.1-37.8-0.1-56.7c0-22.3,0-44.5,0-66.8c0-6.7-4.3-10.9-10.9-10.9C672.6,29.9,575.6,29.9,478.7,29.9z M780.5,490.4
	c0.9-80.3-65.1-138.3-129.6-143.1c-44.4-3.4-83.3,9.6-115.1,41.3c-27.6,27.6-41.8,61-42.4,100.2c-1.3,81,65.8,141.8,135.9,145.2
	C715.1,638.2,782.1,567.3,780.5,490.4z M299.9,339.1c1.5,1.9,2.5,3.2,3.6,4.5c18.4,21.8,36.9,43.5,55.2,65.3c2,2.4,4,3.2,7,3.2
	c31.7-0.1,63.3-0.1,95-0.1c6.4,0,12.8,0.1,19.1-0.1c1.3,0,3-0.7,3.7-1.6c1.9-2.6,3.3-5.5,4.9-8.3c10-17.5,22.9-32.6,38.5-45.3
	c12.6-10.3,26.6-18.6,41.6-25.2c2.4-1,2.8-2.3,2.8-4.4c0-13.4-0.2-26.9,0.1-40.3c0.1-3.5-1.4-4.9-4.3-6.3c-4.8-2.5-9.6-5.3-13.8-8.7
	c-5.2-4.1-8.3-10-10.9-16.1c-0.8-1.8-1.3-3.7-4.2-3.7c-51.5,0.1-103,0.1-154.4,0.1c-1.1,0-2.5,0.9-3.1,1.8c-2.6,3.6-5,7.2-7.3,11
	c-1.5,2.4-3.3,3.4-6.2,3.3c-7.2-0.2-14.5-0.1-21.9-0.1c1.8,4.3,3.8,8.1,5.1,12.1c0.7,2.1,1.6,2.6,3.6,2.6c7.9-0.1,15.8-0.1,23.7,0
	c1.2,0,2.3,0.3,4.1,0.6c-3.4,5.1-6.3,9.7-9.5,14c-0.9,1.2-2.7,2.1-4.2,2.2c-4.4,0.3-8.8,0.2-13.2,0.1c-1.9,0-2.9,0.5-3.4,2.5
	c-3.8,14.5-12.4,24.8-26.2,30.8C317.3,336.3,309.3,338.6,299.9,339.1z M324.3,282.6c-0.3-0.9-0.3-1.1-0.4-1.3
	c-0.2-0.4-0.5-0.8-0.8-1.1c-6.1-7.3-14.3-10.8-23.4-11.5c-9.7-0.8-19.4-0.5-29.2-0.7c-1.3,0-2.6-0.1-4.8-0.3
	c3.7-5.6,7-10.5,10.6-15.9c-1.3,0-2.1,0-2.9,0c-48.5,0-96.9,0-145.4-0.1c-2.8,0-4,1.3-4.8,3.4c-4.8,12-12.9,20.6-25.1,25.3
	c-2.4,0.9-3.7,2.4-3.7,5.4c0.2,14.2,0.1,28.5,0.1,42.8c0,16.4,0.1,32.9-0.1,49.3c0,3,1.4,4.3,3.6,5.1c12.3,4.7,20.6,13.4,25.3,25.6
	c0.9,2.3,2.4,3.2,5,3.2c66.7-0.1,133.3-0.1,200-0.1c1,0,1.9-0.1,3.4-0.2c-0.9-1.1-1.5-1.8-2-2.5c-18.5-21.7-37.1-43.3-55.6-65
	c-0.8-0.9-1.9-2.1-2-3.1c-0.2-5.1-0.1-10.1-0.1-15.3c1.1,0,1.8,0,2.5,0c7.5,0,15.1,0.5,22.5-0.3c11.7-1.3,22-5.7,28-16.8
	c1.4-2.7,2.2-5.6,3.6-9.3c-21.4,0-41.7,0-62.7,0c0.9-1.6,1.3-2.6,1.9-3.4c2.4-3.5,5-7,7.3-10.6c1.3-2.1,2.8-2.9,5.4-2.8
	c11.9,0.1,23.9,0.1,35.8,0.1C318.7,282.6,321.3,282.6,324.3,282.6z M590.2,93.3c-30.5,0-61,0-91.5,0c-0.9,0-2-0.2-2.8,0.1
	c-0.9,0.4-2.4,1.2-2.4,1.9c-0.1,3.3,0,6.7,0.4,10c0.1,0.8,1.1,1.7,1.9,2.1c1.6,0.8,3.4,1.3,5.1,2c6.3,2.5,11.7,5.8,12.4,13.4
	c0.5,5.3-0.9,9.9-5.1,13.2c-4.2,3.4-9,4.3-14.2,2.6c-5.6-1.9-11.2-3.7-16.8-5.8c-4.8-1.8-9.1,1-11.6,4.6c-3,4.3-2.9,9.2,0.6,13.1
	c4.7,5.3,11.3,7.5,18,8c7.9,0.6,16,0.2,24,0.2c33.9,0,67.7,0,101.6,0c9.4,0,18.9-0.8,28,2.8c6,2.3,11.7,5.2,15.8,10
	c7.6,9,11.1,19.5,10.9,31.4c-0.2,15.4,0,30.8-0.1,46.3c0,3.4,1.1,4.4,4.4,4.3c5-0.3,10-0.2,15,0c2.3,0.1,3.4-1,4.1-2.8
	c4.8-12.4,13.3-21.2,25.8-26c2.4-0.9,3.5-2.6,3.5-5.2c-0.2-12.7-0.3-25.5-0.3-38.2c0-17.5,0.1-35,0.3-52.5c0-3.4-1-5.4-4.4-6.7
	c-11.8-4.7-20-13.1-24.6-25c-0.9-2.5-2.4-3.7-5.4-3.7C651.9,93.3,621.1,93.3,590.2,93.3z M338.1,158.7c22.1,0,44.3,0,66.4,0
	c9.4,0,18.8,0,28.2,0c3.4,0,3.6-0.9,3.3-3.9c-0.7-6.6-2.1-13.5-0.8-19.8c2.6-13.2,10.4-23.3,23-28.7c4.3-1.8,5.6-4,5.2-8.4
	c-0.4-4.6-0.1-4.6-4.6-4.6c-61.3,0-122.6,0-183.9-0.1c-3.4,0-4.8,1.4-6.3,4.1c-2.3,4.4-4.8,8.9-7.8,12.9
	c-4.4,5.8-10.6,9.5-17.3,12.2c-2.8,1.1-3.8,2.6-3.7,5.7c0.2,8.6,0.1,17.2,0.1,25.7c0,5,0,5,5,5C276,158.7,307.1,158.7,338.1,158.7z"
	/>
<path d="M681.5,545.9c-0.3,7-0.1,14.2-1.1,21.1c-2.2,14.3-9.5,25.3-22.7,32.2c-9.2,4.8-19,6.7-28.8,4.5
	c-13.3-2.9-24.7-9.6-31.1-22.8c-3.7-7.6-5.4-15.6-5.5-23.9c-0.2-9.5,0-19-0.1-28.5c0-3.9-0.3-3.9-4.1-2.8
	c-8.4,2.5-16.7,3.2-25.4,0.7c-13.4-3.9-23.3-11.5-28.9-24.3c-4.1-9.4-5.5-18.9-2.7-29.1c2.6-9.5,7.5-17.2,14.5-24.1
	c19.9-19.6,39.4-39.6,59.4-59.2c10.4-10.1,23-14.7,37.7-12.8c10.4,1.4,19.3,5.7,26.6,13c20.8,20.7,41.7,41.3,62.1,62.3
	c10.5,10.8,14.8,24.3,12.1,39c-2.8,15.1-11.2,26.8-25.8,32.9c-10.9,4.6-22.1,5.5-33.4,0.7c-2.6-1.1-3.2,1.1-3.2,3.1
	c0,5.9,0,11.8,0,17.7C681.3,545.9,681.4,545.9,681.5,545.9z M652,526.4c0-11.6,0-23.2,0-34.8c0-7.1,6.3-13.2,13.3-13.6
	c6.9-0.4,11.7,2.9,16,7.8c3.6,4,7.3,8.2,11.7,11.2c5.7,3.8,12.6,2.8,18.6-4.3c4.6-5.4,4.5-13.5-0.5-18.5
	c-21.3-21.4-42.7-42.7-64.1-64c-6.3-6.3-13.8-6.3-20.1,0c-21.2,21.1-42.2,42.4-63.5,63.4c-6.8,6.7-5.3,15.8,0.7,21.3
	c5.2,4.7,13.3,6.1,19.2,0.2c4.6-4.6,9.4-9.1,14.1-13.6c4.6-4.3,10.3-4.6,15.6-2.5c5.8,2.3,9.1,7.1,9.1,13.8
	c-0.1,22.1,0.1,44.3-0.1,66.4c-0.1,6,2.4,10.2,7,13.4c4.4,3.1,9.3,3.4,14,1.1c5.2-2.5,9-6.5,9-12.8C652,549.4,652,537.9,652,526.4z"
	/>
</svg>
