<?xml version="1.0" encoding="utf-8"?>
<!-- Generator: Adobe Illustrator 22.1.0, SVG Export Plug-In . SVG Version: 6.00 Build 0)  -->
<svg version="1.1" id="Layer_1" xmlns="http://www.w3.org/2000/svg" xmlns:xlink="http://www.w3.org/1999/xlink" x="0px" y="0px"
	 viewBox="0 0 812.2 812.3" style="enable-background:new 0 0 812.2 812.3;" xml:space="preserve">
<image style="display:none;overflow:visible;enable-background:new    ;" width="1724" height="1707" xlink:href="../noc.png"  transform="matrix(0.7645 0 0 0.7645 -4893.2002 1396.5001)">
</image>
<path d="M406.4,0.3c121.9,0,243.9,0.1,365.8-0.2c19.7,0,35.6,14,38.6,28.8c0.6,2.8,1.3,5.7,1.3,8.5c0.1,152.8,0.1,305.6,0,458.4
	c0,16.8-12.9,31.5-27.7,35.8c-6.8,1.9-13.4,1.1-20.2,1.2c-16.3,0.2-32.5,0.3-48.8,0.3c-15.5,0-31.1-0.2-46.6-0.2
	c-16.2,0-32.3,0.2-48.5,0.2c-16.1,0-32.1-0.2-48.2-0.2c-14.5,0-29.1,0.2-43.6,0.2c-12.1,0-24.2,0-36.4,0c-15.5,0-31.1-0.2-46.6-0.2
	c-3.7,0-7.5,0.1-11.2,0.2c-2.2,0.1-2.8-0.8-2.8-2.9c0.1-6.5,0.1-12.9,0-19.4c-0.1-2.4,0.7-3.2,3.1-3.2c11.5,0.1,23,0,34.5,0
	c7.6,0,15.1-0.1,22.7,0c6.1,0.1,12.1,0.4,18.2,0.4c4.8,0,9.7-0.4,14.5-0.4c12.1-0.1,24.2,0,36.3,0c9.2,0,18.3,0,27.5,0
	c11,0,22,0,33,0c10.2,0,20.4,0,30.5,0c11.9,0,23.8,0,35.7,0c10.1,0,20.2,0,30.2,0c11.6,0,23.2,0,34.8,0c7,0,14.1,0,21.1,0
	c7.6-0.1,13-5.4,13.1-13c0.1-7.5,0-14.9,0-22.4c0.1-8,0.4-15.9,0.4-23.9c0-3.3-0.4-6.6-0.4-10c0.1-7.2,0.3-14.3,0.4-21.5
	c0-3.3-0.4-6.6-0.4-10c0.1-7.3,0.3-14.5,0.4-21.8c0-3.2-0.4-6.4-0.4-9.7c0.1-7.4,0.3-14.7,0.4-22.1c0-3.2-0.4-6.4-0.4-9.7
	c0.1-7.4,0.3-14.7,0.4-22.1c0-3.2-0.4-6.4-0.4-9.7c0.1-7.4,0.3-14.7,0.4-22.1c0-3.3-0.4-6.6-0.4-10c0-4.9,0.4-9.9,0.4-14.8
	c0-5.1-0.4-10.3-0.4-15.4c0-7.8,0.3-15.5,0.4-23.3c0-3.1-0.4-6.2-0.4-9.4c0.1-7.5,0.3-14.9,0.4-22.4c0-3.1-0.4-6.2-0.4-9.4
	c0.1-7.5,0.3-14.9,0.4-22.4c0-3.2-0.4-6.4-0.4-9.7c0.1-7.3,0.3-14.5,0.4-21.8c0-3.3-0.4-6.6-0.4-10c0.1-7.3,0.3-14.5,0.4-21.8
	c0-3.2-0.4-6.4-0.4-9.7c0.1-7.5,0.4-14.9,0.4-22.4c0-6.3-0.3-12.5-0.4-18.8c-0.1-4,0.3-8.1-0.2-12c-0.7-6.5-5.7-11-12.3-11.1
	c-6.6-0.2-13.3,0-19.9-0.1c-7.6-0.1-15.1-0.4-22.7-0.4c-5.7,0-11.5,0.4-17.2,0.4c-10,0.1-20,0-29.9,0c-11.1,0-22.2,0-33.3,0
	c-10.6,0-21.2,0-31.8,0c-9.9,0-19.8,0-29.6,0c-10.5,0-21,0-31.5,0c-11.3,0-22.6,0-33.9,0c-10.7,0-21.4,0-32.1,0
	c-9.8,0-19.6,0-29.3,0c-10.6,0-21.2,0-31.8,0c-11.3,0-22.6,0-33.9,0c-9.9,0-19.8,0-29.6,0c-10.7,0-21.4,0-32.1,0
	c-10.4,0-20.8,0-31.1,0c-11.4,0-22.8,0-34.2,0c-9.8,0-19.6,0-29.3,0c-10.8,0-21.6,0-32.4,0c-10.4,0-20.8,0-31.1,0
	c-11.3,0-22.6,0-33.9,0c-10.2,0-20.4,0-30.5,0c-11,0-22,0-33,0c-11.4,0-22.8,0-34.2,0c-2.7,0-5.4-0.3-8.1,0
	c-10.3,0.9-13.1,9.5-12.7,18c0.3,6.5,0,13.1,0.1,19.6c0,4.3,0.2,8.7,0.2,13c0,5.9,0,11.7,0,17.6c0,4.8,0,9.7,0,14.5
	c0,6.1-0.2,12.1-0.2,18.2c0,3.7-0.1,7.5-0.1,11.2c0,7.2-0.1,14.5,0,21.7c0.1,5,0.4,10.1,0.4,15.1c0,8.2-0.3,16.4-0.4,24.5
	c0,3.1,0.4,6.2,0.4,9.4c0,5-0.4,10.1-0.4,15.1c0,5.2,0.4,10.5,0.4,15.7c0,7.8-0.3,15.5-0.4,23.3c0,3.3,0.4,6.6,0.4,10
	c-0.1,7.3-0.3,14.5-0.4,21.8c0,3.1,0.4,6.2,0.4,9.4c-0.1,7.5-0.3,14.9-0.4,22.4c0,3.2,0.4,6.4,0.4,9.7c-0.1,7.3-0.3,14.5-0.4,21.8
	c0,3.3,0.4,6.6,0.4,10c-0.1,7.3-0.3,14.5-0.4,21.8c0,3.2,0.4,6.4,0.4,9.7c-0.1,7.4-0.3,14.7-0.4,22.1c0,3,0.4,6,0.4,9.1
	c-0.1,7.6-0.3,15.1-0.4,22.7c0,3.2,0.4,6.4,0.4,9.7c-0.1,7.1-0.4,14.1-0.4,21.2c0,4.2,0.2,8.5,0.5,12.7c0.4,6,5.8,11.1,11.9,11.3
	c3.5,0.1,7.1,0.1,10.6,0c2.1-0.1,2.9,0.7,2.8,2.8c-0.1,6.5,0,13.1,0,19.6c0,1.5,0.1,3-2,2.9c-8.3-0.4-16.8,0.7-24.8-2.8
	c-11.1-4.8-18.4-13-22.4-24.4c-1.5-4.3-1.6-8.5-1.6-12.8c0-151,0.1-301.9-0.1-452.9C0,20.4,13.9,4.5,28.7,1.4C32.1,0.7,35.6,0,39,0
	C161.7,0.3,284.1,0.3,406.4,0.3z"/>
<path d="M404,323.4c0.7,4,1.7,7.6,1.9,11.1c0.3,8,0.2,16,0.2,23.9c0,10.9,0,21.8,0,32.7c0,10.3,0,20.6,0,30.9c0,10.9,0,21.8,0,32.7
	c0,10.2,0,20.4,0,30.6c0,10.9,0,21.8,0,32.7c0,10.4,0,20.8,0,31.2c0.1,11.9,0.2,23.8,0.3,35.7c0.1,9.1-7.6,20.1-16.8,22.7
	c-4,1.1-8.3,1.1-12.5,1.2c-7.9,0.3-15.8,0.4-23.6,0.4c-4.7,0-9.5-0.1-14.2-0.4c-2.3-0.1-3.1,0.7-3,3c0.2,4.4,0.4,8.9,0.3,13.3
	c0,8.4-0.3,16.8-0.3,25.1c-0.1,10.9-0.1,21.8-0.1,32.7c0,10.2,0,20.4,0,30.6c0,10.9,0,21.8,0,32.7c0,10.2,0,20.4,0,30.6
	c0,7.8,0,15.5,0,23.3c0,6.9-5.4,12.1-12.3,12.1c-34.9,0-69.8,0-104.7,0c-19.4,0-38.8-0.3-58.2,0.1c-9.7,0.2-14.9-6.2-14.7-14.8
	c0.1-5.8,0.4-11.5,0.4-17.3c0-5.1-0.4-10.3-0.3-15.4c0-7.9,0.3-15.8,0.4-23.6c0.1-11.1,0-22.2,0-33.3c0-9.7,0-19.4,0-29
	c0-11.5,0-23,0-34.5c0-10.5-0.1-21,0.1-31.5c0-2.8-0.3-4-3.7-3.8c-6.5,0.4-13.1-0.2-19.7-0.2c-7.2,0-14.3,0.3-21.5,0.3
	c-11.5-0.1-21.4-7.7-24.3-18.8c-0.8-3-0.9-6.2-1-9.3c0-5.5,0.3-11.1,0.3-16.6c0-5.4-0.4-10.9-0.3-16.3c0-7.8,0.3-15.5,0.4-23.3
	c0.1-10.8,0-21.6,0-32.4c0-10.1,0-20.2,0-30.3c0-3.7-0.4-7.5-0.4-11.2c0-6.8,0.3-13.5,0.4-20.3c0.1-11.1,0-22.2,0-33.3
	c0-10.7,0-21.4,0-32.1c0-8.9-0.1-17.8,0.1-26.6c0.1-4.2,0.7-8.4,1.2-12.6c0.1-0.7,0.6-1.8,1.1-1.9c0.6-0.1,1.5,0.4,2,0.9
	c5.1,5.2,11.1,8.7,18.3,10.1c2.2,0.4,2.5,1.9,2.5,3.8c-0.2,13.2-0.4,26.5-0.4,39.7c0,13.4,0.2,26.9,0.2,40.3
	c0,17.9-0.2,35.8-0.2,53.6c0,13.1,0.2,26.3,0.2,39.4c0,18.5-0.2,37-0.2,55.5c0,4.5,0.2,9.1,0.2,13.6c0,2.2,0.9,2.7,2.9,2.7
	c7.8-0.1,15.5,0,23.3,0c13.6,0,27.3,0,40.9,0c13.4,0,26.9,0.2,40.3,0.2c17.7,0,35.4-0.2,53-0.2c14,0,28.1,0.2,42.1,0.2
	c18,0,36-0.2,53.9-0.2c6.4,0,12.7-0.1,19.1,0c2.5,0,3.7-0.4,3.6-3.3c-0.2-6.1-0.1-12.3-0.1-18.4c0.1-7.8,0.4-15.5,0.4-23.3
	c0-3.7-0.4-7.5-0.4-11.2c0-7.4,0.3-14.7,0.4-22.1c0-3-0.4-6-0.4-9.1c0.1-7.6,0.3-15.1,0.4-22.7c0-3-0.4-6-0.4-9.1
	c0.1-7.5,0.3-14.9,0.4-22.4c0-3.3-0.4-6.6-0.4-10c0.1-7.3,0.3-14.5,0.4-21.8c0-3.1-0.4-6.2-0.4-9.4c0.1-7.6,0.3-15.1,0.4-22.7
	c0-3-0.4-6-0.4-9c0.1-7.4,0.4-14.7,0.4-22.1c0-2.9-0.4-5.8-0.6-8.7c-0.2-1.9,0.6-3.1,2.5-3.5c7.2-1.4,13.1-5,18.2-10.2
	C402.1,324.4,402.8,324.1,404,323.4z M254.1,760.3c0,7.6,0,15.2,0,22.7c0,3.6,0.4,4.2,4.2,4.1c4.3,0,8.7-0.4,13-0.4
	c12.2-0.1,24.4,0,36.6,0c1.6,0,3.3,0.3,3.3-2.3c0-4.1,0.4-8.3,0.4-12.4c0-5.6-0.4-11.3-0.4-16.9c-0.1-10.3-0.1-20.6,0-30.8
	c0-5.1,0.4-10.3,0.4-15.4c0-5.6-0.4-11.3-0.4-16.9c-0.1-10.3-0.1-20.6,0-30.8c0-5.3,0.4-10.7,0.4-16c0-7.9-0.3-15.7-0.4-23.6
	c0-3.1,0.2-6.2,0.5-9.4c0.2-2.4-0.6-3.6-3.2-3.4c-3.5,0.3-7.1,0.4-10.6,0.4c-13.4,0-26.8,0.1-40.3,0c-2.5,0-3.6,0.5-3.6,3.3
	c0.1,16.4-0.1,32.7-0.1,49.1c0,15.6,0.2,31.1,0.2,46.7C254.2,725.6,254.1,742.9,254.1,760.3z M171.5,762.5c0,6.7,0,13.3,0,20
	c0,4.1,0.1,4.2,4.3,4.2c10.5,0,21-0.1,31.4,0c6.3,0,12.5,0.3,18.7,0.5c2.2,0.1,3.5-0.6,3.3-3.1c-0.2-2.4-0.4-4.8-0.4-7.2
	c0.1-5.8,0.3-11.7,0.4-17.5c0.1-10.6,0.1-21.2,0-31.7c0-5.5-0.3-11.1-0.4-16.6c-0.1-10.7-0.1-21.4,0-32c0-4.9,0.4-9.9,0.4-14.8
	c0.1-10.5,0.1-21,0-31.4c0-6.8-0.4-13.5-0.3-20.3c0-2.6-0.8-3.3-3.3-3.3c-8.3,0.1-16.5,0.1-24.8,0c-6.8-0.1-13.5-0.6-20.3-0.3
	c-10.8,0.6-8.8-1.6-8.9,8.9c-0.3,18.7,0.1,37.4,0.1,56c0,12.9-0.2,25.8-0.2,38.8C171.4,729.2,171.5,745.9,171.5,762.5z"/>
<path d="M241.1,82.9c46-0.6,90.3,34,94.9,86.2c4.9,54.8-35,99.1-86.1,103.4c-55.2,4.7-98.7-35.5-103.2-86.1
	C141.9,131.1,184.7,83.1,241.1,82.9z M171.7,177.8c-0.1,38.3,31.1,69.7,69.5,69.8c38.5,0.2,69.9-31.1,70-69.7
	c0-38.4-31-69.6-69.5-69.8C203.3,107.9,171.8,139.3,171.7,177.8z"/>
<path d="M710.8,406.2c-8.8,0-17.5,0-26.3,0c-10.9,0-21.8,0-32.7,0s-21.8,0-32.7,0c-10.6,0-21.2,0-31.7,0c-10.2,0-20.4,0-30.5,0
	c-10.6,0-21.2,0-31.8,0c-11,0-22,0-33,0c-7.2,0-14.5,0-21.7,0c-8.3,0-14-6-13.3-14.2c0.6-7.2,8.2-11.5,15.1-11
	c13.5,0.9,27.2,0.3,40.8,0.3c7.7,0,15.3,0.1,23,0c4.9,0,9.9-0.4,14.8-0.4c7.2,0,14.3,0.4,21.5,0.4c6.6,0,13.1-0.4,19.7-0.4
	c10-0.1,19.9,0,29.9,0c11.1,0,22.2,0,33.3,0c11.3,0,22.6,0,33.9,0c7.4,0,14.9-0.1,22.3,0.1c7.1,0.2,12.1,6,12,13.7
	C723.4,400.5,717.2,406.2,710.8,406.2z"/>
<path d="M471,152.5c-6.6,0-11.4-3.2-13.2-8.7c-1.7-5.2-0.2-11,4.4-14c2.2-1.4,5-2.5,7.5-2.6c9.4-0.3,18.7-0.1,28.1-0.1
	c9.9,0,19.8,0,29.6,0c10.7,0,21.4,0,32.1,0c10.7,0,21.4,0,32.1,0c11,0,22,0,33,0c10.1,0,20.2,0,30.2,0c11.3,0,22.6,0,33.9,0
	c7.2,0,14.5,0,21.7,0c7.7,0,13.5,5.5,12.9,14.2c-0.5,7.3-8.3,12.4-15.1,10.9c-2.9-0.7-6-0.2-9.1-0.2c-10.4,0-20.8,0-31.1,0
	c-4.7,0-9.5,0.4-14.2,0.4c-11.5,0.1-23,0-34.5,0c-10.1,0-20.1,0-30.2,0c-10.7,0-21.4,0-32,0c-10.8,0-21.6,0-32.3,0
	c-10.8,0-21.6,0-32.3,0C485.2,152.5,478.1,152.5,471,152.5z"/>
<path d="M670.7,279.3c-6.7,0-13.3,0-20,0c-9.7,0-19.4,0-29,0c-11.1,0-22.2,0-33.3,0c-10.5,0-21,0-31.5,0c-10.6,0-21.2,0-31.8,0
	c-11.1,0-22.2,0-33.3,0c-7.2,0-14.5,0-21.7,0c-8.2-0.1-14-6.4-13-14.5c0.9-7.2,8.4-12,15-10.7c4,0.8,8.2-0.2,12.3-0.2
	c7.4,0.1,14.7,0.4,22.1,0.4c7.7,0,15.3-0.3,23-0.4c10-0.1,19.9,0,29.9,0c10.6,0,21.2,0,31.7,0c10.4,0,20.8,0,31.1,0
	c10.8,0,21.6,0,32.4,0c11.4,0,22.8,0,34.2,0c7.2,0,14.5-0.1,21.7,0c7.6,0.1,13,5.7,12.6,14.2c-0.4,6.9-7.5,11.9-14.8,10.9
	c-2.8-0.4-5.6-0.2-8.5-0.2c-9.8,0-19.6,0-29.3,0C670.7,279.1,670.7,279.2,670.7,279.3z"/>
<path d="M469.1,317.4c8.6,0,16.2,0,23.9,0c11.4,0,22.8,0,34.2,0c14.3,0.1,28.7,0.2,43,0.2c16.1,0,32.1-0.2,48.2-0.2
	c11.9,0,23.8,0,35.8,0c15.5,0.1,30.9,0.2,46.4,0.2c3.4,0,6.9-0.3,10.3-0.2c7.8,0.2,13,5.8,12.5,14.3c-0.3,6.6-7.2,11.3-14.3,10.9
	c-8.1-0.4-16.1,0.1-24.2,0.1c-10,0-20,0-30,0c-10.5,0-21,0-31.5,0c-11.8,0-23.6,0-35.4,0c-10.6,0-21.2,0-31.8,0
	c-9.4,0-18.8,0-28.2,0c-11.8,0-23.6,0-35.4,0c-7.8,0-15.5,0.1-23.3-0.1c-7.2-0.1-12.3-6.2-12.1-13.9
	C457.4,322.7,463.5,317.3,469.1,317.4z"/>
<path d="M712.3,215.9c-8.2,0-15,0-21.7,0c-12,0-24,0-36.1,0c-10.5,0-21,0-31.5,0c-10.8,0-21.6,0-32.4,0c-11.4,0-22.8,0-34.2,0
	c-9.8,0-19.6,0-29.4,0c-11.6,0-23.2,0-34.8,0c-7.3,0-14.5,0-21.8,0c-8.2,0-13.7-5.8-13.2-14c0.4-6.4,7-12.2,14.6-11.2
	c4.5,0.6,9.1-0.1,13.6-0.1c12.6,0,25.2,0,37.9,0c10.7,0,21.4,0,32.1,0c12.2,0,24.4,0,36.7,0c11,0,22,0,33,0c11.4,0,22.8,0,34.2,0
	c13.8,0.1,27.7,0.2,41.5,0.3c3.6,0,7.3-0.5,10.9-0.2c7.3,0.7,11.8,5.6,11.7,13.9C723.3,210.5,717.1,216,712.3,215.9z"/>
<path d="M95.6,266.6c0-10.7-0.1-21.4,0-32.1c0.1-5.8,4.6-11,10.2-12c5.9-1.1,11.9,2,14,7.6c0.8,2.3,1.1,4.9,1.1,7.4
	c0,5.7-0.3,11.5-0.3,17.2c0,9.5,0.3,19,0.3,28.5c0,2.9,2,2.9,3.9,2.9c7.2-0.1,14.3-0.3,21.5-0.4c8.3-0.1,16.5-0.1,24.8,0
	c8.1,0.1,13.6,5.9,13.2,14c-0.3,6.7-7,11.7-14.4,11.3c-5-0.3-10.1,0-15.1,0c-14.9,0-29.9,0-44.8,0c-9.4,0-14.4-5.1-14.4-14.4
	C95.6,286.6,95.6,276.6,95.6,266.6L95.6,266.6z"/>
<path d="M362,258.4c0-8.2,0-16.4,0-24.5c0-5,4.6-10.1,9.9-11.3c5.2-1.2,11.4,1.5,13.6,6.2c1.1,2.3,1.7,5,1.7,7.5
	c0.2,10.1,0.1,20.2,0.1,30.2c0,10.3,0,20.6,0,30.9c0,8.3-5.3,13.7-13.6,13.7c-18.2,0-36.4-0.1-54.5-0.2c-2.7,0-5.5,0.3-8.2,0.2
	c-7.6-0.3-12.7-5.7-12.3-14.2c0.2-6.7,7.4-11.7,14.5-11c4.3,0.4,8.7-0.2,13-0.1c7.9,0.1,15.7,0.3,23.6,0.4c3.3,0,6.6-0.3,10-0.4
	c2,0,2.3-1.1,2.3-2.8C362,274.7,362,266.6,362,258.4L362,258.4z"/>
<path d="M95.8,95.4c0-10.6,0-21.2,0-31.8c0-7.2,5-12.2,12.2-12.2c9.9,0,19.8,0,29.7,0c7,0,13.9-0.2,20.9-0.3c4.8,0,9.7,0.1,14.5,0.3
	c5.8,0.2,11.1,5.6,11.1,11.2c0,7.9-4.4,13.3-11.2,13.5c-7.9,0.2-15.7,0-23.6,0.1c-8.6,0.1-17.2,0.3-25.7,0.3c-2.5,0-2.7,1.3-2.7,3.2
	c0.1,12.7,0.1,25.4,0,38.1c0,3.9-0.2,7.9-0.5,11.8c-0.4,5.7-5.2,9.6-12.1,9.9c-7.2,0.3-12.5-4.7-12.6-11.9
	c-0.1-3.8-0.2-7.7-0.2-11.5c0-6.9,0-13.7,0-20.6C95.7,95.4,95.7,95.4,95.8,95.4z"/>
<path d="M362.2,76.1c-8.7,0-16.9,0-25.1,0c-8.5,0.1-17,0.3-25.5,0.3c-8,0-13.5-5.9-13.1-13.5c0.3-6,5.5-11.5,11.5-11.7
	c5.3-0.2,10.7,0.1,16.1,0.1s10.7-0.2,16.1-0.2c10.1,0,20.2,0.2,30.3-0.1c8.2-0.3,14.9,4,14.9,14.6c0,5.7-0.4,11.5-0.4,17.2
	c0,5.2,0.4,10.5,0.4,15.7c0,8.6-0.2,17.2-0.4,25.7c-0.1,2.5,0.2,5.1-0.6,7.4c-2.3,6-7.9,9.1-13.7,7.9c-6.6-1.3-10.6-6.1-10.6-12.8
	c0-15.8,0.1-31.5,0.2-47.3C362.2,78.5,362.2,77.5,362.2,76.1z"/>
</svg>
