<svg xmlns="http://www.w3.org/2000/svg" width="30.839" height="30.839" viewBox="0 0 30.839 30.839">
  <g id="menu" opacity="0.7">
    <g id="Group_63" data-name="Group 63">
      <g id="Group_62" data-name="Group 62">
        <path id="Path_98" data-name="Path 98" d="M10.649,0H3.566A3.57,3.57,0,0,0,0,3.566v7.082a3.57,3.57,0,0,0,3.566,3.566h7.082a3.57,3.57,0,0,0,3.566-3.566V3.566A3.57,3.57,0,0,0,10.649,0Zm1.157,10.649a1.158,1.158,0,0,1-1.157,1.157H3.566a1.158,1.158,0,0,1-1.157-1.157V3.566A1.158,1.158,0,0,1,3.566,2.409h7.082a1.158,1.158,0,0,1,1.157,1.157Z" fill="#222c50"/>
      </g>
    </g>
    <g id="Group_65" data-name="Group 65" transform="translate(16.624)">
      <g id="Group_64" data-name="Group 64">
        <path id="Path_99" data-name="Path 99" d="M286.6,0h-6.987A3.618,3.618,0,0,0,276,3.614V10.6a3.618,3.618,0,0,0,3.614,3.614H286.6a3.618,3.618,0,0,0,3.614-3.614V3.614A3.618,3.618,0,0,0,286.6,0Zm1.2,10.6a1.206,1.206,0,0,1-1.2,1.2h-6.987a1.206,1.206,0,0,1-1.2-1.2V3.614a1.206,1.206,0,0,1,1.2-1.2H286.6a1.206,1.206,0,0,1,1.2,1.2Z" transform="translate(-276)" fill="#222c50"/>
      </g>
    </g>
    <g id="Group_67" data-name="Group 67" transform="translate(0 16.624)">
      <g id="Group_66" data-name="Group 66">
        <path id="Path_100" data-name="Path 100" d="M10.649,276H3.566A3.57,3.57,0,0,0,0,279.566v7.082a3.57,3.57,0,0,0,3.566,3.566h7.082a3.57,3.57,0,0,0,3.566-3.566v-7.082A3.57,3.57,0,0,0,10.649,276Zm1.157,10.649a1.158,1.158,0,0,1-1.157,1.157H3.566a1.158,1.158,0,0,1-1.157-1.157v-7.082a1.158,1.158,0,0,1,1.157-1.157h7.082a1.158,1.158,0,0,1,1.157,1.157Z" transform="translate(0 -276)" fill="#222c50"/>
      </g>
    </g>
    <g id="Group_69" data-name="Group 69" transform="translate(16.624 16.624)">
      <g id="Group_68" data-name="Group 68">
        <path id="Path_101" data-name="Path 101" d="M286.6,276h-6.987A3.618,3.618,0,0,0,276,279.614V286.6a3.618,3.618,0,0,0,3.614,3.614H286.6a3.618,3.618,0,0,0,3.614-3.614v-6.987A3.618,3.618,0,0,0,286.6,276Zm1.2,10.6a1.206,1.206,0,0,1-1.2,1.2h-6.987a1.206,1.206,0,0,1-1.2-1.2v-6.987a1.206,1.206,0,0,1,1.2-1.2H286.6a1.206,1.206,0,0,1,1.2,1.2Z" transform="translate(-276 -276)" fill="#222c50"/>
      </g>
    </g>
  </g>
</svg>
