<?xml version="1.0" encoding="utf-8"?>
<!-- Generator: Adobe Illustrator 22.1.0, SVG Export Plug-In . SVG Version: 6.00 Build 0)  -->
<svg version="1.1" id="Capa_1" xmlns="http://www.w3.org/2000/svg" xmlns:xlink="http://www.w3.org/1999/xlink" x="0px" y="0px"
	 viewBox="0 0 478.2 478.2" style="enable-background:new 0 0 478.2 478.2;" xml:space="preserve">
<style type="text/css">
	.st0{fill:#E64C4C;}
</style>
<g>
	<path class="st0" d="M20.6,153.1C10.8,165.6,6.1,179,6.7,192.8c0.6,15.2,7.4,27.1,13,34.4c-6.5,16.2-9,41.7,12.7,61.5
		c15.9,14.5,42.9,21,80.3,19.2c26.3-1.2,48.3-6.1,49.2-6.3h0.1c5-0.9,10.3-2,15.7-3.2c0.4,6.4-0.7,22.3-12.5,58.1
		c-14,42.6-13.2,75.2,2.6,97c16.6,22.9,43.1,24.7,50.9,24.7c7.5,0,14.4-3.1,19.3-8.8c11.1-12.9,9.8-36.7,8.4-47.7
		c13.2-35.4,50.2-122.2,81.5-146.3c0.6-0.4,1.1-0.9,1.6-1.4c9.2-9.7,15.4-20.2,19.6-29.4c5.9,3.2,12.6,5,19.8,5h61
		c23,0,41.6-18.7,41.6-41.6V45.5c0-23-18.7-41.6-41.6-41.6h-61c-8.9,0-17.2,2.8-24,7.6l-23.5-2.8c-3.6-0.5-67.6-8.6-133.3-7.3
		C176.2,0.5,165,0,154.6,0c-17.9,0-33.5,1.4-46.5,4.2C77.5,10.7,56.6,23.7,46,42.8c-8.1,14.6-8.1,29.1-6.8,38.3
		C19.3,99.1,15.8,119,16.5,133C16.9,141.1,18.7,148,20.6,153.1z M429.9,30.9c8.1,0,14.6,6.6,14.6,14.6v162.6
		c0,8.1-6.6,14.6-14.6,14.6h-61c-8.1,0-14.6-6.6-14.6-14.6V45.6c0-8.1,6.6-14.6,14.6-14.6L429.9,30.9L429.9,30.9z M46.2,164.8
		c4.2-4.4,5-11.1,1.8-16.3c0-0.1-4.1-7.1-4.6-16.7c-0.7-13.1,5.6-24.7,18.8-34.6c4.7-3.6,6.6-9.8,4.6-15.4c0-0.1-4.3-13.3,2.7-25.8
		c6.7-12,21.6-20.6,44.2-25.4c18.1-3.9,42.7-4.6,72.9-2.2c0.4,0,0.9,0,1.4,0c64.3-1.4,129.3,7,130,7.1h0.1l10.1,1.2
		c-0.6,2.8-0.9,5.8-0.9,8.8v162.6c0,4.3,0.7,8.5,1.9,12.4c-1.8,6.7-6.8,21.6-18.6,34.3c-44.9,35.6-88.8,155.7-90.7,160.9
		c-0.8,2.1-1,4.4-0.6,6.7c1.7,11.2,1.1,24.9-1.3,29c-5.3-0.1-19.6-1.6-28.2-13.5c-10.2-14.1-9.8-39.3,1.2-72.7
		c16.8-50.9,18.2-77.7,4.9-89.5c-6.6-5.9-15.4-6.2-21.8-3.9c-6.1,1.4-11.9,2.6-17.4,3.5c-0.4,0.1-0.9,0.2-1.3,0.3
		c-30.7,6.7-85.7,10.8-104.8-6.6c-16.2-14.8-4.7-34.4-3.4-36.5c3.7-5.6,2.6-12.9-2.4-17.4c-0.1-0.1-10.6-10-11.1-23.3
		C33.3,182.9,37.5,173.8,46.2,164.8z"/>
</g>
</svg>
