<?xml version="1.0" encoding="utf-8"?>
<!-- Generator: Adobe Illustrator 22.1.0, SVG Export Plug-In . SVG Version: 6.00 Build 0)  -->
<svg version="1.1" id="Layer_1" xmlns="http://www.w3.org/2000/svg" xmlns:xlink="http://www.w3.org/1999/xlink" x="0px" y="0px"
	 viewBox="0 0 821.5 766.5" style="enable-background:new 0 0 821.5 766.5;" xml:space="preserve">
<style type="text/css">
	.st0{fill:none;stroke:#000000;stroke-width:26;stroke-miterlimit:10;}
	.st1{fill:none;stroke:#000000;stroke-width:20;stroke-miterlimit:10;}
	.st2{stroke:#000000;stroke-width:3.111580e-02;stroke-miterlimit:10;}
	.st3{stroke:#000000;stroke-width:2.724144e-02;stroke-miterlimit:10;}
</style>
<g>
	<path class="st0" d="M411.8,753.5H44.2c-17.2,0-31.2-14-31.2-31.2V426.7c0-17.2,14-31.2,31.2-31.2h367.7c17.2,0,31.2,14,31.2,31.2
		v295.7C443,739.5,429,753.5,411.8,753.5z"/>
	<rect x="18" y="407.5" width="414" height="45"/>
	<path class="st1" d="M133.5,569.5h-49c-3,0-5.5-2.5-5.5-5.5v-49c0-3,2.5-5.5,5.5-5.5h49c3,0,5.5,2.5,5.5,5.5v49
		C139,567,136.5,569.5,133.5,569.5z"/>
	<path class="st1" d="M251,569.5h-49c-3,0-5.5-2.5-5.5-5.5v-49c0-3,2.5-5.5,5.5-5.5h49c3,0,5.5,2.5,5.5,5.5v49
		C256.5,567,254,569.5,251,569.5z"/>
	<path class="st1" d="M368.5,569.5h-49c-3,0-5.5-2.5-5.5-5.5v-49c0-3,2.5-5.5,5.5-5.5h49c3,0,5.5,2.5,5.5,5.5v49
		C374,567,371.5,569.5,368.5,569.5z"/>
	<path class="st1" d="M133.5,685.5h-49c-3,0-5.5-2.5-5.5-5.5v-49c0-3,2.5-5.5,5.5-5.5h49c3,0,5.5,2.5,5.5,5.5v49
		C139,683,136.5,685.5,133.5,685.5z"/>
	<path class="st1" d="M251,685.5h-49c-3,0-5.5-2.5-5.5-5.5v-49c0-3,2.5-5.5,5.5-5.5h49c3,0,5.5,2.5,5.5,5.5v49
		C256.5,683,254,685.5,251,685.5z"/>
	<path class="st1" d="M368.5,685.5h-49c-3,0-5.5-2.5-5.5-5.5v-49c0-3,2.5-5.5,5.5-5.5h49c3,0,5.5,2.5,5.5,5.5v49
		C374,683,371.5,685.5,368.5,685.5z"/>
	<path d="M102,332.5v56c0,8.8-7.2,16-16,16l0,0c-8.8,0-16-7.2-16-16v-56c0-8.8,7.2-16,16-16l0,0C94.8,316.5,102,323.7,102,332.5z"/>
	<path d="M383,332.5v56c0,8.8-7.2,16-16,16l0,0c-8.8,0-16-7.2-16-16v-56c0-8.8,7.2-16,16-16l0,0C375.8,316.5,383,323.7,383,332.5z"
		/>
	<path class="st0" d="M499,633c171-0.3,309.5-139,309.5-310c0-171.2-138.8-310-310-310c-171,0-309.7,138.5-310,309.5"/>
	<path class="st2" d="M507,318.8h-26V94.1c0-7.2,5.8-13,13-13l0,0c7.2,0,13,5.8,13,13V318.8z"/>
	<path class="st3" d="M481.7,319.1l18.4-18.4l119.6,119.6c5.1,5.1,5.1,13.3,0,18.4l0,0c-5.1,5.1-13.3,5.1-18.4,0L481.7,319.1z"/>
</g>
</svg>
