<?xml version="1.0" encoding="utf-8"?>
<!-- Generator: Adobe Illustrator 22.1.0, SVG Export Plug-In . SVG Version: 6.00 Build 0)  -->
<svg version="1.1" id="Layer_1" xmlns="http://www.w3.org/2000/svg" xmlns:xlink="http://www.w3.org/1999/xlink" x="0px" y="0px"
	 viewBox="0 0 800.7 774.3" style="enable-background:new 0 0 800.7 774.3;" xml:space="preserve">
<g>
	<path d="M511,214.9c-13.6,0-27.2-0.4-40.8,0.1c-13.5,0.6-26.7,3.5-39.6,7.7c-16.9,5.5-32.5,13.6-46.8,24.1
		c-19.7,14.4-35.5,32.3-47.3,53.6c-7.3,13.2-12.8,27.1-16.3,41.8c-3.6,14.7-4.9,29.6-4.9,44.7c0.1,20.8,0.1,41.5,0,62.3
		c0,3.3,1.2,4.7,4.4,5.8c9.5,3,19,6,28.2,9.8c11.9,5,23.5,10.6,35.2,16.2c9,4.3,17.7,9.2,26.7,13.5c9.1,4.3,18.3,8.4,27.6,12.3
		c6.6,2.7,13.3,5.1,20.1,7.1c14.4,4.2,28.9,4.1,43.5,0.5c13.3-3.3,26.4-1.7,38.8,4.3c13.5,6.6,24.5,16,33,28.5
		c0.6,0.9,2.7,1.8,3.8,1.5c9.8-2.8,19.5-6,29.2-8.9c10.6-3.2,21.2-6.3,31.8-9.5c12.3-3.7,24.5-7.5,36.7-11.3
		c11.2-3.4,22.4-6.8,33.6-10.2c8.2-2.5,16.2-5.6,24.5-7.5c4.9-1.1,10.3-0.8,15.3-0.3c11.5,1.1,22.4,4.5,31.8,11.4
		c12.8,9.2,18.9,22.1,19.7,37.7c0.1,1.9,0.8,3.8,1.1,5.7c0.2,1.4,0.5,2.9,0.2,4.2c-1.2,6.4-2,13-3.8,19.3
		c-4.5,15.9-13.6,28.5-28.1,37.1c-18.7,11.1-37.3,22.6-56,33.9c-19.5,11.8-39,23.6-58.5,35.4c-21.8,13.3-43.4,26.8-65.5,39.8
		c-16.6,9.8-33.5,19.2-50.6,27.9c-10.8,5.5-22.4,9.4-33.7,13.9c-4.3,1.7-8.6,3.3-13,4.4c-14.5,3.4-29.1,3.4-43.7,0.1
		c-16.1-3.6-31.2-10.2-46.1-16.9c-13.8-6.2-27.6-12.1-41.5-18.1c-12.5-5.5-25-11-37.6-16.3c-13-5.5-26.2-10.6-39.2-16
		c-4.3-1.8-8.3-4.2-12.6-6.2c-6.9-3.3-14.4-2.8-21.7-2.3c-14.1,1-27.1,6-39.6,12.2c-11.9,6-24,11.8-35.9,17.8
		c-13.4,6.8-26.7,13.8-40,20.6c-9.9,5.1-19.7,10.6-30,14.9c-8.2,3.5-17,3.1-25.5,0.2c-14.7-5.1-22.4-16.3-26.3-30.9
		c-2.8-10.2-6.2-20.3-9.4-30.4c-4.1-13.2-8.1-26.4-12.2-39.6c-3.9-12.7-8-25.3-11.9-37.9c-2.5-8.2-4.8-16.4-7.4-24.6
		c-2.9-9.4-6.1-18.8-8.8-28.2c-6-20.8,2.1-41.7,23.3-50.4c10.4-4.2,21.4-7.1,32.2-10.5c11-3.5,22-6.9,33-10.3
		c8-2.5,15.9-4.8,23.9-7.3s16.1-5.1,24.1-7.6c7.9-2.5,15.9-4.8,23.9-7.2c7.9-2.4,15.8-5,23.8-7.4c14.1-4.1,28.1-8.5,42.4-11.9
		c11.9-2.8,24.2-4.3,36.3-6.3c3.1-0.5,6.3-0.5,9.5-0.6c4.2-0.1,4.7-0.5,4.7-4.8c0-22.2-0.2-44.4,0.1-66.5
		c0.2-16.9,2.4-33.6,6.8-50.1c7.9-30,21.9-56.7,41.9-80.3c14.5-17.2,31.5-31.4,50.8-42.9c14.9-8.9,30.7-15.5,47.2-20.5
		c3.8-1.1,7.6-2.1,11.5-2.8c2.4-0.5,3.3-1.6,3.3-4c0-10.9,0-21.7-0.1-32.6c0-1.5-0.7-3.2-1.6-4.5c-14.7-22-29.4-43.9-44.1-65.9
		c-4.6-6.9-3.7-16.2,1.9-22.2C411.3,38,425.8,22.4,440.4,7c2.2-2.3,4.7-4.3,7.2-6.3c0.6-0.5,1.6-0.7,2.4-0.7c5.3,0,10-0.1,15.1,3.7
		c14.4,10.5,29.8,19.7,44.7,29.6c2,1.3,3.6,1,5.4-0.2c13.9-9.1,28-18.1,41.9-27.3c8-5.3,21.1-5.9,29.1,3.7
		c7.7,9.3,16.5,17.6,24.6,26.5c6.6,7.2,13,14.5,19.4,21.9c3.3,3.8,3.7,14.2,0.9,18.4c-14.9,22.1-29.8,44.2-44.6,66.4
		c-0.9,1.4-1.5,3.2-1.6,4.8c-0.1,10.8,0,21.5-0.1,32.3c0,3,1.2,4.1,4.2,5c9.4,2.7,18.7,5.5,27.8,9.1c17.1,6.8,32.9,16.1,47.3,27.5
		c20.8,16.4,38.1,35.9,51.4,58.9c6.6,11.4,12.1,23.4,16.4,35.8c4.7,13.8,7.9,28,9.6,42.6c2.2,18.5,0.9,37.1,1.2,55.6
		c0.1,7.3-6.9,14.6-14.1,15.5c-10.5,1.3-16.4-1.8-20.6-11.2c-0.7-1.6-1-3.6-1.1-5.4c-0.2-13.9,0-27.9-0.5-41.8
		c-0.3-6.9-1.4-13.8-2.9-20.5c-1.9-8.5-4.3-17-7-25.3c-4.1-13.1-10.6-25-18.2-36.3c-14.6-21.8-33.3-39.3-55.9-52.5
		c-12-7-24.7-12.2-38.1-16c-16.5-4.7-33.3-6.6-50.4-6.2c-7.7,0.2-15.4,0-23.1,0C511,214.6,511,214.8,511,214.9z M459,652.6
		c-3.7,0-7.6,0.6-11.2-0.1c-8.4-1.7-16.7-3.7-24.9-6.1c-10-2.9-19.9-6.2-29.7-9.6c-11.2-3.9-22.2-8.2-33.4-12
		c-12.2-4.1-18.4-12.2-16.1-24.4c1.5-8.1,11.7-15.2,19.6-13.3c4.7,1.1,9.2,2.8,13.8,4.4c8.8,3.1,17.4,6.5,26.2,9.6
		c10,3.5,20.1,6.9,30.3,9.8c7,2.1,14.2,4.3,21.4,4.8c16.6,1,32.3-4.3,47.8-9.2c6.2-2,12.3-4.7,18.2-7.4c9.6-4.5,18.2-10.6,25.5-18.4
		c1.1-1.2,1.8-3.4,1.6-5c-0.6-4.5-2.2-8.7-6-11.7c-2.7-2.2-5.1-4.8-7.8-7c-6.6-5.4-13.9-8.7-22.8-6.9c-7.7,1.5-15.5,3.1-23.3,3.7
		c-18.5,1.3-36.5-1.7-53.4-8.9c-18.2-7.7-36.6-15-54-24.9c-11.8-6.7-24.2-12.2-36.6-17.9c-12.4-5.8-24.9-11.4-38.7-13.2
		c-11.4-1.4-22.8-2.3-34.1-0.6c-14.4,2.1-28.8,4.7-43,7.9c-11.2,2.5-22.1,6.4-33.1,9.7c-8,2.4-15.9,4.9-23.8,7.3
		c-8.4,2.5-16.8,5-25.2,7.6c-8.1,2.5-16.1,5-24.2,7.5c-8.3,2.5-16.6,5-24.9,7.5c-8.2,2.5-16.3,5-24.5,7.6
		c-11.2,3.5-22.4,6.9-33.6,10.4c-3,0.9-3.9,2.7-3,5.8c3.2,10.4,6.3,20.8,9.4,31.1c4.7,15.4,9.5,30.8,14.2,46.2
		c3.8,12.5,7.6,25,11.4,37.5c3.4,11.2,6.9,22.4,10.3,33.6c1.4,4.6,2.8,9.2,4.3,13.8c1.3,3.9,3.8,5.2,6.9,3.6
		c7.1-3.7,14.1-7.5,21.2-11.2c11.4-6,22.9-12,34.4-17.9c10.8-5.6,21.5-11.3,32.5-16.5c11.6-5.5,23.1-11.3,35.1-15.4
		c14.6-5,30-7.9,45.6-5.9c7.3,0.9,14.7,2.5,21.7,4.9c8.8,3,17,7.4,25.6,11c12.6,5.3,25.3,10.5,37.9,15.8
		c10.8,4.6,21.4,9.4,32.2,14.1c12.4,5.5,24.8,11,37.3,16.4c13.7,5.9,27.3,12,41.9,15.2c7.4,1.6,14.9,1.5,22.2-0.3
		c15-3.6,29-10,42.7-16.8c15.8-7.8,31.3-16.3,46.5-25.1c18.6-10.9,36.6-22.1,54.6-33.2c19.3-11.8,38.5-23.6,57.8-35.3
		c22.8-13.9,45.7-27.8,68.6-41.7c4.2-2.5,7.7-5.6,10.2-10c3.7-6.7,4.4-13.9,4.1-21.3c-0.1-4.4-1.8-8.2-5.2-10.5
		c-6.6-4.4-13.7-6.5-21.8-3.6c-5.3,1.9-10.9,3.4-16.3,5c-8.1,2.4-16.1,4.9-24.2,7.3c-10.8,3.3-21.6,6.6-32.4,10
		c-7.8,2.4-15.7,4.8-23.5,7.2c-8.3,2.6-16.5,5.2-24.8,7.7c-10.3,3.1-20.6,6.2-30.8,9.4c-2.7,0.8-4.3,2.5-5,5.5
		c-0.7,2.9-1.8,6-3.5,8.5c-9.1,13.5-21.5,23.4-36,30.5c-11.9,5.8-24.2,10.8-36.5,15.5C490,650.1,474.7,653,459,652.6z M513.2,107.5
		c16.4,0,32.7,0,49.1,0c2.3,0,4.2-0.4,5.7-2.5c7.7-11.4,15.4-22.7,23.1-34c1.2-1.8,1.2-3.3-0.4-5c-5.9-6-11.7-12.2-17.6-18.2
		c-4.1-4.1-4.3-6.2-10.4-1.3c-0.8,0.7-1.9,1.1-2.8,1.7C547,56.5,534,64.6,521.2,73c-4,2.6-8,2.1-12,0.7c-2.9-1-5.6-2.5-8.2-4.1
		c-13.2-8.5-26.4-17-39.4-25.7c-2.5-1.6-3.9-1.5-5.9,0.5c-6.7,7-13.4,13.9-20.2,20.8c-1.4,1.5-1.4,2.5-0.3,4.2
		c7.7,11.5,15.3,23,22.8,34.6c1.6,2.5,3.5,3.5,6.5,3.4C480.7,107.5,497,107.5,513.2,107.5z M513.3,143.6c-10.5,0-21.1,0-31.6,0
		c-2.7,0-3.7,1-3.6,3.7c0.1,9.2,0.1,18.4,0,27.6c0,2.9,1,4.2,4,4.2c20.6-0.1,41.2,0,61.9-0.1c4.1,0,4.6-0.6,4.6-4.5
		c0-8.8,0-17.6,0-26.3c0-4.3-0.2-4.5-4.4-4.5C533.9,143.6,523.6,143.6,513.3,143.6z"/>
	<path d="M595.5,264.7c-4.5,6.7-8.8,12.9-12.9,19.1c-1.2,1.8-2.6,2.5-4.9,2.5c-10.4-0.1-20.9-0.1-31.3-0.1c-1.2,0-2.4,0-3.2,0
		c3.4,7.3,6.8,14.6,10.5,22.5c12.9,0,26.7,0,41,0c-0.3,1-0.4,1.6-0.7,2.1c-4,5.9-7.9,11.9-12,17.7c-0.7,1-2.5,1.8-3.7,1.8
		c-8.1,0.2-16.2,0.1-24.3,0.1c-3.3,18.1-12.5,32.3-27.7,42.1c-11.6,7.5-24.7,11.7-38.6,13.3c-2.6,0.3-5.2,0.5-8.8,0.8
		c28.8,35.2,58.3,69.1,87.9,104c-1.6,0-2.6,0-3.5,0c-11,0-22,0.1-32.9-0.1c-1.3,0-3-0.7-3.9-1.7c-27.5-32-54.9-64-82.2-96.1
		c-1-1.2-1.7-3.1-1.7-4.7c-0.2-5.9-0.1-11.8-0.1-18.2c2.3,0.2,4.3,0.3,6.3,0.4c14.8,1,29.4,0.7,43.6-4.3
		c13.3-4.7,23.1-13.3,27.9-26.9c0.9-2.6,1.3-5.5,2-8.6c-29.3,0-58.2,0-87.7,0c0.7-1.3,1-2.1,1.5-2.8c3.8-5.5,7.7-10.9,11.4-16.5
		c1.2-1.8,2.6-2.5,4.8-2.5c20.5,0.1,41.1,0.1,61.6,0.1c1.2,0,2.4,0,4,0c-1.9-4.4-4.8-7.6-8.2-10.4c-10.1-8.2-22-11.8-34.8-12.1
		c-12.1-0.3-24.2-0.1-36.2-0.1c-1.2,0-2.3,0-4,0c0.6-1.3,0.9-2.1,1.4-2.7c3.8-5.6,7.6-11.3,11.6-16.8c0.8-1.1,2.6-2.1,3.9-2.1
		c47.1-0.1,94.2-0.1,141.3-0.1C593.6,264.5,594.2,264.6,595.5,264.7z"/>
	<path d="M745.4,465c0,11.2-7.1,18.2-18.1,18.6c-9.9,0.3-18.2-9.4-17.9-18.5c0.3-10.4,7.1-16.6,18.5-17
		C737.7,447.9,746.5,455.1,745.4,465z"/>
</g>
</svg>
