<svg xmlns="http://www.w3.org/2000/svg" width="9.192" height="17.002" viewBox="0 0 9.192 17.002">
  <g id="facebook-logo_2_" data-name="facebook-logo (2)" transform="translate(0)">
    <path id="Path_14" data-name="Path 14" d="M30.923,0l-2.2,0a3.872,3.872,0,0,0-4.078,4.184V6.114H22.424a.347.347,0,0,0-.347.347v2.8a.347.347,0,0,0,.347.347h2.217v7.053a.347.347,0,0,0,.347.347H27.88a.347.347,0,0,0,.347-.347V9.6h2.592a.347.347,0,0,0,.347-.347V6.46a.347.347,0,0,0-.347-.347H28.226V4.478c0-.786.187-1.185,1.211-1.185h1.485a.347.347,0,0,0,.347-.347V.35A.347.347,0,0,0,30.923,0Z" transform="translate(-22.077)" fill="#fff"/>
  </g>
</svg>
