<svg xmlns="http://www.w3.org/2000/svg" width="26.422" height="26.422" viewBox="0 0 26.422 26.422">
  <g id="conversation" opacity="0.7">
    <g id="Group_106" data-name="Group 106" transform="translate(0 8.979)">
      <g id="Group_105" data-name="Group 105">
        <path id="Path_121" data-name="Path 121" d="M17.855,181.483a.516.516,0,0,0-.516.516v3.561a2.583,2.583,0,0,1-2.58,2.58H9.187a.516.516,0,0,0-.516.516v1.026L7.439,188.45a.516.516,0,0,0-.473-.31H3.612a2.583,2.583,0,0,1-2.58-2.58v-7.947a2.583,2.583,0,0,1,2.58-2.58H8.824a.516.516,0,0,0,0-1.032H3.612A3.616,3.616,0,0,0,0,177.612v7.947a3.616,3.616,0,0,0,3.612,3.612H6.7l2.119,2.119a.516.516,0,0,0,.881-.365v-1.755h5.056a3.616,3.616,0,0,0,3.612-3.612V182A.516.516,0,0,0,17.855,181.483Z" transform="translate(0 -174)" fill="#222c50"/>
      </g>
    </g>
    <g id="Group_108" data-name="Group 108" transform="translate(10.115)">
      <g id="Group_107" data-name="Group 107">
        <path id="Path_122" data-name="Path 122" d="M204.807,0H203.5a7.5,7.5,0,0,0,0,15h1.306a7.515,7.515,0,0,0,1.9-.244l1.929,1.928a.516.516,0,0,0,.881-.365V13.335a7.572,7.572,0,0,0,1.972-2.431,7.42,7.42,0,0,0,.815-3.4A7.509,7.509,0,0,0,204.807,0Zm3.887,12.671a.516.516,0,0,0-.206.412v1.992l-1.263-1.262a.516.516,0,0,0-.516-.128,6.47,6.47,0,0,1-1.9.284H203.5a6.468,6.468,0,0,1,0-12.937h1.306a6.469,6.469,0,0,1,3.887,11.639Z" transform="translate(-196)" fill="#222c50"/>
      </g>
    </g>
    <g id="Group_110" data-name="Group 110" transform="translate(16.228 3.616)">
      <g id="Group_109" data-name="Group 109">
        <path id="Path_123" data-name="Path 123" d="M318.826,72.094a2.19,2.19,0,0,0-2.026-2.026,2.168,2.168,0,0,0-1.644.582,2.193,2.193,0,0,0-.694,1.6.516.516,0,0,0,1.032,0,1.153,1.153,0,0,1,1.236-1.15,1.153,1.153,0,0,1,.171,2.275.977.977,0,0,0-.769.957v1.24a.516.516,0,1,0,1.032,0v-1.2A2.174,2.174,0,0,0,318.826,72.094Z" transform="translate(-314.462 -70.063)" fill="#222c50"/>
      </g>
    </g>
    <g id="Group_112" data-name="Group 112" transform="translate(17.897 10.648)">
      <g id="Group_111" data-name="Group 111">
        <path id="Path_124" data-name="Path 124" d="M347.681,206.481a.516.516,0,1,0,.151.365A.52.52,0,0,0,347.681,206.481Z" transform="translate(-346.8 -206.33)" fill="#222c50"/>
      </g>
    </g>
    <g id="Group_114" data-name="Group 114" transform="translate(2.787 15.998)">
      <g id="Group_113" data-name="Group 113">
        <path id="Path_125" data-name="Path 125" d="M65.4,310H54.516a.516.516,0,0,0,0,1.032H65.4a.516.516,0,0,0,0-1.032Z" transform="translate(-54 -310)" fill="#222c50"/>
      </g>
    </g>
    <g id="Group_116" data-name="Group 116" transform="translate(13.675 18.887)">
      <g id="Group_115" data-name="Group 115">
        <path id="Path_126" data-name="Path 126" d="M265.881,366.151a.516.516,0,1,0,.151.365A.52.52,0,0,0,265.881,366.151Z" transform="translate(-265 -366)" fill="#222c50"/>
      </g>
    </g>
    <g id="Group_118" data-name="Group 118" transform="translate(2.787 18.887)">
      <g id="Group_117" data-name="Group 117">
        <path id="Path_127" data-name="Path 127" d="M63.375,366H54.516a.516.516,0,1,0,0,1.032h8.859a.516.516,0,1,0,0-1.032Z" transform="translate(-54 -366)" fill="#222c50"/>
      </g>
    </g>
    <g id="Group_120" data-name="Group 120" transform="translate(2.787 13.108)">
      <g id="Group_119" data-name="Group 119">
        <path id="Path_128" data-name="Path 128" d="M62.05,254H54.516a.516.516,0,0,0,0,1.032H62.05a.516.516,0,0,0,0-1.032Z" transform="translate(-54 -254)" fill="#222c50"/>
      </g>
    </g>
  </g>
</svg>
