<?xml version="1.0" encoding="utf-8"?>
<!-- Generator: Adobe Illustrator 22.1.0, SVG Export Plug-In . SVG Version: 6.00 Build 0)  -->
<svg version="1.1" id="Layer_1" xmlns="http://www.w3.org/2000/svg" xmlns:xlink="http://www.w3.org/1999/xlink" x="0px" y="0px"
	 viewBox="0 0 760.7 802.6" style="enable-background:new 0 0 760.7 802.6;" xml:space="preserve">
<g>
	<path d="M675.6,455.8c22.9,0,45.1,0,67.3,0c13.6,0,17.8,4.3,17.8,18c0,32.8,0,65.6,0,98.4c0,12.5-4.7,18.3-17.1,16.7
		c-22.5-2.9-39.4,4.2-53,22.2c-7.3,9.7-17.1,17.5-25.7,26.1c-4.4,4.5-9.5,6.9-15.7,4.3c-6.5-2.7-8.7-8-8.6-14.7
		c0.2-12.2,0-24.4,0-37.6c-10.2,0-19.8-0.2-29.4,0.2c-2,0.1-4.3,2.3-5.9,4c-46.2,48.8-102.7,78.1-169.3,86.7
		c-20.2,2.6-40.9,2-62.3,2.9c0,1.7,0,4.7,0,7.7c0,31.4,0,62.8,0,94.2c0,13.2-4.3,17.7-17.2,17.7c-82,0-164,0-246,0
		c-12.5,0-17-4.6-17-17.1c0-38.3,0-76.7,0-116.3c-11.9,0-23.5,0.7-35-0.2c-9.8-0.7-20.3-1.4-29-5.3C10.4,655.1,0.3,639,0.2,618
		c-0.3-75.3-0.1-150.7-0.1-226c0-11.5,4.7-16.3,16.1-16.3c20.3-0.1,40.6-0.1,60.9,0c11.8,0,16.4,4.7,16.4,16.9
		c0,53.6,0,107.3,0,160.9c0,3,0,6,0,9.3c22.5,0,44.1,0,68.3,0c-2.2-4.2-2.9-8.3-5.3-9.7c-17.8-10.2-28.7-25.8-35.9-44.4
		c-5.1-13.2-10.7-26.2-15.3-39.5c-1.7-5-1.8-10.9-1.3-16.3c1.7-17.6,4.3-35.1,5.8-52.6c0.4-4.7-2.8-9.5-3.1-14.4
		c-1.6-21.1,4.9-39.3,20.2-54.3c2.2-2.2,4-5.3,4.9-8.4c18-59.7,52-108.2,101.9-145.5c5-3.7,6.9-7.3,6.8-13.6
		C239.5,83.9,292.4,18.8,371,2.9c90.2-18.2,181.1,50.3,188.1,141.8c0.3,3.6,1.5,7.4,0.8,10.8c-2.9,13.7,5,20.3,14.7,28
		c61.5,49.4,96.1,113.7,104.8,192.1C682.1,402.3,680.4,428.8,675.6,455.8z M163.8,311.8c1.3,0.3,1.9,0.5,2.4,0.5
		c1.4-0.2,2.7-0.5,4.1-0.7c25.6-4.3,51-3.8,75.8,4.3c33,10.8,51.7,39.4,47.5,73.1c-0.9,7.6-3,14.7-1.7,22.6
		c2.4,14.7,3.7,29.5,5,44.4c0.4,4.5-0.3,9.5-1.8,13.8c-4.6,12.8-10,25.2-14.8,37.9c-7.1,19-18,34.9-36,45.4
		c-2.5,1.5-3.3,5.7-5.8,10.2c25.3,0,47.5-0.1,69.7,0c37.6,0.1,65.3,27.8,65.4,65.3c0,8.5,0,17,0,25.4
		c66.8,9.4,173.1-25.9,195.5-64.7c-10.7,0-21.3,0-31.8,0c-12.4-0.1-16.9-4.6-16.9-17.2c0-33.1,0-66.2,0-99.2c0-12.5,4.5-17,17.1-17
		c33.9,0,67.8,0,101.7,0c2.9,0,5.9,0,8.6,0c23.8-108.3-28.8-208.3-93.1-253.1c-0.2,0.2-0.5,0.3-0.5,0.5c-0.4,1-0.8,2.1-1.1,3.1
		c-17.5,52.9-52.5,88.5-105.3,106.6c-3,1-6.1,4.6-7.3,7.7c-9.3,23.2-18.2,46.5-27.1,69.8c-2.6,6.7-6.2,12-14.2,11.8
		c-7.5-0.2-11-5.3-13.5-11.7c-8.8-23.1-18-46-26.6-69.1c-2.1-5.7-5.1-8.8-11-10.8c-43.4-15.1-74.8-43.7-94.2-85.3
		c-3.4-7.2-5.9-14.8-9.1-22.8C207.7,231.7,181,267.8,163.8,311.8z M399.5,352c6.2-15.9,12.5-30,17.2-44.7
		c3.6-11.3,10.2-16.8,21.6-20c55.7-15.5,95.9-69.8,94.9-126.9c-1.3-79.5-71.8-140.3-150.9-130.1C318,38.6,267.5,95.4,266.8,160.2
		c-0.6,58.4,39.2,111.7,95.5,127c10,2.7,15.6,7.8,18.9,17.4C386.6,320.1,393,335.1,399.5,352z M186.9,775.7
		c0-37.3,0.1-73.7-0.2-110.1c0-2.8-2.1-6.1-4.2-8.3c-14.5-14.9-30.5-28.6-43.8-44.5c-14.7-17.5-31-26.4-54.4-23.1
		c-13,1.8-17.5-4-17.5-17.1c0-35.8,0-71.7,0-107.5c0-2.9,0-5.9,0-8.6c-14,0-26.9,0-40,0c0,53.4,0,106.2,0,158.9
		c0,17.1,10.2,27.1,27.6,27.2c16.1,0,32.2,0,48.3,0c13.1,0,17.4,4.4,17.4,17.5c0,35.6,0,71.1,0,106.7c0,2.9,0,5.9,0,8.9
		C142.8,775.7,164.4,775.7,186.9,775.7z M347,722.4c0-32.9,0.3-64.9-0.1-96.8c-0.2-17.6-13.8-32.4-31.3-34.7
		c-7.9-1.1-16.1-1-24.1-0.5c-3.7,0.2-8.2,1.9-10.8,4.5c-21.1,20.6-41.9,41.4-62.5,62.5c-2.5,2.6-4.3,7.1-4.4,10.7
		c-0.4,23.9-0.2,47.8-0.2,71.7c0,11.9,0,23.7,0,35.8c22.6,0,44.4,0,67.1,0c0-40.1,0-79.7,0-119.1c9.2,0,17.4,0,26.5,0
		c0,22.2,0,44,0,65.9C320.7,722.4,333.4,722.4,347,722.4z M547.7,482.8c0,26.9,0,53.1,0,79.8c34.7,0,68.8,0,103,0
		c11.9,0,16.5,4.7,16.5,16.7c0,5.3,0,10.6,0,15.9c10-7.7,18.2-15.5,25.8-24c5.9-6.6,12.6-9.4,21.3-8.6c6.3,0.5,12.6,0.1,19.2,0.1
		c0-27,0-53.2,0-79.8C671.4,482.8,609.9,482.8,547.7,482.8z M266.2,469.2c-2.4-0.8-3.2-1.2-4-1.3c-35.4-4.1-65.3-17.1-84-49.5
		c-0.9-1.5-3.5-2.6-5.4-2.9c-12.3-1.5-24.7-2.6-37.1-3.9c-1.7,16-3.5,31.8-5.2,47.7c-0.1,0.5,0.3,1.1,0.5,1.6
		c6.3,16.3,12.2,32.7,19.2,48.7c5.7,13,16.2,21.4,30.1,23.9c9.7,1.8,19.9,2.4,29.8,1.7c17-1.1,31.6-7.9,39.3-24
		C255.7,497.9,260.5,483.7,266.2,469.2z M204.7,390.6c19.6-2.1,37.8-4.2,56-6c5.9-0.6,7.2-3.7,6.5-9c-1.8-14.4-8.9-25.5-22.1-31.1
		c-29.8-12.4-60.1-12.4-89.8,0c-12.9,5.4-19.9,16.3-22,30.2c-0.9,6.1,0.6,9.5,7.3,10C162.3,386.5,184.1,388.6,204.7,390.6z
		 M187.3,562.7c-1.9,8.5,3.4,19.9-6.4,24.4c-7.5,3.5-16.9,3-23.5,3.9c14.2,14.3,29.1,29.3,42.6,42.8c14.2-14.2,29-28.9,42.8-42.8
		c-6.9-1.1-17.7,0.1-23.4-4.6c-5.5-4.6-5.8-15.4-8.4-23.8C204.1,562.7,195.9,562.7,187.3,562.7z M209.5,416.7
		c16.4,15.4,34.8,23.8,57.9,24.6c-0.7-10.7-1.4-20.5-2-29.7C246.2,413.4,228.4,415,209.5,416.7z M66.6,403c-13.6,0-26.4,0-39.3,0
		c0,8.9,0,17.3,0,25.5c13.4,0,26.3,0,39.3,0C66.6,419.8,66.6,411.8,66.6,403z M346.4,775.7c0-9,0-17.5,0-25.7c-13.4,0-26.3,0-39,0
		c0,8.9,0,17.1,0,25.7C320.5,775.7,333.1,775.7,346.4,775.7z"/>
	<path d="M372.5,122c-8.8,0-16.8,0-25.5,0c-0.9-13.1,3.7-24,11.6-33.6C372.8,71,396.1,64.6,417.3,72c21.4,7.4,35.4,26.9,36,50.1
		c0.6,21.9-12.5,42-33.4,49.9c-5.6,2.1-7,4.9-6.7,10.3c0.4,6.3,0.1,12.7,0.1,19.5c-9.1,0-17.5,0-26.5,0c0-13.9-0.4-27.5,0.1-41
		c0.3-7.6,5.5-11.3,14.4-11.8c15.1-1,24.8-10.7,25.3-25.5c0.6-14.8-9.1-26.6-22.9-27.8c-16.6-1.5-27.7,6.8-30.4,22.6
		C373.1,119.3,372.8,120.3,372.5,122z"/>
	<path d="M412.8,229.5c0,8.6,0,16.8,0,25.6c-8.5,0-16.7,0-25.6,0c0-8.3,0-16.6,0-25.6C395.3,229.5,403.6,229.5,412.8,229.5z"/>
	<path d="M600.1,509.7c0,8.7,0,16.9,0,25.7c-8.5,0-16.9,0-25.8,0c0-8.4,0-16.8,0-25.7C582.8,509.7,591,509.7,600.1,509.7z"/>
	<path d="M627.8,509.6c8.7,0,16.9,0,25.6,0c0,8.7,0,17.1,0,25.9c-8.6,0-16.8,0-25.6,0C627.8,527.1,627.8,518.7,627.8,509.6z"/>
	<path d="M681.1,509.4c8.8,0,16.8,0,25.5,0c0,8.5,0,16.9,0,25.9c-8.1,0-16.5,0-25.5,0C681.1,527,681.1,518.5,681.1,509.4z"/>
</g>
</svg>
