<?xml version="1.0" encoding="utf-8"?>
<!-- Generator: Adobe Illustrator 22.1.0, SVG Export Plug-In . SVG Version: 6.00 Build 0)  -->
<svg version="1.1" id="Capa_1" xmlns="http://www.w3.org/2000/svg" xmlns:xlink="http://www.w3.org/1999/xlink" x="0px" y="0px"
	 viewBox="0 0 512 512" style="enable-background:new 0 0 512 512;" xml:space="preserve">
<style type="text/css">
	.st0{fill:#FFFFFF;}
</style>
<g>
	<g>
		<path class="st0" d="M303.6,91l12.3-14.9c5.5-6.7,8-15.6,6.8-24.2c-3.7-27.3-38.1-36.6-55.7-15.3l-45,54.3h-18.5
			c-8,0-15.3,3.2-20.6,8.5c-4.3-4.1-10-6.6-16.4-6.6h-29.8c-11.8,0-21.3,9.6-21.3,21.3v106.7c0,11.8,9.6,21.3,21.3,21.3h29.8
			c5.6,0,10.8-2,14.9-5.3c5.3,6.2,13.3,10.1,22.1,10.1h88.7c29.3,0,53.1-23.8,53.1-53.1v-57.6C345.4,112.4,327,92.8,303.6,91z
			 M174.4,218.3c0,4.3-3.5,7.7-7.7,7.7h-29.8c-2.9,0-5.3-2.4-5.3-5.3V114c0-2.9,2.4-5.3,5.3-5.3h29.8c4.3,0,7.7,3.5,7.7,7.7
			C174.4,149.2,174.4,186.5,174.4,218.3z M329.4,193.8c0,20.4-16.6,37-37,37h-88.7c-7.3,0-13.2-5.9-13.2-13.2V120
			c0-7.3,5.9-13.2,13.2-13.2h19.3c4.3,0,8.3-1.9,11-5.2l45.5-54.9c8.7-10.6,25.5-6.2,27.4,7.3c0.6,4.3-0.6,8.6-3.3,11.9l-14.6,17.7
			c-3,3-4.5,9.6-1.8,15.2c2.4,5,7.3,8.1,12.9,8.1c16.2,0,29.4,13.2,29.4,29.4L329.4,193.8L329.4,193.8z"/>
	</g>
</g>
<g>
	<g>
		<path class="st0" d="M324,1H137C61.4,1,0,62.5,0,138c0,48.8,26,93.7,68.2,118.4v38.3c0,4.2,3.4,7.5,7.5,7.5c4.2,0,7.5-3.4,7.5-7.5
			V252c0-2.8-1.5-5.3-3.9-6.6C39.7,223.9,15,182.8,15,138C15,70.8,69.7,16.1,137,16.1h187c93.9,0,152.4,102.3,105.5,182.9
			c-2.1,3.6-0.9,8.2,2.7,10.3c3.6,2.1,8.2,0.9,10.3-2.7C495.2,116.1,429.7,1,324,1z"/>
	</g>
</g>
<g>
	<g>
		<path class="st0" d="M504.2,327.9c-1.5-3.9-5.9-5.7-9.8-4.2c-3.7,1.5-5.6,5.6-4.3,9.4c0,0,0,0,0,0c22,64.1-12.1,134-76.3,156.1
			c-64,22-134-11.9-156.1-76.3c-31.1-90.5,48.9-179.5,141-160.2c32.4,6.8,61.5,26.5,79.3,54.9c2.2,3.5,6.8,4.6,10.4,2.4
			s4.6-6.8,2.4-10.4c-17.4-27.7-44.5-48.7-76.7-58.5c3.3-2.9,6.4-5.9,9.5-9.1c2.9-3,2.7-7.8-0.3-10.6c-3-2.9-7.8-2.7-10.6,0.3
			c-5.3,5.6-11.1,10.6-17.2,15.1c-36.1-5.7-72,3.4-100.4,23.2H163.3c-3,0-5.7,1.7-6.9,4.5l-40.8,92c-7.4,16.8-32.3,11.3-32.3-6.8
			v-24.8c0-4.2-3.4-7.5-7.5-7.5c-4.2,0-7.5,3.4-7.5,7.5v24.8c0,34,47,44.7,61.1,12.9l38.8-87.5h108.7
			c-37.3,36.9-50.8,92.1-33.4,142.8C262.5,473.5,315,511,373.8,511C470,511,535.3,415,504.2,327.9z"/>
	</g>
</g>
<g>
	<g>
		<circle class="st0" cx="345.3" cy="318.4" r="12.5"/>
	</g>
</g>
<g>
	<g>
		<circle class="st0" cx="402.4" cy="318.4" r="12.5"/>
	</g>
</g>
<g>
	<g>
		<path class="st0" d="M441.1,338.3c-4.2,0-7.5,3.4-7.5,7.5c0,32.9-26.8,59.7-59.7,59.7s-59.7-26.8-59.7-59.7c0-4.2-3.4-7.5-7.5-7.5
			s-7.5,3.4-7.5,7.5c0,41.2,33.5,74.8,74.8,74.8s74.8-33.5,74.8-74.8C448.6,341.6,445.3,338.3,441.1,338.3z"/>
	</g>
</g>
</svg>
