<?xml version="1.0" encoding="utf-8"?>
<!-- Generator: Adobe Illustrator 22.1.0, SVG Export Plug-In . SVG Version: 6.00 Build 0)  -->
<svg version="1.1" id="Capa_1" xmlns="http://www.w3.org/2000/svg" xmlns:xlink="http://www.w3.org/1999/xlink" x="0px" y="0px"
	 viewBox="0 0 368 368" style="enable-background:new 0 0 368 368;" xml:space="preserve">
<style type="text/css">
	.st0{fill:#898989;}
	.st1{display:none;}
	.st2{display:inline;}
</style>
<g>
	<g>
		<g>
			<path class="st0" d="M261.3,226c-3.3-3-8.4-2.7-11.3,0.6c-16.7,18.6-40.8,29.3-66,29.3c-25.3,0-49.4-10.7-66-29.3
				c-3-3.3-8-3.6-11.3-0.6c-3.3,2.9-3.6,8-0.6,11.3c19.7,22,48.1,34.7,78,34.7c29.8,0,58.2-12.6,78-34.7
				C264.9,234,264.6,229,261.3,226z"/>
			<path class="st0" d="M184,0C82.5,0,0,82.5,0,184s82.5,184,184,184s184-82.5,184-184S285.5,0,184,0z M184,352
				c-92.6,0-168-75.4-168-168S91.4,16,184,16s168,75.4,168,168S276.6,352,184,352z"/>
			<path class="st0" d="M248,128c-22.1,0-40,17.9-40,40c0,4.4,3.6,8,8,8s8-3.6,8-8c0-13.2,10.8-24,24-24c13.2,0,24,10.8,24,24
				c0,4.4,3.6,8,8,8s8-3.6,8-8C288,145.9,270.1,128,248,128z"/>
			<path class="st0" d="M144,168c0,4.4,3.6,8,8,8s8-3.6,8-8c0-22.1-17.9-40-40-40s-40,17.9-40,40c0,4.4,3.6,8,8,8s8-3.6,8-8
				c0-13.2,10.8-24,24-24S144,154.8,144,168z"/>
		</g>
	</g>
</g>
<g class="st1">
	<path class="st2" d="M-542.6,238c3.3,3,8.4,2.7,11.3-0.6c16.7-18.6,40.8-29.3,66-29.3c25.3,0,49.4,10.7,66,29.3
		c3,3.3,8,3.6,11.3,0.6c3.3-2.9,3.6-8,0.6-11.3c-19.7-22-48.1-34.7-78-34.7c-29.8,0-58.2,12.6-78,34.7
		C-546.1,230-545.9,235-542.6,238z"/>
	<path class="st2" d="M-465.2-32c-101.5,0-184,82.5-184,184s82.5,184,184,184s184-82.5,184-184S-363.8-32-465.2-32z M-465.2,320
		c-92.6,0-168-75.4-168-168s75.4-168,168-168s168,75.4,168,168S-372.6,320-465.2,320z"/>
	<path class="st2" d="M-401.2,96c-22.1,0-40,17.9-40,40c0,4.4,3.6,8,8,8s8-3.6,8-8c0-13.2,10.8-24,24-24s24,10.8,24,24
		c0,4.4,3.6,8,8,8s8-3.6,8-8C-361.2,113.9-379.2,96-401.2,96z"/>
	<path class="st2" d="M-505.2,136c0,4.4,3.6,8,8,8s8-3.6,8-8c0-22.1-17.9-40-40-40c-22.1,0-40,17.9-40,40c0,4.4,3.6,8,8,8s8-3.6,8-8
		c0-13.2,10.8-24,24-24S-505.2,122.8-505.2,136z"/>
</g>
<g class="st1">
	<path class="st2" d="M-1114.5,207c-101.5,0-184,82.5-184,184s82.5,184,184,184s184-82.5,184-184S-1013,207-1114.5,207z
		 M-1114.5,559c-92.6,0-168-75.4-168-168s75.4-168,168-168s168,75.4,168,168S-1021.8,559-1114.5,559z"/>
	<path class="st2" d="M-1050.5,335c-22.1,0-40,17.9-40,40c0,4.4,3.6,8,8,8s8-3.6,8-8c0-13.2,10.8-24,24-24s24,10.8,24,24
		c0,4.4,3.6,8,8,8s8-3.6,8-8C-1010.5,352.9-1028.4,335-1050.5,335z"/>
	<path class="st2" d="M-1154.5,375c0,4.4,3.6,8,8,8s8-3.6,8-8c0-22.1-17.9-40-40-40s-40,17.9-40,40c0,4.4,3.6,8,8,8s8-3.6,8-8
		c0-13.2,10.8-24,24-24S-1154.5,361.8-1154.5,375z"/>
	<path class="st2" d="M-1053.8,448.5h-121.3c-4.4,0-8,3.6-8,8s3.6,8,8,8h121.3c4.4,0,8-3.6,8-8S-1049.4,448.5-1053.8,448.5z"/>
</g>
</svg>
