<?xml version="1.0" encoding="utf-8"?>
<!-- Generator: Adobe Illustrator 22.1.0, SVG Export Plug-In . SVG Version: 6.00 Build 0)  -->
<svg version="1.1" id="Layer_1" xmlns="http://www.w3.org/2000/svg" xmlns:xlink="http://www.w3.org/1999/xlink" x="0px" y="0px"
	 viewBox="0 0 717.3 596.2" style="enable-background:new 0 0 717.3 596.2;" xml:space="preserve">
<style type="text/css">
	.st0{fill:none;stroke:#000000;stroke-width:20;stroke-miterlimit:10;}
	.st1{fill:none;stroke:#000000;stroke-width:26;stroke-miterlimit:10;}
	.st2{fill:none;stroke:#000000;stroke-width:28.3423;stroke-miterlimit:10;}
</style>
<g id="Incorrect_cibil_update">
	<path d="M552.3,456.2c0,11.7,0,23.4,0,35.1c0,6.1-1,7-7,7.1c-6.3,0-12.6-0.1-18.9,0c-4.2,0.1-5.9-1.9-5.9-6c0.1-24.3,0-48.5,0-72.8
		c0-4.2,1.9-6.1,6-6.1c6.8,0,13.6,0,20.4,0c4,0,5.6,2.5,5.7,6.1c0.1,12.2,0,24.4,0,36.6C552.5,456.2,552.4,456.2,552.3,456.2z
		 M542.8,489.2c0-22.4,0-44.3,0-66.2c-4.5,0-8.6,0-12.9,0c0,22.1,0,43.8,0,66.2c2.5,0,4.7,0,6.9,0
		C538.8,489.2,540.7,489.2,542.8,489.2z"/>
	<path d="M552.1,528.5c0.1,16.5,2,15.6-15.3,15.4c-3.3,0-6.6,0-9.9,0c-4.2,0.1-6.5-1.7-6.4-6.2c0.2-6.6,0.1-13.2,0-19.9
		c0-3.9,1.6-5.9,5.6-5.8c7,0,13.9,0,20.9,0c4,0,5.6,2.5,5.6,6.1C552.6,521.6,552.3,525.1,552.1,528.5z M529.9,534.2
		c13.1,2.5,16.2-0.8,12.4-12.5c-4.1,0-8.2,0-12.4,0C529.9,526,529.9,529.9,529.9,534.2z"/>
	<path class="st0" d="M162.3,160h-59.5c-11.2,0-20.3-9.1-20.3-20.3V80.3c0-11.2,9.1-20.3,20.3-20.3h59.5c11.2,0,20.3,9.1,20.3,20.3
		v59.5C182.6,150.9,173.5,160,162.3,160z"/>
	<path class="st0" d="M177.1,283.5h-102c-4.4,0-8-3.6-8-8v-41.7c0-4.4,3.6-8,8-8h102c4.4,0,8,3.6,8,8v41.7
		C185.1,280,181.6,283.5,177.1,283.5z"/>
	<path d="M461.6,351.5H77.1c-5.5,0-10-4.5-10-10v0c0-5.5,4.5-10,10-10h384.5c5.5,0,10,4.5,10,10v0
		C471.6,347.1,467.2,351.5,461.6,351.5z"/>
	<path d="M348.6,400.5H77.1c-5.5,0-10-4.5-10-10v0c0-5.5,4.5-10,10-10h271.5c5.5,0,10,4.5,10,10v0
		C358.6,396.1,354.2,400.5,348.6,400.5z"/>
	<path class="st0" d="M333,284.2H231c-4.4,0-8-3.6-8-8v-41.7c0-4.4,3.6-8,8-8h102c4.4,0,8,3.6,8,8v41.7
		C341,280.6,337.4,284.2,333,284.2z"/>
	<path class="st0" d="M488.8,284.2h-102c-4.4,0-8-3.6-8-8v-41.7c0-4.4,3.6-8,8-8h102c4.4,0,8,3.6,8,8v41.7
		C496.8,280.6,493.2,284.2,488.8,284.2z"/>
	<path class="st0" d="M644.6,282.9h-102c-4.4,0-8-3.6-8-8v-41.7c0-4.4,3.6-8,8-8h102c4.4,0,8,3.6,8,8v41.7
		C652.6,279.3,649.1,282.9,644.6,282.9z"/>
	<ellipse class="st1" cx="578.1" cy="114.9" rx="74.5" ry="50.3"/>
	<path class="st2" d="M626.4,498.2h15.8c33.6,0,60.8-27.2,60.8-60.8V75c0-33.6-27.2-60.8-60.8-60.8H75c-33.6,0-60.8,27.2-60.8,60.8
		v362.3c0,33.6,27.2,60.8,60.8,60.8h367.8"/>
	<path class="st1" d="M534.6,583.2H425.5c-16.9,0-27.5-18.3-19.1-33l54.6-94.5l54.6-94.5c8.5-14.7,29.6-14.7,38.1,0l54.6,94.5
		l54.6,94.5c8.5,14.7-2.1,33-19.1,33H534.6z"/>
</g>
</svg>
