<svg height="512" viewBox="0 0 60 60" width="512" xmlns="http://www.w3.org/2000/svg"><g id="047---Advisor-Question"><path id="Shape" d="m3.179 49.654c-.3.094-2.93 1.068-3.172 6.433v2.107c-.01726759.4681729.1547687.9235671.47727357 1.2633827.32250488.3398155.76829076.5354053 1.23672643.5426173h34.558c.4656577-.0070364.9090848-.2003422 1.2311738-.5367129s.4959867-.7877623.4828262-1.2532871v-2.168c-.242-5.32-2.873-6.294-3.146-6.38l-9.847-3.377v-3.585c1.1249812-.9740408 1.9323556-2.2627747 2.318-3.7h2.112c1.4186865-.0016532 2.5683468-1.1513135 2.57-2.57v-4.86c-.0025789-.7915708-.3719065-1.5372433-1-2.019v-4.631c0-6.226-5.159-10.92-12-10.92s-12 4.694-12 10.92v4.631c-.62809352.4817567-.99742114 1.2274292-1 2.019v4.86c.00257886.7915708.37190648 1.5372433 1 2.019v.551c0 2.209139 1.790861 4 4 4h2v3.286zm32.814 6.433v1.913h-33.987v-1.868c.177-3.885 1.8-4.577 1.8-4.577l9.531-3.269c.8938852 2.3259326 3.173513 3.8209949 5.663 3.714 2.4909286.1087513 4.7726441-1.3866239 5.667-3.714l9.522 3.265c.017.007 1.628.696 1.804 4.536zm-27.423-19.087c-.15158247.0013475-.29734843-.0582731-.40453765-.1654623-.10718923-.1071893-.16680983-.2529552-.16546235-.4045377v-4.86c-.00134748-.1515825.05827312-.2973484.16546235-.4045377.10718922-.1071892.25295518-.1668098.40453765-.1654623h1.464c.008.481.238 1.869.315 2.306.2312616 1.2171287.2864922 2.4611659.164 3.694zm.43-9.89c.181-.785 1.894-7.11 10-7.11 8.122 0 9.825 6.349 10 7.111v1.889h-1.138c-.011-.058-.011-.116-.023-.174-.733-3.513-2.248-4.6-2.419-4.711-2.21-1.473-10.628-1.475-12.84 0-.171.113-1.686 1.2-2.419 4.71-.012.058-.012.117-.023.175h-1.138zm6 18.407c.6391261.9485091 1.7165108 1.5071669 2.86 1.483 2.452 0 3.743.33 5.14-1.483v1.392c-.3642756 1.8908776-2.0783792 3.2154511-4 3.091-1.9214435.1249811-3.63569-1.1992743-4-3.09zm9.021-4.692c-2.263 2.214-2.341 4.175-3.881 4.175-3.371 0-2.9.345-4.422-2h3.282c.5522847 0 1-.4477153 1-1s-.4477153-1-1-1h-4.857c-1.956-2.007-1.615-2.838-1.583-5.81.014-1.325-.388-2.686-.535-4.343-.0883647-1.8252162.4926773-3.6199033 1.634-5.047 2.218-1.074 8.45-1.073 10.672 0 1.1503095 1.4242584 1.7352632 3.2225549 1.643 5.051-.158 1.752-.549 2.91-.534 4.34.027 2.55.374 3.891-1.419 5.634zm5.979-4.395c.0013475.1515825-.0582731.2973484-.1654623.4045377-.1071893.1071892-.2529552.1668098-.4045377.1654623h-1.943c-.1222846-1.2328397-.0670553-2.4768472.164-3.694.1438677-.7628551.2490024-1.5325078.315-2.306h1.464c.1515825-.0013475.2973484.0582731.4045377.1654623.1071892.1071893.1668098.2529552.1654623.4045377zm-1.461-14.342c-1.758-2.088-4.691-4.088-9.539-4.088s-7.781 2-9.539 4.088c2.758-8.138 16.321-8.137 19.078 0zm-19.539 16.912h1.682c.1598731.7148309.4526171 1.3932641.863 2h-.545c-1.1045695 0-2-.8954305-2-2z"/><path id="Shape" d="m56.931 0h-20.862c-1.6940483.00220364-3.0667964 1.37495172-3.069 3.069v20.862c.0017 1.6675121 1.3329576 3.0293886 3 3.069v4.482c-.0005752.579357.328885 1.1084517.8490608 1.363544.5201757.2550923 1.1402225.1916325 1.5979392-.163544l7.421-5.682h11.063c1.6940483-.0022036 3.0667964-1.3749517 3.069-3.069v-20.862c-.0022036-1.69404828-1.3749517-3.06679636-3.069-3.069zm1.069 23.931c-.0005513.5901639-.4788361 1.0684487-1.069 1.069h-14.931c-.5522847 0-1 .4477153-1 1s.4477153 1 1 1h.578l-4.578 3.5v-3.5c.5522847 0 1-.4477153 1-1s-.4477153-1-1-1h-1.931c-.5901639-.0005513-1.0684487-.4788361-1.069-1.069v-20.862c.0005513-.59016389.4788361-1.0684487 1.069-1.069h20.862c.5901639.0005513 1.0684487.47883611 1.069 1.069z"/><path id="Shape" d="m53 17h-13c-.5522847 0-1 .4477153-1 1s.4477153 1 1 1h13c.5522847 0 1-.4477153 1-1s-.4477153-1-1-1z"/><path id="Shape" d="m49 21h-9c-.5522847 0-1 .4477153-1 1s.4477153 1 1 1h9c.5522847 0 1-.4477153 1-1s-.4477153-1-1-1z"/><circle id="Oval" cx="46" cy="14" r="1"/><path id="Shape" d="m43.767 6.865c.4780185.27629721 1.0895071.11290532 1.366-.365.2425857-.4201702.7517749-.60559334 1.2077402-.43980311.4559654.16579023.7271439.63495715.6432053 1.11281187-.0839386.47785471-.4987748.82651826-.9839455.82699124-.5522847 0-1 .44771525-1 1v1c0 .5522847.4477153 1 1 1s1-.4477153 1-1v-.171c1.2518652-.44401343 2.0627237-1.65837838 1.9930333-2.98482387-.0696905-1.3264455-1.003337-2.4491555-2.2948378-2.75954246-1.2915009-.31038695-2.6333599.26544979-3.2981955 1.41536633-.2752812.47831895-.1110316 1.08922008.367 1.365z"/></g></svg>