<?xml version="1.0" encoding="utf-8"?>
<!-- Generator: Adobe Illustrator 22.1.0, SVG Export Plug-In . SVG Version: 6.00 Build 0)  -->
<svg version="1.1" id="Layer_1" xmlns="http://www.w3.org/2000/svg" xmlns:xlink="http://www.w3.org/1999/xlink" x="0px" y="0px"
	 viewBox="0 0 784 784" style="enable-background:new 0 0 784 784;" xml:space="preserve">
<g>
	<g>
		<g>
			<path d="M261.3,0c-108.2,0-196,87.8-196,196v143.7c0.1,50.5,41,91.4,91.5,91.5h13.1v-26.1h-13.1c-36.1,0-65.3-29.3-65.3-65.3V196
				c0-93.8,76.1-169.9,169.9-169.9S431.2,102.2,431.2,196v143.7c0,36.1-29.3,65.3-65.3,65.3h-13.1v26.1h13.1
				c50.5-0.1,91.4-41,91.5-91.5V196C457.3,87.8,369.6,0,261.3,0z"/>
		</g>
	</g>
	<g>
		<g>
			<path d="M107.7,615.8l9.6-15l-22.1-14l-9.6,15.1C56.7,647.4,58.9,706,91,749.3V784h26.1v-39.2c0-3-1-5.8-2.9-8.2
				C86.5,701.9,83.9,653.4,107.7,615.8z"/>
		</g>
	</g>
	<g>
		<g>
			<path d="M718.7,0H548.8c-36.1,0-65.3,29.3-65.3,65.3V196c0,36.1,29.3,65.3,65.3,65.3h26.1v52.3c0,5.3,3.2,10,8.1,12.1
				c1.6,0.7,3.3,1,5,1c3.5,0,6.8-1.4,9.2-3.8l61.5-61.5h59.9c36.1,0,65.3-29.3,65.3-65.3V65.3C784,29.3,754.7,0,718.7,0z M757.9,196
				c0,21.6-17.6,39.2-39.2,39.2h-65.3c-3.5,0-6.8,1.4-9.2,3.8l-43,43v-33.8c0-7.2-5.9-13.1-13.1-13.1h-39.2
				c-21.6,0-39.2-17.6-39.2-39.2V65.3c0-21.6,17.6-39.2,39.2-39.2h169.9c21.6,0,39.2,17.6,39.2,39.2V196H757.9z"/>
		</g>
	</g>
	<g>
		<g>
			<rect x="548.8" y="65.3" width="91.5" height="26.1"/>
		</g>
	</g>
	<g>
		<g>
			<rect x="666.4" y="65.3" width="52.3" height="26.1"/>
		</g>
	</g>
	<g>
		<g>
			<rect x="548.8" y="117.6" width="169.9" height="26.1"/>
		</g>
	</g>
	<g>
		<g>
			<rect x="548.8" y="169.9" width="91.5" height="26.1"/>
		</g>
	</g>
	<g>
		<g>
			<path d="M437.1,601.8l-9.6-15.1l-22.1,14l9.6,15.1c23.8,37.5,21.2,86.1-6.6,120.8c-1.9,2.3-2.9,5.2-2.9,8.2V784h26.1v-34.7
				C463.8,706,465.9,647.3,437.1,601.8z"/>
		</g>
	</g>
	<g>
		<g>
			<path d="M770.9,444.3H653.3c-49,0.1-89.3,38.8-91.3,87.7l-39.4,70.9v-54.1c-0.1-50.5-41-91.4-91.5-91.5h-47.8l-0.4-0.3l-0.2,0.3
				h-30.1c-14.4,0-26.1-11.7-26.1-26.1v-30.7c40.4-23.3,65.3-66.4,65.3-113V182.9c0-21.6-5.4-43-15.7-62c-3.3-6.1-10.7-8.5-17-5.6
				L138.2,219.4c-4.6,2.2-7.5,6.8-7.5,11.8v56.3c0.1,46.6,25,89.7,65.3,113v30.7c0,14.4-11.7,26.1-26.1,26.1H91.5
				C41,457.4,0.1,498.3,0,548.8V784h26.1V548.8c0-36.1,29.3-65.3,65.3-65.3H133l117.7,164.4c2.4,3.4,6.3,5.4,10.5,5.5h0.2
				c4.1,0,8-1.9,10.5-5.2L396,483.6h35.3c36.1,0,65.3,29.3,65.3,65.3v104.5c0,7.2,5.9,13.1,13.1,13.1c4.7,0,9.1-2.6,11.4-6.7
				l61.6-110.9h74.9L530.1,784h29.7l127.5-235.2h5.2c50.5-0.1,91.4-41,91.5-91.5C784,450.1,778.1,444.3,770.9,444.3z M156.8,287.5
				v-48l201.8-94.9c4.8,12.2,7.3,25.2,7.3,38.4v104.5c0,57.7-46.8,104.5-104.5,104.5S156.8,345.2,156.8,287.5z M261.6,618.2
				l-40.3-56.3h82.8L261.6,618.2z M323.8,535.7H202.5l-37.4-52.3h4.7c28.9,0,52.3-23.4,52.3-52.3V412c25.5,8,52.9,8,78.4,0v19.1
				c0,28.9,23.4,52.3,52.3,52.3h10.5L323.8,535.7z M692.5,522.7H589.3c6.2-30.4,33-52.2,64-52.3h103.2
				C750.3,500.8,723.6,522.6,692.5,522.7z"/>
		</g>
	</g>
</g>
</svg>
