<?xml version="1.0" encoding="utf-8"?>
<!-- Generator: Adobe Illustrator 22.1.0, SVG Export Plug-In . SVG Version: 6.00 Build 0)  -->
<svg version="1.1" id="Layer_1" xmlns="http://www.w3.org/2000/svg" xmlns:xlink="http://www.w3.org/1999/xlink" x="0px" y="0px"
	 viewBox="0 0 734.3 734.1" style="enable-background:new 0 0 734.3 734.1;" xml:space="preserve">
<g>
	<path d="M439.4,147.2c4.3,0,7.4,0,10.6,0c81.5,0,163,0,244.5,0c14.3,0,27.1,4.4,33.9,17.7c3.6,7,5.6,15.5,5.6,23.4
		c0.4,78.3,0.4,156.6,0.1,234.9c-0.1,20.6-9.8,33.9-25.5,38.7c-4.9,1.5-10.5,1.2-15.8,1.3c-55.9,0.1-111.7,0-167.6,0.3
		c-4.8,0-9.9,1.6-14.3,3.8c-21.7,10.8-43.1,22.2-64.8,33c-5.2,2.6-7.1,5.7-7.1,11.7c0.2,58.3,0.2,116.5,0.1,174.8
		c0,23.8-18.6,44-42.5,45.7c-11.4,0.8-22.8,1.5-34.2,1.5c-102.1,0.1-204.2,0.1-306.2,0c-13.3,0-26.1-2.7-37.1-11
		c-10.4-7.8-16.3-18.3-17.4-30.7c-1.4-15.6-1.6-31.4-1.6-47C0,449.2-0.1,253,0.3,56.9c0-10.2,2.5-21.1,6.5-30.5
		C13.4,10.9,27,3.1,43.6,1.6c11.6-1.1,23.4-1.5,35-1.5C180.4,0,282.2,0,384,0.1c13.6,0,26.6,2.4,37.7,11.4
		c11,8.8,17.2,20.2,17.4,34.1c0.4,30.7,0.1,61.5,0.1,92.2C439.4,140.4,439.4,143.3,439.4,147.2z M24.1,85.1c0,3.3,0,5.9,0,8.5
		c0,196.9,0,393.9,0,590.8c0,15.5,10.1,25.7,25.7,25.7c113.8,0,227.7,0,341.5,0c14.6,0,25.7-10.8,25.7-25.3c0-54.5,0-109,0-163.5
		c0-2.6,0-5.3,0-7.8c-14.1-0.9-26-11.7-24.2-26.3c0.7-5.8-0.1-11.8,0.2-17.6c0.2-4.5-1.5-6.3-6-6.2c-5.9,0-11.9,0.5-17.5-0.8
		c-16.1-3.9-26.2-18.5-26.2-36.9c0-79.4,0-158.7,0-238.1c0-25.1,15.2-40.2,40.5-40.2c10.9,0,21.7,0,32.7,0c0-21.3,0-41.7,0-62.5
		c-25.1,0-49.6,0-74.2,0c-15.8,0-13.8-0.9-13.1,13.2c0.6,13.3-11.3,23.6-22.7,23.6c-57.2,0.1-114.4,0.1-171.6,0
		c-10.4,0-19.6-6.7-22.4-16.7c-1.7-6.2-1.8-12.9-2.6-19.7C81.6,85.1,53.4,85.1,24.1,85.1z M415.3,491c3.1-1.5,4.8-2.2,6.4-3
		c27.8-14.4,55.5-29.1,83.4-43.1c5.2-2.6,11.5-4,17.3-4c57.2-0.3,114.3-0.2,171.5-0.2c12.7,0,16.4-3.8,16.4-16.6
		c0-78.5,0-157.1,0-235.6c0-14.5-4.3-18.8-18.9-18.8c-102,0-204.1,0-306.1,0c-1.9,0-3.8-0.2-5.6,0.1c-8.3,1-12.6,5.4-12.6,13.4
		c-0.1,81.7,0,163.5,0,245.2c0,7.8,4.5,12.2,12.2,12.3c7.2,0.1,14.4-0.2,21.6,0.1c10.2,0.3,14.2,4.7,14.3,14.8
		C415.4,466.9,415.3,478.4,415.3,491z M416.9,62.2c0-5.3,0-9.5,0-13.7c-0.1-13.4-11.3-24.7-24.6-24.7c-114.6,0-229.3,0-343.9,0.1
		c-4.2,0-8.9,1.4-12.6,3.5c-13.7,8-12.4,21.2-11.3,34.8c3.1,0,5.7,0,8.3,0c25.4,0,50.8,0,76.2,0.1c2.8,0,5.8,0.3,8.5,1.2
		c12.2,3.9,16,9.7,15.8,26.4c-0.1,7.4,2.1,9.5,9.6,9.4c51.6-0.3,103.1-0.2,154.7-0.2c2.8,0,5.6,0,8.8,0c0-4-0.1-6.6,0-9.3
		c0.9-17.9,8.9-28.3,27.8-27.8C361.4,62.8,388.6,62.2,416.9,62.2z"/>
	<path d="M317.5,391.8c0,59.8,0,119.7,0,179.5c0,17.8-8.7,26.8-26.6,26.9c-71.6,0.1-143.1,0.1-214.7,0c-17.7,0-26.5-9.1-26.5-27
		c0-119.9,0-239.9,0-359.8c0-18.1,9.2-27.3,27.4-27.3c71,0,142.1,0,213.1,0c18,0,27.2,9.3,27.2,27.4
		C317.5,271.7,317.5,331.8,317.5,391.8z M294.8,575c0.1-2.2,0.2-3.5,0.2-4.9c0-118.6,0-237.2,0.2-355.8c0-6.7-2.4-8-8.4-7.9
		c-68.4,0.2-136.8,0.2-205.1-0.1c-7.9,0-9.7,2.4-9.7,10c0.2,116.7,0.2,233.4,0.2,350.2c0,2.8,0,5.6,0,8.5
		C146.9,575,220.6,575,294.8,575z"/>
	<path d="M219.8,662c31.8,0,63.6,0,95.4,0c10.1,0,13.8,3,13.7,11.1c-0.1,8.2-3.8,11.3-13.8,11.3c-63.3,0-126.6,0-189.9,0
		c-8.5,0-14.6-4.9-14.4-11.4c0.1-6.5,6-11.1,14.5-11.1C156.8,662,188.3,662,219.8,662z"/>
	<path d="M527.3,328.1c0.3-6.1-0.5-12.5,1.1-18.3c2.8-10.6,11.4-14.7,21.4-17.5c15.7-4.3,27.5-20.8,26.1-39.5
		c-1-13.8-12-28.3-27.1-32.5c-24.1-6.7-45,11.2-46.9,31.1c-0.6,6.2-0.4,13.9-8.8,15.9c-9.2,2.2-16.1-4.2-15-14
		c2.6-21.9,12.4-39.7,32.6-49.9c21.2-10.7,42.7-9.3,62.4,3.5c34.2,22.2,34.3,75.4,0.7,98.4c-5.5,3.8-12,6.2-18.1,8.8
		c-3.8,1.6-6.1,3.3-5.7,8c0.5,6.4,0.3,12.8,0.1,19.2c-0.2,7.2-5.4,12.8-11.5,12.6c-6-0.1-10.8-6-10.9-13.1c0-4.3,0-8.5,0-12.8
		C527.5,328.2,527.4,328.2,527.3,328.1z"/>
	<path d="M551.7,398.6c-2.2,4.7-3.7,10.2-7.1,13.9c-1.9,2.1-7.9,2.6-10.6,1.2c-3-1.6-5.3-6-6.3-9.6c-1.1-4-0.3-8.4-0.2-12.7
		c0.1-5.7,5.4-11.7,10.7-11.4c6.6,0.3,10.6,4.2,11.6,10.7c0.4,2.3,0.1,4.8,0.1,7.2C550.6,398,551.2,398.3,551.7,398.6z"/>
	<path d="M220.3,71.9c-11.8,0-23.5,0.1-35.3,0c-8.1-0.1-11.9-3.4-12.1-10.4c-0.2-8.1,3.5-12,12.3-12c23.2-0.1,46.5-0.1,69.7,0
		c9.1,0.1,13,4,12.8,12.3c-0.1,7-4,10.1-13,10.1C243.3,71.9,231.8,71.9,220.3,71.9z"/>
	<path d="M99.5,391.8c0-39.3,0-78.6,0-117.8c0-10.6,2.7-13.6,13.3-14.4c7.5-0.6,14.7-6.9,15.5-14.6c0.9-8.2,4.8-11.5,12.9-11.4
		c28.3,0.2,56.6,0.2,85,0c8.1-0.1,12.1,3.1,13,11.4c0.8,8,8,13.9,16.2,14.6c9.3,0.7,12.5,4.2,12.5,13.6c0,79.1-0.1,158.2,0.1,237.3
		c0,8.2-3.4,11.4-11.1,12.2c-10.5,1-16.1,6.4-17.8,16.7c-1.1,7-5.8,10.3-12.1,10.3c-28.9,0.3-57.7,0.3-86.6,0
		c-6.3-0.1-10.9-3.4-12.1-10.3c-1.7-10.3-7.4-15.8-17.8-16.7c-7.7-0.7-11.2-3.9-11.1-12.1C99.6,470.9,99.5,431.3,99.5,391.8z
		 M245.4,281.3c-11.5-3.9-20.4-10.7-25.8-21.7c-0.9-1.7-4.1-3.2-6.3-3.2c-19.8-0.2-39.5-0.2-59.3,0c-2.2,0-5.4,1.5-6.2,3.2
		c-5.5,11-14.3,17.8-25.8,21.7c0,26.6,0,53.1,0,79.5c0,44.6-0.1,89.2,0.2,133.8c0,2.8,1.5,7.5,3.5,8.2c10.4,3.8,16.9,11.2,22.3,20.3
		c1.2,2,4.3,3.9,6.5,3.9c19.5,0.3,39,0.3,58.5,0c2.2,0,4.8-2.1,6.6-3.9c6.8-6.4,12.6-14.1,20.3-19.1c4.4-2.8,5.7-4.9,5.7-9.5
		c-0.1-24.3-0.1-48.6-0.1-72.9C245.4,375,245.4,328.3,245.4,281.3z"/>
	<path d="M219.7,391.7c-2.4,22.9-14.6,35.2-35.9,35.4c-21.1,0.2-35.1-12.6-36-35.8c-0.8-20.4,18.5-37,38.1-35.7
		C203.7,356.7,219.9,373,219.7,391.7z M183.3,404.7c6,0.2,13.5-6.7,13.9-12.7s-6.5-13.4-12.8-13.8c-6.5-0.4-14,6.5-14.3,13.2
		C169.9,397,177.3,404.5,183.3,404.7z"/>
</g>
</svg>
