<?xml version="1.0" encoding="utf-8"?>
<!-- Generator: Adobe Illustrator 22.1.0, SVG Export Plug-In . SVG Version: 6.00 Build 0)  -->
<svg version="1.1" id="Layer_1" xmlns="http://www.w3.org/2000/svg" xmlns:xlink="http://www.w3.org/1999/xlink" x="0px" y="0px"
	 viewBox="0 0 812.1 812.1" style="enable-background:new 0 0 812.1 812.1;" xml:space="preserve">
<g>
	<path d="M533,532.9c-8.8,0-15.9,7.1-15.9,15.9s7.1,15.9,15.9,15.9s15.9-7.1,15.9-15.9S541.7,532.9,533,532.9z"/>
	<path d="M190.4,263.3c8.8,0,15.9-7.1,15.9-15.9V184c0-8.8-7.1-15.9-15.9-15.9s-15.9,7.1-15.9,15.9v63.4
		C174.6,256.2,181.7,263.3,190.4,263.3z"/>
	<path d="M748.7,374.3V247.4c0-43.7-35.6-79.3-79.3-79.3h-88.8V47.6C580.6,21.4,559.3,0,533,0H238c-26.2,0-47.6,21.3-47.6,47.6v57.1
		h-47.6c-26.2,0-47.6,21.3-47.6,47.6v15.9H79.3C35.6,168.2,0,203.8,0,247.5v485.3c0,43.7,35.6,79.3,79.3,79.3h485.3
		c38.3,0,70.3-27.3,77.7-63.4h27c43.7,0,79.3-35.6,79.3-79.3V628h15.9c26.2,0,47.6-21.3,47.6-47.6V437.7
		C812.1,402.7,783.6,374.3,748.7,374.3z M780.4,437.7c0,17.5-14.2,31.7-31.7,31.7V406C766.2,406,780.4,420.2,780.4,437.7z
		 M669.4,199.8c26.2,0,47.6,21.3,47.6,47.6v222h-73v-95.2c0-38.3-27.3-70.3-63.4-77.7v-96.8L669.4,199.8L669.4,199.8z M222.1,47.6
		c0-8.7,7.1-15.9,15.9-15.9h295c8.7,0,15.9,7.1,15.9,15.9V295h-73V152.3c0-26.2-21.3-47.6-47.6-47.6H222.1V47.6z M380.7,295V136.4
		h47.6c8.7,0,15.9,7.1,15.9,15.9V295H380.7z M285.6,295V136.4H349V295H285.6z M127,152.3c0-8.7,7.1-15.9,15.9-15.9h111V295H127
		V152.3z M79.4,199.8h15.9V295H82.8c-26.2,0-51-19-51-47.6C31.8,221.2,53.2,199.8,79.4,199.8z M564.7,780.3H79.4
		c-26.2,0-47.6-21.3-47.6-47.6V309.9c14.2,10.6,32,16.8,51,16.8h481.9c26.2,0,47.6,21.3,47.6,47.6v95.2h-111
		c-26.2,0-47.6,21.3-47.6,47.6v63.4c0,26.2,21.3,47.6,47.6,47.6h111v104.7C612.3,758.9,590.9,780.3,564.7,780.3z M716.9,669.3
		c0,26.2-21.3,47.6-47.6,47.6h-25.4V628h73V669.3z M764.5,596.3H501.3c-8.7,0-15.9-7.1-15.9-15.9V517c0-8.7,7.1-15.9,15.9-15.9
		h247.4c11.3,0,22.2-3,31.7-8.5v87.8C780.4,589.2,773.3,596.3,764.5,596.3z"/>
	<path d="M669.4,532.9h-73c-8.8,0-15.9,7.1-15.9,15.9s7.1,15.9,15.9,15.9h73c8.8,0,15.9-7.1,15.9-15.9S678.1,532.9,669.4,532.9z"/>
	<g>
		<path d="M290.6,417.4c47.6,0,94.5,21.9,94.5,74.4c0,48.4-55.4,67-67.4,84.5c-8.9,13-6,31.3-30.5,31.3c-16,0-23.8-13-23.8-24.9
			c0-44.3,65.1-54.3,65.1-90.8c0-20.1-13.4-32-35.7-32c-47.6,0-29,49.1-65.1,49.1c-13,0-24.2-7.8-24.2-22.7
			C203.5,449.8,245.2,417.4,290.6,417.4z M288.7,631.7c16.7,0,30.5,13.8,30.5,30.5c0,16.8-13.8,30.5-30.5,30.5s-30.5-13.7-30.5-30.5
			C258.2,645.5,272,631.7,288.7,631.7z"/>
	</g>
</g>
</svg>
