<svg xmlns="http://www.w3.org/2000/svg" width="133.48" height="147.736" viewBox="0 0 133.48 147.736">
  <g id="Group_80" data-name="Group 80" transform="translate(0 0)">
    <g id="Group_55" data-name="Group 55" transform="translate(75.89 64.17)">
      <path id="Path_81" data-name="Path 81" d="M630.848,215.952c1.571,1.509,2.169,3.858.67,5.671a4.4,4.4,0,0,1-5.9.708c-4.254-3.284.181-9.343,4.772-8.089a.763.763,0,0,1-.2,1.492,6.057,6.057,0,0,0-3.852,1.068,2.792,2.792,0,0,0-.232,3.882c2.5,3.077,6.849-1.454,4.221-4.205a.373.373,0,0,1,.527-.527Z" transform="translate(-623.897 -214.074)" fill="#8aa9fc"/>
    </g>
    <g id="Group_56" data-name="Group 56" transform="translate(30.802 70.16)">
      <path id="Path_82" data-name="Path 82" d="M677.456,221.15c-.577,2.139-1.211,4.254-1.871,6.369a.667.667,0,0,1-1.077.372c-1.719-1.168-3.439-2.316-5.068-3.61a.614.614,0,0,1,.065-.962c1.907-1.309,4.483-3.242,6.9-3.255.616,0,1.046.863.422,1.223a26.685,26.685,0,0,1-3.191,1.2,17.518,17.518,0,0,0-3.459,1.847q-.035-.526-.071-1.053c1.82,1.121,3.534,2.377,5.266,3.63l-1.022.2c.738-2.089,1.5-4.164,2.315-6.223a.421.421,0,0,1,.788.261Z" transform="translate(-669.236 -220.064)" fill="#e3707f"/>
    </g>
    <g id="Group_57" data-name="Group 57" transform="translate(19.124 76.863)">
      <path id="Path_83" data-name="Path 83" d="M688.481,232.481a49.819,49.819,0,0,1-7.474-4.284.8.8,0,0,1,.879-1.323,48.836,48.836,0,0,1,7.057,4.654c.441.34.117,1.23-.462.953Z" transform="translate(-680.655 -226.767)" fill="#edc483"/>
    </g>
    <g id="Group_58" data-name="Group 58" transform="translate(121.091 81.546)">
      <path id="Path_84" data-name="Path 84" d="M583.41,240.291a49.8,49.8,0,0,1,2.243-8.317.8.8,0,0,1,1.5.513,48.856,48.856,0,0,1-2.707,8.009c-.218.513-1.16.425-1.039-.205Z" transform="translate(-583.399 -231.45)" fill="#e8947e"/>
    </g>
    <g id="Group_59" data-name="Group 59" transform="translate(112.588 65.165)">
      <path id="Path_85" data-name="Path 85" d="M592.795,215.659l.144-.128a1.617,1.617,0,0,1,2.287,2.287l-.127.144a1.629,1.629,0,1,1-2.3-2.3Z" transform="translate(-592.326 -215.069)" fill="#251a51"/>
    </g>
    <g id="Group_67" data-name="Group 67" transform="translate(24.643 35.99)">
      <g id="Group_64" data-name="Group 64" transform="translate(0 38.845)">
        <path id="Path_86" data-name="Path 86" d="M636.981,287.376s26.863,6.249,37.654-4.542l-3.862-25.774c-1.173-7.408-.473-21.663-6.147-26.72a9.775,9.775,0,0,0-2.155-1.466c-3.98-1.922-11.061-2.96-17.859-2.986-8.258-.032-16.758,6.213-18.927,14.182l8.939,20.908Z" transform="translate(-616.691 -224.739)" fill="#e3707f"/>
        <g id="Group_60" data-name="Group 60" transform="translate(0.541 15.331)">
          <path id="Path_87" data-name="Path 87" d="M657.078,243.281s-12.033,23.18-6.058,24.414c19.657,4.061,31.066,7.391,31.066,7.391l1,7.634c-.293,1.153-39.769.156-44.444-5.148-3.3-3.744-7.69-12.4,1.646-31.13l2.837-6.372Z" transform="translate(-634.674 -240.07)" fill="#f6aea6"/>
        </g>
        <path id="Path_88" data-name="Path 88" d="M597.234,231.341l29.973,11.6.938-15.725,6.418-2.482s9.3,25.239-2.333,29.938-24.749-3.984-24.749-3.984Z" transform="translate(-551.69 -224.739)" fill="#f6aea6"/>
        <path id="Path_89" data-name="Path 89" d="M610.364,227.488c10.462,3.333,16.7,7.239,31.429,13.382l-7.562,16.864L621.2,253.55Z" transform="translate(-568.528 -224.739)" fill="#e3707f"/>
        <path id="Path_90" data-name="Path 90" d="M683.15,240.07l-7.6,17.664L658.4,254.6l11.551-19.894,13.676,5.36" transform="translate(-658.401 -224.739)" fill="#e3707f"/>
        <g id="Group_61" data-name="Group 61" transform="translate(22.58 26.636)">
          <path id="Path_91" data-name="Path 91" d="M660.844,252.113c-3.653-.2-7.259-.045-10.908,0-.318,0-.3-.447,0-.483a53.739,53.739,0,0,1,10.908.052c.27.023.277.443,0,.428Z" transform="translate(-649.704 -251.375)" fill="#1a3066"/>
        </g>
        <g id="Group_62" data-name="Group 62" transform="translate(17.213 6.885)">
          <path id="Path_92" data-name="Path 92" d="M659.915,231.625c12.337,1.114,3.9,19.3.737,24.813a.275.275,0,0,1-.475-.278c3.143-5.564,11.554-22.492-.3-24.234-.169-.025-.131-.317.041-.3Z" transform="translate(-659.765 -231.624)" fill="#1a3066"/>
        </g>
        <g id="Group_63" data-name="Group 63" transform="translate(51.247 17.171)">
          <path id="Path_93" data-name="Path 93" d="M629.467,242.025a102.286,102.286,0,0,1,2.915,18.6c.015.258-.42.324-.458.062-.882-6.2-1.77-12.388-2.765-18.573-.032-.2.257-.289.308-.085Z" transform="translate(-629.157 -241.91)" fill="#1a3066"/>
        </g>
      </g>
      <g id="Group_65" data-name="Group 65" transform="translate(19.543)">
        <path id="Path_94" data-name="Path 94" d="M638.2,208.423l-.567-7.815a3.939,3.939,0,0,1-2.294-5.161,4.986,4.986,0,0,1,5.243-2.766c-1.329-.9-1.227-3.065-.136-4.246a6.212,6.212,0,0,1,4.407-1.626,33.408,33.408,0,0,0,4.813-.161c1.4-.26,2.773-.9,4.186-.723s2.764,1.768,2,2.972c2.038-.3,4.243-.572,6.054.411s2.72,3.78,1.164,5.13a2.22,2.22,0,0,1,.707,3.011,3.621,3.621,0,0,1-2.913,1.606,10.677,10.677,0,0,1-3.409-.5" transform="translate(-635.067 -185.894)" fill="#251a51"/>
        <path id="Path_95" data-name="Path 95" d="M642.608,203.357l.411,5.414s-4.6.621-3.292,4.82,4.462,2.363,4.462,2.363.788,10.76,11.811,7.348c8.773-2.715,8.236-14.076,7.122-23.76a6.484,6.484,0,0,0-7.687-5.61l-6.627,1.291A7.692,7.692,0,0,0,642.608,203.357Z" transform="translate(-639.139 -185.894)" fill="#f6aea6"/>
        <path id="Path_96" data-name="Path 96" d="M644.637,213.265l2.97,15.839a6.354,6.354,0,0,0,7.719,5.009h0a6.354,6.354,0,0,0,4.781-7.291l-1.612-9.077Z" transform="translate(-640.757 -185.894)" fill="#f6aea6"/>
        <path id="Path_97" data-name="Path 97" d="M647.5,203.8q.245,3.894.488,7.789a3.649,3.649,0,0,1-.161,1.7c-.226.486-.813.652-1.031.158" transform="translate(-630.723 -185.894)" fill="none" stroke="#251a51" stroke-miterlimit="10" stroke-width="0.5"/>
        <path id="Path_98" data-name="Path 98" d="M644.437,222.418a8.945,8.945,0,0,0,10.495-.221" transform="translate(-635.283 -185.894)" fill="none" stroke="#251a51" stroke-miterlimit="10" stroke-width="0.5"/>
        <path id="Path_99" data-name="Path 99" d="M646.591,214.225a2.552,2.552,0,0,0,4.483,1.441" transform="translate(-633.579 -185.894)" fill="none" stroke="#251a51" stroke-miterlimit="10" stroke-width="0.5"/>
        <path id="Path_100" data-name="Path 100" d="M660.8,211.362l.666,1.5a.512.512,0,0,0-.827.04.738.738,0,0,0,.168.9,1.373,1.373,0,0,0,.915.316" transform="translate(-658.191 -185.894)" fill="none" stroke="#251a51" stroke-miterlimit="10" stroke-width="0.5"/>
        <path id="Path_101" data-name="Path 101" d="M652.065,204.026a2.424,2.424,0,0,1,2.214-.581" transform="translate(-642.258 -185.894)" fill="none" stroke="#251a51" stroke-miterlimit="10" stroke-width="1"/>
        <path id="Path_102" data-name="Path 102" d="M642.534,202.154a3,3,0,0,1,2.519-.22" transform="translate(-623.501 -185.894)" fill="none" stroke="#251a51" stroke-miterlimit="10" stroke-width="1"/>
        <path id="Path_103" data-name="Path 103" d="M641.727,208.771c3.077-3,3.981-8,4.816-12.212a10.775,10.775,0,0,0,10.055,1.31A16.23,16.23,0,0,0,660.179,201a1.6,1.6,0,0,0,1.266.35c.516-.156.746-.748.869-1.273a9.052,9.052,0,0,0-.179-5.1,6.147,6.147,0,0,0-3.425-3.673,8.972,8.972,0,0,0-5.444.087,30.2,30.2,0,0,0-7.684,3.175c-2.355,1.379-4.616,3.2-5.615,5.743s-.994,7.474,1.413,8.758" transform="translate(-637.846 -185.894)" fill="#251a51"/>
        <path id="Path_104" data-name="Path 104" d="M652.9,206.191q.06.831.119,1.663" transform="translate(-641.825 -185.894)" fill="none" stroke="#251a51" stroke-miterlimit="10" stroke-width="1"/>
        <path id="Path_105" data-name="Path 105" d="M644.045,205.062q.059.831.118,1.662" transform="translate(-624.122 -185.894)" fill="none" stroke="#251a51" stroke-miterlimit="10" stroke-width="1"/>
      </g>
      <path id="Path_106" data-name="Path 106" d="M609.85,225.264s-1.332-8.176-2.922-8.087-4.772,0-4.772,0-.265-7.775-1.149-6.538-1.162,11.7,2.247,16.718Z" transform="translate(-526.652 -185.894)" fill="#f6aea6"/>
      <path id="Path_107" data-name="Path 107" d="M621.688,275.086s14.263,2.5,13.984,4.347a13.394,13.394,0,0,1-1.281,3.716l-12.7-.3Z" transform="translate(-573.735 -185.894)" fill="#f6aea6"/>
      <g id="Group_66" data-name="Group 66" transform="translate(32.474 67.58)">
        <path id="Path_108" data-name="Path 108" d="M579.578,283.6l.108-1.974,29.375-1.8,9.852-26.352,32.242,1.773-11,28.5Z" transform="translate(-579.578 -253.474)" fill="#6338a1"/>
        <path id="Path_109" data-name="Path 109" d="M602.128,267.8a2.39,2.39,0,1,1-2.255-2.518A2.39,2.39,0,0,1,602.128,267.8Z" transform="translate(-548.328 -253.474)" fill="#fff" opacity="0.41"/>
        <path id="Path_110" data-name="Path 110" d="M603.083,267.847a3.347,3.347,0,1,1-3.158-3.525A3.347,3.347,0,0,1,603.083,267.847Z" transform="translate(-548.327 -253.474)" fill="#fff" opacity="0.41"/>
      </g>
    </g>
    <path id="Path_111" data-name="Path 111" d="M708.272,284.182l-126.1-1.575-7.385,3.878S671.592,313.053,708.272,284.182Z" transform="translate(-574.792 -149.904)" fill="#ddd2f3"/>
    <path id="Path_112" data-name="Path 112" d="M696.376,190.906c.382.741-.867,19.884-.867,19.884l-9.426-.783,1.1,5.054-4.6-5.194-9.224-1.066.56-18.555Z" transform="translate(-661.53 -149.904)" fill="#ddd2f3"/>
    <g id="Group_72" data-name="Group 72" transform="translate(52.588 11.151)">
      <path id="Path_113" data-name="Path 113" d="M648.972,161.082a7.158,7.158,0,0,1,6.712,7.254s-.108,3.789-2.165,5.2-1.949,2.923-1.949,2.923h-5.413a4.842,4.842,0,0,0-.65-3.031c-.866-1.083-3.031-3.356-2.706-6.712S645.616,160.757,648.972,161.082Z" transform="translate(-642.768 -161.055)" fill="#ffbb7d"/>
      <g id="Group_68" data-name="Group 68" transform="translate(2.809 16.384)">
        <path id="Path_114" data-name="Path 114" d="M652.653,178.155c-1.944-.09-3.91.124-5.84.011-.278-.016-.373-.45-.069-.513a19.514,19.514,0,0,1,5.909.039c.289.033.3.477,0,.463Z" transform="translate(-646.556 -177.438)" fill="#6338a1"/>
      </g>
      <g id="Group_69" data-name="Group 69" transform="translate(3.234 18.085)">
        <path id="Path_115" data-name="Path 115" d="M652.223,179.853c-.775-.045-1.553-.077-2.329-.069s-1.563.136-2.33.08a.263.263,0,0,1-.07-.513,12.87,12.87,0,0,1,4.791.048c.257.036.2.469-.062.454Z" transform="translate(-647.307 -179.139)" fill="#6338a1"/>
      </g>
      <g id="Group_70" data-name="Group 70" transform="translate(5.169 19.559)">
        <path id="Path_116" data-name="Path 116" d="M650.291,181.111c-.678.047-1.379.239-2.055.224a.3.3,0,0,1-.079-.579,6.523,6.523,0,0,1,2.134-.108.232.232,0,0,1,0,.463Z" transform="translate(-647.948 -180.614)" fill="#6338a1"/>
      </g>
      <g id="Group_71" data-name="Group 71" transform="translate(4.039 9.014)">
        <path id="Path_117" data-name="Path 117" d="M650.216,176.381c-.15-1.926.5-4.058.828-5.947l.566.238c-.273.447-.725,1.737-1.42,1.691-.718-.048-.984-1.328-1.085-1.85h.62c-.139.594-.157,2.029-1.091,1.894-.791-.115-1.324-1.289-1.566-1.933l.644-.178a13.45,13.45,0,0,1,.228,6.168.315.315,0,0,1-.617-.083c.058-2,.338-3.95-.255-5.907-.128-.42.49-.569.644-.178.087.222.6,1.487,1.082,1.324a5.327,5.327,0,0,0,.311-1.278.324.324,0,0,1,.62,0c.07.387.23,1.442.687,1.126.264-.182.5-.83.663-1.108a.311.311,0,0,1,.566.238c-.3,1.891-.38,4.092-1.14,5.86-.065.153-.274.056-.285-.077Z" transform="translate(-647.05 -170.069)" fill="#6338a1"/>
      </g>
    </g>
    <path id="Path_118" data-name="Path 118" d="M637.991,173.751l-8.7-2.785" transform="translate(-559.014 -149.904)" fill="none" stroke="#ffbb7d" stroke-miterlimit="10" stroke-width="0.05"/>
    <path id="Path_119" data-name="Path 119" d="M638.419,165.121l-5.513-.145" transform="translate(-563.053 -149.904)" fill="none" stroke="#ffbb7d" stroke-miterlimit="10" stroke-width="0.05"/>
    <path id="Path_120" data-name="Path 120" d="M635.119,162.408l6.328-5.291" transform="translate(-568.294 -149.904)" fill="none" stroke="#ffbb7d" stroke-miterlimit="10" stroke-width="0.05"/>
    <path id="Path_121" data-name="Path 121" d="M644.223,159.482l1.887-3.047" transform="translate(-582.061 -149.904)" fill="none" stroke="#ffbb7d" stroke-miterlimit="10" stroke-width="0.05"/>
    <path id="Path_122" data-name="Path 122" d="M650.106,158.319l.172-8.415" transform="translate(-592.112 -149.904)" fill="none" stroke="#ffbb7d" stroke-miterlimit="10" stroke-width="0.05"/>
    <path id="Path_123" data-name="Path 123" d="M655.438,159.517l-1.869-3.2" transform="translate(-600.735 -149.904)" fill="none" stroke="#ffbb7d" stroke-miterlimit="10" stroke-width="0.05"/>
    <path id="Path_124" data-name="Path 124" d="M663.88,161.718l-7.662-4.288" transform="translate(-611.826 -149.904)" fill="none" stroke="#ffbb7d" stroke-miterlimit="10" stroke-width="0.05"/>
    <path id="Path_125" data-name="Path 125" d="M661.376,165.276a5.834,5.834,0,0,1-3.223-.656" transform="translate(-611.257 -149.904)" fill="none" stroke="#ffbb7d" stroke-miterlimit="10" stroke-width="0.05"/>
    <path id="Path_126" data-name="Path 126" d="M670.366,170.223l-11.779,2.485" transform="translate(-620.681 -149.904)" fill="none" stroke="#ffbb7d" stroke-miterlimit="10" stroke-width="0.05"/>
    <g id="Group_73" data-name="Group 73" transform="translate(94.179 79.834)">
      <path id="Path_127" data-name="Path 127" d="M612.586,238.374a5.769,5.769,0,0,0-.584-2.429c-.957-1.505-2.315-1.127-3.63-.465a4.487,4.487,0,0,1-4.058.449c-2.275-.985-3.343-4.416-1.172-6.03.7-.523,1.4.34,1.3,1-.131.923-.589,1.939.2,2.732,1.057,1.061,2.3.17,3.352-.306a4.383,4.383,0,0,1,3.527-.152c2.024.819,3.492,3.564,1.885,5.417a.5.5,0,0,1-.823-.217Z" transform="translate(-601.959 -229.738)" fill="#6e3281"/>
    </g>
    <g id="Group_74" data-name="Group 74" transform="translate(66.323 85.753)">
      <path id="Path_128" data-name="Path 128" d="M641.374,240.033a49.839,49.839,0,0,1-8.122-2.872.8.8,0,0,1,.627-1.46,49.037,49.037,0,0,1,7.779,3.311c.494.257.335,1.19-.284,1.021Z" transform="translate(-632.781 -235.657)" fill="#edc483"/>
    </g>
    <g id="Group_75" data-name="Group 75" transform="translate(80.259 91.889)">
      <path id="Path_129" data-name="Path 129" d="M628,242.879c-.577,2.139-1.211,4.254-1.87,6.369a.668.668,0,0,1-1.078.372c-1.719-1.168-3.439-2.316-5.068-3.609a.615.615,0,0,1,.065-.963c1.907-1.309,4.483-3.242,6.9-3.255.616,0,1.046.863.422,1.223a26.915,26.915,0,0,1-3.19,1.2,17.44,17.44,0,0,0-3.46,1.846q-.035-.526-.071-1.053c1.82,1.121,3.535,2.377,5.266,3.63l-1.022.2c.738-2.089,1.5-4.163,2.315-6.222a.42.42,0,0,1,.788.26Z" transform="translate(-619.78 -241.793)" fill="#ede6f5"/>
    </g>
    <g id="Group_76" data-name="Group 76" transform="translate(75.385 112.822)">
      <path id="Path_130" data-name="Path 130" d="M632.474,264.291a50.776,50.776,0,0,1-8.614.016.779.779,0,0,1,.1-1.555,49.759,49.759,0,0,1,8.439.5c.552.074.717.989.078,1.036Z" transform="translate(-623.141 -262.726)" fill="#6e3281"/>
    </g>
    <path id="Path_131" data-name="Path 131" d="M691.219,199.471l-1.982,6.889-2.773-.54.27-1.387-.788-.473-1.485,1.47-4.7-.916-.609-1.8,1.337-.3-1.726-.576.375-1.926,1.494.131-2.05-.559.465-2.388,4.776.931s-.309-3.339,1.1-4.423l1.079.21a5.9,5.9,0,0,0-.33,1.695,34.442,34.442,0,0,0,.972,3.627l1.465.686.35-.972Z" transform="translate(-661.53 -149.904)" fill="#fff"/>
    <g id="Group_78" data-name="Group 78" transform="translate(79.412 36.668)">
      <path id="Path_132" data-name="Path 132" d="M628.86,186.572l-1.6,19.085H592.116l-1.946,6.715-2.052-7.364-6.7-.389,3.088-17.094Z" transform="translate(-581.421 -186.572)" fill="#ddd2f3"/>
      <g id="Group_77" data-name="Group 77" transform="translate(5.869 6.376)">
        <path id="Path_133" data-name="Path 133" d="M622.286,193.341a253.714,253.714,0,0,0-36.251.576" transform="translate(-585.33 -192.949)" fill="none" stroke="#fff" stroke-miterlimit="10" stroke-width="0.05"/>
        <path id="Path_134" data-name="Path 134" d="M622.991,197.108a253.7,253.7,0,0,0-36.25.576" transform="translate(-586.741 -192.949)" fill="none" stroke="#fff" stroke-miterlimit="10" stroke-width="0.05"/>
        <path id="Path_135" data-name="Path 135" d="M611.1,200.259c-12.848.365-11.539-.691-24.291.365" transform="translate(-574.914 -192.949)" fill="none" stroke="#fff" stroke-miterlimit="10" stroke-width="0.05"/>
      </g>
    </g>
  </g>
</svg>
