<?xml version="1.0" encoding="utf-8"?>
<!-- Generator: Adobe Illustrator 22.1.0, SVG Export Plug-In . SVG Version: 6.00 Build 0)  -->
<svg version="1.1" id="Layer_1" xmlns="http://www.w3.org/2000/svg" xmlns:xlink="http://www.w3.org/1999/xlink" x="0px" y="0px"
	 viewBox="0 0 657 879.9" style="enable-background:new 0 0 657 879.9;" xml:space="preserve">
<style type="text/css">
	.st0{fill:none;stroke:#000000;stroke-width:26;stroke-miterlimit:10;}
</style>
<path d="M610.8,849.8c-0.4,0.3-0.8,0.8-1.2,0.8c-7.6-0.9-15.4-1.2-22.8-3c-9.4-2.3-13.4-0.7-17.6,8.1c-3.9,7.9-8.6,15.3-13,23
	c-0.2,0.3-0.9,0.4-1.4,0.6c-14.8-27.6-29.6-55.1-44.5-82.7c-5.5-10.2-11-20.3-16.4-30.6c-1.6-3-3.3-4-6.9-3.7
	c-7.3,0.6-14.7,0.7-21.9,0c-4.5-0.4-6.7,0.5-8.8,4.6c-10.1,19.5-20.5,38.9-30.8,58.3c-8.9,16.8-17.9,33.7-26.8,50.5
	c-0.6,1.2-1.3,2.3-2.4,4.2c-3.4-5.7-6.6-10.8-9.7-16c-2.7-4.5-5.9-8.8-7.7-13.7c-1.4-3.9-4.3-3.4-6.6-3.1c-8.3,1-16.5,2.5-24.9,2.3
	c-2,0-4,1-7.1,1.9c3.1-7.1,5.4-13.2,8.5-19c6.2-11.8,13-23.3,19.3-35c8.9-16.5,17.5-33.2,26.2-49.8c5.5-10.5,5.3-10.3-3-18.7
	c-34.5-35.2-46.2-77-31.5-123.9c14.9-47.8,48.9-76.3,98.3-84.4c67.9-11.2,132,38.7,139,107.3c4.3,42.4-10.2,77.8-42.1,106.1
	c-3.1,2.8-3.4,4.5-1.3,8.2c8.7,15.6,16.8,31.4,25.2,47.1c5.7,10.5,11.8,20.7,17.3,31.2C601.3,830,605.9,840,610.8,849.8z M572,638.1
	c-1.1-23.3-9.4-46.9-28.9-65.3c-23.1-21.9-50.6-31-82.3-26.3c-37.4,5.6-80.1,38.6-80.7,94.1c-0.6,53,42.6,96.3,95.5,96.5
	C528.2,737.1,571.4,695.2,572,638.1z"/>
<path d="M347.9,456c-68,0-136,0-204,0c-8.2,0-12.6-3.4-12.9-9.8c-0.3-7,4-11.3,11.5-11.3c70.2,0,140.3,0.1,210.5,0.1
	c66.7,0,133.5,0,200.2-0.1c7.5,0,11.7,3.8,11.8,10.4c0.1,6.8-4.3,10.7-12.1,10.7C484.5,456,416.2,456,347.9,456z"/>
<path d="M347.7,293c-68.1,0-136.3,0-204.4,0c-10,0-15.3-6.9-11.1-15.1c1.3-2.6,5.1-4.1,7.9-5.8c1-0.6,2.6-0.2,3.9-0.2
	c136,0,271.9,0,407.9,0c5,0,9.7,0.4,12.1,5.9c3.3,7.6-1.1,14.8-9.3,15.1c-5.3,0.2-10.7,0-16,0C475,293,411.4,293,347.7,293z"/>
<path d="M348.1,211.1c-67.7,0-135.3,0-203,0c-3.5,0-6.7,0-10.1-2.4c-4.3-3.1-3.5-7.1-3.2-10.7c0.2-3.2,3.2-5.5,6.8-6
	c2.1-0.3,4.2-0.8,6.4-0.8c133.5,0,267-0.1,400.5,0c5.5,0,10.8-0.5,16,2.8c3.4,2.2,3.4,11.8,0.8,13.8c-2.8,2.1-5.8,3.3-9.7,3.3
	C484.5,211,416.3,211,348.1,211.1C348.1,211.1,348.1,211.1,348.1,211.1z"/>
<path d="M348.2,353.9c68.5,0,136.9,0,205.4,0c9.5,0,12.9,7.5,9.6,14.9c-1.7,3.8-5.6,4.7-9.3,4.7c-44.1,0-88.2-0.1-132.4-0.1
	c-87.1,0-174.2,0.1-261.4,0.1c-6,0-12,0.3-18,0c-9.9-0.6-12.8-6.2-9-15.2c0.8-2,4.2-3.4,6.6-4c3.2-0.7,6.6-0.3,10-0.3
	C215.9,353.9,282,353.9,348.2,353.9C348.2,353.9,348.2,353.9,348.2,353.9z"/>
<path d="M222.7,592c26.5,0,53,0,79.5,0c7.6,0,12,4.1,12.1,10.9c0.1,4.9-3.6,9.1-8.7,10c-1.1,0.2-2.3,0.1-3.5,0.1c-53,0-106,0-159,0
	c-8.9,0-13.2-4.6-12-12.5c0.9-5.4,4.9-8.4,11.6-8.5c25.5,0,51,0,76.5,0C220.4,592,221.5,592,222.7,592z"/>
<path d="M348,155c-26.2,0-52.3-0.1-78.5,0c-11.2,0.1-15.2-7.6-10.7-18.3c0.6-1.5,4.1-2.6,6.3-2.7c26.7-0.2,53.3-0.1,80-0.1
	c28.7,0,57.4-0.1,86.1-0.1c2.8,0,5.2,0.9,6.3,4.1c1.6,4.9,3,10-1.6,13.7c-2.3,1.9-6,3.1-9,3.2C400.7,155.1,374.3,155,348,155z"/>
<polygon points="495,802 451,802 463,777 485,777 "/>
<path class="st0" d="M605.7,789.4c21.7-3.5,38.3-22.2,38.3-44.9v-686c0-25.1-20.4-45.5-45.5-45.5h-540C33.4,13,13,33.4,13,58.5v686
	c0,25.1,20.4,45.5,45.5,45.5H329"/>
</svg>
