<svg xmlns="http://www.w3.org/2000/svg" width="17.396" height="16.626" viewBox="0 0 17.396 16.626">
  <g id="linkedin-letters" transform="translate(0 0)">
    <g id="Group_4" data-name="Group 4" transform="translate(0 0)">
      <rect id="Rectangle_14" data-name="Rectangle 14" width="3.737" height="11.223" transform="translate(0.215 5.402)" fill="#fff"/>
      <path id="Path_16" data-name="Path 16" d="M161.8,140.617a4.022,4.022,0,0,0-3.114-1.286,4.488,4.488,0,0,0-1.3.176,2.943,2.943,0,0,0-.985.493,4.22,4.22,0,0,0-1.082,1.188v-1.6H151.6l.011.544q.011.544.011,3.352t-.023,7.328h3.726v-6.263a2.735,2.735,0,0,1,.125-.917,2.4,2.4,0,0,1,.719-.968,1.834,1.834,0,0,1,1.2-.391,1.611,1.611,0,0,1,1.433.674,3.277,3.277,0,0,1,.459,1.863v6h3.726v-6.432A5.392,5.392,0,0,0,161.8,140.617Z" transform="translate(-145.583 -134.189)" fill="#fff"/>
      <path id="Path_17" data-name="Path 17" d="M2.107,9.708a2.132,2.132,0,0,0-1.523.549A1.824,1.824,0,0,0,0,11.645a1.856,1.856,0,0,0,.566,1.382,2.044,2.044,0,0,0,1.495.555h.023a2.134,2.134,0,0,0,1.535-.555,1.793,1.793,0,0,0,.572-1.382,1.889,1.889,0,0,0-.578-1.387A2.071,2.071,0,0,0,2.107,9.708Z" transform="translate(0 -9.708)" fill="#fff"/>
    </g>
  </g>
</svg>
