<?xml version="1.0" encoding="utf-8"?>
<!-- Generator: Adobe Illustrator 22.1.0, SVG Export Plug-In . SVG Version: 6.00 Build 0)  -->
<svg version="1.1" id="Layer_1" xmlns="http://www.w3.org/2000/svg" xmlns:xlink="http://www.w3.org/1999/xlink" x="0px" y="0px"
	 viewBox="0 0 726.3 781.6" style="enable-background:new 0 0 726.3 781.6;" xml:space="preserve">
<g>
	<path d="M147.8,336.1C96.3,213,147.3,108.6,210.2,56.3c90.4-75.1,204.6-69.9,285.9-15c78.7,53.2,135.5,168.6,82.6,294
		c3.6,0.3,6.9,0.7,10.1,0.7c31.5,0.1,63,0.7,94.5-0.2c24.9-0.7,42.5,17.5,42.6,42.2c0.4,120.1,0.6,240.1-0.1,360.2
		c-0.2,26.6-16.9,41.6-44.3,43.1c-9,0.5-18.1,0.1-27.1,0.1c-201.8,0-403.5,0-605.3,0c-31.9,0-49.1-17.1-49.1-49
		c0-117.2,0-234.5,0-351.7c0-22.2,10.9-38,30-43.4c3.2-0.9,6.7-1.1,10.1-1.2c32.1-0.1,64.2,0,96.4,0
		C139.7,336.1,143,336.1,147.8,336.1z M699.8,557.7c-225.2,0-449.1,0-673.2,0c-0.2,2.4-0.4,3.9-0.4,5.4c0,58-0.1,116,0,174
		c0,11.7,7.1,18,19.7,18c211.4,0,422.8,0,634.2,0c13.4,0,19.7-6.4,19.7-20c0-40.2,0-80.4,0-120.7
		C699.8,595.9,699.8,577.2,699.8,557.7z M362.8,390.5c84.1,3.3,156.1-70.2,155.3-154.7c-0.8-83.6-68.9-156.7-160.5-153.9
		c-80.8,2.5-149.8,68.5-149.6,156.3C208.1,320.6,279.3,393.6,362.8,390.5z M544.4,389.5c11.2,0.9,21.7,1.4,32,2.8
		c7.2,0.9,9.5,6.7,9.1,13c-0.4,6.4-3.9,11-11.1,11.3c-4,0.2-8.1,0.3-12.1,0.3c-119.1,0-238.2,0-357.3,0c-17.5,0-34.9-0.2-52.4-0.3
		c-7.5,0-11.6-4.4-12-11.4c-0.3-6.7,2.3-12.2,10-13.1c4.9-0.6,9.8-1.3,14.7-1.6c5.3-0.3,10.7-0.1,17-0.1
		c-6.8-9.7-12.2-17.8-18.2-25.6c-1.2-1.6-4.3-2.4-6.5-2.5c-39-0.1-77.9-0.2-116.9,0c-8.8,0-14.1,5.7-14.4,14.7c-0.2,4.7,0,9.4,0,14
		c0,18.3,0,36.5,0,54.8c225.2,0,449.2,0,673.6,0c0-23.7,0.2-46.8-0.1-69.8c-0.1-8.1-6.1-13.7-14.4-13.7c-39-0.1-78-0.1-116.9,0.1
		c-2.2,0-5.2,0.9-6.5,2.5C556,372.7,550.5,380.8,544.4,389.5z M312.3,530.7c15.1,0,29.4,0.2,43.6-0.2c2.3-0.1,4.9-2.3,6.8-4.1
		c15.7-15.6,31.3-31.2,46.9-46.9c1.5-1.5,2.6-3.5,5-6.7c-15.4,0-28.7-0.2-42,0.2c-2.6,0.1-5.5,2.4-7.6,4.4
		C347.7,494.6,330.6,512.1,312.3,530.7z M329.6,475c-0.3-0.8-0.6-1.6-0.8-2.3c-13.5,0-27.1-0.1-40.6,0.1c-1.6,0-3.7,0.9-4.8,2
		c-18.2,18-36.4,36.2-56.1,55.8c16.2,0,30.4,0,44.5-0.1c1.4,0,3.1-0.7,4-1.7C293.7,511,311.7,493,329.6,475z M397,530.7
		c13.1,0,26.1,0.4,39-0.2c3.8-0.2,8.4-2.1,11.1-4.8c12.9-12.2,25.3-25,37.8-37.6c4.2-4.3,8.3-8.7,12.5-13c-0.2-0.8-0.5-1.6-0.7-2.5
		c-12,0-24-0.5-35.9,0.3c-4.4,0.3-9.6,2.4-12.7,5.5C431.1,495.2,414.7,512.5,397,530.7z M245.4,474.9c-0.3-0.7-0.7-1.5-1-2.2
		c-13.6,0-27.2-0.1-40.8,0.1c-1.8,0-4,1.5-5.4,2.9c-17,16.9-34,33.9-50.9,50.9c-0.7,0.7-1,1.9-1.9,4c14.7,0,28.4,0,42-0.1
		c1.4,0,3.1-0.7,4.1-1.6C209.5,511,227.5,493,245.4,474.9z M580.7,475.5c-0.4-0.9-0.7-1.8-1.1-2.8c-12.3,0-24.7-0.4-36.9,0.2
		c-3.9,0.2-8.5,2-11.2,4.7c-15.7,15.1-31,30.7-46.4,46.2c-1.6,1.6-2.9,3.6-5.5,6.9c15.5,0,29,0.1,42.6-0.1c1.6,0,3.7-0.9,4.8-2.1
		C545,510.9,562.8,493.2,580.7,475.5z M564.5,528.3c0.4,0.8,0.9,1.6,1.3,2.4c12.4,0,24.8,0.3,37.1-0.2c3.6-0.1,7.9-1.8,10.4-4.3
		c15.9-15.4,31.4-31.2,47-46.9c1.6-1.6,2.7-3.5,5.1-6.7c-7.1,0-12.4,0.7-17.5-0.1c-20-3.4-34.7,4-47.5,19.5
		C589.7,505.1,576.6,516.3,564.5,528.3z M61.2,528.3c0.4,0.8,0.9,1.6,1.3,2.4c12.4,0,24.8,0.3,37.1-0.2c3.6-0.1,7.9-1.8,10.4-4.3
		c16.1-15.6,31.8-31.6,47.6-47.5c1.3-1.3,2.2-3.1,4.2-6c-6.8,0-12.1,0.7-17.2-0.1c-20-3.3-34.8,3.9-47.6,19.5
		C86.4,505.1,73.3,516.3,61.2,528.3z M175,143.1c-12.8,25.5-21,51.7-21.5,80.3c10.6,0,19.8,0,27.2,0c6.2-22.6,12.1-44.3,18.1-66.4
		C191.9,152.9,183.9,148.3,175,143.1z M376.5,54.4c22.8,6.2,44.1,12,66.1,18c4.3-7.3,9-15.4,14.1-24c-25.7-12-51.5-21.3-80.1-21.2
		C376.5,37.7,376.5,46.9,376.5,54.4z M545.4,223.2c7.9,0,17.4,0,27.4,0c-1.3-28.7-8.9-54.9-21.9-80c-8.8,5.2-17.1,10-23.7,13.9
		C533.5,179.7,539.3,200.8,545.4,223.2z M198.8,316.1c-6.2-22.7-11.9-43.7-17.9-65.6c-7.8,0-17.3,0-27.7,0
		c1.5,28.4,8.7,54.4,21.9,79.8C183.9,325,192,320.2,198.8,316.1z M551.1,330.4c12.8-26.1,20.8-52,21.4-80c-10.6,0-19.9,0-27.2,0
		c-6.1,22-11.9,43.1-18.1,65.5C533.9,320,542.2,325.1,551.1,330.4z M478.6,61.5c-4.3,8-8.1,14.4-10.9,21.1c-0.9,2.2,0,6.4,1.7,8.1
		c13,13.5,26.3,26.8,39.7,39.8c1.7,1.6,5.6,2.9,7.4,2.1c7.1-3.3,13.8-7.5,21.8-12.1C522.2,96.8,503.8,76.7,478.6,61.5z M269.3,48.6
		c5.4,9,10.4,17.3,14.3,23.7c22.9-6.2,44.1-11.9,65.7-17.8c0-8,0-17.5,0-27.6C320.7,27.6,295.2,36.5,269.3,48.6z M187.9,120.9
		c7.7,4.2,14.1,8.3,21,11.4c2,0.9,6.3-0.3,7.9-2c9-9.3,17.4-19.3,26.3-28.8c5.3-5.6,15.3-10.3,15.8-16c0.6-6.9-6.7-14.5-10.7-21.7
		c-0.2-0.4-1.1-0.5-2.6-1.2C222.2,77.1,203.2,96.6,187.9,120.9z M263.6,390.5c-17.5-17.2-34.7-34.1-52.3-51.4
		c-6.7,4.1-14.7,8.9-24.7,14.9c11,12.2,21,23.4,31.2,34.4c1.3,1.4,3.8,2.1,5.8,2.1C237.2,390.5,250.8,390.5,263.6,390.5z
		 M462.2,390.5c11,0,22.4,0,33.9,0c3.4,0,8,1.1,10-0.6c12.2-10.8,23.7-22.3,31.8-37.2c-8.9-5.2-17-9.9-23-13.5
		C496.7,356.9,479.6,373.5,462.2,390.5z M26.3,524.8c18-17.5,34.7-33.8,53.4-52c-18,0-33.9-0.1-49.9,0.2c-1.2,0-3.3,2.4-3.3,3.8
		C26.2,492.5,26.3,508.2,26.3,524.8z M647,530.2c18.6,0,35.2,0,52,0c0-16.9,0-33.3,0-50.7c-2,1.3-3.1,1.8-3.9,2.6
		C679.5,497.8,663.8,513.5,647,530.2z"/>
	<path d="M670,668c-1,28.1-19.4,52.9-45.9,55.2c-8.8,0.8-18.2,0.2-26.7-1.9c-7.3-1.8-13.5-2.7-20.9,0.1
		c-35.9,13.2-73.2-13.5-72.9-52.2c0.3-36.7,35.5-61.1,65.8-52.1c12.1,3.6,22.9,3.7,34.8-0.2c24.7-8.1,58.4,11,63.9,40.8
		C668.8,661.9,669.6,666.1,670,668z M559.1,641.1c-16.1,0-29.7,13.4-29.6,29.2c0.1,15.3,13.8,28.8,29,28.8c15.8,0,29-13.6,29-29.7
		C587.5,654.7,573.9,641.1,559.1,641.1z M606.7,696.8c11.3,4.9,22.9,1,31.7-10.2c7.3-9.3,7.1-24.3-0.4-33.4
		c-9.5-11.5-20.5-15-31.4-9.6C616.2,661.2,615.3,679.1,606.7,696.8z"/>
	<path d="M265.7,699.1c63.9,0,127.8-0.1,191.7,0.2c4.7,0,10.9,1.9,13.7,5.2c6.4,7.3,0.5,19-9.7,20.7c-2.4,0.4-5,0.1-7.5,0.1
		c-125.9,0-251.8,0-377.7,0c-1.6,0-3.1,0.1-4.7,0c-8.6-0.4-15.2-6-15.3-13c-0.1-7.3,6.9-13.2,16-13.2c60.5,0,120.9,0,181.4,0
		C257.6,699.1,261.6,699.1,265.7,699.1z"/>
	<path d="M320.9,641.1c-8.7,0-17.4,0.2-26.2-0.1c-9.5-0.3-14.3-5-14.1-13.4c0.2-8.5,4.7-12.7,14.6-12.7c17.1-0.1,34.2-0.1,51.4,0
		c10.2,0.1,15.2,4.6,15.1,13.3c-0.2,8.7-5,12.8-15.5,12.9C337.8,641.1,329.3,641.1,320.9,641.1z"/>
	<path d="M431.3,641.1c-8.4,0-16.8,0.2-25.3,0c-8.6-0.2-14.9-6.1-14.6-13.4c0.3-7,6.2-12.6,14.4-12.7c18.1-0.2,36.2-0.2,54.3,0
		c7.7,0.1,12.9,3.9,13.3,12.3c0.4,7.5-4.8,13.3-13.1,13.7C450.7,641.4,441,641.1,431.3,641.1z"/>
	<path d="M97.2,641.1c-8.7,0-17.4,0.1-26.1,0c-8.4-0.2-15-6.2-15-13.1c0.1-7,6.7-12.9,15.1-13c17.4-0.1,34.8-0.2,52.2,0
		c8.4,0.1,15,6.2,15,13.1c-0.1,7-6.7,12.8-15.1,13C114.6,641.2,105.9,641.1,97.2,641.1z"/>
	<path d="M210.5,614.9c8.4,0,16.8-0.1,25.1,0c8.4,0.2,15.1,6.1,15.1,13c0,7-6.6,13-15,13.1c-17.4,0.2-34.8,0.2-52.2,0
		c-8.4-0.1-15-6-15.1-13c-0.1-6.9,6.6-12.9,15.1-13.1C192.5,614.8,201.5,614.9,210.5,614.9z"/>
	<path d="M349.3,138.9c1.9-21.3,5.2-27.7,14-27.4s12,6.7,13.2,28c8.5,0,17.1-0.1,25.7,0c10.6,0.1,15.1,4.1,15.1,13.2
		c0,9-4.6,12.9-15.2,13c-17.8,0.1-35.5,0-53.3,0c-15.1,0.1-28.5,13.2-28.8,28.1c-0.3,15.6,12.5,29.3,27.9,29.9
		c13.9,0.6,28.1-0.2,41.7,2.1c35.5,6,54.6,50.6,33.7,81.6c-9.6,14.2-21.7,23-38.7,25c-2.7,0.3-5.2,1.6-8.2,2.6
		c-0.9,10.7,3.2,24.7-13.5,26.7c-9,1.1-12.2-6-13.3-27.5c-8.5,0-17.1,0.4-25.6-0.1c-7.5-0.4-14.1-3-15.1-11.8
		c-1-9,3.5-14.1,12.7-14.2c17.8-0.2,35.5,0,53.3-0.1c15.2-0.1,28-10,31-24.1c2.7-12.6-5.4-26.5-19.4-32.2c-3-1.2-6.5-1.5-9.8-1.6
		c-12.6-0.7-25.4-0.4-37.9-2.1c-26.1-3.6-44-25.4-44.6-52c-0.6-25.5,14.5-47.5,42.1-54.5C340.4,140.5,344.6,139.9,349.3,138.9z"/>
</g>
</svg>
