<?xml version="1.0" encoding="utf-8"?>
<!-- Generator: Adobe Illustrator 22.1.0, SVG Export Plug-In . SVG Version: 6.00 Build 0)  -->
<svg version="1.1" id="Layer_1" xmlns="http://www.w3.org/2000/svg" xmlns:xlink="http://www.w3.org/1999/xlink" x="0px" y="0px"
	 viewBox="0 0 939.7 408.7" style="enable-background:new 0 0 939.7 408.7;" xml:space="preserve">
<style type="text/css">
	.st0{font-family:'IndianRupee-Regular';}
	.st1{font-size:215.7799px;}
</style>
<g>
	<g>
		<path d="M744.7,382.1c4.3-28.8,13.1-55.2,30.5-78c21.9-28.6,51.4-44,87.1-47.4c4.6-0.5,8.6-0.7,8.5-7c-0.2-31.8-0.1-63.5-0.2-95.3
			c0-0.5-0.4-1.1-0.7-1.9c-27.7-4.1-53.9-12.8-76.5-29.9c-29-21.9-44.8-51.5-47.8-87.6c-0.7-8.5-5.1-8.7-11.4-8.7
			c-117.5,0.1-235,0.1-352.5,0c-4.4,0-9.7-0.5-13.1-2.9c-3.2-2.3-6.4-7.6-6-11.2c0.3-3.7,4.4-7.9,7.9-10.3c2.8-1.9,7.2-1.8,10.8-1.8
			C501.1,0,620.9,0,740.8,0c24.5,0,49.1-0.1,73.6,0.1c20.5,0.2,39.8,4.8,55.7,18.7c14.5,12.7,25,28.6,25.4,48
			c1.3,65.7,1.5,131.5,2,197.2c0.2,21.4,0.5,42.7-0.1,64.1c-0.8,29.2-12,53.3-37.7,69.1c-13,8-27.6,11.3-42.5,11.3
			c-166.6,0.2-333.2,0.1-499.8,0.1c-2.3,0-4.8,0.3-6.9-0.4c-6.6-2.1-12.5-5.1-12.1-13.4c0.4-8.2,6.4-11.1,13.2-12.5
			c3.1-0.6,6.3-0.2,9.5-0.2c137.4,0,274.9,0,412.3,0C737,382.1,740.7,382.1,744.7,382.1z M771.3,24.8c0,57.5,45.3,96.7,98.5,100.9
			c0.3-0.5,0.7-1,0.7-1.5c0.1-16.7,0.2-33.5,0.2-50.2c0-19.2-13.3-40.5-32.1-44C816.9,26,794.3,26.4,771.3,24.8z M869.1,282.6
			c-54.4,0.1-93.3,45.4-97.6,98.7c0.5,0.2,1,0.7,1.5,0.7c16.1,0.1,32.3,0.2,48.4,0.2c22.1,0,43.6-13.9,46.9-35.5
			C871.6,325.9,869.1,304.3,869.1,282.6z"/>
		<path d="M394.4,221.6c-47.6,0-94.1,0.1-140.6-0.1c-4.2,0-9.2-0.3-12.3-2.6c-3.1-2.3-5.8-7.3-5.9-11.1c0-3.5,3-8.1,6.1-10.1
			c3.3-2.1,8.2-2.4,12.4-2.4c69.3-0.1,138.6-0.1,207.9-0.1c13.2,0,20.8,4.6,21,12.9c0.3,8.4-7.8,13.5-21.2,13.5c-13,0-25.9,0-38.9,0
			c0,31.4,31.4,78.7,82.5,90.9c54.9,13.1,111.8-14.6,132.5-73.1c18.9-53.3-2.9-111.3-55.1-139.1c-50.9-27-111.8-7.3-135.3,26.5
			c0.9,9.1,3.9,16.5,1.4,20.8c-2.4,4.2-10.4,7.3-15.9,7.3c-81.4,0.4-162.9,0.4-244.3,0c-5.1,0-11.6-2.5-15-6.2
			c-6-6.4-2.1-16.2,6.6-18.9c3.5-1.1,7.2-1.6,10.9-1.6c71.3-0.1,142.6-0.1,214,0.1c6.7,0,10.6-1.8,14.7-7.5
			c24.6-34.3,57.9-53.9,100.4-57.6c43.3-3.7,79.8,10.7,109.9,41c23.5,23.8,36.1,53,38.6,86.8c3.3,43.6-10.9,80.7-41.6,111.1
			c-23.1,22.9-51.4,35.8-84.4,38.4c-45,3.5-82.1-12.5-112.5-44.6c-17.4-18.4-28-40.9-33.6-65.6C396.1,227.5,395.3,224.8,394.4,221.6
			z"/>
	</g>
	<text transform="matrix(1 0 0 1 490.6086 288.7281)" class="st0 st1">`</text>
	<path d="M442.4,154.6H183.3c-6.9,0-12.5-5.6-12.5-12.5v-0.7c0-6.9,5.6-12.5,12.5-12.5h259c6.9,0,12.5,5.6,12.5,12.5v0.7
		C454.9,149,449.3,154.6,442.4,154.6z"/>
	<path d="M470.2,221.5h-222c-6.9,0-12.5-5.6-12.5-12.5v-0.7c0-6.9,5.6-12.5,12.5-12.5h222c6.9,0,12.5,5.6,12.5,12.5v0.7
		C482.7,215.9,477.1,221.5,470.2,221.5z"/>
	<path d="M255.1,275H122.6c-6.9,0-12.5-5.6-12.5-12.5v-0.7c0-6.9,5.6-12.5,12.5-12.5h132.5c6.9,0,12.5,5.6,12.5,12.5v0.7
		C267.6,269.4,262,275,255.1,275z"/>
	<path d="M373.4,275h-68.7c-6.9,0-12.5-5.6-12.5-12.5v-0.7c0-6.9,5.6-12.5,12.5-12.5h68.7c6.9,0,12.5,5.6,12.5,12.5v0.7
		C385.9,269.4,380.3,275,373.4,275z"/>
	<path d="M357,349.1H70.1c-6.9,0-12.5-5.6-12.5-12.5v-0.7c0-6.9,5.6-12.5,12.5-12.5h286.8c6.9,0,12.5,5.6,12.5,12.5v0.7
		C369.5,343.5,363.9,349.1,357,349.1z"/>
	<path d="M129.5,154.6h-117C5.6,154.6,0,149,0,142.1v-0.7c0-6.9,5.6-12.5,12.5-12.5h117c6.9,0,12.5,5.6,12.5,12.5v0.7
		C142,149,136.4,154.6,129.5,154.6z"/>
	<path d="M343.6,87.7H160.7c-6.9,0-12.5-5.6-12.5-12.5v-0.7c0-6.9,5.6-12.5,12.5-12.5h182.9c6.9,0,12.5,5.6,12.5,12.5v0.7
		C356.1,82.1,350.5,87.7,343.6,87.7z"/>
	<circle cx="410.6" cy="74.3" r="13.4"/>
	<circle cx="71" cy="261.6" r="13.4"/>
</g>
</svg>
