<svg xmlns="http://www.w3.org/2000/svg" width="13.153" height="17.538" viewBox="0 0 13.153 17.538">
  <g id="lock" transform="translate(0)" opacity="0.6">
    <g id="Group_42" data-name="Group 42">
      <path id="Path_108" data-name="Path 108" d="M76.788,6.577h-1.1V5.115a5.115,5.115,0,0,0-10.23,0V6.577h-1.1A.365.365,0,0,0,64,6.942v9.134a1.463,1.463,0,0,0,1.461,1.461h10.23a1.463,1.463,0,0,0,1.461-1.461V6.942A.365.365,0,0,0,76.788,6.577Zm-5.117,7.632a.365.365,0,0,1-.363.406H69.846a.365.365,0,0,1-.363-.406l.23-2.073a1.446,1.446,0,0,1-.6-1.175,1.461,1.461,0,0,1,2.923,0,1.446,1.446,0,0,1-.6,1.175ZM73.5,6.577H67.654V5.115a2.923,2.923,0,1,1,5.846,0Z" transform="translate(-64)" fill="#393f4d"/>
    </g>
  </g>
</svg>
