<svg xmlns="http://www.w3.org/2000/svg" xmlns:xlink="http://www.w3.org/1999/xlink" width="179.886" height="66.287" viewBox="0 0 179.886 66.287">
  <defs>
    <linearGradient id="linear-gradient" x1="0.516" y1="0.215" x2="0.5" y2="0.866" gradientUnits="objectBoundingBox">
      <stop offset="0" stop-color="#0a5697"/>
      <stop offset="0.497" stop-color="#0a5697"/>
      <stop offset="1" stop-color="#3aa9e6"/>
    </linearGradient>
  </defs>
  <g id="Group_180" data-name="Group 180" transform="translate(-87.197 -49)">
    <g id="Group_4" data-name="Group 4" transform="translate(0 -9.953)">
      <text id="DMI_FINANCE" data-name="DMI FINANCE" transform="translate(165.083 97.953)" fill="#0785bd" font-size="15" font-family="OpenSans-ExtraBold, Open Sans" font-weight="800"><tspan x="0" y="0">DMI FINANCE</tspan></text>
    </g>
    <g id="Objects" transform="translate(87.197 49)">
      <path id="Path_495" data-name="Path 495" d="M0,66.033C3.455,53.92,6.873,41.959,10.4,29.656c2.582,2.392,4.9,4.481,7.1,6.721a2.568,2.568,0,0,1,.152,2.088c-1.481,5.81-3,11.619-4.519,17.467-.152.608-.266,1.215-.494,2.2,2.62-.266,5.05-.494,7.442-.8,9.265-1.139,18.454-2.62,27.112-6.151a43.317,43.317,0,0,0,8.923-4.9c6.265-4.633,7.367-10.86,3.342-17.505-3.379-5.62-8.354-9.607-13.67-13.252-8.62-5.924-18-10.252-27.719-13.974a13.307,13.307,0,0,1-3-1.557c1.025.266,2.013.494,3.038.759,12.834,3.721,25.251,8.316,36.3,16.024a40.5,40.5,0,0,1,11.012,10.86c5.392,8.2,4.557,16.708-2.506,23.543C57.148,56.806,49.9,59.844,42.3,62.008,28.821,65.843,15.037,66.6,1.1,66.185.835,66.261.608,66.147,0,66.033Z" fill="url(#linear-gradient)"/>
      <path id="Path_496" data-name="Path 496" d="M65.7,102.331c.342-1.367.57-2.392.8-3.417,1.4-5.582,2.772-11.164,4.291-16.708a3.8,3.8,0,0,1,1.785-2.126c2.354-1.177,4.822-2.126,7.67-3.379-.57,2.088-1.025,3.721-1.481,5.316-1.595,5.734-3.19,11.467-4.709,17.2a2.237,2.237,0,0,1-2.126,1.975C69.953,101.458,68.016,101.913,65.7,102.331Z" transform="translate(-40.752 -47.576)" fill="url(#linear-gradient)"/>
      <path id="Path_497" data-name="Path 497" d="M39.8,111.214c1.557-6.151,3-11.847,4.443-17.505a1.614,1.614,0,0,1,.57-.949c2.734-1.253,5.468-2.43,8.582-3.759-.152.949-.228,1.4-.342,1.9-1.671,5.962-3.379,11.923-5.012,17.885a1.957,1.957,0,0,1-1.9,1.709C44.129,110.644,42.154,110.948,39.8,111.214Z" transform="translate(-24.687 -55.205)" fill="url(#linear-gradient)"/>
      <path id="Path_498" data-name="Path 498" d="M105.248,83c-.19.911-.266,1.481-.38,1.975-1.4,5.126-2.848,10.214-4.177,15.341a2.66,2.66,0,0,1-2.2,2.2c-2.013.456-3.987,1.1-6.189,1.709a13.171,13.171,0,0,1,.076-1.443c1.253-4.9,2.468-9.8,3.759-14.657.152-.57.418-1.329.873-1.557C99.629,85.316,102.287,84.253,105.248,83Z" transform="translate(-57.252 -51.483)" fill="url(#linear-gradient)"/>
      <path id="Path_499" data-name="Path 499" d="M105.6,73.512c.114-2.962.949-4.822,3.645-5.582a49.85,49.85,0,0,0,5.734-2.43c.3,2.62-.532,4.215-2.658,5.126S107.992,72.487,105.6,73.512Z" transform="translate(-65.502 -40.628)" fill="url(#linear-gradient)"/>
    </g>
  </g>
</svg>
