<svg xmlns="http://www.w3.org/2000/svg" width="26.718" height="28.773" viewBox="0 0 26.718 28.773">
  <g id="logout" transform="translate(-2)">
    <path id="Path_93" data-name="Path 93" d="M19.115,5.018A.514.514,0,1,0,18.827,6a12.331,12.331,0,1,1-6.921,0,.514.514,0,0,0-.287-.987,13.359,13.359,0,1,0,7.5,0Z" transform="translate(0 -2.427)"/>
    <path id="Path_94" data-name="Path 94" d="M27.514,13.873a.513.513,0,0,0,.514-.514V.514A.514.514,0,0,0,27,.514V13.359A.513.513,0,0,0,27.514,13.873Z" transform="translate(-12.155)"/>
  </g>
</svg>
