<svg xmlns="http://www.w3.org/2000/svg" width="36.834" height="46.701" viewBox="0 0 36.834 46.701">
  <g id="money-bag_2_" data-name="money-bag (2)" transform="translate(-13.582)">
    <g id="Group_288" data-name="Group 288" transform="translate(21.938 0)">
      <g id="Group_287" data-name="Group 287">
        <path id="Path_468" data-name="Path 468" d="M46.647,16.209a5.075,5.075,0,0,1-4.306-2.417L38.066,9.515a5.048,5.048,0,0,1,0-7.141,5.07,5.07,0,0,1,5.3-1.161,5.046,5.046,0,0,1,6.564,0,5.041,5.041,0,0,1,5.3,8.3L50.95,13.795A5.074,5.074,0,0,1,46.647,16.209Zm-3.4-3.034a3.952,3.952,0,0,0,6.808,0,.542.542,0,0,1,.1-.123l4.308-4.308a3.967,3.967,0,0,0,0-5.6,3.925,3.925,0,0,0-4.421-.8.544.544,0,0,1-.607-.11,3.956,3.956,0,0,0-5.568,0,.544.544,0,0,1-.606.11,3.953,3.953,0,0,0-4.42,6.4l4.314,4.315a.562.562,0,0,1,.092.116Z" transform="translate(-36.586 0)" fill="#fff"/>
      </g>
    </g>
    <g id="Group_291" data-name="Group 291" transform="translate(13.582 15.006)">
      <path id="Path_471" data-name="Path 471" d="M32,73.007c-9.565,0-18.417-1.351-18.417-11.152,0-9.3,8.215-20.543,18.417-20.543S50.416,52.55,50.416,61.855C50.416,71.656,41.565,73.007,32,73.007ZM32,42.4c-9.6,0-17.327,10.642-17.327,19.453,0,8.352,6.927,10.063,17.327,10.063s17.327-1.711,17.327-10.063C49.327,53.044,41.6,42.4,32,42.4Z" transform="translate(-13.582 -41.312)" fill="#fff"/>
    </g>
    <g id="Group_292" data-name="Group 292" transform="translate(24.503 13.757)">
      <path id="Path_472" data-name="Path 472" d="M58.64,39.939A2.065,2.065,0,0,1,56.575,42H45.714a2.065,2.065,0,0,1-2.065-2.066h0a2.066,2.066,0,0,1,2.065-2.066H56.575a2.066,2.066,0,0,1,2.065,2.066Z" transform="translate(-43.649 -37.873)" fill="#fff"/>
    </g>
    <path id="Path_474" data-name="Path 474" d="M55.619,32.153H50.995l1.477-1.477a.545.545,0,0,0-.77-.77l-1.513,1.513-1.513-1.513a.545.545,0,1,0-.771.771l1.477,1.477H44.758a2.611,2.611,0,0,0,0,5.222H55.619a2.611,2.611,0,0,0,0-5.222Zm0,4.131H44.758a1.521,1.521,0,0,1,0-3.042H55.619a1.521,1.521,0,0,1,0,3.042Z" transform="translate(-18.19 -18.942)" fill="#fff"/>
    <g id="Group_299" data-name="Group 299" transform="translate(29.869 1.303)">
      <path id="Path_480" data-name="Path 480" d="M58.966,9.619a.545.545,0,0,1-.495-.772c.075-.162,1.863-3.991,5.05-5.223a.545.545,0,1,1,.393,1.016c-2.77,1.07-4.436,4.625-4.453,4.661A.546.546,0,0,1,58.966,9.619Z" transform="translate(-58.422 -3.588)" fill="#fff"/>
    </g>
    <g id="Group_300" data-name="Group 300" transform="translate(26.365 1.116)">
      <path id="Path_481" data-name="Path 481" d="M49.318,7.317a.552.552,0,0,1-.142-.019.545.545,0,0,1-.384-.668,6.4,6.4,0,0,1,2.4-3.48.545.545,0,1,1,.556.937,5.348,5.348,0,0,0-1.9,2.827A.546.546,0,0,1,49.318,7.317Z" transform="translate(-48.773 -3.074)" fill="#fff"/>
    </g>
    <path id="Path_482" data-name="Path 482" d="M204.764,183.355h-.031l-2.2-.024a.484.484,0,0,0-.342.833l5.431,5.243a.484.484,0,1,0,.673-.7l-4.555-4.4.977.01h.041a3.781,3.781,0,0,0,3.738-3.251l1.733.019h.005a.484.484,0,0,0,.005-.969l-1.733-.019a3.771,3.771,0,0,0-1.2-2.336l2.955.032h.005a.484.484,0,1,0,.005-.969l-5.476-.059h0l-2.2-.024a.484.484,0,1,0-.01.969l2.2.024a2.811,2.811,0,0,1,2.739,2.352l-4.959-.053h-.005a.484.484,0,1,0-.005.969l4.959.053A2.811,2.811,0,0,1,204.764,183.355Z" transform="translate(-175.05 -151.504)" fill="#fff"/>
  </g>
</svg>
