<?xml version="1.0" encoding="utf-8"?>
<!-- Generator: Adobe Illustrator 22.1.0, SVG Export Plug-In . SVG Version: 6.00 Build 0)  -->
<svg version="1.1" id="Layer_1" xmlns="http://www.w3.org/2000/svg" xmlns:xlink="http://www.w3.org/1999/xlink" x="0px" y="0px"
	 viewBox="0 0 774.4 813.8" style="enable-background:new 0 0 774.4 813.8;" xml:space="preserve">
<style type="text/css">
	.st0{fill:none;stroke:#000000;stroke-width:26;stroke-miterlimit:10;}
</style>
<g>
	<path d="M496.7,196.2h-421c-6.9,0-12.5-5.6-12.5-12.5l0,0c0-6.9,5.6-12.5,12.5-12.5h421c6.9,0,12.5,5.6,12.5,12.5l0,0
		C509.2,190.6,503.6,196.2,496.7,196.2z"/>
	<path d="M469.7,420H292.4c-6.9,0-12.5-5.6-12.5-12.5l0,0c0-6.9,5.6-12.5,12.5-12.5h177.3c6.9,0,12.5,5.6,12.5,12.5l0,0
		C482.2,414.4,476.6,420,469.7,420z"/>
	<path d="M374.8,117.3H197.5c-6.9,0-12.5-5.6-12.5-12.5l0,0c0-6.9,5.6-12.5,12.5-12.5h177.3c6.9,0,12.5,5.6,12.5,12.5l0,0
		C387.3,111.7,381.7,117.3,374.8,117.3z"/>
	<path d="M496.7,247.8H75.3c-6.9,0-12.5-5.6-12.5-12.5l0,0c0-6.9,5.6-12.5,12.5-12.5h421.3c6.9,0,12.5,5.6,12.5,12.5l0,0
		C509.2,242.2,503.6,247.8,496.7,247.8z"/>
	<path d="M496.7,301H75.3c-6.9,0-12.5-5.6-12.5-12.5l0,0c0-6.9,5.6-12.5,12.5-12.5h421.3c6.9,0,12.5,5.6,12.5,12.5l0,0
		C509.2,295.4,503.6,301,496.7,301z"/>
	<path d="M496.7,354.3H80.5c-6.9,0-12.5-5.6-12.5-12.5l0,0c0-6.9,5.6-12.5,12.5-12.5h416.2c6.9,0,12.5,5.6,12.5,12.5l0,0
		C509.2,348.7,503.6,354.3,496.7,354.3z"/>
	<path class="st0" d="M287.4,505.1l-14.9,13.4c-42.1-21.7-95-16.5-132.3,17.1s-48,85.7-30.7,129.8l-14.9,13.4
		c-17,15.3-18.3,41.4-3,58.4l0,0c15.3,17,41.4,18.3,58.4,3l14.9-13.4c42.1,21.7,95,16.5,132.3-17.1s48-85.7,30.7-129.8l14.9-13.4
		c17-15.3,18.3-41.4,3-58.4l0,0C330.5,491.1,304.4,489.8,287.4,505.1z"/>
	<path class="st0" d="M343.6,566.5L149.8,741.1c-17.2,15.5-43.6,14.1-59.1-3.1l0,0c-15.5-17.2-14.1-43.6,3.1-59.1l193.7-174.6
		c17.2-15.5,43.6-14.1,59.1,3.1l0,0C362.1,524.5,360.7,551,343.6,566.5z"/>
	<path class="st0" d="M709.4,800.8H524.8c-28.8,0-52.1-23.3-52.1-52.1l0,0c0-28.8,23.3-52.1,46-52.1h184.6
		c34.8,0,58.1,23.3,58.1,52.1l0,0C761.5,777.4,738.2,800.8,709.4,800.8z"/>
	<path class="st0" d="M617.1,590.2H553l-22.6,20.6c-13.9,12.7-21.9,30.5-22,49.3l-0.3,36h109h109l-0.3-36
		c-0.2-18.8-8.1-36.6-22-49.3l-22.6-20.6C681.2,590.2,617.1,590.2,617.1,590.2z"/>
	<path class="st0" d="M563,590.6l110.5-0.8l19.1-278.3c0,0,0-76.2-74-76.2c-76.9,0-76.9,72-76.9,72L563,590.6z"/>
	<path class="st0" d="M617.1,226.1V47.3c0-18.9-15.4-34.3-34.3-34.3H47.3C28.4,13,13,28.4,13,47.3v719.2c0,18.9,15.4,34.3,34.3,34.3
		h500.2"/>
</g>
</svg>
