<?xml version="1.0" encoding="utf-8"?>
<!-- Generator: Adobe Illustrator 22.1.0, SVG Export Plug-In . SVG Version: 6.00 Build 0)  -->
<svg version="1.1" id="Layer_1" xmlns="http://www.w3.org/2000/svg" xmlns:xlink="http://www.w3.org/1999/xlink" x="0px" y="0px"
	 viewBox="0 0 754.4 754.2" style="enable-background:new 0 0 754.4 754.2;" xml:space="preserve">
<g>
	<path d="M80.4,56.5c0-14.4-0.1-27.7,0-41.1C80.5,3.2,83.6,0.1,95.7,0.1c18-0.1,36-0.1,53.9,0c11,0,14.4,3.5,14.5,14.6
		c0.1,13.6,0,27.3,0,41.4c37.7,0,74.8,0,113,0c0-13,0-26,0-39.1c0-14.1,2.8-16.9,16.8-16.9c18,0,36-0.1,53.9,0
		C358.3,0.2,362,3.8,362,14.2c0.1,13.9,0,27.7,0,42c37.8,0,74.9,0,113,0c0-13.1,0-25.9,0-38.7c0-14.7,2.7-17.4,17.2-17.4
		c18,0,36-0.1,53.9,0c10.2,0.1,13.7,3.6,13.8,13.6c0.1,13.4,0,26.8,0,41.5c10.7,0,20.9,0,31.2,0c13.9,0,25.7,4.8,35.2,15.1
		c9,9.8,12.7,21.4,12.7,34.7c-0.1,124.6-0.1,249.2-0.1,373.8c0,3.2,0,6.4,0,10.5c3.6,0,6.3,0,9,0c23,0,46.1-0.1,69.1,0
		c22,0.2,37.3,15.3,37.3,37.3c0.1,63.3,0.1,126.6,0,189.9c0,22.5-15.2,37.7-37.7,37.7c-101,0.1-202.1,0.1-303.1,0
		c-21.7,0-37.4-15.7-37.5-37.4c-0.2-34.4-0.1-68.9-0.1-103.3c0-3,0-6,0-10c-3.5,0-6.4,0-9.4,0c-105.3,0-210.7,0-316,0
		C18.7,603.5,0,584.8,0,553c0-148.9,0-297.8,0-446.7c0-31.2,18.8-49.9,50.2-49.9c7.3,0,14.7,0,22,0C74.8,56.5,77.1,56.5,80.4,56.5z
		 M23.7,194.9c0,3,0,5.2,0,7.5c0,117.5,0,235,0,352.5c0,17.7,8.5,26.1,26.1,26.1c106.1,0,212.2,0,318.3,0c2.5,0,4.9-0.2,7.1-0.3
		c0.4-1,0.7-1.4,0.7-1.9c0.1-17.2,0-34.4,0.2-51.7c0.2-22.2,15.7-37.6,37.9-37.8c18-0.1,36,0,53.9,0c2.7,0,5.3,0,8.4,0
		c0-8.8-0.1-16.4,0-24c0.2-9.9,3.9-13.7,13.9-13.8c25.3-0.1,50.6-0.1,76,0c10.1,0,13.7,3.6,13.9,13.6c0.1,7.8,0,15.5,0,23.5
		c12.3,0,23.5,0,35.1,0c0-98.2,0-195.8,0-293.8C418.2,194.9,221.5,194.9,23.7,194.9z M730.9,575.6c-109.9,0-219.4,0-329.8,0
		c0,3.4,0,6.4,0,9.4c0,42.8,0,85.6,0,128.3c0,13.4,4.3,17.7,17.7,17.7c98.2,0,196.4,0,294.6,0c13.4,0,17.8-4.4,17.8-17.7
		c0-43.3,0-86.6,0-129.9C731.3,580.9,731,578.5,730.9,575.6z M79.4,79c-11.4,0-21.5-0.1-31.6,0c-12.9,0.1-23.2,8.1-23.6,20.9
		c-0.8,23.7-0.2,47.5-0.2,71.6c197.4,0,394.3,0,591.5,0c0-24,0.4-47.5-0.2-71c-0.2-9.2-5.7-17.7-14.9-18.9
		c-13-1.7-26.4-0.4-40.2-0.4c0,13.8,0,27.1,0,40.5c-0.1,11.5-3.5,15-14.9,15c-17.7,0.1-35.5,0-53.2,0c-13.4,0-16.7-3.3-16.7-16.5
		c0-13.1,0-26.2,0-39.7c-38,0-75.1,0-113,0c0,14,0,27.6,0,41.2c0,11.3-3.7,14.9-15.1,15c-18,0.1-36,0.1-53.9,0
		c-12.4,0-15.9-3.5-15.9-15.7c0-13.4,0-26.7,0-40.2c-38,0-75.3,0-113,0c0,14.1,0.2,27.5-0.1,40.9c-0.2,10-4.1,13.7-14,13.7
		c-18.7,0.1-37.5,0.1-56.2,0c-11,0-14.5-3.5-14.5-14.5C79.3,107.3,79.4,93.7,79.4,79z M401.5,551.2c110.1,0,219.6,0,329,0
		c0.3-1.2,0.7-1.9,0.7-2.6c0.1-6.6,0.2-13.2,0.1-19.7c-0.1-11.9-4.7-16.3-16.8-16.3c-60.2,0-120.5,0-180.7,0c-39,0-78,0-116.9,0
		c-8.8,0-14.6,3.6-15.2,10.5C400.9,532.4,401.5,541.7,401.5,551.2z M104.3,23.8c0,30,0,59.2,0,88.6c12.6,0,24.8,0,37,0
		c0-29.8,0-59,0-88.6C128.9,23.8,116.9,23.8,104.3,23.8z M536.3,112.7c0-30.1,0-59.3,0-88.9c-12.5,0-24.5,0-36.7,0
		c0,29.9,0,59.3,0,88.9C512,112.7,523.8,112.7,536.3,112.7z M338,111.4c0-29.4,0-58.3,0-87.4c-12.5,0-24.4,0-36.4,0
		c0,29.5,0,58.5,0,87.4C314,111.4,325.8,111.4,338,111.4z M557.7,475.5c-19.2,0-37.5,0-55.8,0c0,4.8,0,9,0,13.1
		c18.9,0,37.2,0,55.8,0C557.7,484.1,557.7,480.1,557.7,475.5z"/>
	<path d="M320.8,264.1c61.9-0.1,112.1,50.1,111.9,112c-0.1,61.7-49.8,111.6-111.4,111.9s-112.2-49.9-112.5-111.7
		C208.6,314.6,258.9,264.2,320.8,264.1z M319.8,464.3c49.6-0.1,88.2-38.1,88.2-87c0-50.2-39-89.7-88.5-89.7
		c-48.7,0-88.2,39.7-88.1,88.6C231.5,425.2,270.8,464.3,319.8,464.3z"/>
	<path d="M111,545.8c-12.4,0-24.8,0-37.2,0c-10.7,0-14.5-3.5-14.5-13.8c-0.2-22-0.2-44,0-66c0.1-9.6,3.8-13.1,13.6-13.2
		c25-0.1,50.1-0.1,75.1,0c10.2,0,14.9,4.7,15,14.8c0.1,21.5,0.1,43,0,64.5c-0.1,9.8-4.1,13.6-14,13.7
		C136.3,545.9,123.7,545.8,111,545.8z M83.1,476.5c0,15.2,0,30,0,45.1c18.7,0,37,0,55.7,0c0-15.2,0-30,0-45.1
		C120.2,476.5,102.1,476.5,83.1,476.5z"/>
	<path d="M110.6,322.8c-12.6,0-25.3,0.1-37.9,0c-9.7-0.1-13.3-3.6-13.4-13.3c-0.1-22-0.1-44,0-66c0.1-10,3.9-13.6,14-13.6
		c24.8-0.1,49.6-0.1,74.4,0c10.4,0,15.3,4.9,15.4,15.3c0.1,21.3,0.1,42.5,0,63.8c0,10-3.8,13.8-13.7,13.9
		C136.4,322.9,123.5,322.8,110.6,322.8z M83,298.8c19.2,0,37.5,0,55.6,0c0-15.4,0-30.2,0-44.8c-18.9,0-37.2,0-55.6,0
		C83,269.3,83,283.9,83,298.8z"/>
	<path d="M110.9,433.6c-12.6,0-25.3,0.1-37.9,0c-9.9-0.1-13.6-3.4-13.6-13c-0.2-22.2-0.2-44.5,0-66.8c0.1-9.5,3.9-13.1,13.6-13.2
		c25-0.1,50.1-0.1,75.1,0c9.6,0,15,5.4,15,15.1c0.1,21.5,0.1,43,0,64.5c-0.1,9.4-4,13.3-13.4,13.4
		C136.7,433.7,123.8,433.6,110.9,433.6z M138.9,365.9c-19.2,0-37.5,0-55.6,0c0,15.4,0,30.2,0,44.8c18.9,0,37.2,0,55.6,0
		C138.9,395.4,138.9,380.9,138.9,365.9z"/>
	<path d="M529.2,322.8c-12.4,0-24.8,0-37.2,0c-10.7-0.1-14.3-3.5-14.3-13.9c-0.1-21.8-0.1-43.5,0-65.3c0-9.9,3.9-13.8,13.8-13.8
		c25.3-0.1,50.6-0.1,75.9,0c10,0,13.8,3.8,13.9,13.7c0.1,22,0.1,44,0,66c0,9.6-3.7,13.2-13.3,13.3
		C555,322.9,542.1,322.8,529.2,322.8z M557.6,299.1c0-15.5,0-30.1,0-45.1c-18.7,0-37,0-55.6,0c0,15.2,0,30.2,0,45.1
		C520.7,299.1,538.8,299.1,557.6,299.1z"/>
	<path d="M529.8,434.9c-12.6,0-25.3,0.1-37.9,0c-9.7-0.1-14-4.2-14.1-13.7c-0.1-22-0.1-44,0-66c0-9.5,3.8-13.2,13.4-13.3
		c25.5-0.1,51.1-0.1,76.6,0c10,0,13.5,3.6,13.5,13.8c0.1,21.7,0.1,43.5,0,65.2c0,10.1-3.7,13.8-13.6,13.9
		C555.1,435,542.4,434.9,529.8,434.9z M557.6,364.7c-18.9,0-37.2,0-55.8,0c0,15.3,0,30.1,0,45.1c18.8,0,37.1,0,55.8,0
		C557.6,394.7,557.6,380.2,557.6,364.7z"/>
	<path d="M671.4,697.8c-9.9,0-19.7,0.1-29.6,0c-9-0.1-13.2-4-13.3-12.9c-0.2-20-0.2-40,0-60c0.1-8.9,4.2-13.1,13.1-13.2
		c19.7-0.2,39.5-0.2,59.2,0c9.1,0.1,13.8,5.1,13.9,14.4c0.1,19.2,0.1,38.5,0,57.7c0,10.3-3.9,13.9-14.4,14
		C690.6,697.8,681,697.8,671.4,697.8z M652.9,635.8c0,13,0,25.5,0,37.8c12.9,0,25.1,0,37.6,0c0-12.8,0-25.1,0-37.8
		C677.9,635.8,665.7,635.8,652.9,635.8z"/>
	<path d="M444.3,697.7c-3,0-6.1,0.2-9.1,0c-6.5-0.6-10.6-5.2-10.5-11.7c0.1-6.4,3.2-10.9,9.8-11.4c6.8-0.5,13.7-0.6,20.4,0
		s10,5.4,9.6,12.2c-0.4,6.6-4,10.2-10.4,10.9C450.9,698,447.6,697.7,444.3,697.7z"/>
	<path d="M510.8,697.8c-3,0-6.1,0.2-9.1-0.1c-6.7-0.5-10.7-4.7-10.9-11.3s3.4-11.3,10.1-11.9c6.3-0.5,12.7-0.6,18.9-0.2
		c7,0.5,11.2,5.4,11,12c-0.2,6.7-4.5,10.9-11.7,11.4C516.3,697.9,513.5,697.8,510.8,697.8z"/>
	<path d="M576.6,697.8c-3,0-6.1,0.2-9.1,0c-6.7-0.6-10.6-4.9-10.8-11.4c-0.1-6.7,3.3-11.2,10.2-11.8c6.3-0.5,12.6-0.5,18.9-0.1
		c7.3,0.5,10.9,5,10.7,12c-0.2,6.9-4.3,10.9-11.6,11.3C582.2,697.9,579.4,697.8,576.6,697.8L576.6,697.8z"/>
	<path d="M281.6,373.2c27.1,0.7,37-4.2,40.8-20.4c-14.9,0-29.5,0-45.2,0c3.7-7.7,6.9-13,16-12c8.5,0.9,17.1,0.2,26.8,0.2
		c-4.7-8.2-11.7-10.5-19.2-11.1s-15-0.1-23.4-0.1c3.5-8.7,7.4-12.7,16.6-12.4c22,0.8,44,0.3,66.2,0.3c-2.6,15.7-15.2,10.5-25.3,12.1
		c3.1,4.3,1.1,11.3,9,11.2c5.3-0.1,10.6,0,16,0c-2.5,9.8-3.8,10.6-19.9,12.2c-4.8,19.5-19.5,26.7-39.2,29.1
		c15.2,18,29.9,35.4,45.1,53.5c-12.2,1.8-21.8,1.4-29.6-9.7c-9.1-13-20.2-24.7-30.9-36.4C280.9,384.6,280.3,379.6,281.6,373.2z"/>
</g>
</svg>
