<svg height="512pt" viewBox="0 0 512.00075 512" width="512pt" xmlns="http://www.w3.org/2000/svg"><path d="m110.382812 434.714844c2.929688 2.929687 7.675782 2.929687 10.605469 0 2.929688-2.925782 2.929688-7.675782 0-10.605469l-33.097656-33.097656c-2.929687-2.929688-7.675781-2.929688-10.605469 0-2.929687 2.929687-2.929687 7.679687 0 10.605469zm0 0"/><path d="m155.4375 392.820312c5.542969-10.140624 4.035156-23.140624-4.542969-31.714843-8.753906-8.753907-21.789062-10.003907-31.722656-4.546875l-15.332031-15.335938c-2.929688-2.925781-7.679688-2.925781-10.609375 0l-50.054688 50.054688c-2.925781 2.929687-2.929687 7.679687 0 10.609375l10.257813 10.253906c2.925781 2.929687 7.675781 2.929687 10.605468 0 2.929688-2.929687 2.929688-7.679687 0-10.605469l-4.953124-4.953125 39.449218-39.449219 10.035156 10.039063c-5.542968 10.140625-4.035156 23.140625 4.542969 31.714844 8.753907 8.757812 21.789063 10.007812 31.722657 4.550781l10.03125 10.03125-39.449219 39.445312-26.632813-26.632812c-2.929687-2.925781-7.675781-2.925781-10.605468 0-2.929688 2.929688-2.929688 7.679688 0 10.609375l31.9375 31.933594c2.925781 2.929687 7.675781 2.929687 10.605468 0l50.054688-50.054688c2.925781-2.925781 2.929687-7.675781 0-10.605469zm-31.71875-4.539062c-4.566406-4.566406-4.566406-12 0-16.570312 4.582031-4.578126 11.988281-4.578126 16.570312 0 4.566407 4.570312 4.566407 12.003906 0 16.570312-4.582031 4.578125-11.988281 4.578125-16.570312 0zm0 0"/><path d="m420.207031 143.289062h-15.050781c-3.058594 0-4.578125-3.660156-2.414062-5.824218l28.304687-28.304688c7.867187-7.867187 8.128906-21.132812.570313-28.972656-7.707032-7.992188-20.824219-8.65625-29.207032-.273438-34.929687 34.929688-34.171875 34.164063-34.171875 34.164063-.050781.003906-.21875-.054687-.25-.09375-.019531-.0625-.011719-44.050781-.011719-44.117187 0-11.152344-8.558593-20.292969-19.484374-20.808594-11.964844-.566406-21.445313 9.054687-21.445313 20.441406v24.21875c0 4.144531 3.359375 7.5 7.5 7.5 4.144531 0 7.5-3.355469 7.5-7.5v-24.21875c0-3.105469 2.589844-5.613281 5.738281-5.457031 2.863282.136719 5.191406 2.75 5.191406 5.824219v43.992187c0 13.515625 16.382813 20.316406 25.953126 10.75l34.085937-34.085937c2.105469-2.105469 5.625-2.183594 7.800781.074218 1.949219 2.019532 1.765625 5.8125-.378906 7.957032l-28.300781 28.300781c-11.578125 11.574219-3.367188 31.433593 13.019531 31.433593h15.050781c3.074219 0 5.6875 2.328126 5.820313 5.191407.152344 3.175781-2.371094 5.738281-5.457032 5.738281h-61.207031c-9.570312 0-17.316406-7.742188-17.316406-17.316406v-23.183594c0-4.140625-3.355469-7.5-7.5-7.5-4.140625 0-7.5 3.359375-7.5 7.5v15.835938c-7.300781-4.984376-17.363281-4.25-23.835937 2.226562-5.363282 5.359375-6.792969 13.203125-4.285157 19.890625l-42.511719 39.824219c-21.6875 20.320312-46.601562 36.402344-74.046874 47.800781l-34.609376 14.375c-18.265624 7.582031-34.613281 18.519531-48.597656 32.5l-89.367187 89.371094c-13.058594 13.054687-13.058594 34.300781 0 47.359375l64.304687 64.304687c13.058594 13.058594 34.300782 13.058594 47.359375 0l89.367188-89.367187c13.984375-13.980469 24.917969-30.332032 32.503906-48.597656l14.375-34.609376c17.246094-41.523437 39.019531-64.367187 54.476563-81.410156 2.785156-3.066406 2.554687-7.8125-.515626-10.59375-3.066406-2.785156-7.8125-2.550781-10.59375.515625-10.671874 11.765625-26.898437 28.253907-43.242187 57.132813h-15.308594c-2.886719-12.808594-12.988281-22.914063-25.796875-25.796875v-15.308594c18.003906-10.191406 34.726563-22.46875 49.949219-36.726563l46.945313-43.980468c3.085937-2.894532 3.167968-7.765625.1875-10.761719-3.5-3.523437 1.824218-8.832031 5.335937-5.316406l35.46875 35.472656c1.46875 1.464844 1.476563 3.851563 0 5.324219-1.460937 1.464844-3.847656 1.464844-5.316406.007812-2.992188-2.972656-7.828125-2.886718-10.71875.148438l-13.449219 14.128906c-2.859375 3-2.742188 7.746094.257812 10.605469 3 2.855469 7.75 2.738281 10.605469-.261719l9.289063-9.757812c6.695312 2.535156 14.566406 1.109374 19.941406-4.261719 6.664062-6.667969 7.324219-17.144531 1.6875-24.574219h53.664062c11.414063 0 21.003907-9.492188 20.441407-21.445312-.511719-10.925782-9.652344-19.484376-20.804688-19.484376zm-219.988281 258.945313-89.367188 89.367187c-7.210937 7.207032-18.9375 7.207032-26.148437 0l-64.300781-64.304687c-7.210938-7.207031-7.210938-18.9375 0-26.148437l89.367187-89.367188c12.585938-12.585938 27.300781-22.429688 43.742188-29.257812l19.21875-7.980469v57.226562c0 4.140625 3.359375 7.5 7.5 7.5h57.226562l-7.980469 19.222657c-6.828124 16.4375-16.671874 31.15625-29.257812 43.742187zm9.003906-118.582031c10.546875 0 19.125 8.578125 19.125 19.125 0 4.140625 3.359375 7.5 7.5 7.5h14.125c-2.46875 5.109375-4.421875 9.503906-6.285156 13.992187h-55.957031v-55.957031l.390625-.160156c4.605468-1.914063 9.136718-3.964844 13.605468-6.125v14.125c-.003906 4.140625 3.355469 7.5 7.496094 7.5zm0 0"/><path d="m509.804688 33.566406-31.371094-31.371094c-2.929688-2.925781-7.675782-2.925781-10.605469 0l-16.972656 16.972657c-2.816407 2.816406-2.914063 7.308593-.316407 10.253906l-16.632812 16.632813c-2.925781 2.929687-2.925781 7.679687 0 10.609374l21.429688 21.429688c2.929687 2.925781 7.679687 2.925781 10.609374 0l16.628907-16.632812c1.367187 1.203124 3.125 1.878906 4.953125 1.878906 1.988281 0 3.898437-.789063 5.304687-2.195313l16.972657-16.972656c2.929687-2.929687 2.929687-7.675781 0-10.605469zm-49.164063 28.617188-10.824219-10.824219 11.3125-11.3125 10.824219 10.824219zm26.890625-16.949219-20.765625-20.765625 6.367187-6.363281 20.761719 20.761719zm0 0"/><path d="m391.390625 65.859375c0 4.136719-3.355469 7.496094-7.496094 7.496094s-7.496093-3.359375-7.496093-7.496094c0-4.140625 3.355468-7.496094 7.496093-7.496094s7.496094 3.355469 7.496094 7.496094zm0 0"/><path d="m461.0625 103.574219c0 4.140625-3.355469 7.496093-7.496094 7.496093s-7.496094-3.355468-7.496094-7.496093 3.355469-7.496094 7.496094-7.496094 7.496094 3.355469 7.496094 7.496094zm0 0"/><path d="m462.0625 152.714844c0 4.140625-3.355469 7.496094-7.496094 7.496094s-7.496094-3.355469-7.496094-7.496094 3.355469-7.496094 7.496094-7.496094 7.496094 3.355469 7.496094 7.496094zm0 0"/></svg>