<svg id="confetti" xmlns="http://www.w3.org/2000/svg" width="511.995" height="512.001" viewBox="0 0 511.995 512.001">
  <path id="Path_546" data-name="Path 546" d="M145.068,460.8a25.249,25.249,0,0,1,10.98,2.563l.051-.078,66.617-66.645,76.2-279.41a8.532,8.532,0,0,1,13.984-4.055l92.621,84.562a8.32,8.32,0,0,1,2.168,1.98l101.52,92.652a8.535,8.535,0,0,1-2.75,14.3L235.108,408.418l-66.949,66.949-.078.051a25.264,25.264,0,0,1,2.586,10.984,25.6,25.6,0,1,1-25.6-25.6ZM311.756,135.192,307,152.626a7.638,7.638,0,0,1,.2.98V363.157l34.227-12.8c0-.152-.094-.289-.094-.453V162.192Zm80.773,73.75L358.4,177.77V343.954l34.133-12.8ZM409.6,324.755l34.133-12.8V256c0-.094.051-.172.051-.266L409.6,224.525Zm51.2-53.484v34.285l26.613-9.98ZM290.131,369.556V214.482L243.018,387.22ZM145.068,494.935a8.533,8.533,0,1,0-8.535-8.531A8.532,8.532,0,0,0,145.068,494.935Zm0,0" transform="translate(-119.467 0.001)" fill="#010101"/>
  <path id="Path_547" data-name="Path 547" d="M68.27,85.34A34.133,34.133,0,1,1,34.137,51.207,34.132,34.132,0,0,1,68.27,85.34ZM34.137,68.273A17.066,17.066,0,1,0,51.2,85.34,17.066,17.066,0,0,0,34.137,68.273Zm0,0" transform="translate(443.722 0.001)" fill="#010101"/>
  <path id="Path_548" data-name="Path 548" d="M264.532,85.34A34.133,34.133,0,1,1,230.4,51.207,34.132,34.132,0,0,1,264.532,85.34Zm-51.2,0A17.066,17.066,0,1,0,230.4,68.273,17.066,17.066,0,0,0,213.332,85.34Zm0,0" transform="translate(51.198 0.001)" fill="#010101"/>
  <path id="Path_549" data-name="Path 549" d="M298.682,93.875a8.786,8.786,0,0,1-1.863-.207,8.529,8.529,0,0,1-6.484-10.176v0L307.4,6.691a8.541,8.541,0,1,1,16.676,3.7l-17.066,76.8a8.541,8.541,0,0,1-8.328,6.684Zm0,0" transform="translate(-102.416 0.001)" fill="#010101"/>
  <path id="Path_550" data-name="Path 550" d="M102.04,245.023a8.527,8.527,0,0,1-5.723,10.621l-85.332,25.6a8.535,8.535,0,1,1-4.9-16.352l85.332-25.6a8.533,8.533,0,0,1,10.621,5.723Zm0,0" transform="translate(409.593 0.001)" fill="#010101"/>
  <path id="Path_551" data-name="Path 551" d="M175.8,1.6a8.534,8.534,0,0,1,2.016,11.9l-.035.047L92.45,133.008a8.534,8.534,0,0,1-14.258-9.383c.121-.184.25-.359.383-.535L163.908,3.625A8.531,8.531,0,0,1,175.8,1.6Zm0,0" transform="translate(255.815 0.001)" fill="#010101"/>
  <path id="Path_552" data-name="Path 552" d="M158.72,177.5,90.454,228.7a8.532,8.532,0,1,1-10.238-13.652l68.266-51.2A8.534,8.534,0,0,1,158.72,177.5Zm0,0" transform="translate(273.061 0.001)" fill="#010101"/>
  <path id="Path_553" data-name="Path 553" d="M62.465,314.906,49.973,294.25l-14.606,8.832,12.5,20.656Zm0,0" transform="translate(414.164 0.001)" fill="#010101"/>
  <path id="Path_554" data-name="Path 554" d="M42.227,164.844l-16.184-5.4L17.5,185.039l16.18,5.4Zm0,0" transform="translate(452.265 0.001)" fill="#010101"/>
  <path id="Path_555" data-name="Path 555" d="M116.969,99.91,104.9,87.84,87.836,104.906l12.07,12.066Zm0,0" transform="translate(307.191 0.001)" fill="#010101"/>
  <path id="Path_556" data-name="Path 556" d="M234.211,145.977l-17.066-8.531-7.629,15.262,17.063,8.535Zm0,0" transform="translate(68.268 0.001)" fill="#010101"/>
  <path id="Path_557" data-name="Path 557" d="M159.637,14.578,147.57,2.512,130.508,19.578l12.066,12.066Zm0,0" transform="translate(221.851 0.001)" fill="#010101"/>
  <path id="Path_558" data-name="Path 558" d="M51.2.008H25.6V17.074H51.2Zm0,0" transform="translate(435.191 0.001)" fill="#010101"/>
  <path id="Path_559" data-name="Path 559" d="M262.031,28.109,244.964,11.043,232.9,23.113l17.066,17.062Zm0,0" transform="translate(17.067 0.001)" fill="#010101"/>
  <path id="Path_560" data-name="Path 560" d="M432.7,53.711,415.636,36.645l-12.07,12.07,17.066,17.063Zm0,0" transform="translate(-324.269 0.001)" fill="#010101"/>
  <path id="Path_561" data-name="Path 561" d="M17.07,366.934H0v25.6H17.07Zm0,0" transform="translate(494.922 0.001)" fill="#010101"/>
  <path id="Path_562" data-name="Path 562" d="M364.43,14.574,352.363,2.508,335.3,19.57l12.066,12.07Zm0,0" transform="translate(-187.735 0.001)" fill="#010101"/>
  <path id="Path_563" data-name="Path 563" d="M415.633,134.039l-12.066-12.066L386.5,139.035,398.57,151.1Zm0,0" transform="translate(-290.137 0.001)" fill="#010101"/>
  <path id="Path_564" data-name="Path 564" d="M116.965,395.031,99.9,377.965l-12.066,12.07L104.9,407.1Zm0,0" transform="translate(307.199 0.001)" fill="#010101"/>
  <path id="Path_565" data-name="Path 565" d="M494.929,51.207H477.863v25.6h17.066Zm0,0" transform="translate(-460.797 0.001)" fill="#010101"/>
  <path id="Path_566" data-name="Path 566" d="M93.867,226.137a12.8,12.8,0,1,1-12.8-12.8A12.8,12.8,0,0,1,93.867,226.137Zm-12.8-4.266a4.268,4.268,0,1,0,4.27,4.266A4.266,4.266,0,0,0,81.066,221.871Zm0,0" transform="translate(349.859 0.001)" fill="#010101"/>
  <path id="Path_567" data-name="Path 567" d="M371.2,93.875a12.8,12.8,0,1,1,12.8-12.8A12.8,12.8,0,0,1,371.2,93.875Zm0-17.066a4.266,4.266,0,1,0,4.27,4.266A4.266,4.266,0,0,0,371.2,76.809Zm0,0" transform="translate(-230.398 0.001)" fill="#010101"/>
  <path id="Path_568" data-name="Path 568" d="M192,17.074a12.8,12.8,0,1,1-12.8,12.8A12.8,12.8,0,0,1,192,17.074Zm0,17.066a4.268,4.268,0,1,0-4.27-4.266A4.266,4.266,0,0,0,192,34.141Zm0,0" transform="translate(127.996 0.001)" fill="#010101"/>
  <path id="Path_569" data-name="Path 569" d="M110.934,345.6a12.8,12.8,0,1,1-12.8-12.8,12.8,12.8,0,0,1,12.8,12.8Zm-17.066,0a4.268,4.268,0,1,0,4.266-4.266A4.269,4.269,0,0,0,93.867,345.6Zm0,0" transform="translate(315.726 0.001)" fill="#010101"/>
  <path id="Path_570" data-name="Path 570" d="M196.27,183.473a12.8,12.8,0,1,1-12.8-12.8A12.8,12.8,0,0,1,196.27,183.473Zm-12.8-4.266a4.266,4.266,0,1,0,4.27,4.266A4.266,4.266,0,0,0,183.469,179.207Zm0,0" transform="translate(145.058 0.001)" fill="#010101"/>
</svg>
