<?xml version="1.0" encoding="utf-8"?>
<!-- Generator: Adobe Illustrator 22.1.0, SVG Export Plug-In . SVG Version: 6.00 Build 0)  -->
<svg version="1.1" id="Layer_1" xmlns="http://www.w3.org/2000/svg" xmlns:xlink="http://www.w3.org/1999/xlink" x="0px" y="0px"
	 viewBox="0 0 570.3 639.2" style="enable-background:new 0 0 570.3 639.2;" xml:space="preserve">
<path d="M27.5,639.2c-3.6-3-7-6.2-5.9-11.5c1.1-5.4,5.2-7.3,10.2-8.7c32-8.9,64-18.1,96-27.2c8.7-2.5,10.7-5.9,8.9-14.7
	c-6.1-30.4-12.2-60.8-18.2-91.2c-2.2-11-5.6-13.3-16.5-10.6c-14.6,3.5-29.1,7.1-43.6,10.6c-1.2,0.3-2.4,0.7-3.6,0.8
	c-6.1,0.8-10.8-2-12.1-7.3c-1.4-5.4,1.8-10.7,7.9-12.2c17.8-4.4,35.5-9.1,53.4-12.5c13.5-2.6,23.7,4.1,31.5,17.1
	c3.6-2.9,7.6-5.1,10.2-8.5c13.9-18.4,32.1-31.5,51.7-42.7c18.6-10.7,33.8-25.6,50.3-38.8c1.3-1.1,2.3-3.5,2.3-5.3
	c0.1-42,14.8-79.3,38.5-112.9c20-28.3,42.6-54.9,63.9-82.3c4.7-6.1,9.2-12.4,14.1-18.3c1.6-1.9,4.5-3.7,6.9-3.7
	c24.4-0.3,48.7-0.2,73.1,0c2.1,0,4.9,1.2,6.2,2.7c18.6,22.7,37.3,45.3,55.4,68.4c21.8,27.8,41.5,56.9,52.6,90.8
	c10,30.6,13.7,61.8,3.5,93.2c-9.9,30.3-31,51-58.9,64.6c-13.5,6.5-28.4,10.5-42.8,15c-4.5,1.4-7.9,2.4-8.9,7.7
	c-0.6,2.9-2.6,5.5-4.8,9.6c12.6,0,24.2,0.1,35.8,0c21.2-0.2,35.2,17.1,29.3,36.2c-2.7,8.7-8.7,14.8-16.9,17.1
	c-12.7,3.6-25.8,6.7-38.9,7.8c-38,3.2-76.1,4.4-114,8c-61.7,5.9-123.5,5.5-185.3,8.6c-0.6,0-1.2,0.2-2.2,0.3
	c-4.1,13.2-14.1,19.2-27.1,22.6c-29.3,7.8-58.5,16.4-87.6,24.7c-1.9,0.5-3.7,1.5-5.6,2.3C33.3,639.2,30.4,639.2,27.5,639.2z
	 M271.1,360.7c2.3-1.9,3.6-3.2,5-4.2c10.3-7.8,20.2-16,30.9-23.2c11.7-7.9,26.8-3.8,33.9,8.5c5.7,10,5.5,20.6-0.2,29.8
	c-9.8,15.7-20.9,30.5-31.8,45.4c-5.2,7.2-11.4,13.7-17.4,20.9c13.6,12.7,27.8,23.6,45,30.2c29.3,11.1,59.8,12,90.5,10.8
	c22.2-0.9,43.8-4.9,64.1-14.4c27-12.6,47.7-31.4,55.6-61.1c6.1-22.7,3.4-45.4-2.7-67.8c-8.2-29.6-23.7-55.5-42.1-79.5
	c-19.2-25.1-39.6-49.4-59.7-73.8c-1.3-1.6-4.2-2.6-6.3-2.6c-17.3-0.2-34.6-0.3-51.9,0c-2.4,0-5.5,1.6-7.1,3.5
	c-10.4,12.2-20.4,24.8-30.7,37c-23.9,28.4-46.5,57.7-61.8,91.9C277.7,327.1,273,342.9,271.1,360.7z M155.4,569c4,0,7.7,0.2,11.4,0
	c59.7-2.9,119.4-5.7,179.1-8.8c32.9-1.7,65.7-3.7,98.5-6.1c13.4-1,26.9-3.1,40.1-5.6c8.2-1.6,11.6-6.1,10.3-11
	c-1.8-6.9-7.7-5.8-12.8-6c-28.7-0.8-57.5-0.7-86.2-2.6c-34.3-2.3-68.2-8.1-100.8-19.7c-14.2-5-27.9-11-38.4-22.5
	c-10-10.9-11.3-24.4-3.1-36.7c3.7-5.5,8.6-10.2,12.8-15.3c16.1-19.3,32.4-38.5,48.3-58.1c4-4.9,6.9-10.9,9.1-16.9
	c1-2.6-1.1-6.3-1.9-9.5c-2.6,0.7-5.7,0.7-7.6,2.3c-14.9,11.8-29.5,23.8-44.2,35.8c-22.5,18.4-43.1,39-68.7,53.8
	c-13.1,7.6-25.5,17.7-35.6,29.1c-7.4,8.3-14.6,15.4-24.8,19.5c-0.3,0.1-0.5,0.6-0.8,1.2C145.2,517.3,150.3,543,155.4,569z
	 M361,503.3c24.8,8,52,6,69.3-4c-1.1-0.2-1.8-0.4-2.6-0.4c-15-0.3-29.9-1.1-44.9-0.5C375.5,498.6,368.3,501.6,361,503.3z
	 M334.8,489.1c-12.7-9.4-25.9-9.6-39.2-1.7C308.4,494.7,321.4,497.3,334.8,489.1z M293,466.5c-5.3-4.9-10.1-9.4-15.8-14.6
	c-2.9,4.3-6.2,8-8.2,12.4c-0.9,1.9,0.3,5.2,1.4,7.4c0.4,0.8,3.7,0.5,5.4,0C281.4,470.2,286.8,468.4,293,466.5z"/>
<path d="M440.1,99.2c-20.2,0-39.9,0-59.7,0c-1.4,0-2.9-0.1-4.3-0.2c-2.8-12.3-4.8-24.6-8.5-36.4c-3.6-11.2-8.7-22-13.8-32.6
	c-4-8.1-5.1-13.1-1.2-16c6.1-4.6,10.4,0.6,15,3.3c1.8,1.1,3.4,2.5,5.1,3.6c7.6,4.9,13.1,4.1,19.2-2.8c2.5-2.8,4.7-5.9,7.3-8.5
	c4.4-4.4,8.1-4.1,12,0.9c1.4,1.8,2.6,3.8,4,5.6c4.7,6.2,9.6,7.6,16.2,3.2c5.3-3.6,9.7-8.4,14.6-12.6c2.9-2.4,5.7-5.5,9.1-6.3
	c3.6-0.9,8.3-0.5,11.6,1.2c4.2,2.1,4,7,2.7,11.2c-1.1,3.3-2.2,6.8-4.1,9.8C451.4,45.2,444.3,70,441,96.1
	C440.9,96.9,440.5,97.7,440.1,99.2z M422.8,78.9c3.7-13.1,7.2-25.6,10.9-38.5c-11,2.5-20.6,0.8-28.5-5.3
	c-7.4,3.6-14.4,6.9-21.4,10.3c3,10.9,6,22.2,9.1,33.5C403,78.9,412.9,78.9,422.8,78.9z"/>
<path d="M410.1,139.2c-12.7,0-25.4,0-38.1,0c-7.4,0-11.9-3.7-12.1-9.7c-0.2-6.3,4.4-10.3,12.1-10.3c25.2,0,50.3,0,75.5,0
	c7.8,0,12.4,3.7,12.4,10c0,6.3-4.6,10-12.4,10C435.1,139.2,422.6,139.2,410.1,139.2z"/>
<path d="M314.8,95.6c-4.7-2.9-8.6-5.1-12.4-7.6c-5.9-3.8-7.6-9.1-4.6-14.2c2.9-5,8.8-6.3,14.7-3c8.8,5.1,17.6,10.2,26.3,15.5
	c8.4,5.1,8.3,13.5-0.3,18.7c-8.5,5.2-17.2,10.2-25.8,15.1c-6.2,3.6-12.2,2.3-15.1-3c-2.9-5.1-1.1-10.4,4.9-14.1
	c1.9-1.2,3.9-2.3,5.9-3.5C310.2,98.4,311.9,97.3,314.8,95.6z"/>
<path d="M135.4,216.6c-3.5,7-5.7,13.1-9.3,18.2c-2.5,3.7-7.2,3.8-11.3,1.6c-4.3-2.4-6.1-6.4-4.7-11.1c1.3-4.5,3.2-9,5.5-13.1
	c2.4-4.4,7-5.9,11.3-3.9C130.1,209.9,132.3,213.5,135.4,216.6z"/>
<path d="M160.3,171.9c0.1,7.6-8.8,19.9-14.1,20.3c-3.1,0.2-7.3-1-9.2-3.1c-1.9-2.1-3.1-7-2-9.4c2.3-4.9,5.8-9.6,9.9-13.2
	c2-1.8,6.9-2.1,9.6-0.9C157.4,166.8,159.1,170.5,160.3,171.9z"/>
<path d="M197.1,138.6c0,6.9-13.3,17.7-20,16.1c-7.7-1.7-10.8-10.7-5.3-16.4c3.1-3.2,6.8-6.2,10.7-8.4
	C189,126.2,197.1,131.2,197.1,138.6z"/>
<path d="M108.8,287.2c-7.9-0.2-12.4-4.5-12.1-10.1c0.2-4.3,1-8.7,2.1-12.8c1.3-5.1,5.2-7.5,10.3-7.1c5.1,0.4,8.8,3.6,8.9,8.8
	c0,5.1-0.5,10.5-2.4,15.1C114.3,284.1,110.2,286,108.8,287.2z"/>
<path d="M221.2,128.7c-3.1-2.8-6.7-4.8-8.3-7.9c-2.2-4.2-1-8.9,3.3-11.5c4.2-2.5,8.9-5.3,13.6-5.8c3.3-0.3,7.9,2.2,10.2,4.9
	c3.1,3.6,2.2,8.9-1.7,11.6C233.3,123.4,227.6,125.5,221.2,128.7z"/>
<path d="M116.2,324.8c0.3,8.9-3.3,13.5-9.4,13.7c-6.1,0.2-10-3.9-10.6-11.2c-0.2-2.7-0.7-5.3-0.8-8c-0.2-5.7,3.6-10.2,9-10.9
	c5.2-0.6,9.8,3,10.8,8.8C115.8,320.2,116,323.3,116.2,324.8z"/>
<path d="M129,376.5c-0.3,6.7-2.9,10-7.6,11.2c-4.7,1.2-8.9-0.4-11.1-4.8c-1.9-3.9-3.3-8-4.3-12.2c-1.1-4.8,1-8.6,5.5-10.7
	c4.5-2.1,9.1-1.4,11.6,2.7C125.9,367.4,127.5,372.9,129,376.5z"/>
<path d="M275,90.2c6.1,0,10.4,4.2,10.2,10.1c-0.1,6.8-6.2,11-15.6,10.8c-5.4-0.1-9.8-4.8-9.7-10.2C260.2,94.4,265.9,90.3,275,90.2z"
	/>
<path d="M137.1,405.1c5.8,0,12.6,7.4,12.8,13.8c0.2,5.6-4.6,10.3-10.2,10.2c-5.9-0.1-12.4-7.6-12.4-14.2
	C127.3,409.4,131.5,405.2,137.1,405.1z"/>
<path d="M10.2,479.2c5.4,0.1,9.8,4.7,9.7,10.1c0,5.4-4.5,9.9-9.9,9.9c-5.6,0-10.3-4.8-10.1-10.4C0.2,483.4,4.9,479.1,10.2,479.2z"/>
<path d="M110,559.5c-0.2,5.4-4.7,9.8-10.1,9.7c-5.6-0.1-10.2-5-9.8-10.6c0.3-5.4,5-9.6,10.4-9.4C105.8,549.5,110.1,554.1,110,559.5z
	"/>
<path d="M400,263.3c0-4.6-0.1-9,0-13.3c0.2-6.4,4.1-10.6,9.8-10.8c5.9-0.1,10,4.2,10.2,11c0.1,2.1,0,4.2,0,6.2c0,2.1,0,4.1,0,6.5
	c3.9,1.3,7.7,2.3,11.3,3.7c13.3,5.3,22.4,14.8,27.5,28.1c2.3,6,0.3,11.2-5,13.5c-5.2,2.3-10.8,0.2-13.2-5.8
	c-7.2-18-25-22.8-42.1-18.1c-7.2,2-12.9,6.1-13.7,14.3c-0.8,7.7,2.7,14.4,10.8,17.9c8.6,3.6,17.8,5.7,26.5,9.1
	c7.1,2.8,14.5,5.6,20.6,9.9c10.7,7.5,15.5,18.6,13.3,31.7c-2.4,14.2-11.9,22.9-24.9,28c-3.4,1.4-7.1,2.1-11.2,3.3
	c0,3.4,0.1,7,0,10.5c-0.3,6-4.3,10-9.7,10.1c-5.7,0.1-9.9-4.1-10.2-10.3c-0.2-3.7,0-7.4,0-10c-8.1-4.1-16.2-6.6-22.1-11.7
	c-6.6-5.6-11.7-13.3-16.4-20.7c-3.4-5.5-1.1-11.2,4.1-13.7c5.4-2.7,11.2-0.9,13.8,5.5c6,14.9,24.6,23.4,40.4,19.8
	c2.4-0.6,4.9-1.3,7.1-2.4c5.2-2.7,9.4-6.4,9.6-12.8c0.2-6.4-3.3-10.9-8.7-13.3c-7-3.1-14.5-5.1-21.7-7.7c-7-2.6-14.4-4.5-20.8-8.1
	c-14.6-8-22.2-20.7-20.1-37.7c2-16.3,12.5-25.6,27.4-30.7C394.7,264.5,396.9,264.1,400,263.3z"/>
</svg>
