<?xml version="1.0" encoding="utf-8"?>
<!-- Generator: Adobe Illustrator 22.1.0, SVG Export Plug-In . SVG Version: 6.00 Build 0)  -->
<svg version="1.1" id="Layer_1" xmlns="http://www.w3.org/2000/svg" xmlns:xlink="http://www.w3.org/1999/xlink" x="0px" y="0px"
	 viewBox="0 0 757.9 844.5" style="enable-background:new 0 0 757.9 844.5;" xml:space="preserve">
<style type="text/css">
	.st0{fill:none;stroke:#000000;stroke-width:26;stroke-miterlimit:10;}
</style>
<g>
	<path class="st0" d="M695.7,831.5h-549c-27.2,0-49.2-22-49.2-49.2V62.2c0-27.2,22-49.2,49.2-49.2h549c27.2,0,49.2,22,49.2,49.2
		v720.1C744.8,809.4,722.8,831.5,695.7,831.5z"/>
	<path d="M126.1,110.2H13c-7.2,0-13-5.8-13-13l0,0c0-7.2,5.8-13,13-13h113.1c7.2,0,13,5.8,13,13l0,0
		C139.1,104.3,133.2,110.2,126.1,110.2z"/>
	<path d="M126.1,211.9H13c-7.2,0-13-5.8-13-13l0,0c0-7.2,5.8-13,13-13h113.1c7.2,0,13,5.8,13,13l0,0
		C139.1,206.1,133.2,211.9,126.1,211.9z"/>
	<path d="M126.1,313.7H13c-7.2,0-13-5.8-13-13l0,0c0-7.2,5.8-13,13-13h113.1c7.2,0,13,5.8,13,13l0,0
		C139.1,307.8,133.2,313.7,126.1,313.7z"/>
	<path d="M126.1,415.4H13c-7.2,0-13-5.8-13-13l0,0c0-7.2,5.8-13,13-13h113.1c7.2,0,13,5.8,13,13l0,0
		C139.1,409.6,133.2,415.4,126.1,415.4z"/>
	<path d="M126.1,517.2H13c-7.2,0-13-5.8-13-13l0,0c0-7.2,5.8-13,13-13h113.1c7.2,0,13,5.8,13,13l0,0
		C139.1,511.3,133.2,517.2,126.1,517.2z"/>
	<path d="M126.1,618.9H13c-7.2,0-13-5.8-13-13l0,0c0-7.2,5.8-13,13-13h113.1c7.2,0,13,5.8,13,13l0,0
		C139.1,613.1,133.2,618.9,126.1,618.9z"/>
	<path d="M126.1,720.7H13c-7.2,0-13-5.8-13-13l0,0c0-7.2,5.8-13,13-13h113.1c7.2,0,13,5.8,13,13l0,0
		C139.1,714.8,133.2,720.7,126.1,720.7z"/>
	<path d="M553.4,516.8c-5.5-12.9-14.6-22-26.2-26.4c-11.5-4.3-24.4-3.5-37.4,2.4l-40.7,18.4c-1.9-2.2-3.9-4.4-5.8-6.4
		c-2.7-2.9-5.3-5.7-7.4-8.4c-21.1-28-37.7-60.4-50.7-99.1c-6.2-19.2-9.3-34.6-10.3-49.4c10.3-4.1,20.2-8.8,29.7-13.2
		c3.6-1.6,7.2-3.4,10.9-5c27-12.3,36.6-37.8,24.3-64.8l-16-35.1c-1.8-4-3.7-8.1-5.4-12.2c-3.4-7.9-7.1-16.1-11.1-24
		c-5.7-12.4-14.8-21.2-26.2-25.5c-11.4-4.3-24.3-3.7-37,1.8c-0.1,0.1-0.1,0.1-0.3,0.1L300,190.1c-16.5,7.5-28.8,19.5-36.6,35.9
		c-12.5,26.5-14,55-14.1,74c-0.2,46.6,8.3,93,26.8,146.3c22.6,64.4,57.5,121.5,103.6,169.9c17.7,18.3,41.9,41.1,73.3,55.3
		c1.9,0.8,4,1.7,5.8,2.4c21.6,8.1,42.7,7.2,62.7-3c0.2-0.2,0.4-0.2,0.6-0.3c7.1-4.1,14.7-7.3,22.7-10.8c5.5-2.3,11.1-4.8,16.7-7.5
		c12.9-6.2,22-15.6,26.3-27.1c4.4-11.6,3.6-24.6-2.4-37.5L553.4,516.8z M550,627.9C549.9,627.9,549.8,628,550,627.9
		c-5.1,2.6-10.2,4.7-15.7,7.1c-8.3,3.5-16.7,7.3-25.1,11.9c-13.2,6.6-26.2,7.2-40.8,1.7c-1.4-0.5-2.9-1.1-4.3-1.7
		c-27.1-12.2-48.9-32.8-64.8-49.3c-43.4-45.5-76.2-99.4-97.6-160.1c-17.5-50.5-25.5-94-25.3-137.5c0-26.6,3.7-45.9,11.5-62.5
		c5-10.6,12.7-18.1,23.4-23l43.9-20c6.2-2.6,12-3.1,16.7-1.3c5.9,2.2,9.3,7.6,11.2,11.7c0.1,0.1,0.1,0.3,0.2,0.4
		c3.7,7.5,7.1,15,10.6,23.1c1.8,4.1,3.7,8.2,5.5,12.4l16,35.1c6.2,13.6,2.8,22.8-10.9,29c-3.7,1.7-7.4,3.4-11.1,5
		c-10.9,5.1-21.2,9.8-32.1,14c-0.3,0.1-0.5,0.1-0.6,0.3c-11.1,5-12.5,13.5-12.8,19.4c0,0.3,0,0.6,0,0.9c0.6,18.6,4.3,37.3,11.7,60.7
		l0.1,0.1c13.9,41.5,31.8,76.6,54.8,106.8c2.9,3.9,6.1,7.3,9.2,10.6c2.7,2.9,5.3,5.7,7.4,8.4c0.3,0.3,0.6,0.7,0.9,1.1
		c2.6,2.8,5.3,4.7,8.4,5.8c7.8,2.9,14.5-0.1,16.7-1.1l44-20c4.4-2,10.9-3.9,16.8-1.7c5.8,2.2,9.2,7.6,10.9,11.9
		c0.1,0.1,0.1,0.1,0.1,0.3l32.2,70.9C566.9,611.8,563.2,621.6,550,627.9z"/>
</g>
</svg>
