<svg xmlns="http://www.w3.org/2000/svg" width="52.401" height="61" viewBox="0 0 52.401 61">
  <g id="money-bag" transform="translate(0)" opacity="0.7">
    <g id="Group_141" data-name="Group 141">
      <path id="Path_143" data-name="Path 143" d="M195.927,224.274h-3.488a2.3,2.3,0,1,1,0-4.591h6.138a1.522,1.522,0,1,0,0-3.044H195.7v-2.118a1.522,1.522,0,1,0-3.044,0v2.118h-.216a5.339,5.339,0,1,0,0,10.678h3.488a2.3,2.3,0,1,1,0,4.591h-6.252a1.522,1.522,0,0,0,0,3.044h2.993v2.169a1.522,1.522,0,0,0,3.044,0v-2.169H196a5.339,5.339,0,0,0-.076-10.678Z" transform="translate(-167.671 -185.988)" fill="#222c50"/>
      <path id="Path_144" data-name="Path 144" d="M83.283,34.837a43.622,43.622,0,0,0-6.595-10.577,49.13,49.13,0,0,0-8.446-8.028l6.468-12a1.5,1.5,0,0,0-.279-1.8A7.581,7.581,0,0,0,69,0a12.764,12.764,0,0,0-4.921,1.294,9.313,9.313,0,0,1-3.094.926,1.926,1.926,0,0,1-.723-.127A22.537,22.537,0,0,0,52.682.3c-2.841,0-5.263,1.141-7.635,3.576a1.531,1.531,0,0,0-.178,1.9l6.975,10.539a49.953,49.953,0,0,0-8.332,7.939,44.016,44.016,0,0,0-6.595,10.577A35.964,35.964,0,0,0,33.9,49.193,11.826,11.826,0,0,0,45.707,61H74.495A11.826,11.826,0,0,0,86.3,49.193,35.964,35.964,0,0,0,83.283,34.837ZM48.116,5.149a6.635,6.635,0,0,1,4.565-1.826,19.761,19.761,0,0,1,6.531,1.611,5.153,5.153,0,0,0,1.763.3,11.233,11.233,0,0,0,4.261-1.154,10.285,10.285,0,0,1,3.754-1.065,4.025,4.025,0,0,1,2.448.837L65.351,15.168h-10.6ZM74.495,57.956H45.707a8.773,8.773,0,0,1-8.763-8.763c0-8.129,2.98-15.84,8.839-22.916a46.553,46.553,0,0,1,8.611-8.066H65.782a45.676,45.676,0,0,1,8.611,8.066c5.872,7.077,8.839,14.774,8.839,22.916A8.736,8.736,0,0,1,74.495,57.956Z" transform="translate(-33.9 0)" fill="#222c50"/>
    </g>
  </g>
</svg>
