<?xml version="1.0" encoding="utf-8"?>
<!-- Generator: Adobe Illustrator 22.1.0, SVG Export Plug-In . SVG Version: 6.00 Build 0)  -->
<svg version="1.1" id="Layer_1" xmlns="http://www.w3.org/2000/svg" xmlns:xlink="http://www.w3.org/1999/xlink" x="0px" y="0px"
	 viewBox="0 0 818.4 767.5" style="enable-background:new 0 0 818.4 767.5;" xml:space="preserve">
<g>
	<path d="M0,35.5c3.1-9.7,6.4-19,15-25.7c8.1-6.3,17.1-9.3,27-9.3c65.8-0.1,131.5-0.3,197.3,0c24.8,0.1,41.3,17.3,41.9,41.9
		c0.3,12.2,0,24.4,0,35.1c19.7-6.8,39-14.9,59.1-20c39.2-10.1,78-6.1,115.8,8.2c28,10.6,52.7,26.6,73.3,48.2
		c30.1,31.5,49.9,68.6,55.3,112.4c1.9,15.4,3.1,31.1,3.2,46.6c0.3,64.7,0.1,129.4,0.1,194.1c0,11.7-3.5,17-15,19.5
		c-30.1,6.6-60.3,12.7-90.4,18.9c-4,0.8-8.1,1.6-14.7,2.9c5.3,2.2,8.5,3.9,12,5c36.1,12.3,72.2,24.2,108.2,36.9
		c21.8,7.7,38.4,22.3,53.4,40.2c14.3,17,19.6,36.6,24.6,56.9c0.5,2,0.2,4.2,0.2,6.4c0,32.2,0,64.4,0,96.7c0,11.5-5.4,17.1-16.9,17.1
		c-177.1,0-354.1,0-531.2,0c-11.6,0-15.8-4.2-15.8-15.8c0-31.7-0.7-63.4,0.2-95c0.8-29.7,12.5-55.2,32.2-77.5
		c21.1-23.8,49.3-34,78.2-43.4c23.6-7.6,47-15.9,70.5-24c1.3-0.4,2.5-1.4,1.6-0.9c-30.3-8-61.8-16.1-93.1-24.7
		c-8.9-2.4-12.9-8.5-12.9-17.4c0-71.1-0.2-142.2,0.2-213.3c0.1-12,2.8-23.9,4.4-35.9c0.7-5.2,1.2-9.3-4.9-12.9
		c-13.2-7.6-25.4-16.8-38.3-24.9c-2.9-1.8-7-2.3-10.5-2.3c-29.3-0.2-58.6,0.1-87.9-0.2C23.1,179.1,8.9,169,3,152.8
		c-1-2.8-1.9-5.7-2.9-8.6C0,108,0,71.7,0,35.5z M258,741.1c84.4,0,168.6,0,253.2,0c0.6-33,8-63.3,27.5-90
		c19.6-26.8,45.7-44.4,78.1-53.8c-11.9-12.8-24.9-21.7-40.6-27c-37.1-12.5-74.1-25.5-111.4-38.4c-1.7,2.8-3.1,5.2-4.7,7.6
		c-17.1,25.8-42.9,40.6-69.4,54.5c-5.8,3-12.6,2.7-18.8-1c-5.4-3.3-11-6.1-16.4-9.3c-20.7-12.5-39.5-27.2-51.6-48.9
		c-2.4-4.3-4.7-4.3-8.9-2.8c-34.8,12-69.9,23.4-104.6,35.7c-15.5,5.5-28.5,15.4-38.9,28.7C221,619.8,256.4,667.6,258,741.1z
		 M561.4,257.6c-0.8-6.2-1.4-11.1-2-16.1c-0.6-5.2-1-10.5-1.8-15.7c-7.7-47.9-31.5-86.1-70.3-114.8c-39.5-29.2-84.2-38.8-132.7-32.5
		c-25.3,3.3-48.1,12.6-69.3,26.2c-2.2,1.4-3.8,5.1-3.9,7.8c-0.5,8.5,0.1,17-0.2,25.5c-0.7,18.1-10.2,36.3-31.3,39.9
		c-6.4,1.1-12.9,1.5-19.7,2.2c0,12,0.1,23.7,0,35.3c0,5.4-1.7,9-7.1,12.6c-7.1,4.8-11.1-1.1-17.5-1.8c0,10.8,0,21.3,0,29.6
		c12.5,0,25.7-0.5,38.7,0.1c18.3,0.9,38.3-18.8,37.1-37.4c-0.5-8.5-0.2-17,0-25.6c0.2-8.9,5.1-14,12.9-13.9s12.4,5.1,12.6,14.2
		c0.2,8.5,0.4,17.1,0,25.6c-0.9,18.5,18.5,37.3,37.3,37.1c66.3-0.5,132.6-0.2,198.9-0.1C548.6,256.1,554.3,257,561.4,257.6z
		 M294,255.6c-8.7,11.6-19.6,18.4-32.3,22.9c-2.4,0.8-5.8,3.6-5.7,5.5c0.1,23.6-1.1,47.4,1.7,70.7c4.4,36.6,24,64.9,54.7,85.3
		c28.5,19,60,24.6,93.3,18.9c47.9-8.3,80.3-35.9,98.2-81c12.4-31.2,5.4-63.6,7.7-96.2c-4,0-6.9,0-9.7,0c-51.1,0-102.2,0.3-153.2-0.1
		C327,281.3,308,274.1,294,255.6z M204.5,195.3c0-9.6,0-17.8,0-25.9c0.1-11.2,4.2-15.4,15.2-15.6c7.5-0.1,14.9,0,22.4,0
		c9.2-0.1,13.5-4.4,13.5-13.7c0-33.6,0-67.1,0-100.7c0-10-3.3-13.4-13.1-13.4c-67.9,0-135.8,0-203.7,0c-10,0-13.2,3.3-13.2,13.3
		c0,33.8,0,67.6,0,101.4c0,9.8,3.4,13.1,13.4,13.1c29.3,0,58.6,0.5,87.9-0.2c11.8-0.3,21.3,2.8,30.7,9.7
		C172.5,174.2,188.1,184.1,204.5,195.3z M533.7,741.1c35.7,0,70.3,0,105.4,0c0-29.5,0.6-58.5-0.3-87.4c-0.3-10.2-4.4-20.3-7-30.4
		c-1.1-4.4-3.9-5.2-8.5-3.9c-24.9,6.8-45.7,19.5-62.2,39.5C541.5,682.8,532.8,710,533.7,741.1z M229.7,741.4
		c6.2-59.9-42.1-112.1-95-122.7c-2.3,11.7-6.1,23.3-6.5,35.1c-1,26.3-0.3,52.6-0.3,79c0,2.8,0,5.6,0,8.6
		C162.4,741.4,195.8,741.4,229.7,741.4z M321.2,472.5c0,10.7,0.1,20,0,29.3c-0.1,10,2.1,19.3,8.2,27.4c13.8,18.1,32.2,30.1,52,40.3
		c1.6,0.8,4.6,0.2,6.2-0.9c11.3-7.2,23.1-13.8,33.4-22.3c11.2-9.2,22.1-19.5,23.9-35.1c0.9-7.8,0.5-15.7,0.7-23.5
		c0.1-4.7,0-9.3,0-15.3C404,489.8,363.2,489.7,321.2,472.5z M297.2,485.7c0-7.7-0.5-13.9,0.1-19.9c0.6-5.6-2.6-8.5-6.1-11.9
		c-11.2-11.1-22.9-22-32.7-34.3c-14.2-17.8-21.5-39.2-25.8-60.7c-9.9-0.9-18.9-1.8-28.2-2.6c0,34.1,0.1,68.1-0.1,102.1
		c0,5,2.5,6,6.5,7C239.3,472,267.7,478.8,297.2,485.7z M469.8,484c28.9-7.2,56.4-14.3,83.9-20.9c5.8-1.4,7.3-4.1,7.2-9.8
		c-0.3-29.8-0.1-59.6-0.1-89.4c0-2.3-0.2-4.6-0.4-7c-9,0.6-17.4,1.2-26.2,1.9c-7.8,39.6-27.5,72.1-60,96.6c-1.9,1.5-4.1,4-4.2,6.2
		C469.4,468.4,469.8,475.3,469.8,484z M229.7,332.7c0-17.6,0-34,0-51.1c-5.4,0-10.4-0.3-15.4,0.1c-6.1,0.5-9.6,4.1-9.7,10.3
		c-0.2,10.1-0.2,20.2,0,30.3c0.1,6.2,3.6,9.8,9.7,10.3C219.2,333,224.2,332.7,229.7,332.7z M536.8,332.7c5.4,0,9.6-0.1,13.9,0
		c6.9,0.1,10.3-3,10.1-10c-0.1-6.7,0-13.3,0-20c0-22.1,0-22.1-22.1-21c-0.4,0-0.9,0.5-1.9,1.1c0,3.1,0,6.5,0,9.9
		C536.8,305.8,536.8,318.7,536.8,332.7z"/>
	<path d="M664.7,257.2c-8.8-1.4-16.9-1.6-24.2-4.1c-17.5-5.8-26.6-20-26.7-37.9c-0.4-58-0.6-116.1,0-174.1
		C614,17.4,630.6,1,654.4,0.5c32.5-0.7,65-0.7,97.4,0C775.7,1,792.1,17.4,792.4,41c0.6,58,0.6,116.1,0,174.1
		c-0.2,23.8-16.7,40.7-40.5,40.3c-14.8-0.3-24.8,4.4-34.1,15.1c-9.4,10.8-19.8,20.9-30.5,30.4c-3.6,3.2-10.8,6.3-14.1,4.8
		c-4-1.9-7.5-8.7-8-13.7C663.9,280.5,664.7,268.8,664.7,257.2z M690.2,262.7c0.7,0.4,1.4,0.9,2.2,1.3c2.4-2.8,5-5.5,7.1-8.5
		c12.9-18.5,30.3-25.3,52.6-22.1c10.4,1.5,14.8-4,14.8-14.4c0-46.8,0-93.7,0-140.5c0-13.3,0.1-26.6,0-39.9
		c-0.1-7.5-4.4-12.6-11.2-12.6c-35.1-0.1-70.2-0.1-105.4,0c-7.5,0-11.2,3.8-11.2,11.2c-0.1,60.7-0.1,121.3,0,182
		c0,7.3,3.9,11.1,11.3,11.2c7.7,0.2,15.4,0,23.1,0.1c11.2,0.1,16.5,5.3,16.7,16.4C690.3,252.1,690.2,257.4,690.2,262.7z"/>
	<path d="M664.7,383.8c0-11-0.6-21.4,0.2-31.6c0.4-5.4,1.8-12.3,5.4-15.4c5.4-4.5,12.2-2.9,18.8,1.6c17.9,12.4,36.8,23.5,54.6,36.1
		c9.7,6.9,19.4,10.5,31.4,9.6c9.5-0.7,18.6,2.1,26.6,8.1c10.9,8.2,16.1,19.5,16.3,32.6c0.4,32.5,0.7,65-0.1,97.4
		c-0.6,23.8-17,40.1-40.7,40.4c-40.7,0.6-81.5,0.5-122.2,0c-24.1-0.3-40.9-16.9-41.3-41.6c-0.4-31.1-0.1-62.3-0.1-93.5
		c0-26.3,17.1-43.6,43.3-43.8C659.2,383.8,661.5,383.8,664.7,383.8z M690.2,367.9c0,9.4,0.2,17.6,0,25.8
		c-0.2,10.3-5.4,15.4-15.7,15.7c-7.2,0.2-14.4,0-21.6,0c-10.8,0-13.9,3.1-13.9,14.2c0,33.3,0,66.5,0,99.8c0,10.5,3.2,13.8,13.5,13.8
		c42,0,84.1,0,126.1,0c10.5,0,13.7-3.2,13.7-13.6c0-30.1-0.2-60.1,0.1-90.2c0.3-23.8-0.4-25.1-24.1-23.8
		c-12.1,0.7-21.8-2.6-31.4-9.8C722.2,388.8,706.5,378.9,690.2,367.9z"/>
	<path d="M690.2,134.4c1.7-12.8,4.7-26.8,20.4-34.1c6.9-3.2,6.3-10.3,4.6-16.1c-2-7.2-8.5-7.7-14.9-7.1c-6.1,0.5-8.7,4.1-10.4,9.9
		c-1.4,4.9-3.6,10.9-7.5,13.5c-7.5,5.1-18.9-2.6-17.7-11.7c2.8-20.9,15.2-35.3,37.5-36.8c15.6-1.1,33.9,10.7,37.4,31.8
		c2.9,16.8-3,28.6-17.6,38.3c-3.1,2.1-4.4,7.1-6.3,10.9c-0.5,1.1-0.1,2.6-0.1,3.9c-0.2,9.8-5.7,17-13,16.7
		C695.2,153.4,690.2,146.6,690.2,134.4z"/>
	<path d="M702.7,179.4c5.8-0.3,13,6.6,13,12.5c0.1,5.9-6.8,12.8-12.7,12.8c-5.5,0-12.2-6.4-12.6-12.1
		C689.9,186.9,696.7,179.7,702.7,179.4z"/>
</g>
</svg>
