<?xml version="1.0" encoding="utf-8"?>
<!-- Generator: Adobe Illustrator 22.1.0, SVG Export Plug-In . SVG Version: 6.00 Build 0)  -->
<svg version="1.1" id="Layer_1" xmlns="http://www.w3.org/2000/svg" xmlns:xlink="http://www.w3.org/1999/xlink" x="0px" y="0px"
	 viewBox="0 0 957 624.1" style="enable-background:new 0 0 957 624.1;" xml:space="preserve">
<style type="text/css">
	.st0{fill:none;stroke:#000000;stroke-width:26;stroke-miterlimit:10;}
</style>
<g>
	<g id="Payment__Status0">
		<path d="M210.3,341.5c-18.7,0-37.3,0.3-56-0.2c-4.4-0.1-9-2.5-13.1-4.4c-5.8-2.7-10.7-6.8-14.6-11.9c-4.2-5.4-7-11.4-8.6-18.1
			c-3.4-14.5-1.3-29.2-1.6-43.8c-0.4-19.4,0-38.8-0.1-58.2c0-7.8,1-15.5,4-22.6c3.9-9.3,10.3-16.8,19.5-21.8
			c7.4-4,15.1-5.8,23.4-5.8c33.5,0.2,67.1,0,100.6,0.4c5.1,0.1,10.3,2.1,15.1,4.2c8.2,3.6,14.4,9.7,18.9,17.4
			c4.2,7.2,6.6,15.1,6.6,23.3c0.2,32,0.2,64,0,96c0,5.2-1.7,10.4-3.1,15.5c-2.7,9.8-8.9,17.2-17.3,22.6c-3.6,2.3-7.8,3.7-11.8,5.3
			c-9.3,3.8-19.1,1.7-28.6,2.1c-11,0.4-22.1,0.1-33.1,0.1C210.3,341.8,210.3,341.7,210.3,341.5z M196.6,248L196.6,248
			c0-20.3,0-40.7,0-61c0-2.7-1.3-3.6-3.8-3.5c-11.2,0.1-22.5,0-33.8,0.1c-0.8,0-1.7,0-2.4,0.3c-6.9,3-11.3,8.2-11.7,15.7
			c-0.5,10.4-0.2,20.8-0.2,31.3c0,1.9,0.8,3.1,3,3c4-0.1,8.1-0.2,12.1,0.1c8.6,0.7,14.2,5.5,14.5,14.1c0.3,8.3-5.5,14.5-14.7,14.7
			c-3.6,0.1-7.2,0.2-10.8,0c-3.3-0.2-4.1,1.4-4.1,4.2c0.1,9.7-0.3,19.4,0.2,29.1c0.2,3.5,1.6,7.2,3.5,10.3c3.5,5.9,9.5,7.3,16,7.2
			c8.8,0,17.5,0,26.3,0c5.2,0,5.9-0.5,5.9-5.8C196.6,287.9,196.6,268,196.6,248z M224.5,248.4c0,20.1,0,40.3,0,60.4
			c0,4.2,0.6,4.9,4.8,4.9c9.5,0,19,0.1,28.5,0c2.4,0,5-0.2,7.2-1.1c6.5-2.7,10.9-9.1,11-16.3c0.1-8.8,0-17.5,0-26.3
			c0-7.1,0-7-7.1-7.2c-5.2-0.2-10.6,1-15.6-2c-4.4-2.7-8.1-9.6-6.9-14.6c2-8.2,8.1-12.2,15.8-12.2c3.3,0,6.6,0,9.9,0.1
			c2.9,0.1,4-1,4-4c-0.1-9,0.2-18-0.2-26.9c-0.1-3.7-0.8-7.7-2.5-10.9c-2.5-5.2-6.9-8.6-13.1-8.5c-10.4,0-20.9,0-31.3,0
			c-4.5,0-4.6,0.1-4.6,4.5C224.5,208.2,224.5,228.3,224.5,248.4z"/>
		<path d="M864,442.9c0.4,3.4-1.7,5.4-3.5,7.5c-11.2,12.5-22.3,25-33.5,37.5c-15.3,17.1-30.7,34.1-45.7,51.5
			c-3.9,4.5-11.4,4.2-15.6,0.6c-10.4-8.8-21.2-17.2-31.8-25.8c-5.7-4.7-11.5-9.3-17.2-14c-2.4-2-3.9-6.7-3-9.2
			c1.4-3.8,5.5-7.4,8.9-6.9c2.3,0.3,4.7,1.5,6.6,2.9c13.4,10.6,26.6,21.3,39.9,32c2.8,2.3,3.9,2.3,6.2-0.3
			c14.4-16.1,28.7-32.3,43-48.5c9.6-10.8,19.5-21.5,28.9-32.5c3.9-4.5,12.6-4.2,15,0.2C863.1,439.5,863.5,441.3,864,442.9z"/>
	</g>
	<path class="st0" d="M656,151c0,16.8-6.5,32-17,43.5c-11.7,12.6-28.4,20.5-47,20.5c-35.3,0-64-28.7-64-64c0-35.4,28.7-64,64-64
		c18.6,0,35.3,7.9,47,20.5C649.5,119,656,134.2,656,151z"/>
	<path class="st0" d="M750,151c0,35.3-28.6,64-64,64c-18.6,0-35.3-7.9-47-20.5c10.5-11.4,17-26.7,17-43.5s-6.5-32-17-43.5
		C650.7,94.9,667.4,87,686,87C721.4,87,750,115.6,750,151z"/>
	<path class="st0" d="M944,463.8c0,81.3-65.9,147.3-147.3,147.3c-81.2,0-147.1-65.8-147.3-147v-0.3c0-81.3,65.9-147.3,147.3-147.3
		c10.2,0,20.1,1,29.8,3C893.6,333.3,944,392.6,944,463.8z"/>
	<path class="st0" d="M666,542H65.3C36.4,542,13,518.6,13,489.7V65.3C13,36.4,36.4,13,65.3,13h734.4c28.9,0,52.3,23.4,52.3,52.3
		v270.2"/>
	<path d="M498,446H129c-7.2,0-13-5.8-13-13l0,0c0-7.2,5.8-13,13-13h369c7.2,0,13,5.8,13,13l0,0C511,440.2,505.2,446,498,446z"/>
	<path d="M635,446h-75c-7.2,0-13-5.8-13-13l0,0c0-7.2,5.8-13,13-13h75c7.2,0,13,5.8,13,13l0,0C648,440.2,642.2,446,635,446z"/>
	<path d="M408,340h-75c-7.2,0-13-5.8-13-13l0,0c0-7.2,5.8-13,13-13h75c7.2,0,13,5.8,13,13l0,0C421,334.2,415.2,340,408,340z"/>
	<path d="M520.2,340h-75c-7.2,0-13-5.8-13-13l0,0c0-7.2,5.8-13,13-13h75c7.2,0,13,5.8,13,13l0,0C533.2,334.2,527.3,340,520.2,340z"
		/>
	<path d="M632.3,340h-75c-7.2,0-13-5.8-13-13l0,0c0-7.2,5.8-13,13-13h75c7.2,0,13,5.8,13,13l0,0C645.3,334.2,639.5,340,632.3,340z"
		/>
	<path d="M729,340h-44c-7.2,0-13-5.8-13-13l0,0c0-7.2,5.8-13,13-13h44c7.2,0,13,5.8,13,13l0,0C742,334.2,736.2,340,729,340z"/>
</g>
</svg>
