<?xml version="1.0" encoding="utf-8"?>
<!-- Generator: Adobe Illustrator 22.1.0, SVG Export Plug-In . SVG Version: 6.00 Build 0)  -->
<svg version="1.1" id="Layer_1" xmlns="http://www.w3.org/2000/svg" xmlns:xlink="http://www.w3.org/1999/xlink" x="0px" y="0px"
	 viewBox="0 0 837.6 796.6" style="enable-background:new 0 0 837.6 796.6;" xml:space="preserve">
<style type="text/css">
	.st0{fill:none;stroke:#000000;stroke-width:20;stroke-miterlimit:10;}
	.st1{fill:none;stroke:#000000;stroke-width:26;stroke-miterlimit:10;}
</style>
<g>
	<path class="st0" d="M357.6,462.5c-32.9-33.8-65.5-67.2-98.4-100.9c91.1-90.3,183.3-181.7,275-272.6c33,33,65.9,65.9,99.1,99.1
		C542.2,278.8,450.3,370.2,357.6,462.5z"/>
	<path class="st0" d="M658.6,162.9c-33.2-33.2-65.9-65.9-98.7-98.7c7.3-7.7,26.8-28.1,41-40.8c20.5-18.3,52.3-17.7,72.7,0.7
		c8.9,8,17.4,16.5,25.4,25.3c18.4,20.4,19.1,51.6,1,71.8C686.9,135.7,672.4,149,658.6,162.9z"/>
	<path class="st0" d="M243.2,388.8c30.7,31.4,60.1,59.3,91.2,91.2c-42.7,10.4-85.3,20.7-128.8,31.3
		C217.2,469.1,241.3,394.5,243.2,388.8z"/>
	<circle class="st1" cx="589.3" cy="590" r="160.4"/>
	<path d="M835.1,792.6L835.1,792.6c-3.8,4.6-10.6,5.3-15.3,1.5l-112.4-92.2c-4.6-3.8-5.3-10.6-1.5-15.3l0,0
		c3.8-4.6,10.6-5.3,15.3-1.5l112.4,92.2C838.3,781.1,839,788,835.1,792.6z"/>
	<path d="M459,32.8H20.3C9.1,32.8,0,41.9,0,53.1v664.5c0,11.2,9.1,20.3,20.3,20.3H445l-20-26H33c-3.9,0-7-3.1-7-7V65.8
		c0-3.9,3.1-7,7-7h426V32.8z"/>
	<rect x="589" y="344.8" width="26" height="26"/>
</g>
</svg>
