<?xml version="1.0" encoding="utf-8"?>
<!-- Generator: Adobe Illustrator 22.1.0, SVG Export Plug-In . SVG Version: 6.00 Build 0)  -->
<svg version="1.1" id="Layer_1" xmlns="http://www.w3.org/2000/svg" xmlns:xlink="http://www.w3.org/1999/xlink" x="0px" y="0px"
	 viewBox="0 0 682 682" style="enable-background:new 0 0 682 682;" xml:space="preserve">
<style type="text/css">
	.st0{fill:#FFFFFF;}
</style>
<path class="st0" d="M540.4,104.4C486.6,50.6,415.1,21,339.1,21c-76.1,0-147.6,29.6-201.4,83.4c-53.8,53.8-83.4,125.3-83.4,201.4
	c0,63.2,21.3,125.1,60,174.8L75.4,644.8c-1.1,4.7,0.5,9.6,4.2,12.6c2.3,1.9,5.2,2.9,8.1,2.9c1.7,0,3.5-0.4,5.1-1.1l175-77.7
	c23.2,6,47.2,9,71.3,9c76.1,0,147.6-29.6,201.4-83.4c53.8-53.8,83.4-125.3,83.4-201.4C623.8,229.7,594.2,158.2,540.4,104.4z
	 M339.1,565.3c-23.4,0-46.6-3.1-69-9.3c-2.8-0.8-5.8-0.6-8.5,0.6l-155.8,69.2l34.4-145.4c0.9-3.8,0-7.8-2.5-10.9
	c-37.5-46.1-58.2-104.3-58.2-163.8C79.5,162.7,196,46.2,339.1,46.2c143.1,0,259.5,116.4,259.5,259.5
	C598.6,448.9,482.2,565.3,339.1,565.3z"/>
<path class="st0" d="M518.7,304c0-99-80.6-179.6-179.6-179.6S159.5,205,159.5,304c0,99,80.6,179.6,179.6,179.6S518.7,403,518.7,304z
	 M339.1,458.3c-85.1,0-154.3-69.2-154.3-154.3c0-85.1,69.2-154.3,154.3-154.3c85.1,0,154.3,69.2,154.3,154.3
	C493.4,389.1,424.2,458.3,339.1,458.3z"/>
<path class="st0" d="M535.8,399.1c-6.7-2.1-13.8,1.5-15.9,8.2c-10.7,33.2-40.3,56.1-63.4,69.4c-6,3.5-8.1,11.2-4.6,17.3
	c2.3,4,6.6,6.3,10.9,6.3c2.1,0,4.3-0.6,6.3-1.7c26.9-15.6,61.7-42.7,74.8-83.5C546.1,408.4,542.5,401.3,535.8,399.1z"/>
<path class="st0" d="M424.5,500.4c-6.5-2.6-13.8,0.5-16.4,7l-0.1,0.1c-2.6,6.5,0.5,13.8,7,16.4c1.6,0.6,3.2,0.9,4.7,0.9
	c5,0,9.7-3,11.7-7.9l0.1-0.1C434.1,510.4,431,503,424.5,500.4z"/>
<path class="st0" d="M338.7,385c-6.1,0-11,2.2-14.7,6.5c-3.7,4.4-5.6,9.6-5.6,15.7c0,5.9,1.8,11.1,5.6,15.5
	c3.7,4.5,8.6,6.7,14.7,6.7c6.1,0,11.3-2.2,15.7-6.7c4.4-4.5,6.5-9.7,6.5-15.5c0-6.1-2.2-11.3-6.5-15.7
	C350,387.2,344.8,385,338.7,385z"/>
<path class="st0" d="M391.7,202.9c-12.2-10.5-28.6-15.7-49.1-15.7c-18.3,0-32.9,4.1-43.8,12.4c-10.9,8.3-16.4,17-16.4,26.2
	c0,5,1.7,8.9,5,11.6c3.4,2.7,7.1,4.1,11.2,4.1c3.3,0,6.1-1.1,8.6-3.3c2.5-2.2,4.6-4.6,6.4-7.1c1.7-2.5,5-4.9,9.8-7.1
	c4.8-2.2,10.8-3.3,17.9-3.3c10.2,0,18.4,2.4,24.4,7.3c6.1,4.8,9.1,11.7,9.1,20.5c0,5.2-1.3,10.2-3.8,15c-2.5,4.9-5,8.5-7.5,11
	c-2.5,2.5-6.3,5.9-11.3,10.2l-9.5,7.8c-13.1,11.6-19.6,28.7-19.6,51.1c0,6.9,1.1,11.6,3.4,14.2c2.3,2.6,6.2,3.9,11.6,3.9
	c10.9,0,16.4-3.9,16.4-11.8c0-11.1,0.9-19.6,2.6-25.5c1.7-5.9,6.3-11.8,13.7-17.7l6.3-5.2l8.6-8.2c1.8-1.7,4.5-4.9,8.1-9.3
	c3.6-4.5,6.4-8.5,8.3-12.1c1.9-3.6,3.6-8,5.3-13.2c1.7-5.2,2.5-10.6,2.5-16C410,226.5,403.9,213.3,391.7,202.9z"/>
</svg>
