<?xml version="1.0" encoding="utf-8"?>
<!-- Generator: Adobe Illustrator 22.1.0, SVG Export Plug-In . SVG Version: 6.00 Build 0)  -->
<svg version="1.1" id="Layer_1" xmlns="http://www.w3.org/2000/svg" xmlns:xlink="http://www.w3.org/1999/xlink" x="0px" y="0px"
	 viewBox="0 0 575.9 717.6" style="enable-background:new 0 0 575.9 717.6;" xml:space="preserve">
<g>
	<path d="M119.4,488.3h65.1V510h-65.1V488.3z"/>
	<path d="M227.9,65.1h108.5v21.7H227.9V65.1z"/>
	<path d="M249.5,108.5h65.1v21.7h-65.1L249.5,108.5L249.5,108.5z"/>
	<path d="M435.9,551.9c-0.6,0-1,0-1.4,0c-14.1,0-28.1,0-42.2,0c-1.3,0-2.7-0.1-3.4-1.4c-0.7-1.3-0.1-2.4,0.7-3.6
		c2.3-3.2,4.6-6.5,6.8-9.8c0.9-1.3,2-1.7,3.4-1.7c10.2,0,20.4,0,30.6,0c0.4,0,0.9,0,1.3,0c0-0.1,0.1-0.2,0.1-0.3
		c-0.8-0.7-1.6-1.4-2.4-2.1c-5.2-3.6-10.9-5.2-17.2-5.3c-6.8-0.1-13.5,0-20.3,0c-1.9,0-2.8-0.6-3-2.3c-0.1-0.7,0.1-1.4,0.5-2
		c2.3-3.5,4.8-7,7.1-10.5c0.9-1.3,2-1.7,3.4-1.7c15.1,0,30.1,0,45.2,0c10.7,0,21.4,0,32,0c0.3,0,0.6,0,1,0c2.4,0.2,3.4,2.2,2,4.2
		c-2.3,3.6-4.7,7.1-7.2,10.6c-0.8,1.2-1.9,1.7-3.4,1.7c-4.8,0-9.5,0-14.3,0c-0.4,0-0.8,0-1.4,0c0.3,0.7,0.7,1.2,0.9,1.8
		c0.7,1.6,1.3,3.3,1.9,4.9c0.2,0.7,0.5,1,1.3,1c6.2,0,12.5,0,18.7,0c1.4,0,2.7,0,3.5,1.4s0.1,2.5-0.7,3.7c-2.2,3.2-4.4,6.4-6.5,9.6
		c-0.9,1.3-1.9,1.9-3.5,1.8c-3.6-0.1-7.1,0-10.6,0c-0.8,0-1.1,0.2-1.3,1c-2.7,10.3-8.7,18.1-18.1,23.1c-6,3.2-12.4,5.2-19.2,6
		c-0.1,0-0.3,0.1-0.6,0.1c0.3,0.3,0.4,0.6,0.6,0.9c9.6,11.5,19.3,22.9,29,34.3c4.8,5.7,9.6,11.3,14.5,16.9c0.3,0.3,0.5,0.6,0.7,0.9
		c1.1,1.5,0.5,3.4-1.3,3.9c-0.4,0.1-0.9,0.1-1.4,0.1c-6.4,0-12.8,0-19.2,0c-1.4,0-2.4-0.5-3.3-1.6c-4.9-5.8-9.9-11.6-14.9-17.4
		c-6.2-7.3-12.5-14.6-18.7-21.9c-3.8-4.5-7.6-9-11.4-13.4c-0.9-1.1-1.4-2.3-1.4-3.7c0-3,0-6.1,0-9.2c0-2.8,1.1-3.6,3.9-3.4
		c7.9,0.7,15.8,0.8,23.6-1.6c4.7-1.4,8.9-3.9,11.9-7.8C433.9,557.1,435,554.7,435.9,551.9z"/>
	<path d="M356.2,675.9c-2.2,1.4-4.6,2.9-7,4.3c-1.8,1.1-3.6,2.2-5.5,3.2c-2.8,1.5-6.1-0.4-6.8-3.4c-0.1-0.6-0.2-1.2-0.2-1.8
		c0-13.8,0-27.6,0-41.4c0-5,4.3-7.4,8-5.6c3.3,1.6,6.6,3.2,9.9,4.7c3.7,1.8,7.3,3.6,10.9,5.3c3.1,1.5,6.2,3,9.3,4.6
		c2.5,1.2,5,2.4,7.5,3.7c1.6,0.8,3,1.9,3.3,3.9c0.4,2.2-0.2,4-2,5.2c-3,2.1-6.2,4-9.3,5.9c-0.9,0.5-1.7,1.1-2.8,1.8
		c2.6,3,5,6,7.6,8.9c4.7,5.1,10.1,9.4,16.1,13c5.2,3.1,10.6,5.7,16.5,7.5c3.1,0.9,6.2,1.9,9.3,2.4c3.9,0.6,7.8,1,11.7,1.1
		c2.9,0.1,5.8,0.1,8.7-0.2c5.6-0.5,11.1-1.6,16.5-3.3c4.6-1.5,8.9-3.3,13.2-5.6c4.8-2.6,9.3-5.6,13.6-9.2c4.3-3.6,8.2-7.7,11.6-12.1
		c3.1-4.1,6-8.4,8.1-13.1c1.6-3.6,3-7.4,4.4-11.1c1.1-3,4.4-5.2,7.6-5.4c3.9-0.2,6.8,1.2,8.6,4.6c1.1,2.2,1.7,4.5,0.7,6.9
		c-1.6,4.1-3,8.3-4.8,12.3c-2.7,5.9-6,11.5-10.1,16.5c-2.5,3-4.9,6.1-7.7,8.8c-3.1,3.1-6.5,6-9.8,8.8c-4.8,4-10.2,7.2-15.7,10
		c-3.5,1.8-7.2,3.2-10.9,4.6c-2.7,1-5.6,1.9-8.5,2.7c-2.2,0.6-4.5,1-6.8,1.4c-1.7,0.3-3.5,0.6-5.3,0.9c-1.3,0.2-2.7,0.3-4,0.4
		c-2,0.2-4,0.4-6.1,0.5c-2,0-4-0.2-6.1-0.3c-0.9,0-1.7-0.1-2.6-0.2c-4-0.6-8.2-1-12.2-1.7c-2.9-0.5-5.7-1.4-8.5-2.3
		c-3.1-1-6.2-2.2-9.2-3.4c-4.8-1.9-9.3-4.4-13.6-7.2c-6.8-4.3-12.9-9.3-18.3-15.2C362.5,683.6,359.4,679.8,356.2,675.9z"/>
	<path d="M493,481.9c-2.5-3.6-5.3-6.9-8.3-9.9c-5.6-5.7-11.9-10.3-18.9-14c-4-2.1-8.1-3.9-12.4-5.2c-3-0.9-6.1-1.8-9.2-2.4
		c-2.5-0.5-5-0.9-7.5-1c-5.2-0.3-10.4-0.6-15.5,0.4c-3.1,0.6-6.3,0.9-9.3,1.6c-2.4,0.6-4.9,1.3-7.2,2.2c-3.8,1.6-7.6,3.2-11.3,5.1
		c-5,2.6-9.6,5.9-13.9,9.6c-4.1,3.6-7.8,7.6-11.1,11.9c-3.4,4.6-6.5,9.5-8.7,14.9c-1.1,2.9-2.3,5.7-3.3,8.6c-1.1,3-4.4,5.2-7.6,5.4
		c-3.8,0.1-6.8-1.1-8.6-4.5c-1.2-2.2-1.7-4.5-0.7-7c1.6-4.1,3-8.4,4.8-12.4c2.8-6,6.3-11.6,10.3-16.9c6.2-8,13.5-14.9,22-20.7
		c5.2-3.5,10.6-6.5,16.4-9c4.6-2,9.3-3.6,14.2-4.8c3.6-0.9,7.3-1.4,11.1-2c3.9-0.6,7.9-0.9,11.8-1.2c1.6-0.1,3.3,0.2,4.9,0.3
		c1.3,0.1,2.6,0.2,3.9,0.4c3.8,0.5,7.6,0.9,11.4,1.7c3.7,0.7,7.3,1.7,10.8,2.9c7.3,2.5,14.3,5.9,20.8,10.1
		c6.5,4.3,12.6,9.1,17.8,14.9c2.9,3.2,5.4,6.6,8.1,9.9c0.3,0.4,0.6,0.7,0.9,1.1c2.8-1.7,5.5-3.4,8.3-5.2c1.4-0.9,2.9-1.8,4.3-2.5
		c3.8-1.9,7.4,0.9,7.4,5c0,13.5,0,27,0,40.5c0,1.2-0.3,2.5-0.6,3.7c-0.7,2.4-3.6,4.1-5.9,3.3c-2-0.6-3.9-1.5-5.8-2.4
		c-3.2-1.5-6.3-3.1-9.5-4.7c-3.6-1.7-7.2-3.5-10.8-5.2c-4.4-2.2-8.8-4.2-13.1-6.4c-1.5-0.7-2.7-1.7-3.2-3.5
		c-0.6-2.2,0.2-4.6,2.1-5.8c2.9-1.9,5.9-3.7,8.9-5.6C491.4,483,492.2,482.4,493,481.9z"/>
	<path d="M532.6,620.7c-11.3,0-22.7,0-34,0c-4.4,0-8.4-2.9-8.8-7.6c-0.4-5.5-0.6-10.9,0.8-16.3c0.9-3.1,2.5-5.9,4.5-8.3
		c3.4-4.1,7.6-7.3,12.4-9.7c3.9-2,7.9-3.3,12.2-4.3c5.2-1.1,10.5-1.4,15.8-1.3c5.1,0.1,10.1,1,14.8,2.5c7.9,2.5,14.9,6.5,20.1,13.2
		c2.7,3.4,4.2,7.2,5,11.5c0.6,3.5,0.6,7.1,0.5,10.6s-1.4,6.7-4.7,8.5c-1.3,0.7-2.9,1.1-4.3,1.1C555.5,620.7,544.1,620.7,532.6,620.7
		z"/>
	<path d="M332.5,620.7c-11.3,0-22.7,0-34.1,0c-3.9,0-7.5-2.8-8.5-6.3c-0.6-2-0.7-3.9-0.6-5.9c0-1,0.1-2.1,0.1-3.1
		c0-8.8,3.6-15.8,10.2-21.4c4-3.3,8.4-5.7,13.3-7.5c4-1.4,8.2-2.4,12.5-2.8c2.8-0.3,5.6-0.3,8.5-0.4c3.8-0.1,7.6,0.4,11.4,1.2
		c2.4,0.5,4.8,1.2,7.1,2c4.3,1.4,8.2,3.6,11.8,6.3c4.2,3.1,7.6,6.9,9.6,11.7c0.9,2.2,1.4,4.5,1.7,6.8c0.3,3.3,0.3,6.6,0.2,10
		c0,3.5-1.3,6.6-4.6,8.3c-1.3,0.6-2.8,1.1-4.2,1.1C355.3,620.7,343.9,620.7,332.5,620.7z"/>
	<path d="M554,549.2c0.3,11.9-9.6,21.4-21.3,21.4c-11.6,0-22.3-9.4-21.3-23.2c0.8-10.4,9.2-19.9,22.1-19.6
		C544.4,528.1,554.2,537.2,554,549.2z"/>
	<path d="M310.9,549.2c-0.1-11.8,9.4-21.5,21.6-21.4c11.4,0.1,21.1,9.2,21.1,21.5c0,11.8-9.5,21.3-21.4,21.3
		C320.3,570.5,310.7,561,310.9,549.2z"/>
	<path d="M368.9,431.1v-18.8H434v4.7c7.4,0,14.6,0.5,21.7,1.5V162.8c0-6-4.9-10.9-10.9-10.9H119.3c-6,0-10.8,4.9-10.8,10.9v282.1
		c0,6,4.9,10.9,10.8,10.9h211.4C342.2,445.8,355,437.4,368.9,431.1z M347.2,434H195.3v-21.7h151.9L347.2,434L347.2,434z
		 M347.2,390.6H195.3v-21.7h151.9L347.2,390.6L347.2,390.6z M347.2,347.2H195.3v-21.7h151.9L347.2,347.2L347.2,347.2z M347.2,303.8
		H195.3v-21.7h151.9L347.2,303.8L347.2,303.8z M347.2,260.4H195.3v-21.7h151.9L347.2,260.4L347.2,260.4z M434,390.6h-65.1v-21.7H434
		V390.6z M434,347.2h-65.1v-21.7H434V347.2z M434,303.8h-65.1v-21.7H434V303.8z M434,260.4h-65.1v-21.7H434V260.4z M130.2,173.6H434
		V217H130.2V173.6z M173.6,434h-43.4v-21.7h43.4V434z M173.6,390.6h-43.4v-21.7h43.4V390.6z M173.6,347.2h-43.4v-21.7h43.4V347.2z
		 M173.6,303.8h-43.4v-21.7h43.4V303.8z M173.6,260.4h-43.4v-21.7h43.4V260.4z"/>
	<path d="M287,629.3H54.3c-18,0-32.5-14.6-32.5-32.5V97.6c0-18,14.6-32.5,32.5-32.5h38.9L68.3,90c-0.9,0.9-1.6,2-2.2,3.2
		c-0.1,0.3-0.2,0.7-0.4,1c-0.3,0.9-0.5,1.8-0.6,2.8c0,0.2-0.1,0.4-0.1,0.7v455.7c0,12,9.7,21.7,21.7,21.7H277c0-0.4,0-0.7,0-1
		c0-7,0.5-13.9,1.4-20.7H86.8V108.5h65.1c12,0,21.7-9.7,21.7-21.7V21.7h293c6,0,10.9,4.9,10.9,10.8V423c7.5,2.1,14.7,4.8,21.7,8
		V32.5c0-18-14.6-32.5-32.5-32.5H162.8c-0.2,0-0.4,0.1-0.6,0.1c-1,0-2,0.2-2.9,0.6c-0.3,0.1-0.6,0.2-0.9,0.3
		c-1.2,0.5-2.3,1.3-3.3,2.2l-40.2,40.2H54.3C24.4,43.4,0.1,67.7,0,97.7v499.1c0,29.9,24.3,54.2,54.3,54.3h242.9
		C293.3,644.1,289.9,636.8,287,629.3z M127,61.9L151.9,37v49.8h-49.8L127,61.9z"/>
</g>
</svg>
