<?xml version="1.0" encoding="utf-8"?>
<!-- Generator: Adobe Illustrator 22.1.0, SVG Export Plug-In . SVG Version: 6.00 Build 0)  -->
<svg version="1.1" id="Layer_1" xmlns="http://www.w3.org/2000/svg" xmlns:xlink="http://www.w3.org/1999/xlink" x="0px" y="0px"
	 viewBox="0 0 799.2 773.2" style="enable-background:new 0 0 799.2 773.2;" xml:space="preserve">
<style type="text/css">
	.st0{fill:none;stroke:#000000;stroke-width:26;stroke-miterlimit:10;}
</style>
<g>
	<path d="M408.5,326.6c-1.6,0-2.8,0-3.9,0c-37.9,0-75.8,0-113.7,0c-3.6,0-7.2-0.2-9.1-3.8c-1.9-3.5-0.3-6.6,1.8-9.6
		c6.2-8.7,12.4-17.5,18.4-26.4c2.3-3.4,5.3-4.7,9.3-4.7c27.5,0.1,54.9,0,82.4,0c1.1,0,2.3,0,3.4,0c0.1-0.2,0.3-0.5,0.4-0.7
		c-2.2-1.9-4.3-3.9-6.6-5.6c-13.9-9.8-29.5-14.1-46.3-14.3c-18.3-0.2-36.5,0-54.8,0c-5.1,0-7.6-1.7-8.1-6.3
		c-0.2-1.8,0.3-3.9,1.3-5.4c6.3-9.5,12.9-18.8,19.2-28.3c2.3-3.5,5.3-4.6,9.3-4.6c40.6,0.1,81.2,0,121.8,0c28.8,0,57.6,0,86.4,0
		c0.9,0,1.7-0.1,2.6,0c6.5,0.6,9.1,5.9,5.5,11.4c-6.3,9.6-12.8,19.1-19.3,28.6c-2.2,3.2-5.2,4.6-9.1,4.6c-12.9-0.1-25.7,0-38.6,0
		c-1.1,0-2.1,0-3.7,0c0.9,1.8,1.8,3.2,2.4,4.8c1.8,4.4,3.5,8.8,5,13.2c0.6,1.9,1.4,2.7,3.5,2.7c16.8-0.1,33.6-0.1,50.5-0.1
		c3.7,0,7.4,0.1,9.4,3.8c2,3.7,0.3,6.8-1.9,9.9c-5.9,8.6-11.8,17.2-17.5,25.9c-2.3,3.5-5.2,5-9.4,4.9c-9.6-0.2-19.1,0-28.7-0.1
		c-2.2,0-3,0.6-3.6,2.8c-7.3,27.7-23.5,48.7-48.7,62.2c-16.1,8.6-33.4,14-51.7,16.3c-0.4,0-0.7,0.2-1.5,0.4c0.7,0.9,1.1,1.6,1.7,2.3
		c26,30.9,52.1,61.7,78.2,92.5c12.9,15.3,26,30.4,39,45.6c0.7,0.8,1.4,1.6,2,2.5c3.1,4.1,1.4,9.1-3.6,10.4c-1.2,0.3-2.5,0.4-3.7,0.4
		c-17.3,0-34.6,0-51.9,0.1c-3.8,0-6.5-1.3-8.9-4.3c-13.3-15.7-26.7-31.3-40.1-46.9c-16.8-19.7-33.7-39.3-50.5-59
		c-10.3-12-20.5-24.2-30.8-36.2c-2.5-2.9-3.8-6.1-3.8-10c0.1-8.2,0-16.4,0-24.7c0-7.5,3.1-9.8,10.5-9.2c21.4,2,42.7,2.2,63.5-4.2
		c12.7-3.9,23.9-10.4,32.2-21.1C403,340.8,406.1,334.2,408.5,326.6z"/>
	<path d="M193.5,661c-5.9,3.7-12.3,7.8-18.8,11.7c-4.9,2.9-9.8,5.8-14.8,8.5c-7.5,4-16.4-1.1-18.4-9.3c-0.4-1.6-0.6-3.2-0.6-4.9
		c0-37.2-0.1-74.4,0-111.6c0-13.6,11.5-19.9,21.7-15c8.9,4.2,17.9,8.5,26.8,12.8c9.9,4.8,19.7,9.6,29.5,14.4
		c8.4,4.1,16.7,8.2,25.1,12.3c6.7,3.3,13.5,6.5,20.2,9.9c4.4,2.2,8.1,5.1,9,10.5c1,5.8-0.5,10.8-5.3,14c-8.2,5.6-16.7,10.7-25.1,16
		c-2.3,1.4-4.5,2.9-7.6,4.8c6.9,8.2,13.4,16.3,20.4,23.9c12.7,13.8,27.2,25.4,43.3,35c14.1,8.4,28.7,15.5,44.5,20.2
		c8.3,2.4,16.6,5.1,25.1,6.5c10.4,1.7,21,2.6,31.6,3.1c7.8,0.4,15.7,0.2,23.4-0.5c15.1-1.4,30-4.3,44.5-9c12.3-4,24.1-8.9,35.5-15
		c13-7,25.2-15.2,36.6-24.8c11.7-9.8,22.2-20.7,31.4-32.7c8.4-11.1,16.2-22.6,21.8-35.4c4.3-9.8,8.1-19.9,11.9-29.9
		c3.1-8.1,11.9-14.1,20.6-14.5c10.4-0.5,18.4,3.2,23.3,12.4c3.1,5.8,4.6,12,1.9,18.6c-4.4,11-8,22.5-12.9,33.2
		c-7.3,15.9-16.2,30.9-27.3,44.5c-6.7,8.1-13.3,16.4-20.7,23.8c-8.4,8.4-17.4,16.1-26.5,23.7c-12.9,10.8-27.4,19.4-42.3,27
		c-9.5,4.8-19.5,8.6-29.4,12.4c-7.4,2.8-15.1,5.1-22.8,7.2c-6,1.6-12.2,2.6-18.4,3.7c-4.7,0.9-9.5,1.6-14.2,2.3
		c-3.6,0.5-7.3,0.8-10.9,1.1c-5.5,0.5-10.9,1.2-16.4,1.3s-10.9-0.5-16.4-0.8c-2.3-0.1-4.6-0.2-6.9-0.5c-10.9-1.5-22-2.7-32.8-4.7
		c-7.7-1.4-15.3-3.8-22.8-6.2c-8.4-2.7-16.6-5.9-24.9-9.1c-12.9-5.1-25-11.8-36.7-19.3c-18.2-11.5-34.9-25-49.3-41
		C210.5,681.8,202.3,671.5,193.5,661z"/>
	<path d="M562.5,137.9c-6.8-9.7-14.4-18.5-22.5-26.8c-15-15.3-32.2-27.7-51-37.7c-10.7-5.7-21.8-10.6-33.4-13.9
		c-8.2-2.3-16.4-4.8-24.8-6.6c-6.7-1.4-13.5-2.3-20.3-2.7c-14-0.7-28-1.5-41.9,1c-8.4,1.6-16.9,2.5-25.2,4.4
		c-6.6,1.5-13.3,3.4-19.5,6c-10.3,4.2-20.5,8.6-30.4,13.8c-13.5,7.1-25.9,16-37.5,26c-11.1,9.7-21.1,20.4-29.9,32.2
		c-9.2,12.5-17.6,25.5-23.4,40.1c-3.1,7.8-6.1,15.5-9,23.3c-3.1,8.1-11.9,14.1-20.6,14.5c-10.2,0.4-18.2-3.1-23.2-12.1
		c-3.2-5.9-4.7-12.1-2-18.9c4.4-11.1,8-22.6,13-33.5c7.5-16.2,17-31.3,27.9-45.5c16.8-21.7,36.5-40.3,59.2-55.8
		c13.9-9.5,28.7-17.6,44.2-24.2c12.4-5.3,25.1-9.7,38.2-12.9c9.8-2.4,19.8-3.9,29.8-5.3c10.6-1.5,21.2-2.5,31.9-3.2
		c4.4-0.3,8.8,0.6,13.2,0.9c3.5,0.3,6.9,0.6,10.4,1c10.3,1.4,20.6,2.5,30.8,4.5c9.9,2,19.7,4.6,29.2,7.9
		c19.8,6.8,38.5,15.9,56.1,27.3c17.6,11.5,33.9,24.6,48,40.2c7.7,8.5,14.6,17.7,21.8,26.6c0.8,1,1.5,2,2.4,3.1
		c7.5-4.7,14.9-9.3,22.4-13.9c3.9-2.4,7.7-4.8,11.7-6.8c10.3-5,19.9,2.4,19.9,13.5c0.1,36.4,0.1,72.9,0,109.3c0,3.3-0.7,6.7-1.6,9.9
		c-1.8,6.5-9.6,11-16,9c-5.4-1.7-10.5-4.1-15.7-6.6c-8.6-4.1-17.1-8.4-25.6-12.6c-9.7-4.7-19.3-9.4-29-14.1
		c-11.8-5.8-23.7-11.4-35.4-17.3c-4-2-7.4-4.6-8.7-9.4c-1.6-6,0.5-12.3,5.7-15.7c7.9-5.1,16-10.1,23.9-15.2
		C558.1,140.8,560.2,139.4,562.5,137.9z"/>
	<path class="st0" d="M669.3,512.1c-30.5,0-61.1,0-91.6,0c-11.8,0-22.6-7.9-23.7-20.5c-1.2-14.7-1.7-29.5,2.2-44
		c2.3-8.4,6.7-15.8,12.2-22.4c9.1-11.1,20.5-19.6,33.3-26.1c10.4-5.3,21.4-9,32.8-11.5c14-3,28.2-3.8,42.5-3.4
		c13.7,0.4,27.1,2.7,40,6.8c21.4,6.7,40.2,17.6,54.3,35.5c7.2,9.1,11.3,19.4,13.4,30.9c1.7,9.5,1.7,19.1,1.3,28.6
		c-0.4,9.4-3.8,18.1-12.8,22.9c-3.4,1.8-7.7,3-11.5,3.1C731,512.2,700.1,512.1,669.3,512.1z"/>
	<path class="st0" d="M129.6,512.1c-30.6,0-61.3,0-91.9,0c-10.6,0-20.1-7.5-22.9-17.1c-1.5-5.4-2-10.5-1.7-15.9
		c0.1-2.8,0.2-5.6,0.2-8.4c-0.1-23.7,9.6-42.6,27.6-57.6c10.7-8.9,22.7-15.5,35.8-20.2c10.9-3.9,22.1-6.6,33.7-7.6
		c7.6-0.7,15.2-0.9,22.8-1c10.3-0.2,20.6,1.1,30.7,3.3c6.5,1.4,12.9,3.3,19.1,5.5c11.5,3.9,22,9.6,31.7,16.9
		c11.2,8.4,20.6,18.6,26,31.6c2.4,5.8,3.9,12.2,4.5,18.4c0.9,8.9,0.7,17.9,0.6,26.9c-0.1,9.5-3.4,17.7-12.4,22.3
		c-3.4,1.7-7.5,3-11.3,3C191.2,512.2,160.4,512.1,129.6,512.1z"/>
	<path class="st0" d="M726.8,319.4c0.8,32.2-26,57.7-57.5,57.6c-31.2-0.1-60-25.4-57.3-62.5c2.1-28.1,24.9-53.7,59.7-52.8
		C701.1,262.5,727.5,287,726.8,319.4z"/>
	<path class="st0" d="M71.3,319.3c-0.3-31.7,25.3-58,58.2-57.6c30.8,0.4,56.8,24.9,56.8,58c0,31.7-25.6,57.4-57.7,57.3
		C96.8,376.9,70.9,351.2,71.3,319.3z"/>
</g>
</svg>
