<?xml version="1.0" encoding="utf-8"?>
<!-- Generator: Adobe Illustrator 22.1.0, SVG Export Plug-In . SVG Version: 6.00 Build 0)  -->
<svg version="1.1" id="Layer_1" xmlns="http://www.w3.org/2000/svg" xmlns:xlink="http://www.w3.org/1999/xlink" x="0px" y="0px"
	 viewBox="0 0 623 646.8" style="enable-background:new 0 0 623 646.8;" xml:space="preserve">
<path d="M279,646.8c-65.2,0-130.5-0.1-195.7,0c-20.4,0-39.3-3.9-55.3-17.7c-17-14.6-27-32.9-27.1-55.5c-0.3-44.5-2-89,0.6-133.4
	C5.3,375,36.5,324,91.1,287.6c9.3-6.2,21.4-3.3,27.5,5.8c6.2,9.2,3.7,21-5.6,28.2c-8.7,6.8-18,13.2-25.8,21
	c-29.8,29.6-45.4,65.6-45.8,107.7c-0.3,39.1-0.2,78.3-0.2,117.4c0,24.2,14.1,38.4,38.2,38.4c109.7,0,219.4,0,329.1,0
	c22.2,0,44.5-0.6,66.7,0.2c25.1,1,41.7-16.2,41-40.5c-1.1-36.9-0.4-73.9-0.2-110.9c0-15.9,13.1-26,27-21.1c7.8,2.7,13.4,9.7,13.4,18
	c0.1,41.8,1,83.6-0.3,125.4c-1.2,38.9-35.6,69.3-76.4,69.4C412.9,646.9,345.9,646.8,279,646.8z"/>
<path d="M278.9,0c90,0,162.9,72.9,163.2,163.2c0.3,89.1-73.7,163.6-162.3,163.5c-91.6-0.1-164.3-72.3-164.3-163.3
	C115.5,72.4,188,0,278.9,0z M278.7,40.7c-67.4-0.2-122.5,54-122.8,120.7c-0.3,69.3,53.5,124.4,121.8,124.7
	c66.9,0.2,122.2-54,123.8-118.6C403.3,97.7,346.4,39.6,278.7,40.7z"/>
<path d="M556.9,320c0,13.1,0,25.4,0,37.6c0,3.9,0.1,7.7-0.1,11.6c-0.5,11.5-8.7,19.9-19.6,20.1c-11.3,0.2-20.3-7.8-20.8-19.7
	c-0.5-11.6-0.2-23.2-0.2-34.8c0-4.6,0-9.1,0-14.4c-3.1-0.1-5.7-0.4-8.3-0.4c-14.3,0-28.5,0.2-42.8,0c-12.9-0.2-21.9-8.7-21.9-20.2
	c0-11.6,8.9-20.2,21.8-20.3c16.6-0.2,33.3-0.1,50.8-0.1c0.1-2.8,0.3-5.1,0.3-7.5c0-13.5-0.2-27.1,0.1-40.6
	c0.3-12.8,9-21.5,20.8-21.3c11.5,0.2,19.6,8.9,19.7,21.5c0.2,13.1,0,26.1,0,39.2c0,2.6,0,5.2,0,8.7c11,0,21,0,31.1,0
	c4.8,0,9.7-0.2,14.5,0.1c11.9,0.6,20.4,9.2,20.4,20.2c0,11-8.6,19.8-20.4,20.2c-12.3,0.4-24.7,0.1-37,0.1
	C563,320,560.4,320,556.9,320z"/>
</svg>
