<?xml version="1.0" encoding="utf-8"?>
<!-- Generator: Adobe Illustrator 22.1.0, SVG Export Plug-In . SVG Version: 6.00 Build 0)  -->
<svg version="1.1" id="Capa_1" xmlns="http://www.w3.org/2000/svg" xmlns:xlink="http://www.w3.org/1999/xlink" x="0px" y="0px"
	 viewBox="0 0 368 368" style="enable-background:new 0 0 368 368;" xml:space="preserve">
<style type="text/css">
	.st0{display:none;}
	.st1{display:inline;}
	.st2{fill:#01D28E;}
	.st3{fill:#F0134D;}
	.st4{display:inline;fill:#FBE555;}
</style>
<g class="st0">
	<g class="st1">
		<g>
			<path class="st2" d="M261.3,226c-3.3-3-8.4-2.7-11.3,0.6c-16.7,18.6-40.8,29.3-66,29.3c-25.3,0-49.4-10.7-66-29.3
				c-3-3.3-8-3.6-11.3-0.6c-3.3,2.9-3.6,8-0.6,11.3c19.7,22,48.1,34.7,78,34.7c29.8,0,58.2-12.6,78-34.7
				C264.9,234,264.6,229,261.3,226z"/>
			<path class="st2" d="M184,0C82.5,0,0,82.5,0,184s82.5,184,184,184s184-82.5,184-184S285.5,0,184,0z M184,352
				c-92.6,0-168-75.4-168-168S91.4,16,184,16s168,75.4,168,168S276.6,352,184,352z"/>
			<path class="st2" d="M248,128c-22.1,0-40,17.9-40,40c0,4.4,3.6,8,8,8s8-3.6,8-8c0-13.2,10.8-24,24-24c13.2,0,24,10.8,24,24
				c0,4.4,3.6,8,8,8s8-3.6,8-8C288,145.9,270.1,128,248,128z"/>
			<path class="st2" d="M144,168c0,4.4,3.6,8,8,8s8-3.6,8-8c0-22.1-17.9-40-40-40s-40,17.9-40,40c0,4.4,3.6,8,8,8s8-3.6,8-8
				c0-13.2,10.8-24,24-24S144,154.8,144,168z"/>
		</g>
	</g>
</g>
<g>
	<path class="st3" d="M106.7,270c3.3,3,8.4,2.7,11.3-0.6c16.7-18.6,40.8-29.3,66-29.3c25.3,0,49.4,10.7,66,29.3
		c3,3.3,8,3.6,11.3,0.6c3.3-2.9,3.6-8,0.6-11.3c-19.7-22-48.1-34.7-78-34.7c-29.8,0-58.2,12.6-78,34.7
		C103.1,262,103.4,267,106.7,270z"/>
	<path class="st3" d="M184,0C82.5,0,0,82.5,0,184s82.5,184,184,184s184-82.5,184-184S285.5,0,184,0z M184,352
		c-92.6,0-168-75.4-168-168S91.4,16,184,16s168,75.4,168,168S276.6,352,184,352z"/>
	<path class="st3" d="M248,128c-22.1,0-40,17.9-40,40c0,4.4,3.6,8,8,8s8-3.6,8-8c0-13.2,10.8-24,24-24c13.2,0,24,10.8,24,24
		c0,4.4,3.6,8,8,8s8-3.6,8-8C288,145.9,270.1,128,248,128z"/>
	<path class="st3" d="M144,168c0,4.4,3.6,8,8,8s8-3.6,8-8c0-22.1-17.9-40-40-40s-40,17.9-40,40c0,4.4,3.6,8,8,8s8-3.6,8-8
		c0-13.2,10.8-24,24-24S144,154.8,144,168z"/>
</g>
<g class="st0">
	<path class="st4" d="M184,0C82.5,0,0,82.5,0,184s82.5,184,184,184s184-82.5,184-184S285.5,0,184,0z M184,352
		c-92.6,0-168-75.4-168-168S91.4,16,184,16s168,75.4,168,168S276.6,352,184,352z"/>
	<path class="st4" d="M248,128c-22.1,0-40,17.9-40,40c0,4.4,3.6,8,8,8s8-3.6,8-8c0-13.2,10.8-24,24-24c13.2,0,24,10.8,24,24
		c0,4.4,3.6,8,8,8s8-3.6,8-8C288,145.9,270.1,128,248,128z"/>
	<path class="st4" d="M144,168c0,4.4,3.6,8,8,8s8-3.6,8-8c0-22.1-17.9-40-40-40s-40,17.9-40,40c0,4.4,3.6,8,8,8s8-3.6,8-8
		c0-13.2,10.8-24,24-24S144,154.8,144,168z"/>
	<path class="st4" d="M244.7,241.5H123.3c-4.4,0-8,3.6-8,8s3.6,8,8,8h121.3c4.4,0,8-3.6,8-8S249.1,241.5,244.7,241.5z"/>
</g>
</svg>
