<?xml version="1.0" encoding="utf-8"?>
<!-- Generator: Adobe Illustrator 22.1.0, SVG Export Plug-In . SVG Version: 6.00 Build 0)  -->
<svg version="1.1" id="Layer_1" xmlns="http://www.w3.org/2000/svg" xmlns:xlink="http://www.w3.org/1999/xlink" x="0px" y="0px"
	 viewBox="0 0 809.8 853.4" style="enable-background:new 0 0 809.8 853.4;" xml:space="preserve">
<style type="text/css">
	.st0{fill:none;stroke:#000000;stroke-width:26;stroke-miterlimit:10;}
</style>
<g>
	<path class="st0" d="M559.5,233.6c0.3,1.8,0.7,3,0.7,4.1c0,102.6,0.1,205.1-0.1,307.7c0,8.3-2.8,16.1-6.5,23.6
		c-4.5,9.1-8.7,18.3-13.1,27.4c-4.2,8.8-8.5,17.5-12.5,26.3c-4.3,9.4-8.9,18.8-12.3,28.5c-3.6,10.3-3.1,21.2-2.4,32
		c0,0.2-0.1,0.4-0.3,0.9c-56.4,0-112.9,0-169.8,0c0-3.9,0-7.8,0-11.7c0-5.4-0.2-10.7,0-16.1c0.2-6.6-1.7-12.8-3.5-19.1
		c-3.8-13.2-11.9-23.6-20.5-33.9c-12.4-14.6-24.6-29.4-36.6-44.2c-4.4-5.4-8.5-11-12.2-16.9c-3.6-5.6-4.9-12.2-5-18.6
		c-0.5-18.1-0.2-36.3-0.2-54.4c0-0.3,0.1-0.6,0.2-1.1c14.9,0,29.8,0,45,0c0,3.9,0.2,7.7-0.1,11.4c-0.2,3,0.8,4.1,3.8,4
		c8.4-0.1,16.8-0.1,25.2,0c3,0,3.9-1,3.9-4c-0.1-44-0.1-88-0.1-132.1c0-34-0.6-68,0.2-101.9c0.4-18.6,9.4-33.3,26.5-42.2
		c1.8-0.9,2.7-0.6,2.7,1.5c0,0.9,0,1.7,0,2.6c0,58.8,0,117.5,0,176.3c0,5.6,0,5.6,5.5,5.6c7.5,0,15.1,0,22.6,0
		c4.8,0,4.8,0.1,4.8-4.6c0-20.1,0-40.2,0-60.3c0-36.8-0.5-73.6,0.2-110.4c0.4-18.4,9.2-32.9,26.1-41.7c2.6-1.3,3-0.5,3,1.9
		c0,10.6,0,21.2,0,31.8c0,59.1,0,118.2,0,177.3c0,1.1,0,2.2,0,3.3c0.1,2,1.1,2.9,3.1,2.9c9,0,17.9,0,26.9,0c2,0,3.1-0.9,3.2-2.8
		c0.1-1,0.1-2,0.1-2.9c0-51.2-0.3-102.5,0.2-153.7c0.2-18.7,9.1-33.1,26-42.1c2.7-1.4,3,0,3.2,2c0.1,1.5-0.1,3.1-0.1,4.6
		c0,63.1,0,126.3,0,189.4c0,5.5,0.1,5.5,5.4,5.5c7.4,0,14.9,0,22.3,0c5.5,0,5.5,0,5.5-5.7c0-35.5-0.4-71,0.2-106.5
		c0.3-18.7,9-33.2,25.8-42.2C557.4,234.8,558,234.4,559.5,233.6z"/>
	<path class="st0" d="M467.6,165.4c-1.8-7-4.8-12.9-9.6-17.6c-8.8-8.6-19.6-11.3-31.3-9c-8.6,1.7-15.8,6.8-22.6,12.3
		c-6.9,5.6-13.4,11.5-18,19.2c-0.5,0.8-2.7,1.4-3.8,1c-10.2-3.3-19.9-2-29.1,3.2c-13.6,7.6-24.4,18.1-32.3,31.5
		c-3.9,6.6-6.7,13.9-8.7,21.5c-1.5,5.9-1.6,11.6-1.6,17.5c0,2.1-0.5,2.9-2.7,2.9c-19.1-0.1-38.2-0.1-57.3,0c-2.1,0-2.5-0.7-3-2.8
		c-1.1-4.7-2.5-9.4-4.5-13.8c-5.4-11.4-13.1-21.2-23.1-29.1c-7.3-5.7-15.1-10.5-24.1-13.2c-2.7-0.8-5.4-1.6-8.3-2.5
		c0-21,0-42.2,0-63.2c21.7-5.5,38.5-17.3,50.5-36.1c4-6.2,6.6-12.8,9.1-19.6c0.1-0.2,0.3-0.4,0.2-0.6c-0.8-5.4,2.8-4.7,6.3-4.7
		c143,0,286,0,429,0c1.3,0,2.6,0,3.6,0c5.5,21.9,17.5,38.6,36.3,50.7c6.3,4,13,6.6,19.9,9.2c1.6,0.6,4.1,0.5,4.8,1.7
		c0.8,1.3,0.1,3.6,0.1,5.4c0,18.5,0.1,36.9,0,55.4c0,0.8-0.9,2.2-1.6,2.4c-10.8,2.3-20.4,7.3-29.1,13.8
		c-12.4,9.3-21.4,21.4-27.2,35.9c-1.2,2.9-1.6,6.1-2.6,9c-0.3,0.8-1.3,1.5-2.2,2c-0.5,0.3-1.3,0.1-1.9,0.1c-28.5,0-57,0-85.5,0
		c-1.2,0-2.4,0-4.1,0c0-4.2-0.2-8.2,0-12.2c0.7-11.5-4.1-20.5-12.8-27.5c-9.4-7.5-20.2-10-31.8-5.7c-5.5,2.1-10.5,5.4-15.8,8.1
		c-0.5,0.3-1.1,0.6-2,1.1c0-8.5,0.2-16.5,0-24.6c-0.4-13.1-6.9-22.4-17.8-29.1c-7.5-4.6-15.8-5-23.6-3.4c-6.3,1.3-12.1,5.5-18,8.5
		C470.1,163.6,469.1,164.4,467.6,165.4z M529.7,155.9c4.3,0,8.5-0.1,12.8,0c2.9,0.1,4.1-1,4.1-4c-0.1-7.4-1.7-14.4-3.8-21.4
		c-2.8-9.1-7.1-17.2-13-24.5c-10.1-12.5-22.5-21.7-38-26.5c-6.6-2-13.1-3.9-20-3.5c-3.6,0.2-7.2,0.1-10.8,0
		c-7.4-0.2-14.4,2-21.1,4.6c-6.1,2.3-11.9,5.7-17.4,9.2c-9.8,6.3-17.2,14.9-23.2,24.8c-0.5,0.9-0.2,3.3,0.5,3.8
		c8,4.7,16,9.3,24.2,13.7c2,1.1,4,0.7,5.2-1.7c0.5-1.1,1.1-2.1,1.9-3c7.1-8.6,15.8-14.2,26.8-16.9c11.6-2.9,22.2-0.6,31.9,4.7
		c14.2,7.7,21.6,20.7,23.3,36.6c0.4,3.4,1.5,4.3,4.6,4.2C521.6,155.8,525.6,155.9,529.7,155.9z"/>
	<path d="M593.2,309.9c0-9.8,0-19.4,0-29.3c1.4,0,2.7,0,4,0c35,0,69.9,0,104.9,0c8.9,0,15.9-6.8,16.1-15.6
		c0.2-9.6,2.6-18.7,8.2-26.6c5.3-7.7,12.2-13.4,21.2-16.6c6-2.1,12.1-3.8,18.4-3.4c5.8,0.4,14.8-8.4,14.7-15
		c-0.3-32.1-0.1-64.2-0.1-96.3c0-8.1-6.9-15.1-14.9-15.4c-14.7-0.7-27.6-5.5-37.1-17.3c-4.6-5.7-8-12.1-8.9-19.5
		c-0.5-4-1.2-8-1.5-11.9c-0.4-6.4-8.7-14.1-15.4-14c-18.7,0.2-37.4,0-56,0c-137,0-274,0-411-0.1c-6.3,0-11.6,1.3-15.6,6.4
		c-2,2.5-3.2,5.2-3.4,8.6c-0.6,17.8-7.6,32.1-23.2,41.4c-7.4,4.4-15.7,6-24.2,6.4c-8.1,0.4-14.8,6.9-14.8,15.1
		c0,32.1,0.1,64.2-0.1,96.3c0,6,3,9.9,7.5,12.7c2.5,1.5,5.8,2.2,8.9,2.5c18.1,1.4,32.2,8.8,40.6,25.5c3.6,7.1,5.2,14.6,5.3,22.5
		c0.1,7.1,7.5,14.4,14.6,14.4c24.9,0,49.8,0,74.7,0c1.3,0,2.6,0,4.2,0c0,9.8,0,19.4,0,29.3c-61.7,0-123.3,0-185.2,0
		c0-103.3,0-206.5,0-310c228.2,0,456.4,0,684.7,0c0,103.4,0,206.6,0,310C737.6,309.9,665.5,309.9,593.2,309.9z"/>
	<path class="st0" d="M309.9,718h252.8c7.3,0,13.1,5.9,13.1,13.1v96.1c0,7.3-5.9,13.2-13.1,13.2H309.9c-7.3,0-13.1-5.9-13.1-13.1
		c0-32,0-63.9,0-96.1C296.7,723.9,302.6,718,309.9,718z"/>
	<path d="M0,434.5c0-103.4,0-206.4,0-309.7c9.8,0,19.4,0,29.4,0c0,1.1,0,2,0,3c0,87.3,0.1,174.5-0.2,261.8c0,7.2,8.3,16.3,15.9,16.2
		c15.9-0.4,31.9,0,47.8,0c71.2,0,142.4,0,213.6,0c1.2,0,2.4,0,3.8,0c0,9.7,0,19.1,0,28.8C206.9,434.5,103.6,434.5,0,434.5z"/>
	<path d="M310.5,372.1c-82.9,0-165.5,0-248.1,0c0-103.3,0-206.4,0-309.6c9.8,0,19.6,0,29.3,0c0,22,0,43.8,0,65.6
		c0,66.2,0.1,132.4-0.1,198.6c0,7.6,5.1,13.2,10.9,15.8c1.9,0.8,4.3,0.5,6.5,0.5c47.2,0,94.4,0,141.6,0c18.8,0,37.6,0.1,56.4-0.1
		c2.9,0,3.7,0.8,3.6,3.7C310.3,355,310.5,363.5,310.5,372.1z"/>
	<path d="M747.3,372.2c-51.3,0-102.5,0-154.1,0c0-9.6,0-19.1,0-29.1c1.1-0.1,2.2-0.2,3.4-0.2c49,0,98.1,0,147.1-0.1
		c3.1,0,3.9,0.6,3.7,4C747,355.1,747.3,363.4,747.3,372.2z"/>
	<path d="M684.7,434.6c-30.5,0-60.9,0-91.5,0c0-9.6,0-19,0-28.7c30.5,0,60.8,0,91.5,0C684.7,415.3,684.7,424.7,684.7,434.6z"/>
</g>
</svg>
