<?xml version="1.0" encoding="iso-8859-1"?>
<!-- Generator: Adobe Illustrator 17.1.0, SVG Export Plug-In . SVG Version: 6.00 Build 0)  -->
<!DOCTYPE svg PUBLIC "-//W3C//DTD SVG 1.1//EN" "http://www.w3.org/Graphics/SVG/1.1/DTD/svg11.dtd">
<svg version="1.1" id="Capa_1" xmlns="http://www.w3.org/2000/svg" xmlns:xlink="http://www.w3.org/1999/xlink" x="0px" y="0px"
	 viewBox="0 0 452.082 452.082" style="enable-background:new 0 0 452.082 452.082;" xml:space="preserve">
<path id="XMLID_272_" d="M103.077,69.317c0,4.971-4.029,9-9,9h-1.362c-4.971,0-9-4.029-9-9s4.029-9,9-9h1.362
	C99.047,60.317,103.077,64.347,103.077,69.317z M133.388,60.317h-1.363c-4.971,0-9,4.029-9,9s4.029,9,9,9h1.363c4.971,0,9-4.029,9-9
	S138.359,60.317,133.388,60.317z M54.768,60.317h-1.364c-4.971,0-9,4.029-9,9s4.029,9,9,9h1.364c4.971,0,9-4.029,9-9
	S59.738,60.317,54.768,60.317z M196.935,246.272c4.971,0,9,4.029,9,9v46.646c0,4.971-4.029,9-9,9H54.768c-4.971,0-9-4.029-9-9
	v-46.646c0-4.971,4.029-9,9-9H196.935z M187.935,264.272H63.768v28.646h124.167V264.272z M308.046,292.918h-61.385v-28.646h84.72
	c4.971,0,9-4.029,9-9c0-4.971-4.029-9-9-9h-93.72c-4.971,0-9,4.029-9,9v46.646c0,4.971,4.029,9,9,9h70.385c4.971,0,9-4.029,9-9
	S313.017,292.918,308.046,292.918z M293.355,347.147c0,4.971-4.029,9-9,9H9c-4.971,0-9-4.029-9-9V34.696c0-4.971,4.029-9,9-9
	h416.597c4.971,0,9,4.029,9,9v221.771c0,4.971-4.029,9-9,9s-9-4.029-9-9V113.265h-44.84c-3.859,0-7.29-2.461-8.526-6.117
	c-3.369-9.961-12.663-16.654-23.128-16.654h-84.325c-10.465,0-19.759,6.692-23.126,16.654c-1.236,3.656-4.666,6.117-8.526,6.117H18
	v224.882h266.355C289.326,338.147,293.355,342.176,293.355,347.147z M18,95.265h200.213c7.239-13.846,21.617-22.771,37.565-22.771
	h84.325c15.949,0,30.327,8.925,37.566,22.771h38.927V43.696H18V95.265z M451.126,351.184c-1.527,3.042-4.64,4.963-8.044,4.963
	h-27.265v61.239c0,4.971-4.029,9-9,9H364.61c-4.971,0-9-4.029-9-9v-61.239h-27.265c-3.404,0-6.517-1.921-8.044-4.963
	c-1.527-3.042-1.207-6.686,0.828-9.415l57.369-76.973c1.699-2.279,4.374-3.622,7.216-3.622s5.518,1.343,7.216,3.622l57.369,76.973
	C452.333,344.498,452.653,348.142,451.126,351.184z M425.149,338.147l-39.436-52.912l-39.436,52.912h18.333c4.971,0,9,4.029,9,9
	v61.239h24.208v-61.239c0-4.971,4.029-9,9-9H425.149z M379.831,226.443H54.768c-4.971,0-9-4.029-9-9v-64.405c0-4.971,4.029-9,9-9
	h325.063c4.971,0,9,4.029,9,9v64.405C388.831,222.414,384.802,226.443,379.831,226.443z M370.831,162.038H63.768v46.405h307.063
	V162.038z"/>
<g>
</g>
<g>
</g>
<g>
</g>
<g>
</g>
<g>
</g>
<g>
</g>
<g>
</g>
<g>
</g>
<g>
</g>
<g>
</g>
<g>
</g>
<g>
</g>
<g>
</g>
<g>
</g>
<g>
</g>
</svg>
