<svg xmlns="http://www.w3.org/2000/svg" width="20.652" height="16.78" viewBox="0 0 20.652 16.78">
  <g id="Group_3" data-name="Group 3" transform="translate(0 0)">
    <path id="Path_15" data-name="Path 15" d="M20.653,49.987a8.827,8.827,0,0,1-2.44.669,4.21,4.21,0,0,0,1.863-2.34,8.461,8.461,0,0,1-2.685,1.025,4.234,4.234,0,0,0-7.324,2.9,4.36,4.36,0,0,0,.1.966,11.984,11.984,0,0,1-8.727-4.429,4.235,4.235,0,0,0,1.3,5.659,4.181,4.181,0,0,1-1.913-.521v.046a4.253,4.253,0,0,0,3.392,4.16,4.226,4.226,0,0,1-1.11.139,3.744,3.744,0,0,1-.8-.072,4.274,4.274,0,0,0,3.956,2.949,8.507,8.507,0,0,1-5.25,1.806A7.93,7.93,0,0,1,0,62.88a11.92,11.92,0,0,0,6.5,1.9A11.968,11.968,0,0,0,18.546,52.732c0-.187-.006-.368-.015-.547A8.447,8.447,0,0,0,20.653,49.987Z" transform="translate(0 -48)" fill="#fff"/>
  </g>
</svg>
