<svg xmlns="http://www.w3.org/2000/svg" width="11.044" height="12.115" viewBox="0 0 11.044 12.115">
  <g id="Group_3" data-name="Group 3" transform="translate(1073.872 -3.106)">
    <path id="Path_12" data-name="Path 12" d="M-974.283,48.92q0-1.595,0-3.19a.591.591,0,0,1,.667-.668c.523,0,1.046,0,1.569,0a.582.582,0,0,1,.629.621q0,3.25,0,6.5a.573.573,0,0,1-.616.613q-.819,0-1.638,0a.573.573,0,0,1-.611-.617Q-974.285,50.549-974.283,48.92Z" transform="translate(-91.973 -38.747)" fill="#0483c8"/>
    <path id="Path_13" data-name="Path 13" d="M-1021.905,68.728q0-1.2,0-2.4a.6.6,0,0,1,.662-.676q.784,0,1.568,0a.591.591,0,0,1,.645.641q0,2.439,0,4.877a.593.593,0,0,1-.646.64q-.793,0-1.585,0a.586.586,0,0,1-.643-.64C-1021.907,70.36-1021.9,69.544-1021.905,68.728Z" transform="translate(-47.992 -57.766)" fill="#0483c8"/>
    <path id="Path_14" data-name="Path 14" d="M-1066.417,3.7l-.219-.6,3.233.207-2.241,2.405-.261-.665c-.182.071-.357.136-.53.206l-6.5,2.608a1.107,1.107,0,0,1-.213.066c-.289.052-.348.015-.45-.256-.078-.21-.152-.421-.241-.626a.245.245,0,0,1,.082-.333,2.259,2.259,0,0,1,.419-.229q3.393-1.366,6.788-2.725C-1066.509,3.747-1066.469,3.726-1066.417,3.7Z" fill="#0483c8"/>
    <path id="Path_15" data-name="Path 15" d="M-1068.445,86.229c0-.563,0-1.127,0-1.69a.606.606,0,0,1,.686-.689h1.535a.591.591,0,0,1,.654.65c0,.6,0,1.2,0,1.794q0,.828,0,1.656a.593.593,0,0,1-.666.67h-1.552a.6.6,0,0,1-.655-.665q0-.862,0-1.725Z" transform="translate(-5.011 -74.569)" fill="#0483c8"/>
    <path id="Path_16" data-name="Path 16" d="M-1067.623,151.376q-2.526,0-5.053,0a.394.394,0,0,1-.435-.481.378.378,0,0,1,.359-.352c.028,0,.057,0,.086,0q5.036,0,10.071,0a.422.422,0,0,1,.467.427.386.386,0,0,1-.407.412c-.69,0-1.38,0-2.069,0h-3.018Z" transform="translate(-0.7 -136.156)" fill="#0483c8"/>
  </g>
</svg>
