<?xml version="1.0" encoding="utf-8"?>
<!-- Generator: Adobe Illustrator 22.1.0, SVG Export Plug-In . SVG Version: 6.00 Build 0)  -->
<svg version="1.1" id="Layer_1" xmlns="http://www.w3.org/2000/svg" xmlns:xlink="http://www.w3.org/1999/xlink" x="0px" y="0px"
	 viewBox="0 0 810.3 855.4" style="enable-background:new 0 0 810.3 855.4;" xml:space="preserve">
<style type="text/css">
	.st0{font-family:'MyriadPro-Regular';}
	.st1{font-size:12px;}
</style>
<g>
	<g>
		<path d="M465,373.2c-0.7-0.7-1.6-1-2.7-1h-19.8c-1.3-6.4-3.8-12-7.4-16.7H462c1.1,0,2-0.3,2.7-1s1-1.6,1-2.7V340
			c0-1.1-0.3-2-1-2.7s-1.6-1-2.7-1h-96.2c-1.1,0-2,0.3-2.7,1s-1,1.6-1,2.7v15.4c0,1,0.4,1.9,1.1,2.6s1.6,1.1,2.6,1.1h16.8
			c16.3,0,26.6,4.4,31,13.1h-47.8c-1.1,0-2,0.3-2.7,1s-1,1.6-1,2.7v11.8c0,1.1,0.3,2,1,2.7s1.6,1,2.7,1h49.4
			c-1.7,6.3-5.6,11.1-11.9,14.5c-6.2,3.3-14.4,5-24.6,5h-13c-1,0-1.9,0.4-2.6,1.1s-1.1,1.6-1.1,2.6v14.7c0,1,0.3,1.9,1,2.5
			c14.8,15.7,34,37.7,57.6,66c0.7,0.9,1.7,1.4,2.9,1.4h22.6c1.6,0,2.7-0.7,3.4-2.1c0.8-1.4,0.6-2.7-0.5-3.9
			c-22.5-27.6-40.2-48.3-53.1-62c13.1-1.5,23.8-5.8,31.9-12.7c8.2-6.9,13.1-16,14.9-27.1h19.4c1.1,0,2-0.3,2.7-1s1-1.6,1-2.7v-11.8
			C466.1,374.8,465.7,373.9,465,373.2z"/>
	</g>
	<path d="M507.2,140.3h-204c-7.2,0-13-5.8-13-13l0,0c0-7.2,5.8-13,13-13h204c7.2,0,13,5.8,13,13l0,0
		C520.2,134.5,514.4,140.3,507.2,140.3z"/>
	<path d="M322.3,301.3l-61.5-61.5c-5.1-5.1-5.1-13.3,0-18.4l0,0c5.1-5.1,13.3-5.1,18.4,0l61.5,61.5c5.1,5.1,5.1,13.3,0,18.4l0,0
		C335.6,306.3,327.3,306.3,322.3,301.3z"/>
	<path d="M495.7,282.9l61.5-61.5c5.1-5.1,13.3-5.1,18.4,0l0,0c5.1,5.1,5.1,13.3,0,18.4l-61.5,61.5c-5.1,5.1-13.3,5.1-18.4,0l0,0
		C490.7,296.2,490.7,287.9,495.7,282.9z"/>
	<path d="M246.7,579.9l61.5-61.5c5.1-5.1,13.3-5.1,18.4,0l0,0c5.1,5.1,5.1,13.3,0,18.4l-61.5,61.5c-5.1,5.1-13.3,5.1-18.4,0l0,0
		C241.7,593.2,241.7,584.9,246.7,579.9z"/>
	<path d="M572.3,598.3l-61.5-61.5c-5.1-5.1-5.1-13.3,0-18.4l0,0c5.1-5.1,13.3-5.1,18.4,0l61.5,61.5c5.1,5.1,5.1,13.3,0,18.4l0,0
		C585.6,603.3,577.3,603.3,572.3,598.3z"/>
	<path d="M492.2,711.3h-204c-7.2,0-13-5.8-13-13l0,0c0-7.2,5.8-13,13-13h204c7.2,0,13,5.8,13,13l0,0
		C505.2,705.5,499.4,711.3,492.2,711.3z"/>
	<path d="M138.2,520V316c0-7.2-5.8-13-13-13l0,0c-7.2,0-13,5.8-13,13v204c0,7.2,5.8,13,13,13l0,0C132.4,533,138.2,527.2,138.2,520z"
		/>
	<path d="M699.2,520V316c0-7.2-5.8-13-13-13l0,0c-7.2,0-13,5.8-13,13v204c0,7.2,5.8,13,13,13l0,0C693.4,533,699.2,527.2,699.2,520z"
		/>
	<path d="M579.2,182.3v-100c0-7.2,5.8-13,13-13l0,0c7.2,0,13,5.8,13,13v100c0,7.2-5.8,13-13,13l0,0
		C585,195.3,579.2,189.5,579.2,182.3z"/>
	<path d="M599.4,173.3l100.9,69.4c5.9,4.1,7.4,12.2,3.3,18.1l0,0c-4.1,5.9-12.2,7.4-18.1,3.3l-100.9-69.4
		c-5.9-4.1-7.4-12.2-3.3-18.1l0,0C585.4,170.7,593.4,169.2,599.4,173.3z"/>
	<path d="M685.5,2.3L584.6,71.7c-5.9,4.1-7.4,12.2-3.3,18.1l0,0c4.1,5.9,12.2,7.4,18.1,3.3l100.9-69.4c5.9-4.1,7.4-12.2,3.3-18.1
		l0,0C699.5-0.3,691.4-1.8,685.5,2.3z"/>
	<path d="M703.4,2.3l100.9,69.4c5.9,4.1,7.4,12.2,3.3,18.1l0,0c-4.1,5.9-12.2,7.4-18.1,3.3L688.6,23.7c-5.9-4.1-7.4-12.2-3.3-18.1
		l0,0C689.4-0.3,697.4-1.8,703.4,2.3z"/>
	<path d="M599.4,71.3l100.9,69.4c5.9,4.1,7.4,12.2,3.3,18.1l0,0c-4.1,5.9-12.2,7.4-18.1,3.3L584.6,92.7c-5.9-4.1-7.4-12.2-3.3-18.1
		l0,0C585.4,68.7,593.4,67.2,599.4,71.3z"/>
	<path d="M789.4,177.2l-103.8,65c-6.1,3.8-7.9,11.8-4.1,17.9l0,0c3.8,6.1,11.8,7.9,17.9,4.1l103.8-65c6.1-3.8,7.9-11.8,4.1-17.9l0,0
		C803.5,175.2,795.5,173.3,789.4,177.2z"/>
	<path d="M790.4,71.2l-103.8,65c-6.1,3.8-7.9,11.8-4.1,17.9l0,0c3.8,6.1,11.8,7.9,17.9,4.1l103.8-65c6.1-3.8,7.9-11.8,4.1-17.9l0,0
		C804.5,69.2,796.5,67.3,790.4,71.2z"/>
	<path d="M783.2,182.3v-100c0-7.2,5.8-13,13-13l0,0c7.2,0,13,5.8,13,13v100c0,7.2-5.8,13-13,13l0,0
		C789,195.3,783.2,189.5,783.2,182.3z"/>
	<path d="M679.2,252.3v-100c0-7.2,5.8-13,13-13l0,0c7.2,0,13,5.8,13,13v100c0,7.2-5.8,13-13,13l0,0
		C685,265.3,679.2,259.5,679.2,252.3z"/>
	<path d="M0.2,770.3v-100c0-7.2,5.8-13,13-13l0,0c7.2,0,13,5.8,13,13v100c0,7.2-5.8,13-13,13l0,0C6,783.3,0.2,777.5,0.2,770.3z"/>
	<path d="M20.4,762.3l100.9,69.4c5.9,4.1,7.4,12.2,3.3,18.1l0,0c-4.1,5.9-12.2,7.4-18.1,3.3L5.6,783.7c-5.9-4.1-7.4-12.2-3.3-18.1
		l0,0C6.4,759.7,14.4,758.2,20.4,762.3z"/>
	<path d="M106.5,590.3L5.6,659.7c-5.9,4.1-7.4,12.2-3.3,18.1l0,0c4.1,5.9,12.2,7.4,18.1,3.3l100.9-69.4c5.9-4.1,7.4-12.2,3.3-18.1
		l0,0C120.5,587.7,112.4,586.2,106.5,590.3z"/>
	<path d="M124.4,589.3l100.9,69.4c5.9,4.1,7.4,12.2,3.3,18.1l0,0c-4.1,5.9-12.2,7.4-18.1,3.3l-100.9-69.4
		c-5.9-4.1-7.4-12.2-3.3-18.1l0,0C110.4,586.7,118.4,585.2,124.4,589.3z"/>
	<path d="M20.4,659.3l100.9,69.4c5.9,4.1,7.4,12.2,3.3,18.1l0,0c-4.1,5.9-12.2,7.4-18.1,3.3L5.6,680.7c-5.9-4.1-7.4-12.2-3.3-18.1
		l0,0C6.4,656.7,14.4,655.2,20.4,659.3z"/>
	<path d="M210.4,766.2l-103.8,65c-6.1,3.8-7.9,11.8-4.1,17.9l0,0c3.8,6.1,11.8,7.9,17.9,4.1l103.8-65c6.1-3.8,7.9-11.8,4.1-17.9l0,0
		C224.5,764.2,216.5,762.3,210.4,766.2z"/>
	<path d="M211.4,659.2l-103.8,65c-6.1,3.8-7.9,11.8-4.1,17.9l0,0c3.8,6.1,11.8,7.9,17.9,4.1l103.8-65c6.1-3.8,7.9-11.8,4.1-17.9l0,0
		C225.5,657.2,217.5,655.3,211.4,659.2z"/>
	<path d="M205.2,770.3v-100c0-7.2,5.8-13,13-13l0,0c7.2,0,13,5.8,13,13v100c0,7.2-5.8,13-13,13l0,0
		C211,783.3,205.2,777.5,205.2,770.3z"/>
	<path d="M100.2,841.3v-100c0-7.2,5.8-13,13-13l0,0c7.2,0,13,5.8,13,13v100c0,7.2-5.8,13-13,13l0,0
		C106,854.3,100.2,848.5,100.2,841.3z"/>
	<path d="M567.2,769.3v-100c0-7.2,5.8-13,13-13l0,0c7.2,0,13,5.8,13,13v100c0,7.2-5.8,13-13,13l0,0
		C573,782.3,567.2,776.5,567.2,769.3z"/>
	<path d="M587.4,761.3l100.9,69.4c5.9,4.1,7.4,12.2,3.3,18.1l0,0c-4.1,5.9-12.2,7.4-18.1,3.3l-100.9-69.4
		c-5.9-4.1-7.4-12.2-3.3-18.1l0,0C573.4,758.7,581.4,757.2,587.4,761.3z"/>
	<path d="M673.5,589.3l-100.9,69.4c-5.9,4.1-7.4,12.2-3.3,18.1l0,0c4.1,5.9,12.2,7.4,18.1,3.3l100.9-69.4c5.9-4.1,7.4-12.2,3.3-18.1
		l0,0C687.5,586.7,679.4,585.2,673.5,589.3z"/>
	<path d="M691.4,589.3l100.9,69.4c5.9,4.1,7.4,12.2,3.3,18.1l0,0c-4.1,5.9-12.2,7.4-18.1,3.3l-100.9-69.4
		c-5.9-4.1-7.4-12.2-3.3-18.1l0,0C677.4,586.7,685.4,585.2,691.4,589.3z"/>
	<path d="M587.4,658.3l100.9,69.4c5.9,4.1,7.4,12.2,3.3,18.1l0,0c-4.1,5.9-12.2,7.4-18.1,3.3l-100.9-69.4
		c-5.9-4.1-7.4-12.2-3.3-18.1l0,0C573.4,655.7,581.4,654.2,587.4,658.3z"/>
	<path d="M777.4,765.2l-60.6,37.9c-6.1,3.8-7.9,11.8-4.1,17.9l0,0c3.8,6.1,11.8,7.9,17.9,4.1l60.6-37.9c6.1-3.8,7.9-11.8,4.1-17.9
		l0,0C791.5,763.2,783.5,761.3,777.4,765.2z"/>
	<path d="M778.4,658.2l-103.8,65c-6.1,3.8-7.9,11.8-4.1,17.9l0,0c3.8,6.1,11.8,7.9,17.9,4.1l103.8-65c6.1-3.8,7.9-11.8,4.1-17.9l0,0
		C792.5,656.2,784.5,654.3,778.4,658.2z"/>
	<path d="M771.2,769.3v-100c0-7.2,5.8-13,13-13l0,0c7.2,0,13,5.8,13,13v100c0,7.2-5.8,13-13,13l0,0
		C777,782.3,771.2,776.5,771.2,769.3z"/>
	<path d="M668.2,841.3v-100c0-7.2,5.8-13,13-13l0,0c7.2,0,13,5.8,13,13v100c0,7.2-5.8,13-13,13l0,0
		C674,854.3,668.2,848.5,668.2,841.3z"/>
	<path d="M17.2,182.3v-100c0-7.2,5.8-13,13-13l0,0c7.2,0,13,5.8,13,13v100c0,7.2-5.8,13-13,13l0,0C23,195.3,17.2,189.5,17.2,182.3z"
		/>
	<path d="M37.4,174.3l100.9,69.4c5.9,4.1,7.4,12.2,3.3,18.1l0,0c-4.1,5.9-12.2,7.4-18.1,3.3L22.6,195.7c-5.9-4.1-7.4-12.2-3.3-18.1
		l0,0C23.4,171.7,31.4,170.2,37.4,174.3z"/>
	<path d="M123.5,2.3L22.6,71.7c-5.9,4.1-7.4,12.2-3.3,18.1l0,0c4.1,5.9,12.2,7.4,18.1,3.3l100.9-69.4c5.9-4.1,7.4-12.2,3.3-18.1l0,0
		C137.5-0.3,129.4-1.8,123.5,2.3z"/>
	<path d="M141.4,2.3l100.9,69.4c5.9,4.1,7.4,12.2,3.3,18.1l0,0c-4.1,5.9-12.2,7.4-18.1,3.3L126.6,23.7c-5.9-4.1-7.4-12.2-3.3-18.1
		l0,0C127.4-0.3,135.4-1.8,141.4,2.3z"/>
	<path d="M37.4,71.3l102.3,70.3c5.9,4.1,7.4,12.2,3.3,18.1l0,0c-4.1,5.9-12.2,7.4-18.1,3.3L22.6,92.7c-5.9-4.1-7.4-12.2-3.3-18.1
		l0,0C23.4,68.7,31.4,67.2,37.4,71.3z"/>
	<path d="M227.4,178.2l-60.6,37.9c-6.1,3.8-7.9,11.8-4.1,17.9l0,0c3.8,6.1,11.8,7.9,17.9,4.1l60.6-37.9c6.1-3.8,7.9-11.8,4.1-17.9
		l0,0C241.5,176.2,233.5,174.3,227.4,178.2z"/>
	<path d="M228.4,71.2l-106.5,66.7c-6.1,3.8-7.9,11.8-4.1,17.9l0,0c3.8,6.1,11.8,7.9,17.9,4.1l106.5-66.7c6.1-3.8,7.9-11.8,4.1-17.9
		l0,0C242.5,69.2,234.5,67.3,228.4,71.2z"/>
	<path d="M221.2,182.3v-100c0-7.2,5.8-13,13-13l0,0c7.2,0,13,5.8,13,13v100c0,7.2-5.8,13-13,13l0,0
		C227,195.3,221.2,189.5,221.2,182.3z"/>
	<path d="M118.2,254.3v-108c0-7.2,5.8-13,13-13l0,0c7.2,0,13,5.8,13,13v108c0,7.2-5.8,13-13,13l0,0
		C124,267.3,118.2,261.5,118.2,254.3z"/>
	<text transform="matrix(1 0 0 1 330.8073 367.4067)" class="st0 st1"> </text>
</g>
</svg>
