<svg xmlns="http://www.w3.org/2000/svg" width="166.634" height="176.354" viewBox="0 0 166.634 176.354">
  <g id="education" transform="translate(-161.744 -75.373)">
    <path id="Path_196" data-name="Path 196" d="M230.084,55.487V201.273c0,8.407-8.213,15.284-18.253,15.284H81.7c-10.039,0-18.253-6.878-18.253-15.284V55.487C63.45,47.081,71.663,40.2,81.7,40.2H211.832c10.039,0,18.253,6.878,18.253,15.284Z" transform="translate(98.294 35.17)"/>
    <path id="Path_197" data-name="Path 197" d="M198.831,48.557H78.274c-5.767,0-10.442,3.779-10.442,8.441V84.2c0,4.662,4.675,8.441,10.442,8.441H198.831c5.767,0,10.442-3.779,10.442-8.441V57C209.272,52.336,204.6,48.557,198.831,48.557Z" transform="translate(106.506 50.826)" fill="#baee83"/>
    <path id="Path_198" data-name="Path 198" d="M97.65,67.4H73.407a4.943,4.943,0,0,0-4.943,4.943V96.589a4.943,4.943,0,0,0,4.943,4.943H97.65a4.943,4.943,0,0,0,4.943-4.943V72.343A4.943,4.943,0,0,0,97.65,67.4Z" transform="translate(107.69 86.139)" fill="#baee83"/>
    <path id="Path_199" data-name="Path 199" d="M111.507,67.4H87.264a4.943,4.943,0,0,0-4.943,4.943V96.589a4.943,4.943,0,0,0,4.943,4.943h24.243a4.943,4.943,0,0,0,4.943-4.943V72.343A4.943,4.943,0,0,0,111.507,67.4Z" transform="translate(147.603 86.139)" fill="#baee83"/>
    <path id="Path_200" data-name="Path 200" d="M97.65,81.852H73.407A4.943,4.943,0,0,0,68.464,86.8v24.243a4.943,4.943,0,0,0,4.943,4.943H97.65a4.943,4.943,0,0,0,4.943-4.943V86.8A4.943,4.943,0,0,0,97.65,81.852Z" transform="translate(107.69 113.222)" fill="#baee83"/>
    <path id="Path_201" data-name="Path 201" d="M111.507,81.852H87.264A4.943,4.943,0,0,0,82.321,86.8v24.243a4.943,4.943,0,0,0,4.943,4.943h24.243a4.943,4.943,0,0,0,4.943-4.943V86.8A4.943,4.943,0,0,0,111.507,81.852Z" transform="translate(147.603 113.222)" fill="#baee83"/>
    <path id="Path_202" data-name="Path 202" d="M123.021,67.39H100.753a4.984,4.984,0,0,0-4.984,4.984V138.14a4.982,4.982,0,0,0,4.984,4.984h22.268A4.984,4.984,0,0,0,128,138.14V72.374a4.986,4.986,0,0,0-4.984-4.984Z" transform="translate(185.96 86.12)" fill="#baee83"/>
  </g>
</svg>
